<svg width="20" height="20" viewBox="0 0 20 20" fill="none" xmlns="http://www.w3.org/2000/svg">
<g clip-path="url(#clip0_2262_29340)">
<path d="M18.7421 8.09959C18.3203 7.67781 17.7599 7.44592 17.1632 7.44592H12.9742C12.7032 7.44592 12.4488 7.55813 12.2705 7.75377C12.0915 7.94998 12.0035 8.2141 12.0288 8.47879C12.0587 8.71528 12.1767 8.93509 12.3597 9.0939C12.5426 9.25214 12.7768 9.33615 13.0225 9.33327H16.1729L8.11773 17.3884C7.88008 17.6261 7.78629 17.9759 7.87318 18.3005C7.96006 18.6256 8.21612 18.8811 8.54065 18.9685C8.86576 19.056 9.21504 18.9622 9.45268 18.724L17.5079 10.6688V13.8675C17.5067 14.1351 17.6189 14.3917 17.8157 14.5712C18.0131 14.7508 18.2783 14.8388 18.5436 14.8129C18.7807 14.7818 18.9982 14.6639 19.1558 14.482C19.3152 14.2979 19.4004 14.0626 19.3952 13.8197V9.67852C19.3952 9.08239 19.1627 8.52194 18.741 8.10017L18.7421 8.09959Z" fill="white"/>
<path d="M7.78801 10.9068C7.60388 10.7475 7.36796 10.6634 7.12571 10.6675H3.97534L12.0305 2.6123C12.2089 2.43392 12.3073 2.19685 12.3073 1.94425C12.3073 1.69164 12.2089 1.45515 12.0305 1.27677C11.855 1.1007 11.611 1 11.3625 1C11.1139 1 10.8734 1.0984 10.695 1.27677L2.63981 9.33252V6.13382C2.64096 5.86625 2.52875 5.60962 2.33196 5.43009C2.15761 5.27127 1.92975 5.18381 1.69556 5.18381C1.66506 5.18381 1.63457 5.18554 1.60407 5.18842C1.36758 5.21949 1.1495 5.33745 0.991833 5.51928C0.832444 5.70283 0.747283 5.93818 0.751886 6.18157V10.3228C0.751886 10.9189 0.984352 11.4794 1.40613 11.9012C1.8279 12.3229 2.38835 12.5548 2.98506 12.5548H7.17405C7.43931 12.5577 7.69594 12.4461 7.87777 12.247C8.05673 12.0508 8.14476 11.7867 8.11945 11.522C8.08952 11.2855 7.97157 11.0657 7.78858 10.9068H7.78801Z" fill="white"/>
</g>
<defs>
<clipPath id="clip0_2262_29340">
<rect width="18.6445" height="18" fill="white" transform="translate(0.751953 1)"/>
</clipPath>
</defs>
</svg>
