<svg width="17" height="17" viewBox="0 0 17 17" fill="none" xmlns="http://www.w3.org/2000/svg">
<path d="M8.4966 1.34015C7.46936 1.34015 6.48427 1.7482 5.75804 2.47453C5.03171 3.20086 4.62366 4.18606 4.62366 5.21309V7.3648H4.19329C3.73672 7.3648 3.29895 7.54621 2.97614 7.86902C2.65326 8.19182 2.47192 8.62967 2.47192 9.08627V13.3897C2.47192 13.8461 2.65323 14.284 2.97614 14.6068C3.29895 14.9296 3.73669 15.111 4.19329 15.111H12.8001C13.2567 15.111 13.6945 14.9296 14.0173 14.6068C14.3401 14.284 14.5215 13.8462 14.5215 13.3897V9.08627C14.5215 8.62969 14.3402 8.19182 14.0173 7.86902C13.6945 7.54621 13.2567 7.3648 12.8001 7.3648H12.3697V5.21309C12.3697 4.18596 11.9617 3.20076 11.2354 2.47453C10.509 1.7482 9.52394 1.34015 8.4968 1.34015H8.4966ZM10.2179 7.36493H6.77521V5.21322C6.77521 4.59824 7.10332 4.03001 7.63584 3.72252C8.16846 3.41503 8.82466 3.41503 9.35728 3.72252C9.8898 4.03001 10.2179 4.59827 10.2179 5.21322L10.2179 7.36493Z" fill="#9D5CFF"/>
</svg>
