<svg width="25" height="24" viewBox="0 0 25 24" fill="none" xmlns="http://www.w3.org/2000/svg">
<g clip-path="url(#clip0_3109_44558)">
<path d="M19.4798 10.4888C19.1445 10.1535 18.6989 9.96912 18.2245 9.96912H14.8943C14.6789 9.96912 14.4767 10.0583 14.3349 10.2139C14.1926 10.3698 14.1226 10.5798 14.1427 10.7902C14.1665 10.9782 14.2603 11.153 14.4058 11.2792C14.5512 11.405 14.7374 11.4718 14.9327 11.4695H17.4373L11.0335 17.8733C10.8445 18.0623 10.77 18.3404 10.8391 18.5984C10.9081 18.8569 11.1117 19.06 11.3697 19.1295C11.6282 19.199 11.9058 19.1245 12.0947 18.9351L18.4985 12.5313V15.0742C18.4976 15.2869 18.5868 15.491 18.7433 15.6337C18.9002 15.7764 19.1111 15.8464 19.322 15.8258C19.5104 15.8011 19.6833 15.7073 19.8087 15.5628C19.9354 15.4164 20.0031 15.2293 19.999 15.0363V11.744C19.999 11.2701 19.8142 10.8245 19.4789 10.4892L19.4798 10.4888Z" fill="#9F9DA3"/>
<path d="M10.7713 12.7208C10.6249 12.5941 10.4374 12.5273 10.2448 12.5305H7.74025L14.144 6.12674C14.2859 5.98493 14.3641 5.79646 14.3641 5.59564C14.3641 5.39482 14.2859 5.20681 14.144 5.065C14.0045 4.92502 13.8106 4.84497 13.613 4.84497C13.4153 4.84497 13.2241 4.92319 13.0823 5.065L6.67851 11.4693V8.92631C6.67943 8.7136 6.59023 8.50958 6.43378 8.36685C6.29517 8.2406 6.11402 8.17107 5.92784 8.17107C5.9036 8.17107 5.87935 8.17244 5.85511 8.17473C5.6671 8.19943 5.49373 8.29321 5.36839 8.43776C5.24167 8.58368 5.17397 8.77078 5.17763 8.96428V12.2565C5.17763 12.7304 5.36244 13.176 5.69775 13.5113C6.03306 13.8466 6.47861 14.031 6.95298 14.031H10.2832C10.4941 14.0332 10.6981 13.9445 10.8427 13.7862C10.9849 13.6302 11.0549 13.4203 11.0348 13.2098C11.011 13.0218 10.9172 12.8471 10.7717 12.7208H10.7713Z" fill="#9F9DA3"/>
</g>
<defs>
<clipPath id="clip0_3109_44558">
<rect width="14.8222" height="14.3099" fill="white" transform="translate(5.17773 4.84497)"/>
</clipPath>
</defs>
</svg>
