<svg width="25" height="24" viewBox="0 0 25 24" fill="none" xmlns="http://www.w3.org/2000/svg">
<g clip-path="url(#clip0_2262_29377)">
<path d="M19.4798 10.4889C19.1445 10.1536 18.6989 9.96924 18.2245 9.96924H14.8943C14.6789 9.96924 14.4767 10.0584 14.3349 10.214C14.1926 10.37 14.1226 10.5799 14.1427 10.7904C14.1665 10.9784 14.2603 11.1531 14.4058 11.2794C14.5512 11.4052 14.7374 11.472 14.9327 11.4697H17.4373L11.0335 17.8735C10.8445 18.0624 10.77 18.3405 10.8391 18.5985C10.9081 18.857 11.1117 19.0601 11.3697 19.1296C11.6282 19.1991 11.9058 19.1246 12.0947 18.9352L18.4985 12.5314V15.0743C18.4976 15.2871 18.5868 15.4911 18.7433 15.6338C18.9002 15.7765 19.1111 15.8465 19.322 15.8259C19.5104 15.8012 19.6833 15.7075 19.8087 15.5629C19.9354 15.4165 20.0031 15.2294 19.999 15.0364V11.7441C19.999 11.2702 19.8142 10.8247 19.4789 10.4894L19.4798 10.4889Z" fill="#9D5CFF"/>
<path d="M10.7713 12.7209C10.6249 12.5942 10.4374 12.5274 10.2448 12.5306H7.74025L14.144 6.1268C14.2859 5.98499 14.3641 5.79652 14.3641 5.5957C14.3641 5.39488 14.2859 5.20687 14.144 5.06506C14.0045 4.92508 13.8106 4.84503 13.613 4.84503C13.4153 4.84503 13.2241 4.92326 13.0823 5.06506L6.67851 11.4693V8.92637C6.67943 8.71366 6.59023 8.50964 6.43378 8.36692C6.29517 8.24066 6.11402 8.17113 5.92784 8.17113C5.9036 8.17113 5.87935 8.1725 5.85511 8.17479C5.6671 8.19949 5.49373 8.29327 5.36839 8.43782C5.24167 8.58375 5.17397 8.77084 5.17763 8.96434V12.2566C5.17763 12.7305 5.36244 13.1761 5.69775 13.5114C6.03306 13.8467 6.47861 14.031 6.95298 14.031H10.2832C10.4941 14.0333 10.6981 13.9446 10.8427 13.7863C10.9849 13.6303 11.0549 13.4203 11.0348 13.2099C11.011 13.0219 10.9172 12.8472 10.7717 12.7209H10.7713Z" fill="#9D5CFF"/>
</g>
<defs>
<clipPath id="clip0_2262_29377">
<rect width="14.8222" height="14.3099" fill="white" transform="translate(5.17773 4.84503)"/>
</clipPath>
</defs>
</svg>
