<svg width="24" height="24" viewBox="0 0 24 24" fill="none" xmlns="http://www.w3.org/2000/svg">
<path d="M7.02765 4.55835C8.49947 3.57491 10.2299 3.05 12 3.05C13.1753 3.05 14.3392 3.2815 15.425 3.73128C16.5109 4.18106 17.4975 4.84031 18.3286 5.67139C19.1597 6.50248 19.8189 7.48912 20.2687 8.57498C20.7185 9.66085 20.95 10.8247 20.95 12C20.95 13.7701 20.4251 15.5005 19.4417 16.9724C18.4582 18.4442 17.0604 19.5913 15.425 20.2687C13.7896 20.9461 11.9901 21.1234 10.2539 20.778C8.51782 20.4327 6.92308 19.5803 5.6714 18.3286C4.41972 17.0769 3.56731 15.4822 3.22198 13.7461C2.87664 12.0099 3.05388 10.2104 3.73128 8.57498C4.40869 6.93958 5.55583 5.54179 7.02765 4.55835Z" stroke="#282230" stroke-width="2.1"/>
<path d="M10.4095 13.0407L14.6995 8.74074C14.8869 8.55449 15.1404 8.44995 15.4045 8.44995C15.6687 8.44995 15.9222 8.55449 16.1095 8.74074C16.2033 8.83371 16.2777 8.94431 16.3284 9.06617C16.3792 9.18803 16.4053 9.31873 16.4053 9.45074C16.4053 9.58276 16.3792 9.71346 16.3284 9.83532C16.2777 9.95718 16.2033 10.0678 16.1095 10.1607L11.1095 15.1607C10.9233 15.3455 10.6719 15.4496 10.4095 15.4507C10.2779 15.4515 10.1475 15.4263 10.0256 15.3765C9.9038 15.3267 9.79298 15.2534 9.69954 15.1607L7.34954 12.8007C7.24486 12.7111 7.15984 12.6008 7.09982 12.4767C7.03979 12.3526 7.00606 12.2175 7.00075 12.0798C6.99543 11.9421 7.01863 11.8047 7.06891 11.6764C7.11918 11.5481 7.19544 11.4315 7.29289 11.3341C7.39035 11.2366 7.5069 11.1604 7.63522 11.1101C7.76355 11.0598 7.90088 11.0366 8.0386 11.0419C8.17632 11.0473 8.31145 11.081 8.43551 11.141C8.55958 11.201 8.6699 11.2861 8.75954 11.3907L10.4095 13.0407Z" fill="#282230"/>
</svg>
