<svg width="24" height="24" viewBox="0 0 24 24" fill="none" xmlns="http://www.w3.org/2000/svg">
<path d="M12 2C10.0222 2 8.08879 2.58649 6.4443 3.6853C4.79981 4.78412 3.51809 6.3459 2.76121 8.17317C2.00433 10.0004 1.8063 12.0111 2.19215 13.9509C2.578 15.8907 3.53041 17.6725 4.92894 19.0711C6.32746 20.4696 8.10929 21.422 10.0491 21.8079C11.9889 22.1937 13.9996 21.9957 15.8268 21.2388C17.6541 20.4819 19.2159 19.2002 20.3147 17.5557C21.4135 15.9112 22 13.9778 22 12C22 10.6868 21.7413 9.38642 21.2388 8.17317C20.7363 6.95991 19.9997 5.85752 19.0711 4.92893C18.1425 4.00035 17.0401 3.26375 15.8268 2.7612C14.6136 2.25866 13.3132 2 12 2Z" fill="#9D5CFF"/>
<path d="M10.4095 13.5908L14.6995 9.29079C14.8869 9.10454 15.1404 9 15.4045 9C15.6687 9 15.9222 9.10454 16.1095 9.29079C16.2033 9.38376 16.2777 9.49436 16.3284 9.61622C16.3792 9.73807 16.4053 9.86878 16.4053 10.0008C16.4053 10.1328 16.3792 10.2635 16.3284 10.3854C16.2777 10.5072 16.2033 10.6178 16.1095 10.7108L11.1095 15.7108C10.9233 15.8955 10.6719 15.9997 10.4095 16.0008C10.2779 16.0016 10.1475 15.9763 10.0256 15.9266C9.9038 15.8768 9.79298 15.8035 9.69954 15.7108L7.34954 13.3508C7.24486 13.2611 7.15984 13.1508 7.09982 13.0268C7.03979 12.9027 7.00606 12.7676 7.00075 12.6298C6.99543 12.4921 7.01863 12.3548 7.06891 12.2265C7.11918 12.0981 7.19544 11.9816 7.29289 11.8841C7.39035 11.7867 7.5069 11.7104 7.63522 11.6602C7.76355 11.6099 7.90088 11.5867 8.0386 11.592C8.17632 11.5973 8.31145 11.631 8.43551 11.6911C8.55958 11.7511 8.6699 11.8361 8.75954 11.9408L10.4095 13.5908Z" fill="#9D5CFF"/>
<path d="M10.4095 13.0407L14.6995 8.74074C14.8869 8.55449 15.1404 8.44995 15.4045 8.44995C15.6687 8.44995 15.9222 8.55449 16.1095 8.74074C16.2033 8.83371 16.2777 8.94431 16.3284 9.06617C16.3792 9.18803 16.4053 9.31873 16.4053 9.45074C16.4053 9.58276 16.3792 9.71346 16.3284 9.83532C16.2777 9.95718 16.2033 10.0678 16.1095 10.1607L11.1095 15.1607C10.9233 15.3455 10.6719 15.4496 10.4095 15.4507C10.2779 15.4515 10.1475 15.4263 10.0256 15.3765C9.9038 15.3267 9.79298 15.2534 9.69954 15.1607L7.34954 12.8007C7.24486 12.7111 7.15984 12.6008 7.09982 12.4767C7.03979 12.3526 7.00606 12.2175 7.00075 12.0798C6.99543 11.9421 7.01863 11.8047 7.06891 11.6764C7.11918 11.5481 7.19544 11.4315 7.29289 11.3341C7.39035 11.2366 7.5069 11.1604 7.63522 11.1101C7.76355 11.0598 7.90088 11.0366 8.0386 11.0419C8.17632 11.0473 8.31145 11.081 8.43551 11.141C8.55958 11.201 8.6699 11.2861 8.75954 11.3907L10.4095 13.0407Z" fill="white"/>
</svg>
