<svg width="18" height="18" viewBox="0 0 18 18" fill="none" xmlns="http://www.w3.org/2000/svg">
<g clip-path="url(#clip0_3556_53953)">
<path d="M8.97141 17.9768C13.9262 17.9768 17.9428 13.9601 17.9428 9.00535C17.9428 4.05057 13.9262 0.0339355 8.97141 0.0339355C4.01664 0.0339355 0 4.05057 0 9.00535C0 13.9601 4.01664 17.9768 8.97141 17.9768Z" fill="#F0F0F0"/>
<path d="M9.02762 1.76093V1.76816C9.03484 1.80428 9.03484 1.84763 9.03484 1.89098V7.10017C9.02762 7.12907 9.00594 7.1363 8.98427 7.15075C8.83255 7.223 8.68805 7.28802 8.53632 7.35305C8.3268 7.44697 8.11005 7.54812 7.90053 7.64204L7.14191 7.98884C6.93238 8.08277 6.72286 8.17669 6.52056 8.27061C6.27491 8.38621 6.02204 8.49459 5.77639 8.61019C5.56687 8.70411 5.35734 8.80526 5.1406 8.89919C4.9672 8.97866 4.7938 9.05091 4.62762 9.13038C4.61317 9.13761 4.59872 9.14483 4.58427 9.14483C4.57705 9.14483 4.57705 9.14483 4.56982 9.13761L4.7649 8.81249C5.1406 8.19114 5.50907 7.57702 5.88477 6.95567C6.28214 6.29098 6.68674 5.62628 7.08411 4.96159C7.45258 4.34747 7.82828 3.73334 8.19675 3.11922C8.46407 2.67128 8.73862 2.22333 9.00594 1.77538C9.01317 1.76093 9.02039 1.75371 9.02039 1.73926H9.02762C9.02039 1.74648 9.02762 1.75371 9.02762 1.76093Z" fill="#8A92B2"/>
<path d="M13.4926 9.33375L13.4998 9.34097L12.4377 9.96954L9.09979 11.942C9.08534 11.9492 9.07089 11.9564 9.06367 11.9636C9.04199 11.9636 9.04199 11.942 9.04199 11.9347V11.8697V7.40469C9.04199 7.38301 9.04199 7.35411 9.04922 7.33244C9.05644 7.30354 9.07812 7.31076 9.09979 7.31799C9.19372 7.36134 9.29487 7.40469 9.38879 7.44803C9.67056 7.57808 9.95234 7.70813 10.2341 7.83096C10.4798 7.93933 10.7182 8.05493 10.9638 8.1633C11.2095 8.27168 11.4551 8.38728 11.7008 8.49565C11.9103 8.58958 12.127 8.69073 12.3366 8.78465C12.5461 8.87857 12.7628 8.97972 12.9724 9.07365C13.1385 9.1459 13.3047 9.22537 13.4709 9.29762C13.4709 9.3193 13.4781 9.32652 13.4926 9.33375Z" fill="#454A75"/>
<path d="M9.02738 16.3973C9.02738 16.4045 9.02015 16.4117 9.02015 16.419H9.01293C9.01293 16.4045 8.99848 16.3973 8.99125 16.3828C8.5433 15.7543 8.09536 15.1185 7.64741 14.4899C7.19224 13.8469 6.72984 13.1966 6.27467 12.5536C5.83395 11.9323 5.386 11.3037 4.94528 10.6824C4.82968 10.5162 4.71408 10.3572 4.59848 10.1911C4.59125 10.1766 4.58403 10.1694 4.56958 10.1477C4.59125 10.1477 4.6057 10.1622 4.61293 10.1694C5.2415 10.5379 5.86285 10.9063 6.49142 11.2748C7.21391 11.7011 7.92918 12.1273 8.65168 12.5536L9.02015 12.7704C9.0346 12.7848 9.0346 12.7993 9.0346 12.8137V16.2961C9.0346 16.3323 9.0346 16.3684 9.02738 16.3973Z" fill="#8A92B2"/>
<path d="M4.56226 9.34896V9.34173C4.79345 9.24059 5.01743 9.13221 5.24863 9.03106C5.54485 8.89379 5.84107 8.76374 6.1373 8.62646C6.36127 8.52532 6.59247 8.41694 6.81644 8.31579C7.14879 8.16407 7.47391 8.01957 7.80626 7.86784C8.03023 7.7667 8.25421 7.66555 8.4854 7.55717C8.64435 7.48492 8.81053 7.41267 8.96948 7.34042C8.98393 7.3332 9.0056 7.32597 9.01283 7.31152C9.02005 7.31152 9.02005 7.31875 9.01283 7.32597V11.9138C9.01283 11.9355 9.0056 11.9572 9.02005 11.9716C9.0056 11.9933 8.99115 11.9716 8.98393 11.9644C8.9189 11.9283 8.85388 11.8921 8.78885 11.8488C7.39444 11.0251 5.9928 10.1943 4.59838 9.37063C4.59116 9.36341 4.57671 9.35618 4.56226 9.34896Z" fill="#62688F"/>
<path d="M13.4782 10.1304H13.4854C13.4854 10.1448 13.471 10.1593 13.4638 10.1737C12.1344 12.045 10.805 13.9235 9.47559 15.7947C9.33831 15.9898 9.19382 16.1849 9.05654 16.38C9.04932 16.3727 9.04932 16.3655 9.04932 16.3583V16.3149V12.8108V12.7458C9.35276 12.5652 9.64899 12.3918 9.95244 12.2112C11.1229 11.5176 12.2933 10.8312 13.4565 10.1376C13.4638 10.1448 13.471 10.1376 13.4782 10.1304Z" fill="#62688F"/>
<path d="M9.04936 7.12898V7.11453V7.07118V1.82587C9.04936 1.80419 9.04214 1.78974 9.05659 1.76807C10.5233 4.20287 11.9899 6.63046 13.4494 9.06527C13.4638 9.08694 13.4855 9.11584 13.4927 9.14474C13.3916 9.10862 13.2976 9.05804 13.2037 9.01469C13.0881 8.96412 12.9653 8.90632 12.8497 8.85574C12.7774 8.81962 12.698 8.79072 12.6257 8.75459C12.5029 8.69679 12.3801 8.64622 12.2572 8.58842C12.185 8.55952 12.1127 8.5234 12.0405 8.48727L11.5636 8.27052C11.4842 8.2344 11.4047 8.19827 11.318 8.16215L10.9712 8.01042C10.899 7.98152 10.8267 7.9454 10.7545 7.90928L10.2776 7.69253C10.1981 7.6564 10.1187 7.62028 10.032 7.58415L9.68516 7.43243C9.60568 7.3963 9.53343 7.36018 9.45396 7.32405C9.31669 7.25903 9.17941 7.19401 9.03491 7.13621C9.05659 7.12898 9.04936 7.12898 9.04936 7.12898Z" fill="#62688F"/>
</g>
<defs>
<clipPath id="clip0_3556_53953">
<rect width="18" height="18" fill="white"/>
</clipPath>
</defs>
</svg>
