<svg width="25" height="26" viewBox="0 0 25 26" fill="none" xmlns="http://www.w3.org/2000/svg">
<path d="M19.7915 4.66667H17.7082V3.625C17.7082 3.34873 17.5985 3.08378 17.4031 2.88843C17.2078 2.69308 16.9428 2.58333 16.6665 2.58333C16.3903 2.58333 16.1253 2.69308 15.93 2.88843C15.7346 3.08378 15.6249 3.34873 15.6249 3.625V4.66667H9.37487V3.625C9.37487 3.34873 9.26513 3.08378 9.06978 2.88843C8.87443 2.69308 8.60947 2.58333 8.33321 2.58333C8.05694 2.58333 7.79199 2.69308 7.59664 2.88843C7.40129 3.08378 7.29154 3.34873 7.29154 3.625V4.66667H5.20821C4.3794 4.66667 3.58455 4.99591 2.9985 5.58196C2.41245 6.16801 2.08321 6.96286 2.08321 7.79167V20.2917C2.08321 21.1205 2.41245 21.9153 2.9985 22.5014C3.58455 23.0874 4.3794 23.4167 5.20821 23.4167H19.7915C20.6203 23.4167 21.4152 23.0874 22.0012 22.5014C22.5873 21.9153 22.9165 21.1205 22.9165 20.2917V7.79167C22.9165 6.96286 22.5873 6.16801 22.0012 5.58196C21.4152 4.99591 20.6203 4.66667 19.7915 4.66667ZM20.8332 20.2917C20.8332 20.5679 20.7235 20.8329 20.5281 21.0282C20.3328 21.2236 20.0678 21.3333 19.7915 21.3333H5.20821C4.93194 21.3333 4.66699 21.2236 4.47164 21.0282C4.27629 20.8329 4.16654 20.5679 4.16654 20.2917V13H20.8332V20.2917ZM20.8332 10.9167H4.16654V7.79167C4.16654 7.5154 4.27629 7.25045 4.47164 7.0551C4.66699 6.85975 4.93194 6.75 5.20821 6.75H7.29154V7.79167C7.29154 8.06793 7.40129 8.33288 7.59664 8.52824C7.79199 8.72359 8.05694 8.83333 8.33321 8.83333C8.60947 8.83333 8.87443 8.72359 9.06978 8.52824C9.26513 8.33288 9.37487 8.06793 9.37487 7.79167V6.75H15.6249V7.79167C15.6249 8.06793 15.7346 8.33288 15.93 8.52824C16.1253 8.72359 16.3903 8.83333 16.6665 8.83333C16.9428 8.83333 17.2078 8.72359 17.4031 8.52824C17.5985 8.33288 17.7082 8.06793 17.7082 7.79167V6.75H19.7915C20.0678 6.75 20.3328 6.85975 20.5281 7.0551C20.7235 7.25045 20.8332 7.5154 20.8332 7.79167V10.9167Z" fill="#706B75"/>
</svg>
