<svg width="24" height="24" viewBox="0 0 24 24" fill="none" xmlns="http://www.w3.org/2000/svg">
<g clip-path="url(#clip0_710_21088)">
<path d="M21.8807 13.2269H12.7801L18.8409 19.2878C19.0725 19.5194 19.4538 19.5382 19.6919 19.3138C21.1762 17.9155 22.1971 16.0305 22.4966 13.9115C22.548 13.5487 22.247 13.2269 21.8807 13.2269ZM21.2736 10.7417C20.9576 6.16016 17.2965 2.49905 12.7149 2.18303C12.3651 2.15887 12.0706 2.45379 12.0706 2.80433V11.386H20.6527C21.0032 11.386 21.2977 11.0915 21.2736 10.7417ZM10.2297 13.2269V4.12634C10.2297 3.76007 9.90789 3.45901 9.54546 3.5104C4.97502 4.15625 1.48151 8.14911 1.64413 12.9343C1.81134 17.8488 6.04275 21.8788 10.9595 21.8171C12.8925 21.7929 14.6785 21.1701 16.147 20.1284C16.45 19.9137 16.47 19.4676 16.2073 19.2049L10.2297 13.2269Z" fill="#58535E"/>
</g>
<defs>
<clipPath id="clip0_710_21088">
<rect width="20.8636" height="19.6364" fill="white" transform="translate(1.63672 2.18164)"/>
</clipPath>
</defs>
</svg>
