<svg width="16" height="16" viewBox="0 0 16 16" fill="none" xmlns="http://www.w3.org/2000/svg">
<g opacity="0.9">
<path d="M3.14844 5.88601V5.88601C3.64414 5.88601 4.11955 6.08293 4.47007 6.43344L4.60005 6.56343V6.56343C5.65713 7.62051 7.29584 8.02826 8.35293 9.08534L9.18326 9.91568C9.3652 10.1015 9.63617 10.1905 9.92649 10.1208C10.1936 10.055 10.4142 9.83439 10.48 9.56729C10.5497 9.27697 10.4607 9.006 10.2749 8.82407L9.43875 7.98794C8.87359 7.42278 8.56004 6.65633 8.56778 5.85504C8.57165 5.43698 8.93165 5.11182 9.34971 5.11182C10.2981 5.11569 11.1304 5.50665 11.7381 6.15698C11.9394 6.36988 12.0516 6.65633 12.0516 6.95052V8.73116" stroke="#CFCED1" stroke-width="1.05" stroke-miterlimit="10"/>
<path d="M1.98828 2.39941H10.1173C10.605 2.39941 11.0618 2.6278 11.356 3.01877L13.4463 5.80973C13.5431 5.93747 13.6012 6.09618 13.6012 6.27037V9.32069C13.6012 9.54133 13.516 9.75424 13.3689 9.9052" stroke="#CFCED1" stroke-width="1.05" stroke-miterlimit="10" stroke-linecap="round" stroke-linejoin="round"/>
<path d="M10.278 8.82457C10.5814 8.67892 10.9206 8.59521 11.2796 8.59521C11.5506 8.59521 11.8099 8.64167 12.0538 8.7307C12.6306 8.93199 13.1067 9.36166 13.3699 9.90747C13.5209 10.2133 13.6022 10.5539 13.6022 10.9178C13.6022 12.1991 12.5609 13.2404 11.2796 13.2404C9.99832 13.2404 8.95703 12.2005 8.95703 10.9178C8.95703 10.5588 9.04074 10.2196 9.18639 9.91618" stroke="#CFCED1" stroke-width="1.05" stroke-miterlimit="10"/>
</g>
</svg>
