<svg width="20" height="20" viewBox="0 0 20 20" fill="none" xmlns="http://www.w3.org/2000/svg">
<path d="M17.3817 16.4769L17.3602 16.4563H16.2352V8.83026C16.2352 8.62443 16.152 8.43146 15.9989 8.28738C15.8459 8.14073 15.6445 8.06097 15.4297 8.06097H14.7074V7.46406C14.7074 6.93404 14.5034 6.42719 14.1302 6.03611L10.5349 2.25655C10.2369 1.94008 9.72674 1.91178 9.39648 2.19737C9.06623 2.48296 9.03938 2.97181 9.33741 3.29085L12.9488 7.08584C13.0481 7.19133 13.1045 7.32512 13.1045 7.46406V8.06097H8.25535L7.99759 7.57469C7.9063 7.38944 7.73714 7.24279 7.53308 7.1759C7.32902 7.109 7.1008 7.12186 6.90747 7.21449C6.71415 7.30711 6.56648 7.47435 6.50204 7.67246C6.4376 7.87057 6.45908 8.08669 6.55842 8.26165L8.84605 12.6098C8.91855 12.7488 8.92929 12.9134 8.87559 13.0601C8.82189 13.2067 8.70643 13.3277 8.55876 13.3945C8.41108 13.4614 8.23924 13.464 8.09157 13.41L8.02444 13.3843C7.89824 13.3354 7.79084 13.2479 7.72103 13.1321L6.20132 10.6441C6.13419 10.5335 6.05632 10.428 5.96772 10.3302L4.15265 8.30539C3.95396 8.08412 3.84387 7.80111 3.84119 7.5078L3.8036 2.85346C3.8036 2.64763 3.72036 2.45466 3.56732 2.30801C3.41696 2.16393 3.21021 2.08159 2.99809 2.08159C2.56044 2.08159 2.20064 2.42893 2.20064 2.85603L2.23823 7.51552C2.24629 8.1716 2.496 8.8071 2.94439 9.30367L3.82776 10.2891V16.4614H2.80477C2.36175 16.4614 2.00195 16.8062 2.00195 17.2307C2.00195 17.6552 2.36175 18 2.80477 18H17.1991C17.6422 18 18.002 17.6552 18.002 17.2307C18.002 16.8679 17.7415 16.5592 17.3817 16.482V16.4769ZM10.1912 13.9683C10.594 13.3379 10.6289 12.5661 10.2799 11.9074L9.06354 9.60212H14.6269V16.4588H5.41729V12.404L6.33288 13.9065C6.5799 14.3131 6.96923 14.6321 7.42568 14.8071L7.50892 14.8379C7.76668 14.9331 8.03787 14.982 8.31711 14.982C9.08771 14.9794 9.79118 14.6012 10.1939 13.9709L10.1912 13.9683Z" fill="white"/>
</svg>
