<svg width="20" height="20" viewBox="0 0 20 20" fill="none" xmlns="http://www.w3.org/2000/svg">
<path d="M9.99587 1.5769C8.78736 1.5769 7.62842 2.05697 6.77404 2.91147C5.91954 3.76598 5.43947 4.92504 5.43947 6.13331V8.66473H4.93316C4.39601 8.66473 3.88099 8.87815 3.50122 9.25792C3.12135 9.6377 2.90802 10.1528 2.90802 10.69V15.7528C2.90802 16.2898 3.12133 16.805 3.50122 17.1848C3.88099 17.5645 4.39598 17.778 4.93316 17.778H15.0588C15.596 17.778 16.111 17.5645 16.4908 17.1848C16.8706 16.805 17.084 16.2899 17.084 15.7528V10.69C17.084 10.1528 16.8707 9.6377 16.4908 9.25792C16.111 8.87815 15.596 8.66473 15.0588 8.66473H14.5525V6.13331C14.5525 4.92492 14.0725 3.76586 13.2179 2.91147C12.3634 2.05697 11.2045 1.5769 9.99612 1.5769H9.99587ZM12.021 8.66488H7.97071V6.13346C7.97071 5.40996 8.35672 4.74145 8.98322 4.3797C9.60983 4.01795 10.3818 4.01795 11.0084 4.3797C11.6349 4.74145 12.0209 5.40999 12.0209 6.13346L12.021 8.66488Z" fill="#9D5CFF"/>
</svg>
