<svg width="19" height="18" viewBox="0 0 19 18" fill="none" xmlns="http://www.w3.org/2000/svg">
<g opacity="0.5">
<path d="M9.49219 1.5C8.00883 1.5 6.55878 1.93987 5.32541 2.76398C4.09205 3.58809 3.13075 4.75943 2.56309 6.12987C1.99544 7.50032 1.84691 9.00832 2.1363 10.4632C2.42569 11.918 3.14 13.2544 4.18889 14.3033C5.23778 15.3522 6.57416 16.0665 8.02901 16.3559C9.48387 16.6453 10.9919 16.4968 12.3623 15.9291C13.7328 15.3614 14.9041 14.4001 15.7282 13.1668C16.5523 11.9334 16.9922 10.4834 16.9922 9C16.9922 8.01509 16.7982 7.03982 16.4213 6.12987C16.0444 5.21993 15.4919 4.39314 14.7955 3.6967C14.0991 3.00026 13.2723 2.44781 12.3623 2.0709C11.4524 1.69399 10.4771 1.5 9.49219 1.5V1.5ZM9.49219 15C8.3055 15 7.14546 14.6481 6.15877 13.9888C5.17207 13.3295 4.40304 12.3925 3.94891 11.2961C3.49479 10.1997 3.37597 8.99334 3.60748 7.82946C3.83899 6.66557 4.41044 5.59647 5.24955 4.75736C6.08867 3.91824 7.15776 3.3468 8.32165 3.11529C9.48554 2.88378 10.6919 3.0026 11.7883 3.45672C12.8846 3.91085 13.8217 4.67988 14.481 5.66658C15.1403 6.65327 15.4922 7.81331 15.4922 9C15.4922 10.5913 14.8601 12.1174 13.7348 13.2426C12.6096 14.3679 11.0835 15 9.49219 15V15ZM12.4922 8.25H6.49219C6.29328 8.25 6.10251 8.32902 5.96186 8.46967C5.82121 8.61032 5.74219 8.80109 5.74219 9C5.74219 9.19891 5.82121 9.38968 5.96186 9.53033C6.10251 9.67098 6.29328 9.75 6.49219 9.75H12.4922C12.6911 9.75 12.8819 9.67098 13.0225 9.53033C13.1632 9.38968 13.2422 9.19891 13.2422 9C13.2422 8.80109 13.1632 8.61032 13.0225 8.46967C12.8819 8.32902 12.6911 8.25 12.4922 8.25Z" fill="#9D5CFF"/>
</g>
</svg>
