<svg width="16" height="16" viewBox="0 0 16 16" fill="none" xmlns="http://www.w3.org/2000/svg">
<path d="M9.33333 7.33337H8.66667V4.66671H10C10.1768 4.66671 10.3464 4.73695 10.4714 4.86197C10.5964 4.98699 10.6667 5.15656 10.6667 5.33337C10.6667 5.51019 10.7369 5.67975 10.8619 5.80478C10.987 5.9298 11.1565 6.00004 11.3333 6.00004C11.5101 6.00004 11.6797 5.9298 11.8047 5.80478C11.9298 5.67975 12 5.51019 12 5.33337C12 4.80294 11.7893 4.29423 11.4142 3.91916C11.0391 3.54409 10.5304 3.33337 10 3.33337H8.66667V2.00004C8.66667 1.82323 8.59643 1.65366 8.4714 1.52864C8.34638 1.40361 8.17681 1.33337 8 1.33337C7.82319 1.33337 7.65362 1.40361 7.5286 1.52864C7.40357 1.65366 7.33333 1.82323 7.33333 2.00004V3.33337H6.66667C5.95942 3.33337 5.28115 3.61433 4.78105 4.11442C4.28095 4.61452 4 5.2928 4 6.00004C4 6.70728 4.28095 7.38556 4.78105 7.88566C5.28115 8.38576 5.95942 8.66671 6.66667 8.66671H7.33333V11.3334H6C5.82319 11.3334 5.65362 11.2631 5.5286 11.1381C5.40357 11.0131 5.33333 10.8435 5.33333 10.6667C5.33333 10.4899 5.2631 10.3203 5.13807 10.1953C5.01305 10.0703 4.84348 10 4.66667 10C4.48986 10 4.32029 10.0703 4.19526 10.1953C4.07024 10.3203 4 10.4899 4 10.6667C4 11.1971 4.21071 11.7058 4.58579 12.0809C4.96086 12.456 5.46957 12.6667 6 12.6667H7.33333V14C7.33333 14.1769 7.40357 14.3464 7.5286 14.4714C7.65362 14.5965 7.82319 14.6667 8 14.6667C8.17681 14.6667 8.34638 14.5965 8.4714 14.4714C8.59643 14.3464 8.66667 14.1769 8.66667 14V12.6667H9.33333C10.0406 12.6667 10.7189 12.3858 11.219 11.8857C11.719 11.3856 12 10.7073 12 10C12 9.2928 11.719 8.61452 11.219 8.11442C10.7189 7.61433 10.0406 7.33337 9.33333 7.33337ZM7.33333 7.33337H6.66667C6.31304 7.33337 5.97391 7.1929 5.72386 6.94285C5.47381 6.6928 5.33333 6.35366 5.33333 6.00004C5.33333 5.64642 5.47381 5.30728 5.72386 5.05723C5.97391 4.80718 6.31304 4.66671 6.66667 4.66671H7.33333V7.33337ZM9.33333 11.3334H8.66667V8.66671H9.33333C9.68696 8.66671 10.0261 8.80718 10.2761 9.05723C10.5262 9.30728 10.6667 9.64642 10.6667 10C10.6667 10.3537 10.5262 10.6928 10.2761 10.9429C10.0261 11.1929 9.68696 11.3334 9.33333 11.3334Z" fill="#CFCED1"/>
</svg>
