<svg width="184" height="105" viewBox="0 0 184 105" fill="none" xmlns="http://www.w3.org/2000/svg">
<g clip-path="url(#clip0_77_9357)">
<rect width="184" height="105" rx="8" fill="#3FF3D8" fill-opacity="0.1"/>
<g opacity="0.2">
<g opacity="0.61">
<path d="M225.627 88.0009L213.307 75.6734C211.091 73.4557 212.663 69.6729 215.791 69.6729H225.752C237.034 69.6729 246.184 60.5172 246.184 49.2274L119.126 49.2274C119.126 60.5172 128.276 69.6729 139.558 69.6729H149.519C152.647 69.6729 154.219 73.4557 152.003 75.6734L139.683 88.0009C138.312 89.3735 138.312 91.5996 139.683 92.9721L149.159 102.454C150.531 103.827 152.756 103.827 154.127 102.454L166.447 90.1267C168.663 87.9089 172.443 89.4823 172.443 92.6123V107.794C172.443 109.735 174.016 111.309 175.956 111.309H189.363C191.303 111.309 192.875 109.735 192.875 107.794V92.6123C192.875 89.4823 196.655 87.9089 198.872 90.1267L211.191 102.454C212.563 103.827 214.788 103.827 216.159 102.454L225.635 92.9721C227.007 91.5996 227.007 89.3735 225.635 88.0009H225.627Z" fill="#3FF3D8"/>
<path d="M131.136 36.7084C136.204 12.907 157.38 -5.00262 182.655 -5.00262C207.929 -5.00262 229.106 12.907 234.174 36.7084L131.136 36.7084Z" fill="white"/>
<path d="M182.654 5.98532C197.583 5.98532 210.706 13.8773 218.065 25.711L147.243 25.711C154.612 13.8773 167.734 5.98532 182.663 5.98532H182.654ZM182.663 -16C147.553 -16 119 12.5717 119 47.6963L246.309 47.6963C246.309 12.5717 217.756 -16 182.654 -16L182.663 -16Z" fill="#196156"/>
<path d="M153.927 36.7088C158.359 25.1513 169.566 16.9246 182.655 16.9246C195.744 16.9246 206.951 25.1513 211.384 36.7088L153.927 36.7088Z" fill="white"/>
<path d="M182.656 5.93613C159.606 5.93613 140.914 24.6324 140.914 47.7057L224.398 47.7057C224.398 24.6408 205.706 5.93613 182.656 5.93613V5.93613Z" fill="#269282"/>
<path d="M202.428 47.6963H162.886C162.886 36.7832 171.751 27.912 182.657 27.912C193.563 27.912 202.428 36.7832 202.428 47.6963Z" fill="#3FF3D8"/>
</g>
</g>
</g>
<defs>
<clipPath id="clip0_77_9357">
<rect width="184" height="105" rx="8" fill="white"/>
</clipPath>
</defs>
</svg>