<svg width="1440" height="826" viewBox="0 0 1440 826" fill="none" xmlns="http://www.w3.org/2000/svg">
<mask id="mask0_4480_52320" style="mask-type:alpha" maskUnits="userSpaceOnUse" x="0" y="0" width="1440" height="826">
<rect width="1440" height="826" fill="white"/>
</mask>
<g mask="url(#mask0_4480_52320)">
<g opacity="0.2" filter="url(#filter0_f_4480_52320)">
<ellipse cx="1312.5" cy="1189.04" rx="683" ry="623" transform="rotate(5.93416 1312.5 1189.04)" fill="#5E3799"/>
</g>
<g opacity="0.2" filter="url(#filter1_f_4480_52320)">
<ellipse cx="237.717" cy="689.022" rx="651.829" ry="421.901" transform="rotate(16.4751 237.717 689.022)" fill="#721BF1"/>
</g>
<g opacity="0.1" filter="url(#filter2_f_4480_52320)">
<ellipse cx="1361.72" cy="279.436" rx="651.829" ry="421.901" transform="rotate(16.4751 1361.72 279.436)" fill="#9D5CFF"/>
</g>
<g opacity="0.08" filter="url(#filter3_f_4480_52320)">
<path d="M140.773 932.612C-30.9529 936.036 -109.856 1028.96 -107.401 1152.1C-102.277 1409.05 1415.41 1470.19 1640.69 1251.33C1806.25 1090.49 1780.2 869.169 1600.8 793.976C1398.06 709.001 1407.25 689.465 1211.21 763.741C1047.64 825.716 863.283 922.702 683.242 975.805C514.724 1025.51 293.309 929.57 140.773 932.612Z" fill="#BADAFF"/>
</g>
<g opacity="0.04">
<rect x="910.762" y="445.894" width="62.8327" height="58.9433" transform="rotate(90 910.762 445.894)" stroke="white" stroke-width="0.6"/>
<rect x="910.762" y="509.331" width="62.8327" height="58.9433" transform="rotate(90 910.762 509.331)" stroke="white" stroke-width="0.6"/>
<rect x="910.762" y="572.761" width="62.8327" height="58.9433" transform="rotate(90 910.762 572.761)" stroke="white" stroke-width="0.6"/>
<rect x="910.762" y="636.191" width="62.8327" height="58.9433" transform="rotate(90 910.762 636.191)" stroke="white" stroke-width="0.6"/>
<rect x="910.762" y="699.628" width="62.8327" height="58.9433" transform="rotate(90 910.762 699.628)" stroke="white" stroke-width="0.6"/>
<rect x="910.762" y="763.058" width="62.8327" height="58.9433" transform="rotate(90 910.762 763.058)" stroke="white" stroke-width="0.6"/>
<rect x="851.22" y="445.894" width="62.8327" height="58.9433" transform="rotate(90 851.22 445.894)" stroke="white" stroke-width="0.6"/>
<rect x="851.22" y="509.331" width="62.8327" height="58.9433" transform="rotate(90 851.22 509.331)" stroke="white" stroke-width="0.6"/>
<rect x="851.22" y="572.761" width="62.8327" height="58.9433" transform="rotate(90 851.22 572.761)" stroke="white" stroke-width="0.6"/>
<rect x="851.22" y="636.191" width="62.8327" height="58.9433" transform="rotate(90 851.22 636.191)" stroke="white" stroke-width="0.6"/>
<rect x="851.22" y="699.628" width="62.8327" height="58.9433" transform="rotate(90 851.22 699.628)" stroke="white" stroke-width="0.6"/>
<rect x="851.22" y="763.058" width="62.8327" height="58.9433" transform="rotate(90 851.22 763.058)" stroke="white" stroke-width="0.6"/>
<rect x="791.677" y="445.894" width="62.8327" height="58.9433" transform="rotate(90 791.677 445.894)" stroke="white" stroke-width="0.6"/>
<rect x="791.677" y="509.331" width="62.8327" height="58.9433" transform="rotate(90 791.677 509.331)" stroke="white" stroke-width="0.6"/>
<rect x="791.677" y="572.761" width="62.8327" height="58.9433" transform="rotate(90 791.677 572.761)" stroke="white" stroke-width="0.6"/>
<rect x="791.677" y="636.191" width="62.8327" height="58.9433" transform="rotate(90 791.677 636.191)" stroke="white" stroke-width="0.6"/>
<rect x="791.677" y="699.628" width="62.8327" height="58.9433" transform="rotate(90 791.677 699.628)" stroke="white" stroke-width="0.6"/>
<rect x="791.677" y="763.058" width="62.8327" height="58.9433" transform="rotate(90 791.677 763.058)" stroke="white" stroke-width="0.6"/>
<rect x="732.134" y="445.894" width="62.8327" height="58.9433" transform="rotate(90 732.134 445.894)" stroke="white" stroke-width="0.6"/>
<rect x="732.134" y="509.331" width="62.8327" height="58.9433" transform="rotate(90 732.134 509.331)" stroke="white" stroke-width="0.6"/>
<rect x="732.134" y="572.761" width="62.8327" height="58.9433" transform="rotate(90 732.134 572.761)" stroke="white" stroke-width="0.6"/>
<rect x="732.134" y="636.191" width="62.8327" height="58.9433" transform="rotate(90 732.134 636.191)" stroke="white" stroke-width="0.6"/>
<rect x="732.134" y="699.628" width="62.8327" height="58.9433" transform="rotate(90 732.134 699.628)" stroke="white" stroke-width="0.6"/>
<rect x="732.134" y="763.058" width="62.8327" height="58.9433" transform="rotate(90 732.134 763.058)" stroke="white" stroke-width="0.6"/>
<rect x="554.069" y="509.331" width="62.8327" height="58.9433" transform="rotate(90 554.069 509.331)" stroke="white" stroke-width="0.6"/>
<rect x="554.069" y="572.761" width="62.8327" height="58.9433" transform="rotate(90 554.069 572.761)" stroke="white" stroke-width="0.6"/>
<rect x="554.069" y="636.191" width="62.8327" height="58.9433" transform="rotate(90 554.069 636.191)" stroke="white" stroke-width="0.6"/>
<rect x="554.069" y="699.628" width="62.8327" height="58.9433" transform="rotate(90 554.069 699.628)" stroke="white" stroke-width="0.6"/>
<rect x="612.905" y="509.331" width="62.8327" height="58.9433" transform="rotate(90 612.905 509.331)" stroke="white" stroke-width="0.6"/>
<rect x="612.905" y="572.761" width="62.8327" height="58.9433" transform="rotate(90 612.905 572.761)" stroke="white" stroke-width="0.6"/>
<rect x="612.905" y="636.191" width="62.8327" height="58.9433" transform="rotate(90 612.905 636.191)" stroke="white" stroke-width="0.6"/>
<rect x="612.905" y="699.628" width="62.8327" height="58.9433" transform="rotate(90 612.905 699.628)" stroke="white" stroke-width="0.6"/>
<rect x="672.661" y="509.331" width="62.8327" height="58.9433" transform="rotate(90 672.661 509.331)" stroke="white" stroke-width="0.6"/>
<rect x="672.661" y="572.761" width="62.8327" height="58.9433" transform="rotate(90 672.661 572.761)" stroke="white" stroke-width="0.6"/>
<rect x="672.661" y="636.191" width="62.8327" height="58.9433" transform="rotate(90 672.661 636.191)" stroke="white" stroke-width="0.6"/>
<rect x="672.661" y="699.628" width="62.8327" height="58.9433" transform="rotate(90 672.661 699.628)" stroke="white" stroke-width="0.6"/>
<rect x="494.313" y="509.331" width="62.8327" height="58.9433" transform="rotate(90 494.313 509.331)" stroke="white" stroke-width="0.6"/>
<rect x="494.313" y="572.761" width="62.8327" height="58.9433" transform="rotate(90 494.313 572.761)" stroke="white" stroke-width="0.6"/>
<rect x="494.313" y="636.191" width="62.8327" height="58.9433" transform="rotate(90 494.313 636.191)" stroke="white" stroke-width="0.6"/>
<rect x="494.313" y="699.628" width="62.8327" height="58.9433" transform="rotate(90 494.313 699.628)" stroke="white" stroke-width="0.6"/>
<rect x="434.557" y="509.331" width="62.8327" height="58.9433" transform="rotate(90 434.557 509.331)" stroke="white" stroke-width="0.6"/>
<rect x="434.557" y="572.761" width="62.8327" height="58.9433" transform="rotate(90 434.557 572.761)" stroke="white" stroke-width="0.6"/>
<rect x="434.557" y="636.191" width="62.8327" height="58.9433" transform="rotate(90 434.557 636.191)" stroke="white" stroke-width="0.6"/>
<rect x="434.557" y="699.628" width="62.8327" height="58.9433" transform="rotate(90 434.557 699.628)" stroke="white" stroke-width="0.6"/>
<rect x="672.591" y="445.894" width="62.8327" height="58.9433" transform="rotate(90 672.591 445.894)" stroke="white" stroke-width="0.6"/>
<rect x="672.591" y="763.058" width="62.8327" height="58.9433" transform="rotate(90 672.591 763.058)" stroke="white" stroke-width="0.6"/>
<rect x="613.046" y="445.894" width="62.8327" height="58.9433" transform="rotate(90 613.046 445.894)" stroke="white" stroke-width="0.6"/>
<rect x="613.046" y="763.058" width="62.8327" height="58.9433" transform="rotate(90 613.046 763.058)" stroke="white" stroke-width="0.6"/>
<rect x="553.503" y="445.894" width="62.8327" height="58.9433" transform="rotate(90 553.503 445.894)" stroke="white" stroke-width="0.6"/>
<rect x="553.503" y="763.058" width="62.8327" height="58.9433" transform="rotate(90 553.503 763.058)" stroke="white" stroke-width="0.6"/>
<rect x="493.96" y="445.894" width="62.8327" height="58.9433" transform="rotate(90 493.96 445.894)" stroke="white" stroke-width="0.6"/>
<rect x="493.96" y="763.058" width="62.8327" height="58.9433" transform="rotate(90 493.96 763.058)" stroke="white" stroke-width="0.6"/>
<rect x="434.417" y="445.894" width="62.8327" height="58.9433" transform="rotate(90 434.417 445.894)" stroke="white" stroke-width="0.6"/>
<rect x="434.417" y="763.058" width="62.8327" height="58.9433" transform="rotate(90 434.417 763.058)" stroke="white" stroke-width="0.6"/>
<rect x="374.874" y="445.894" width="62.8327" height="58.9433" transform="rotate(90 374.874 445.894)" stroke="white" stroke-width="0.6"/>
<rect x="374.874" y="509.331" width="62.8327" height="58.9433" transform="rotate(90 374.874 509.331)" stroke="white" stroke-width="0.6"/>
<rect x="374.874" y="572.761" width="62.8327" height="58.9433" transform="rotate(90 374.874 572.761)" stroke="white" stroke-width="0.6"/>
<rect x="374.874" y="636.191" width="62.8327" height="58.9433" transform="rotate(90 374.874 636.191)" stroke="white" stroke-width="0.6"/>
<rect x="374.874" y="699.628" width="62.8327" height="58.9433" transform="rotate(90 374.874 699.628)" stroke="white" stroke-width="0.6"/>
<rect x="374.874" y="763.058" width="62.8327" height="58.9433" transform="rotate(90 374.874 763.058)" stroke="white" stroke-width="0.6"/>
<rect x="315.331" y="445.894" width="62.8327" height="58.9433" transform="rotate(90 315.331 445.894)" stroke="white" stroke-width="0.6"/>
<rect x="315.331" y="509.331" width="62.8327" height="58.9433" transform="rotate(90 315.331 509.331)" stroke="white" stroke-width="0.6"/>
<rect x="315.331" y="572.761" width="62.8327" height="58.9433" transform="rotate(90 315.331 572.761)" stroke="white" stroke-width="0.6"/>
<rect x="315.331" y="636.191" width="62.8327" height="58.9433" transform="rotate(90 315.331 636.191)" stroke="white" stroke-width="0.6"/>
<rect x="315.331" y="699.628" width="62.8327" height="58.9433" transform="rotate(90 315.331 699.628)" stroke="white" stroke-width="0.6"/>
<rect x="315.331" y="763.058" width="62.8327" height="58.9433" transform="rotate(90 315.331 763.058)" stroke="white" stroke-width="0.6"/>
<rect x="255.786" y="445.894" width="62.8327" height="58.9433" transform="rotate(90 255.786 445.894)" stroke="white" stroke-width="0.6"/>
<rect x="255.786" y="509.331" width="62.8327" height="58.9433" transform="rotate(90 255.786 509.331)" stroke="white" stroke-width="0.6"/>
<rect x="255.786" y="572.761" width="62.8327" height="58.9433" transform="rotate(90 255.786 572.761)" stroke="white" stroke-width="0.6"/>
<rect x="255.786" y="636.191" width="62.8327" height="58.9433" transform="rotate(90 255.786 636.191)" stroke="white" stroke-width="0.6"/>
<rect x="255.786" y="699.628" width="62.8327" height="58.9433" transform="rotate(90 255.786 699.628)" stroke="white" stroke-width="0.6"/>
<rect x="255.786" y="763.058" width="62.8327" height="58.9433" transform="rotate(90 255.786 763.058)" stroke="white" stroke-width="0.6"/>
<rect x="196.243" y="445.894" width="62.8327" height="58.9433" transform="rotate(90 196.243 445.894)" stroke="white" stroke-width="0.6"/>
<rect x="196.243" y="509.331" width="62.8327" height="58.9433" transform="rotate(90 196.243 509.331)" stroke="white" stroke-width="0.6"/>
<rect x="196.243" y="572.761" width="62.8327" height="58.9433" transform="rotate(90 196.243 572.761)" stroke="white" stroke-width="0.6"/>
<rect x="196.243" y="636.191" width="62.8327" height="58.9433" transform="rotate(90 196.243 636.191)" stroke="white" stroke-width="0.6"/>
<rect x="196.243" y="699.628" width="62.8327" height="58.9433" transform="rotate(90 196.243 699.628)" stroke="white" stroke-width="0.6"/>
<rect x="196.243" y="763.058" width="62.8327" height="58.9433" transform="rotate(90 196.243 763.058)" stroke="white" stroke-width="0.6"/>
<rect x="1327.21" y="509.331" width="62.8327" height="58.9433" transform="rotate(90 1327.21 509.331)" stroke="white" stroke-width="0.6"/>
<rect x="1327.21" y="572.761" width="62.8327" height="58.9433" transform="rotate(90 1327.21 572.761)" stroke="white" stroke-width="0.6"/>
<rect x="1327.21" y="636.191" width="62.8327" height="58.9433" transform="rotate(90 1327.21 636.191)" stroke="white" stroke-width="0.6"/>
<rect x="1327.21" y="699.628" width="62.8327" height="58.9433" transform="rotate(90 1327.21 699.628)" stroke="white" stroke-width="0.6"/>
<rect x="1386.05" y="509.331" width="62.8327" height="58.9433" transform="rotate(90 1386.05 509.331)" stroke="white" stroke-width="0.6"/>
<rect x="1386.05" y="572.761" width="62.8327" height="58.9433" transform="rotate(90 1386.05 572.761)" stroke="white" stroke-width="0.6"/>
<rect x="1386.05" y="636.191" width="62.8327" height="58.9433" transform="rotate(90 1386.05 636.191)" stroke="white" stroke-width="0.6"/>
<rect x="1386.05" y="699.628" width="62.8327" height="58.9433" transform="rotate(90 1386.05 699.628)" stroke="white" stroke-width="0.6"/>
<rect x="1445.8" y="509.331" width="62.8327" height="58.9433" transform="rotate(90 1445.8 509.331)" stroke="white" stroke-width="0.6"/>
<rect x="1445.8" y="572.761" width="62.8327" height="58.9433" transform="rotate(90 1445.8 572.761)" stroke="white" stroke-width="0.6"/>
<rect x="1445.8" y="636.191" width="62.8327" height="58.9433" transform="rotate(90 1445.8 636.191)" stroke="white" stroke-width="0.6"/>
<rect x="1445.8" y="699.628" width="62.8327" height="58.9433" transform="rotate(90 1445.8 699.628)" stroke="white" stroke-width="0.6"/>
<rect x="1267.46" y="509.331" width="62.8327" height="58.9433" transform="rotate(90 1267.46 509.331)" stroke="white" stroke-width="0.6"/>
<rect x="1267.46" y="572.761" width="62.8327" height="58.9433" transform="rotate(90 1267.46 572.761)" stroke="white" stroke-width="0.6"/>
<rect x="1267.46" y="636.191" width="62.8327" height="58.9433" transform="rotate(90 1267.46 636.191)" stroke="white" stroke-width="0.6"/>
<rect x="1267.46" y="699.628" width="62.8327" height="58.9433" transform="rotate(90 1267.46 699.628)" stroke="white" stroke-width="0.6"/>
<rect x="1207.7" y="509.331" width="62.8327" height="58.9433" transform="rotate(90 1207.7 509.331)" stroke="white" stroke-width="0.6"/>
<rect x="1207.7" y="572.761" width="62.8327" height="58.9433" transform="rotate(90 1207.7 572.761)" stroke="white" stroke-width="0.6"/>
<rect x="1207.7" y="636.191" width="62.8327" height="58.9433" transform="rotate(90 1207.7 636.191)" stroke="white" stroke-width="0.6"/>
<rect x="1207.7" y="699.628" width="62.8327" height="58.9433" transform="rotate(90 1207.7 699.628)" stroke="white" stroke-width="0.6"/>
<rect x="1445.73" y="445.894" width="62.8327" height="58.9433" transform="rotate(90 1445.73 445.894)" stroke="white" stroke-width="0.6"/>
<rect x="1445.73" y="763.058" width="62.8327" height="58.9433" transform="rotate(90 1445.73 763.058)" stroke="white" stroke-width="0.6"/>
<rect x="1386.19" y="445.894" width="62.8327" height="58.9433" transform="rotate(90 1386.19 445.894)" stroke="white" stroke-width="0.6"/>
<rect x="1386.19" y="763.058" width="62.8327" height="58.9433" transform="rotate(90 1386.19 763.058)" stroke="white" stroke-width="0.6"/>
<rect x="1326.65" y="445.894" width="62.8327" height="58.9433" transform="rotate(90 1326.65 445.894)" stroke="white" stroke-width="0.6"/>
<rect x="1326.65" y="763.058" width="62.8327" height="58.9433" transform="rotate(90 1326.65 763.058)" stroke="white" stroke-width="0.6"/>
<rect x="1267.1" y="445.894" width="62.8327" height="58.9433" transform="rotate(90 1267.1 445.894)" stroke="white" stroke-width="0.6"/>
<rect x="1267.1" y="763.058" width="62.8327" height="58.9433" transform="rotate(90 1267.1 763.058)" stroke="white" stroke-width="0.6"/>
<rect x="1207.56" y="445.894" width="62.8327" height="58.9433" transform="rotate(90 1207.56 445.894)" stroke="white" stroke-width="0.6"/>
<rect x="1207.56" y="763.058" width="62.8327" height="58.9433" transform="rotate(90 1207.56 763.058)" stroke="white" stroke-width="0.6"/>
<rect x="1148.02" y="445.894" width="62.8327" height="58.9433" transform="rotate(90 1148.02 445.894)" stroke="white" stroke-width="0.6"/>
<rect x="1148.02" y="509.331" width="62.8327" height="58.9433" transform="rotate(90 1148.02 509.331)" stroke="white" stroke-width="0.6"/>
<rect x="1148.02" y="572.761" width="62.8327" height="58.9433" transform="rotate(90 1148.02 572.761)" stroke="white" stroke-width="0.6"/>
<rect x="1148.02" y="636.191" width="62.8327" height="58.9433" transform="rotate(90 1148.02 636.191)" stroke="white" stroke-width="0.6"/>
<rect x="1148.02" y="699.628" width="62.8327" height="58.9433" transform="rotate(90 1148.02 699.628)" stroke="white" stroke-width="0.6"/>
<rect x="1148.02" y="763.058" width="62.8327" height="58.9433" transform="rotate(90 1148.02 763.058)" stroke="white" stroke-width="0.6"/>
<rect x="1088.47" y="445.894" width="62.8327" height="58.9433" transform="rotate(90 1088.47 445.894)" stroke="white" stroke-width="0.6"/>
<rect x="1088.47" y="509.331" width="62.8327" height="58.9433" transform="rotate(90 1088.47 509.331)" stroke="white" stroke-width="0.6"/>
<rect x="1088.47" y="572.761" width="62.8327" height="58.9433" transform="rotate(90 1088.47 572.761)" stroke="white" stroke-width="0.6"/>
<rect x="1088.47" y="636.191" width="62.8327" height="58.9433" transform="rotate(90 1088.47 636.191)" stroke="white" stroke-width="0.6"/>
<rect x="1088.47" y="699.628" width="62.8327" height="58.9433" transform="rotate(90 1088.47 699.628)" stroke="white" stroke-width="0.6"/>
<rect x="1088.47" y="763.058" width="62.8327" height="58.9433" transform="rotate(90 1088.47 763.058)" stroke="white" stroke-width="0.6"/>
<rect x="1028.93" y="445.894" width="62.8327" height="58.9433" transform="rotate(90 1028.93 445.894)" stroke="white" stroke-width="0.6"/>
<rect x="1028.93" y="509.331" width="62.8327" height="58.9433" transform="rotate(90 1028.93 509.331)" stroke="white" stroke-width="0.6"/>
<rect x="1028.93" y="572.761" width="62.8327" height="58.9433" transform="rotate(90 1028.93 572.761)" stroke="white" stroke-width="0.6"/>
<rect x="1028.93" y="636.191" width="62.8327" height="58.9433" transform="rotate(90 1028.93 636.191)" stroke="white" stroke-width="0.6"/>
<rect x="1028.93" y="699.628" width="62.8327" height="58.9433" transform="rotate(90 1028.93 699.628)" stroke="white" stroke-width="0.6"/>
<rect x="1028.93" y="763.058" width="62.8327" height="58.9433" transform="rotate(90 1028.93 763.058)" stroke="white" stroke-width="0.6"/>
<rect x="969.387" y="445.894" width="62.8327" height="58.9433" transform="rotate(90 969.387 445.894)" stroke="white" stroke-width="0.6"/>
<rect x="969.387" y="509.331" width="62.8327" height="58.9433" transform="rotate(90 969.387 509.331)" stroke="white" stroke-width="0.6"/>
<rect x="969.387" y="572.761" width="62.8327" height="58.9433" transform="rotate(90 969.387 572.761)" stroke="white" stroke-width="0.6"/>
<rect x="969.387" y="636.191" width="62.8327" height="58.9433" transform="rotate(90 969.387 636.191)" stroke="white" stroke-width="0.6"/>
<rect x="969.387" y="699.628" width="62.8327" height="58.9433" transform="rotate(90 969.387 699.628)" stroke="white" stroke-width="0.6"/>
<rect x="969.387" y="763.058" width="62.8327" height="58.9433" transform="rotate(90 969.387 763.058)" stroke="white" stroke-width="0.6"/>
<rect x="910.762" y="65.3" width="62.8327" height="58.9433" transform="rotate(90 910.762 65.3)" stroke="white" stroke-width="0.6"/>
<rect x="910.762" y="128.73" width="62.8327" height="58.9433" transform="rotate(90 910.762 128.73)" stroke="white" stroke-width="0.6"/>
<rect x="910.762" y="192.167" width="62.8327" height="58.9433" transform="rotate(90 910.762 192.167)" stroke="white" stroke-width="0.6"/>
<rect x="910.762" y="255.597" width="62.8327" height="58.9433" transform="rotate(90 910.762 255.597)" stroke="white" stroke-width="0.6"/>
<rect x="910.762" y="319.034" width="62.8327" height="58.9433" transform="rotate(90 910.762 319.034)" stroke="white" stroke-width="0.6"/>
<rect x="910.762" y="382.464" width="62.8327" height="58.9433" transform="rotate(90 910.762 382.464)" stroke="white" stroke-width="0.6"/>
<rect x="851.22" y="65.3" width="62.8327" height="58.9433" transform="rotate(90 851.22 65.3)" stroke="white" stroke-width="0.6"/>
<rect x="851.22" y="128.73" width="62.8327" height="58.9433" transform="rotate(90 851.22 128.73)" stroke="white" stroke-width="0.6"/>
<rect x="851.22" y="192.167" width="62.8327" height="58.9433" transform="rotate(90 851.22 192.167)" stroke="white" stroke-width="0.6"/>
<rect x="851.22" y="255.597" width="62.8327" height="58.9433" transform="rotate(90 851.22 255.597)" stroke="white" stroke-width="0.6"/>
<rect x="851.22" y="319.034" width="62.8327" height="58.9433" transform="rotate(90 851.22 319.034)" stroke="white" stroke-width="0.6"/>
<rect x="851.22" y="382.464" width="62.8327" height="58.9433" transform="rotate(90 851.22 382.464)" stroke="white" stroke-width="0.6"/>
<rect x="791.677" y="65.3" width="62.8327" height="58.9433" transform="rotate(90 791.677 65.3)" stroke="white" stroke-width="0.6"/>
<rect x="791.677" y="128.73" width="62.8327" height="58.9433" transform="rotate(90 791.677 128.73)" stroke="white" stroke-width="0.6"/>
<rect x="791.677" y="192.167" width="62.8327" height="58.9433" transform="rotate(90 791.677 192.167)" stroke="white" stroke-width="0.6"/>
<rect x="791.677" y="255.597" width="62.8327" height="58.9433" transform="rotate(90 791.677 255.597)" stroke="white" stroke-width="0.6"/>
<rect x="791.677" y="319.034" width="62.8327" height="58.9433" transform="rotate(90 791.677 319.034)" stroke="white" stroke-width="0.6"/>
<rect x="791.677" y="382.464" width="62.8327" height="58.9433" transform="rotate(90 791.677 382.464)" stroke="white" stroke-width="0.6"/>
<rect x="732.134" y="65.3" width="62.8327" height="58.9433" transform="rotate(90 732.134 65.3)" stroke="white" stroke-width="0.6"/>
<rect x="732.134" y="128.73" width="62.8327" height="58.9433" transform="rotate(90 732.134 128.73)" stroke="white" stroke-width="0.6"/>
<rect x="732.134" y="192.167" width="62.8327" height="58.9433" transform="rotate(90 732.134 192.167)" stroke="white" stroke-width="0.6"/>
<rect x="732.134" y="255.597" width="62.8327" height="58.9433" transform="rotate(90 732.134 255.597)" stroke="white" stroke-width="0.6"/>
<rect x="732.134" y="319.034" width="62.8327" height="58.9433" transform="rotate(90 732.134 319.034)" stroke="white" stroke-width="0.6"/>
<rect x="732.134" y="382.464" width="62.8327" height="58.9433" transform="rotate(90 732.134 382.464)" stroke="white" stroke-width="0.6"/>
<rect x="554.069" y="128.73" width="62.8327" height="58.9433" transform="rotate(90 554.069 128.73)" stroke="white" stroke-width="0.6"/>
<rect x="554.069" y="192.167" width="62.8327" height="58.9433" transform="rotate(90 554.069 192.167)" stroke="white" stroke-width="0.6"/>
<rect x="554.069" y="255.597" width="62.8327" height="58.9433" transform="rotate(90 554.069 255.597)" stroke="white" stroke-width="0.6"/>
<rect x="554.069" y="319.034" width="62.8327" height="58.9433" transform="rotate(90 554.069 319.034)" stroke="white" stroke-width="0.6"/>
<rect x="612.905" y="128.73" width="62.8327" height="58.9433" transform="rotate(90 612.905 128.73)" stroke="white" stroke-width="0.6"/>
<rect x="612.905" y="192.167" width="62.8327" height="58.9433" transform="rotate(90 612.905 192.167)" stroke="white" stroke-width="0.6"/>
<rect x="612.905" y="255.597" width="62.8327" height="58.9433" transform="rotate(90 612.905 255.597)" stroke="white" stroke-width="0.6"/>
<rect x="612.905" y="319.034" width="62.8327" height="58.9433" transform="rotate(90 612.905 319.034)" stroke="white" stroke-width="0.6"/>
<rect x="672.661" y="128.73" width="62.8327" height="58.9433" transform="rotate(90 672.661 128.73)" stroke="white" stroke-width="0.6"/>
<rect x="672.661" y="192.167" width="62.8327" height="58.9433" transform="rotate(90 672.661 192.167)" stroke="white" stroke-width="0.6"/>
<rect x="672.661" y="255.597" width="62.8327" height="58.9433" transform="rotate(90 672.661 255.597)" stroke="white" stroke-width="0.6"/>
<rect x="672.661" y="319.034" width="62.8327" height="58.9433" transform="rotate(90 672.661 319.034)" stroke="white" stroke-width="0.6"/>
<rect x="494.313" y="128.73" width="62.8327" height="58.9433" transform="rotate(90 494.313 128.73)" stroke="white" stroke-width="0.6"/>
<rect x="494.313" y="192.167" width="62.8327" height="58.9433" transform="rotate(90 494.313 192.167)" stroke="white" stroke-width="0.6"/>
<rect x="494.313" y="255.597" width="62.8327" height="58.9433" transform="rotate(90 494.313 255.597)" stroke="white" stroke-width="0.6"/>
<rect x="494.313" y="319.034" width="62.8327" height="58.9433" transform="rotate(90 494.313 319.034)" stroke="white" stroke-width="0.6"/>
<rect x="434.557" y="128.73" width="62.8327" height="58.9433" transform="rotate(90 434.557 128.73)" stroke="white" stroke-width="0.6"/>
<rect x="434.557" y="192.167" width="62.8327" height="58.9433" transform="rotate(90 434.557 192.167)" stroke="white" stroke-width="0.6"/>
<rect x="434.557" y="255.597" width="62.8327" height="58.9433" transform="rotate(90 434.557 255.597)" stroke="white" stroke-width="0.6"/>
<rect x="434.557" y="319.034" width="62.8327" height="58.9433" transform="rotate(90 434.557 319.034)" stroke="white" stroke-width="0.6"/>
<rect x="672.591" y="65.3" width="62.8327" height="58.9433" transform="rotate(90 672.591 65.3)" stroke="white" stroke-width="0.6"/>
<rect x="672.591" y="382.464" width="62.8327" height="58.9433" transform="rotate(90 672.591 382.464)" stroke="white" stroke-width="0.6"/>
<rect x="613.046" y="65.3" width="62.8327" height="58.9433" transform="rotate(90 613.046 65.3)" stroke="white" stroke-width="0.6"/>
<rect x="613.046" y="382.464" width="62.8327" height="58.9433" transform="rotate(90 613.046 382.464)" stroke="white" stroke-width="0.6"/>
<rect x="553.503" y="65.3" width="62.8327" height="58.9433" transform="rotate(90 553.503 65.3)" stroke="white" stroke-width="0.6"/>
<rect x="553.503" y="382.464" width="62.8327" height="58.9433" transform="rotate(90 553.503 382.464)" stroke="white" stroke-width="0.6"/>
<rect x="493.96" y="65.3" width="62.8327" height="58.9433" transform="rotate(90 493.96 65.3)" stroke="white" stroke-width="0.6"/>
<rect x="493.96" y="382.464" width="62.8327" height="58.9433" transform="rotate(90 493.96 382.464)" stroke="white" stroke-width="0.6"/>
<rect x="434.417" y="65.3" width="62.8327" height="58.9433" transform="rotate(90 434.417 65.3)" stroke="white" stroke-width="0.6"/>
<rect x="434.417" y="382.464" width="62.8327" height="58.9433" transform="rotate(90 434.417 382.464)" stroke="white" stroke-width="0.6"/>
<rect x="374.874" y="65.3" width="62.8327" height="58.9433" transform="rotate(90 374.874 65.3)" stroke="white" stroke-width="0.6"/>
<rect x="374.874" y="128.73" width="62.8327" height="58.9433" transform="rotate(90 374.874 128.73)" stroke="white" stroke-width="0.6"/>
<rect x="374.874" y="192.167" width="62.8327" height="58.9433" transform="rotate(90 374.874 192.167)" stroke="white" stroke-width="0.6"/>
<rect x="374.874" y="255.597" width="62.8327" height="58.9433" transform="rotate(90 374.874 255.597)" stroke="white" stroke-width="0.6"/>
<rect x="374.874" y="319.034" width="62.8327" height="58.9433" transform="rotate(90 374.874 319.034)" stroke="white" stroke-width="0.6"/>
<rect x="374.874" y="382.464" width="62.8327" height="58.9433" transform="rotate(90 374.874 382.464)" stroke="white" stroke-width="0.6"/>
<rect x="315.331" y="65.3" width="62.8327" height="58.9433" transform="rotate(90 315.331 65.3)" stroke="white" stroke-width="0.6"/>
<rect x="315.331" y="128.73" width="62.8327" height="58.9433" transform="rotate(90 315.331 128.73)" stroke="white" stroke-width="0.6"/>
<rect x="315.331" y="192.167" width="62.8327" height="58.9433" transform="rotate(90 315.331 192.167)" stroke="white" stroke-width="0.6"/>
<rect x="315.331" y="255.597" width="62.8327" height="58.9433" transform="rotate(90 315.331 255.597)" stroke="white" stroke-width="0.6"/>
<rect x="315.331" y="319.034" width="62.8327" height="58.9433" transform="rotate(90 315.331 319.034)" stroke="white" stroke-width="0.6"/>
<rect x="315.331" y="382.464" width="62.8327" height="58.9433" transform="rotate(90 315.331 382.464)" stroke="white" stroke-width="0.6"/>
<rect x="255.786" y="65.3" width="62.8327" height="58.9433" transform="rotate(90 255.786 65.3)" stroke="white" stroke-width="0.6"/>
<rect x="255.786" y="128.73" width="62.8327" height="58.9433" transform="rotate(90 255.786 128.73)" stroke="white" stroke-width="0.6"/>
<rect x="255.786" y="192.167" width="62.8327" height="58.9433" transform="rotate(90 255.786 192.167)" stroke="white" stroke-width="0.6"/>
<rect x="255.786" y="255.597" width="62.8327" height="58.9433" transform="rotate(90 255.786 255.597)" stroke="white" stroke-width="0.6"/>
<rect x="255.786" y="319.034" width="62.8327" height="58.9433" transform="rotate(90 255.786 319.034)" stroke="white" stroke-width="0.6"/>
<rect x="255.786" y="382.464" width="62.8327" height="58.9433" transform="rotate(90 255.786 382.464)" stroke="white" stroke-width="0.6"/>
<rect x="196.243" y="65.3" width="62.8327" height="58.9433" transform="rotate(90 196.243 65.3)" stroke="white" stroke-width="0.6"/>
<rect x="196.243" y="128.73" width="62.8327" height="58.9433" transform="rotate(90 196.243 128.73)" stroke="white" stroke-width="0.6"/>
<rect x="196.243" y="192.167" width="62.8327" height="58.9433" transform="rotate(90 196.243 192.167)" stroke="white" stroke-width="0.6"/>
<rect x="196.243" y="255.597" width="62.8327" height="58.9433" transform="rotate(90 196.243 255.597)" stroke="white" stroke-width="0.6"/>
<rect x="196.243" y="319.034" width="62.8327" height="58.9433" transform="rotate(90 196.243 319.034)" stroke="white" stroke-width="0.6"/>
<rect x="196.243" y="382.464" width="62.8327" height="58.9433" transform="rotate(90 196.243 382.464)" stroke="white" stroke-width="0.6"/>
<rect x="1327.21" y="128.73" width="62.8327" height="58.9433" transform="rotate(90 1327.21 128.73)" stroke="white" stroke-width="0.6"/>
<rect x="1327.21" y="192.167" width="62.8327" height="58.9433" transform="rotate(90 1327.21 192.167)" stroke="white" stroke-width="0.6"/>
<rect x="1327.21" y="255.597" width="62.8327" height="58.9433" transform="rotate(90 1327.21 255.597)" stroke="white" stroke-width="0.6"/>
<rect x="1327.21" y="319.034" width="62.8327" height="58.9433" transform="rotate(90 1327.21 319.034)" stroke="white" stroke-width="0.6"/>
<rect x="1386.05" y="128.73" width="62.8327" height="58.9433" transform="rotate(90 1386.05 128.73)" stroke="white" stroke-width="0.6"/>
<rect x="1386.05" y="192.167" width="62.8327" height="58.9433" transform="rotate(90 1386.05 192.167)" stroke="white" stroke-width="0.6"/>
<rect x="1386.05" y="255.597" width="62.8327" height="58.9433" transform="rotate(90 1386.05 255.597)" stroke="white" stroke-width="0.6"/>
<rect x="1386.05" y="319.034" width="62.8327" height="58.9433" transform="rotate(90 1386.05 319.034)" stroke="white" stroke-width="0.6"/>
<rect x="1445.8" y="128.73" width="62.8327" height="58.9433" transform="rotate(90 1445.8 128.73)" stroke="white" stroke-width="0.6"/>
<rect x="1445.8" y="192.167" width="62.8327" height="58.9433" transform="rotate(90 1445.8 192.167)" stroke="white" stroke-width="0.6"/>
<rect x="1445.8" y="255.597" width="62.8327" height="58.9433" transform="rotate(90 1445.8 255.597)" stroke="white" stroke-width="0.6"/>
<rect x="1445.8" y="319.034" width="62.8327" height="58.9433" transform="rotate(90 1445.8 319.034)" stroke="white" stroke-width="0.6"/>
<rect x="1267.46" y="128.73" width="62.8327" height="58.9433" transform="rotate(90 1267.46 128.73)" stroke="white" stroke-width="0.6"/>
<rect x="1267.46" y="192.167" width="62.8327" height="58.9433" transform="rotate(90 1267.46 192.167)" stroke="white" stroke-width="0.6"/>
<rect x="1267.46" y="255.597" width="62.8327" height="58.9433" transform="rotate(90 1267.46 255.597)" stroke="white" stroke-width="0.6"/>
<rect x="1267.46" y="319.034" width="62.8327" height="58.9433" transform="rotate(90 1267.46 319.034)" stroke="white" stroke-width="0.6"/>
<rect x="1207.7" y="128.73" width="62.8327" height="58.9433" transform="rotate(90 1207.7 128.73)" stroke="white" stroke-width="0.6"/>
<rect x="1207.7" y="192.167" width="62.8327" height="58.9433" transform="rotate(90 1207.7 192.167)" stroke="white" stroke-width="0.6"/>
<rect x="1207.7" y="255.597" width="62.8327" height="58.9433" transform="rotate(90 1207.7 255.597)" stroke="white" stroke-width="0.6"/>
<rect x="1207.7" y="319.034" width="62.8327" height="58.9433" transform="rotate(90 1207.7 319.034)" stroke="white" stroke-width="0.6"/>
<rect x="1445.73" y="65.3" width="62.8327" height="58.9433" transform="rotate(90 1445.73 65.3)" stroke="white" stroke-width="0.6"/>
<rect x="1445.73" y="382.464" width="62.8327" height="58.9433" transform="rotate(90 1445.73 382.464)" stroke="white" stroke-width="0.6"/>
<rect x="1386.19" y="65.3" width="62.8327" height="58.9433" transform="rotate(90 1386.19 65.3)" stroke="white" stroke-width="0.6"/>
<rect x="1386.19" y="382.464" width="62.8327" height="58.9433" transform="rotate(90 1386.19 382.464)" stroke="white" stroke-width="0.6"/>
<rect x="1326.65" y="65.3" width="62.8327" height="58.9433" transform="rotate(90 1326.65 65.3)" stroke="white" stroke-width="0.6"/>
<rect x="1326.65" y="382.464" width="62.8327" height="58.9433" transform="rotate(90 1326.65 382.464)" stroke="white" stroke-width="0.6"/>
<rect x="1267.1" y="65.3" width="62.8327" height="58.9433" transform="rotate(90 1267.1 65.3)" stroke="white" stroke-width="0.6"/>
<rect x="1267.1" y="382.464" width="62.8327" height="58.9433" transform="rotate(90 1267.1 382.464)" stroke="white" stroke-width="0.6"/>
<rect x="1207.56" y="65.3" width="62.8327" height="58.9433" transform="rotate(90 1207.56 65.3)" stroke="white" stroke-width="0.6"/>
<rect x="1207.56" y="382.464" width="62.8327" height="58.9433" transform="rotate(90 1207.56 382.464)" stroke="white" stroke-width="0.6"/>
<rect x="1148.02" y="65.3" width="62.8327" height="58.9433" transform="rotate(90 1148.02 65.3)" stroke="white" stroke-width="0.6"/>
<rect x="1148.02" y="128.73" width="62.8327" height="58.9433" transform="rotate(90 1148.02 128.73)" stroke="white" stroke-width="0.6"/>
<rect x="1148.02" y="192.167" width="62.8327" height="58.9433" transform="rotate(90 1148.02 192.167)" stroke="white" stroke-width="0.6"/>
<rect x="1148.02" y="255.597" width="62.8327" height="58.9433" transform="rotate(90 1148.02 255.597)" stroke="white" stroke-width="0.6"/>
<rect x="1148.02" y="319.034" width="62.8327" height="58.9433" transform="rotate(90 1148.02 319.034)" stroke="white" stroke-width="0.6"/>
<rect x="1148.02" y="382.464" width="62.8327" height="58.9433" transform="rotate(90 1148.02 382.464)" stroke="white" stroke-width="0.6"/>
<rect x="1088.47" y="65.3" width="62.8327" height="58.9433" transform="rotate(90 1088.47 65.3)" stroke="white" stroke-width="0.6"/>
<rect x="1088.47" y="128.73" width="62.8327" height="58.9433" transform="rotate(90 1088.47 128.73)" stroke="white" stroke-width="0.6"/>
<rect x="1088.47" y="192.167" width="62.8327" height="58.9433" transform="rotate(90 1088.47 192.167)" stroke="white" stroke-width="0.6"/>
<rect x="1088.47" y="255.597" width="62.8327" height="58.9433" transform="rotate(90 1088.47 255.597)" stroke="white" stroke-width="0.6"/>
<rect x="1088.47" y="319.034" width="62.8327" height="58.9433" transform="rotate(90 1088.47 319.034)" stroke="white" stroke-width="0.6"/>
<rect x="1088.47" y="382.464" width="62.8327" height="58.9433" transform="rotate(90 1088.47 382.464)" stroke="white" stroke-width="0.6"/>
<rect x="1028.93" y="65.3" width="62.8327" height="58.9433" transform="rotate(90 1028.93 65.3)" stroke="white" stroke-width="0.6"/>
<rect x="1028.93" y="128.73" width="62.8327" height="58.9433" transform="rotate(90 1028.93 128.73)" stroke="white" stroke-width="0.6"/>
<rect x="1028.93" y="192.167" width="62.8327" height="58.9433" transform="rotate(90 1028.93 192.167)" stroke="white" stroke-width="0.6"/>
<rect x="1028.93" y="255.597" width="62.8327" height="58.9433" transform="rotate(90 1028.93 255.597)" stroke="white" stroke-width="0.6"/>
<rect x="1028.93" y="319.034" width="62.8327" height="58.9433" transform="rotate(90 1028.93 319.034)" stroke="white" stroke-width="0.6"/>
<rect x="1028.93" y="382.464" width="62.8327" height="58.9433" transform="rotate(90 1028.93 382.464)" stroke="white" stroke-width="0.6"/>
<rect x="969.387" y="65.3" width="62.8327" height="58.9433" transform="rotate(90 969.387 65.3)" stroke="white" stroke-width="0.6"/>
<rect x="969.387" y="128.73" width="62.8327" height="58.9433" transform="rotate(90 969.387 128.73)" stroke="white" stroke-width="0.6"/>
<rect x="969.387" y="192.167" width="62.8327" height="58.9433" transform="rotate(90 969.387 192.167)" stroke="white" stroke-width="0.6"/>
<rect x="969.387" y="255.597" width="62.8327" height="58.9433" transform="rotate(90 969.387 255.597)" stroke="white" stroke-width="0.6"/>
<rect x="969.387" y="319.034" width="62.8327" height="58.9433" transform="rotate(90 969.387 319.034)" stroke="white" stroke-width="0.6"/>
<rect x="969.387" y="382.464" width="62.8327" height="58.9433" transform="rotate(90 969.387 382.464)" stroke="white" stroke-width="0.6"/>
</g>
</g>
<defs>
<filter id="filter0_f_4480_52320" x="330.066" y="265.312" width="1964.87" height="1847.45" filterUnits="userSpaceOnUse" color-interpolation-filters="sRGB">
<feFlood flood-opacity="0" result="BackgroundImageFix"/>
<feBlend mode="normal" in="SourceGraphic" in2="BackgroundImageFix" result="shape"/>
<feGaussianBlur stdDeviation="150" result="effect1_foregroundBlur_4480_52320"/>
</filter>
<filter id="filter1_f_4480_52320" x="-818.814" y="-175.898" width="2113.06" height="1729.84" filterUnits="userSpaceOnUse" color-interpolation-filters="sRGB">
<feFlood flood-opacity="0" result="BackgroundImageFix"/>
<feBlend mode="normal" in="SourceGraphic" in2="BackgroundImageFix" result="shape"/>
<feGaussianBlur stdDeviation="210" result="effect1_foregroundBlur_4480_52320"/>
</filter>
<filter id="filter2_f_4480_52320" x="305.186" y="-585.484" width="2113.06" height="1729.84" filterUnits="userSpaceOnUse" color-interpolation-filters="sRGB">
<feFlood flood-opacity="0" result="BackgroundImageFix"/>
<feBlend mode="normal" in="SourceGraphic" in2="BackgroundImageFix" result="shape"/>
<feGaussianBlur stdDeviation="210" result="effect1_foregroundBlur_4480_52320"/>
</filter>
<filter id="filter3_f_4480_52320" x="-427.457" y="397.695" width="2498.74" height="1307.46" filterUnits="userSpaceOnUse" color-interpolation-filters="sRGB">
<feFlood flood-opacity="0" result="BackgroundImageFix"/>
<feBlend mode="normal" in="SourceGraphic" in2="BackgroundImageFix" result="shape"/>
<feGaussianBlur stdDeviation="160" result="effect1_foregroundBlur_4480_52320"/>
</filter>
</defs>
</svg>
