<svg width="340" height="194" viewBox="0 0 340 194" fill="none" xmlns="http://www.w3.org/2000/svg">
<g clip-path="url(#clip0_108_10313)">
<rect width="340" height="194" rx="8" fill="#3FF3D8" fill-opacity="0.1"/>
<g opacity="0.2">
<g opacity="0.61">
<path d="M416.918 162.592L394.154 139.815C390.058 135.718 392.964 128.729 398.743 128.729H417.149C437.997 128.729 454.904 111.813 454.904 90.9534L220.123 90.9534C220.123 111.813 237.03 128.729 257.878 128.729H276.284C282.064 128.729 284.969 135.718 280.874 139.815L258.11 162.592C255.575 165.128 255.575 169.241 258.11 171.777L275.619 189.296C278.154 191.832 282.265 191.832 284.799 189.296L307.563 166.52C311.659 162.422 318.644 165.329 318.644 171.112V199.161C318.644 202.749 321.549 205.656 325.135 205.656H349.908C353.493 205.656 356.399 202.749 356.399 199.161V171.112C356.399 165.329 363.384 162.422 367.479 166.52L390.244 189.296C392.778 191.832 396.889 191.832 399.423 189.296L416.933 171.777C419.468 169.241 419.468 165.128 416.933 162.592H416.918Z" fill="#3FF3D8"/>
<path d="M242.316 67.8229C251.682 23.847 290.812 -9.24316 337.515 -9.24316C384.217 -9.24316 423.348 23.847 432.713 67.8229L242.316 67.8229Z" fill="white"/>
<path d="M337.513 11.0585C365.099 11.0585 389.347 25.6398 402.946 47.504L272.08 47.504C285.695 25.6398 309.943 11.0585 337.528 11.0585H337.513ZM337.528 -29.562C272.651 -29.562 219.891 23.2276 219.891 88.1245L455.135 88.1245C455.135 23.2276 402.375 -29.562 337.513 -29.562L337.528 -29.562Z" fill="#196156"/>
<path d="M284.43 67.8238C292.62 46.4698 313.329 31.27 337.515 31.27C361.701 31.27 382.41 46.4698 390.6 67.8238L284.43 67.8238Z" fill="white"/>
<path d="M337.517 10.9675C294.925 10.9675 260.385 45.5112 260.385 88.1418L414.649 88.1418C414.649 45.5267 380.109 10.9675 337.517 10.9675V10.9675Z" fill="#269282"/>
<path d="M374.052 88.1246H300.984C300.984 67.9613 317.366 51.5708 337.518 51.5708C357.671 51.5708 374.052 67.9613 374.052 88.1246Z" fill="#3FF3D8"/>
</g>
</g>
</g>
<defs>
<clipPath id="clip0_108_10313">
<rect width="340" height="194" rx="8" fill="white"/>
</clipPath>
</defs>
</svg>
