<svg width="26" height="26" viewBox="0 0 26 26" fill="none" xmlns="http://www.w3.org/2000/svg">
<g opacity="0.9">
<g clip-path="url(#clip0_526_20938)">
<path d="M17.1152 12.3861C17.1152 11.6704 16.5355 11.0906 15.8197 11.0906C15.104 11.0906 14.5242 11.6704 14.5242 12.3861V12.8809C14.5242 13.3715 14.8012 13.8201 15.24 14.0395L16.3987 14.6192C16.8375 14.8387 17.1144 15.2872 17.1144 15.7779V16.2726C17.1144 16.9884 16.5347 17.5681 15.8189 17.5681C15.1032 17.5681 14.5234 16.9884 14.5234 16.2726" stroke="white" stroke-width="1.50533" stroke-miterlimit="10"/>
<path d="M15.8234 11.0839V9.14062" stroke="white" stroke-width="1.50533" stroke-miterlimit="10"/>
<path d="M15.8234 17.5652V19.5085" stroke="white" stroke-width="1.50533" stroke-miterlimit="10"/>
<path d="M15.819 21.4512C19.7541 21.4512 22.9442 18.2611 22.9442 14.326C22.9442 10.3908 19.7541 7.20074 15.819 7.20074C11.8838 7.20074 8.69373 10.3908 8.69373 14.326C8.69373 18.2611 11.8838 21.4512 15.819 21.4512Z" stroke="white" stroke-width="1.50533" stroke-miterlimit="10"/>
<path d="M15.4985 7.21308C14.1916 5.62124 12.2095 4.6059 9.98937 4.6059C6.0543 4.6059 2.86414 7.79606 2.86414 11.7311C2.86414 15.6662 6.0543 18.8564 9.98937 18.8564C10.0979 18.8564 10.2031 18.845 10.31 18.8402" stroke="white" stroke-width="1.50533" stroke-miterlimit="10"/>
</g>
</g>
<defs>
<clipPath id="clip0_526_20938">
<rect width="21.3757" height="18.137" fill="white" transform="translate(2.21399 3.96094)"/>
</clipPath>
</defs>
</svg>
