<svg width="26" height="26" viewBox="0 0 26 26" fill="none" xmlns="http://www.w3.org/2000/svg">
<path fill-rule="evenodd" clip-rule="evenodd" d="M23.4843 13.0029C23.4843 18.793 18.7906 23.4868 13.0005 23.4868C7.21039 23.4868 2.5166 18.793 2.5166 13.0029C2.5166 7.21283 7.21039 2.51904 13.0005 2.51904C18.7906 2.51904 23.4843 7.21283 23.4843 13.0029ZM14.1647 8.34437C14.1647 8.98771 13.6432 9.50924 12.9998 9.50924C12.3565 9.50924 11.835 8.98771 11.835 8.34437C11.835 7.70102 12.3565 7.17949 12.9998 7.17949C13.6432 7.17949 14.1647 7.70102 14.1647 8.34437ZM14.106 18.8262V11.8369H11.8959V18.8262H14.106Z" fill="#FB6C13"/>
</svg>
