<svg width="44" height="44" viewBox="0 0 44 44" fill="none" xmlns="http://www.w3.org/2000/svg">
<path d="M7.33374 23.8333C7.33374 20.3764 7.33374 18.6479 8.40768 17.5739C9.48162 16.5 11.2101 16.5 14.6671 16.5H29.3337C32.7907 16.5 34.5192 16.5 35.5931 17.5739C36.6671 18.6479 36.6671 20.3764 36.6671 23.8333V27.5C36.6671 32.6854 36.6671 35.2782 35.0562 36.8891C33.4452 38.5 30.8525 38.5 25.6671 38.5H18.3337C13.1483 38.5 10.5556 38.5 8.94465 36.8891C7.33374 35.2782 7.33374 32.6854 7.33374 27.5V23.8333Z" fill="#7E869E" fill-opacity="0.25" stroke="white" stroke-width="4"/>
<path d="M29.3337 14.6667V12.8333C29.3337 8.78324 26.0504 5.5 22.0003 5.5V5.5C17.9502 5.5 14.667 8.78324 14.667 12.8333V14.6667" stroke="white" stroke-width="4" stroke-linecap="round"/>
<circle cx="22.0004" cy="27.4999" r="3.66667" fill="white"/>
</svg>
