<svg width="18" height="18" viewBox="0 0 18 18" fill="none" xmlns="http://www.w3.org/2000/svg">
<path d="M15.532 8.15581H2.47144C2.17979 8.15581 1.91036 8.00033 1.76449 7.74767C1.61872 7.49513 1.61872 7.18404 1.76449 6.93139C1.91038 6.67885 2.17978 6.52324 2.47144 6.52324H13.562L12.1581 5.1193C11.996 4.96831 11.9022 4.75793 11.8984 4.53649C11.8945 4.31505 11.9807 4.10151 12.1373 3.94494C12.294 3.78824 12.5075 3.702 12.729 3.70601C12.9504 3.70989 13.1608 3.80355 13.3118 3.96559L16.1089 6.76269V6.76281C16.2229 6.87638 16.3009 7.0213 16.3329 7.1791C16.3648 7.33701 16.3494 7.50076 16.2884 7.64981C16.2262 7.79934 16.1213 7.92713 15.9867 8.01712C15.8521 8.10711 15.6939 8.15547 15.532 8.15584L15.532 8.15581ZM5.84541 14.0548C5.99968 13.9024 6.08641 13.6947 6.08641 13.4779C6.08641 13.2611 5.99968 13.0534 5.84541 12.9011L4.44146 11.4971H15.532C15.8237 11.4971 16.0931 11.3415 16.239 11.089C16.3847 10.8363 16.3847 10.5252 16.239 10.2727C16.0931 10.02 15.8237 9.86456 15.532 9.86456H2.4715C2.30958 9.86493 2.15142 9.91327 2.01684 10.0033C1.88225 10.0933 1.7773 10.2211 1.7151 10.3706C1.65413 10.5196 1.6387 10.6834 1.67065 10.8413C1.70259 10.9991 1.78058 11.144 1.89464 11.2576L4.69174 14.0547V14.0548C4.84406 14.209 5.05202 14.2952 5.26861 14.2942C5.48568 14.2971 5.69435 14.2105 5.84548 14.0548L5.84541 14.0548Z" fill="white"/>
</svg>
