<svg width="24" height="24" viewBox="0 0 24 24" fill="none" xmlns="http://www.w3.org/2000/svg">
<path d="M12 21.5518C9.87818 21.5518 7.84343 20.7089 6.34308 19.2087C4.84288 17.7083 4 15.6735 4 13.5518C4 11.43 4.84288 9.39519 6.34308 7.89483C7.84348 6.39463 9.87823 5.55176 12 5.55176C14.1218 5.55176 16.1566 6.39463 17.6569 7.89483C19.1571 9.39524 20 11.43 20 13.5518C20 15.6735 19.1571 17.7083 17.6569 19.2087C16.1565 20.7089 14.1218 21.5518 12 21.5518ZM12 7.32945C10.3498 7.32945 8.76707 7.98499 7.60017 9.15188C6.43328 10.3188 5.77774 11.9015 5.77774 13.5517C5.77774 15.2019 6.43328 16.7846 7.60017 17.9515C8.76707 19.1184 10.3498 19.774 12 19.774C13.6502 19.774 15.2329 19.1184 16.3998 17.9515C17.5667 16.7846 18.2223 15.2019 18.2223 13.5517C18.2223 11.9015 17.5667 10.3188 16.3998 9.15188C15.2329 7.98499 13.6502 7.32945 12 7.32945Z" fill="#9C5BFF"/>
<path d="M13.781 16.2223C13.5447 16.2236 13.3177 16.1308 13.1498 15.9645L11.372 14.1867C11.2057 14.0189 11.1129 13.7919 11.1143 13.5556V10.8889C11.1143 10.5712 11.2837 10.2778 11.5587 10.119C11.8337 9.96032 12.1726 9.96032 12.4476 10.119C12.7226 10.2778 12.8921 10.5712 12.8921 10.8889V13.1911L14.4121 14.7022C14.5804 14.8691 14.675 15.0962 14.675 15.3334C14.675 15.5705 14.5804 15.7976 14.4121 15.9645C14.2443 16.1308 14.0173 16.2237 13.781 16.2223H13.781Z" fill="#9C5BFF"/>
<path d="M14.6646 3.77779H9.33126C9.0136 3.77779 8.72016 3.60835 8.56143 3.33334C8.4027 3.05834 8.4027 2.71945 8.56143 2.44445C8.72016 2.16945 9.01361 2 9.33126 2H14.6646C14.9823 2 15.2757 2.16944 15.4345 2.44445C15.5932 2.71945 15.5932 3.05834 15.4345 3.33334C15.2757 3.60834 14.9823 3.77779 14.6646 3.77779Z" fill="#9C5BFF"/>
</svg>
