<svg width="18" height="18" viewBox="0 0 18 18" fill="none" xmlns="http://www.w3.org/2000/svg">
<path d="M10.0575 9.00014L14.7825 4.28264C14.9237 4.14141 15.003 3.94987 15.003 3.75014C15.003 3.55041 14.9237 3.35887 14.7825 3.21764C14.6412 3.07641 14.4497 2.99707 14.25 2.99707C14.0502 2.99707 13.8587 3.07641 13.7175 3.21764L8.99995 7.94264L4.28245 3.21764C4.14123 3.07641 3.94968 2.99707 3.74995 2.99707C3.55023 2.99707 3.35868 3.07641 3.21745 3.21764C3.07623 3.35887 2.99689 3.55041 2.99689 3.75014C2.99689 3.94987 3.07623 4.14141 3.21745 4.28264L7.94245 9.00014L3.21745 13.7176C3.14716 13.7874 3.09136 13.8703 3.05329 13.9617C3.01521 14.0531 2.99561 14.1511 2.99561 14.2501C2.99561 14.3491 3.01521 14.4472 3.05329 14.5386C3.09136 14.63 3.14716 14.7129 3.21745 14.7826C3.28718 14.8529 3.37013 14.9087 3.46152 14.9468C3.55292 14.9849 3.65095 15.0045 3.74995 15.0045C3.84896 15.0045 3.94699 14.9849 4.03839 14.9468C4.12978 14.9087 4.21273 14.8529 4.28245 14.7826L8.99995 10.0576L13.7175 14.7826C13.7872 14.8529 13.8701 14.9087 13.9615 14.9468C14.0529 14.9849 14.1509 15.0045 14.25 15.0045C14.349 15.0045 14.447 14.9849 14.5384 14.9468C14.6298 14.9087 14.7127 14.8529 14.7825 14.7826C14.8527 14.7129 14.9085 14.63 14.9466 14.5386C14.9847 14.4472 15.0043 14.3491 15.0043 14.2501C15.0043 14.1511 14.9847 14.0531 14.9466 13.9617C14.9085 13.8703 14.8527 13.7874 14.7825 13.7176L10.0575 9.00014Z" fill="white"/>
</svg>
