<svg width="40" height="41" viewBox="0 0 40 41" fill="none" xmlns="http://www.w3.org/2000/svg">
<g filter="url(#filter0_d_417_17643)">
<rect x="7" y="5" width="26" height="26" rx="4.52174" fill="#2A1945"/>
</g>
<path d="M20.3132 24.5997C20.4155 24.56 20.509 24.5005 20.5882 24.4247L23.9215 21.0913C23.9992 21.0136 24.0609 20.9214 24.1029 20.8199C24.145 20.7184 24.1666 20.6096 24.1666 20.4997C24.1666 20.2778 24.0785 20.0649 23.9215 19.908C23.7646 19.7511 23.5518 19.6629 23.3299 19.6629C23.108 19.6629 22.8951 19.7511 22.7382 19.908L20.8299 21.8247L20.8299 12.1663C20.8299 11.9453 20.7421 11.7334 20.5858 11.5771C20.4295 11.4208 20.2176 11.333 19.9965 11.333C19.7755 11.333 19.5636 11.4208 19.4073 11.5771C19.251 11.7334 19.1632 11.9453 19.1632 12.1663L19.1632 21.8247L17.2549 19.908C17.1774 19.8299 17.0852 19.7679 16.9837 19.7256C16.8821 19.6833 16.7732 19.6615 16.6632 19.6615C16.5532 19.6615 16.4443 19.6833 16.3427 19.7256C16.2412 19.7679 16.149 19.8299 16.0716 19.908C15.9934 19.9855 15.9314 20.0776 15.8891 20.1792C15.8468 20.2807 15.8251 20.3897 15.8251 20.4997C15.8251 20.6097 15.8468 20.7186 15.8891 20.8202C15.9314 20.9217 15.9934 21.0139 16.0716 21.0913L19.4049 24.4247C19.4841 24.5005 19.5776 24.56 19.6799 24.5997C19.8828 24.683 20.1103 24.683 20.3132 24.5997Z" fill="#9D5CFF"/>
<defs>
<filter id="filter0_d_417_17643" x="0.217392" y="0.478261" width="39.5652" height="39.5652" filterUnits="userSpaceOnUse" color-interpolation-filters="sRGB">
<feFlood flood-opacity="0" result="BackgroundImageFix"/>
<feColorMatrix in="SourceAlpha" type="matrix" values="0 0 0 0 0 0 0 0 0 0 0 0 0 0 0 0 0 0 127 0" result="hardAlpha"/>
<feOffset dy="2.26087"/>
<feGaussianBlur stdDeviation="3.3913"/>
<feComposite in2="hardAlpha" operator="out"/>
<feColorMatrix type="matrix" values="0 0 0 0 0.12549 0 0 0 0 0.109804 0 0 0 0 0.254902 0 0 0 0.32 0"/>
<feBlend mode="normal" in2="BackgroundImageFix" result="effect1_dropShadow_417_17643"/>
<feBlend mode="normal" in="SourceGraphic" in2="effect1_dropShadow_417_17643" result="shape"/>
</filter>
</defs>
</svg>
