<svg width="12" height="12" viewBox="0 0 12 12" fill="none" xmlns="http://www.w3.org/2000/svg">
<path d="M10.6147 8.04783H7.97224C7.81753 8.04783 7.66915 8.10928 7.55976 8.21868C7.45036 8.32808 7.3889 8.47645 7.3889 8.63116C7.3889 8.78587 7.45036 8.93424 7.55976 9.04364C7.66915 9.15303 7.81753 9.21449 7.97224 9.21449H9.37224C8.72879 9.88692 7.89897 10.3516 6.98942 10.5488C6.07986 10.746 5.13211 10.6668 4.26794 10.3212C3.40377 9.97568 2.66266 9.37963 2.13983 8.60968C1.617 7.83972 1.33634 6.93101 1.3339 6.00033C1.3339 5.84562 1.27244 5.69724 1.16305 5.58785C1.05365 5.47845 0.905279 5.41699 0.75057 5.41699C0.59586 5.41699 0.447487 5.47845 0.338091 5.58785C0.228694 5.69724 0.167236 5.84562 0.167236 6.00033C0.17032 7.13946 0.506865 8.25276 1.13534 9.20284C1.76381 10.1529 2.65671 10.8982 3.70384 11.3467C4.75096 11.7952 5.9065 11.9273 7.02783 11.7267C8.14916 11.5261 9.18722 11.0016 10.0139 10.2178V11.2503C10.0139 11.405 10.0754 11.5534 10.1848 11.6628C10.2942 11.7722 10.4425 11.8337 10.5972 11.8337C10.7519 11.8337 10.9003 11.7722 11.0097 11.6628C11.1191 11.5534 11.1806 11.405 11.1806 11.2503V8.62533C11.1791 8.47461 11.1194 8.33031 11.0139 8.22265C10.9084 8.11499 10.7654 8.05234 10.6147 8.04783ZM6.00057 0.166992C4.50513 0.171258 3.06844 0.749692 1.98724 1.78283V0.750326C1.98724 0.595616 1.92578 0.447243 1.81638 0.337847C1.70699 0.22845 1.55861 0.166992 1.4039 0.166992C1.24919 0.166992 1.10082 0.22845 0.991424 0.337847C0.882028 0.447243 0.82057 0.595616 0.82057 0.750326V3.37533C0.82057 3.53004 0.882028 3.67841 0.991424 3.7878C1.10082 3.8972 1.24919 3.95866 1.4039 3.95866H4.0289C4.18361 3.95866 4.33199 3.8972 4.44138 3.7878C4.55078 3.67841 4.61224 3.53004 4.61224 3.37533C4.61224 3.22062 4.55078 3.07224 4.44138 2.96285C4.33199 2.85345 4.18361 2.79199 4.0289 2.79199H2.6289C3.27201 2.11992 4.10129 1.65537 5.0103 1.45797C5.91932 1.26058 6.86658 1.33934 7.73051 1.68416C8.59443 2.02898 9.3356 2.62412 9.85887 3.39318C10.3821 4.16224 10.6636 5.07013 10.6672 6.00033C10.6672 6.15504 10.7287 6.30341 10.8381 6.4128C10.9475 6.5222 11.0959 6.58366 11.2506 6.58366C11.4053 6.58366 11.5537 6.5222 11.663 6.4128C11.7724 6.30341 11.8339 6.15504 11.8339 6.00033C11.8339 5.23428 11.683 4.47574 11.3899 3.76801C11.0967 3.06027 10.667 2.41721 10.1254 1.87554C9.58368 1.33386 8.94062 0.904181 8.23289 0.611028C7.52516 0.317876 6.76661 0.166992 6.00057 0.166992Z" fill="#9D5CFF"/>
</svg>
