<svg width="20" height="20" viewBox="0 0 20 20" fill="none" xmlns="http://www.w3.org/2000/svg">
<path d="M13.3022 12.689C13.4442 12.9084 13.678 13.0517 13.9379 13.0791C14.1978 13.1064 14.4562 13.0147 14.6406 12.8296L16.4334 11.0368V11.0369C16.6938 10.7769 16.84 10.424 16.84 10.0562C16.84 9.68825 16.6938 9.33542 16.4334 9.07549L14.6406 7.28269C14.4593 7.10108 14.2068 7.00936 13.9512 7.03229C13.6955 7.05537 13.4633 7.19068 13.3173 7.40171C13.2034 7.57759 13.1545 7.78757 13.179 7.99559C13.2036 8.20375 13.2998 8.39669 13.4514 8.54135L14.1002 9.19014H11.4467C11.1571 9.18999 10.8735 9.10688 10.6297 8.95045C10.386 8.79402 10.1921 8.57108 10.0714 8.30784L8.96409 5.8922C8.70554 5.3279 8.29027 4.84956 7.76776 4.51406C7.24524 4.17873 6.63746 4.00027 6.01674 4H3.86493C3.55585 4 3.27031 4.16487 3.11585 4.43246C2.96138 4.70021 2.96138 5.02997 3.11585 5.29755C3.27031 5.56514 3.55588 5.73001 3.86493 5.73001H6.01446C6.30408 5.73016 6.58768 5.81327 6.83143 5.9697C7.07519 6.12598 7.26903 6.34907 7.38986 6.61231L8.49706 9.0278C8.67657 9.41666 8.93165 9.76572 9.24753 10.0551C8.93241 10.3445 8.6781 10.6937 8.49919 11.0823L7.39198 13.4978C7.27115 13.761 7.07732 13.9842 6.83355 14.1404C6.58979 14.2969 6.30636 14.38 6.01674 14.3801H3.86493C3.55585 14.3801 3.27031 14.545 3.11585 14.8126C2.96138 15.0802 2.96138 15.4099 3.11585 15.6777C3.27031 15.9453 3.55588 16.1101 3.86493 16.1101H6.01446C6.6358 16.1103 7.244 15.932 7.76683 15.5967C8.28981 15.2612 8.70524 14.7827 8.96409 14.2179L10.0714 11.8023C10.1921 11.5391 10.386 11.3161 10.6297 11.1597C10.8735 11.0033 11.1571 10.9201 11.4467 10.92H14.1023L13.432 11.5903V11.5905C13.2876 11.7309 13.1959 11.9166 13.1722 12.1166C13.1487 12.3167 13.1946 12.5188 13.3023 12.6889L13.3022 12.689Z" fill="#9D5CFF"/>
</svg>
