<svg width="18" height="18" viewBox="0 0 18 18" fill="none" xmlns="http://www.w3.org/2000/svg">
<path d="M1.40719 9.85099H1.43165L3.32464 5.13074C3.32464 5.13074 3.32464 5.12834 3.32704 5.12834C3.34418 5.08925 3.36613 5.05257 3.3931 5.01828C3.40292 5.00365 3.41515 4.99143 3.42738 4.97669C3.44452 4.95714 3.46407 4.94 3.48361 4.92537C3.51047 4.90332 3.53744 4.88629 3.56921 4.86914C3.58635 4.85932 3.60349 4.852 3.62052 4.84469C3.64257 4.83486 3.66703 4.82755 3.69149 4.82263C3.70863 4.81772 3.72817 4.81772 3.74532 4.81532C3.76737 4.81292 3.78692 4.80549 3.80886 4.80549C3.82109 4.80549 3.83091 4.80789 3.84314 4.80789H8.17209C8.24054 4.61956 8.36774 4.46058 8.53161 4.35054L8.5315 3.20841C8.5315 2.91985 8.76624 2.6875 9.05241 2.6875C9.34097 2.6875 9.57332 2.92224 9.57332 3.20841V4.35054C9.7372 4.4606 9.8644 4.61957 9.93285 4.80789H13.9926C13.9999 4.80789 14.0073 4.80549 14.0147 4.80549C14.0269 4.80549 14.0367 4.80789 14.049 4.80789H14.2813C14.3326 4.80789 14.3815 4.81772 14.4304 4.83235C14.4354 4.83475 14.4378 4.83475 14.4427 4.83726C14.5381 4.86903 14.6212 4.92526 14.6848 5.00115C14.6872 5.00355 14.6897 5.00846 14.6947 5.01097C14.7264 5.05006 14.7509 5.09417 14.7704 5.14057V5.14297L16.6022 9.85567C16.7244 9.8655 16.8223 9.97315 16.8223 10.0978C16.8223 11.6019 15.6018 12.8223 14.0978 12.8223C12.5961 12.8223 11.3758 11.6019 11.3758 10.0881C11.3758 9.95854 11.4834 9.85089 11.613 9.85089H11.6375L13.2418 5.8498L9.7298 5.84969C9.70775 5.84969 9.6858 5.84478 9.66374 5.84238C9.63437 5.86683 9.605 5.88638 9.57323 5.90843V13.666H11.0015C11.4686 13.666 11.8477 14.0475 11.8477 14.5147V15.0699C11.8477 15.202 11.74 15.3071 11.6104 15.3071H6.49162C6.36202 15.3071 6.25437 15.202 6.25437 15.0699V14.5147C6.25437 14.0476 6.63583 13.666 7.10302 13.666H8.53134V5.90843C8.50197 5.88889 8.4702 5.86683 8.44334 5.84489C8.42129 5.84729 8.40174 5.8522 8.3798 5.8522H4.8385L6.39879 9.85581C6.52108 9.86563 6.6189 9.97318 6.6189 10.098C6.6189 11.602 5.39848 12.8225 3.89439 12.8225C2.3927 12.8225 1.17239 11.6021 1.17239 10.0883C1.16999 9.95846 1.27764 9.85091 1.40724 9.85091L1.40719 9.85099ZM3.93594 6.41003L2.55654 9.85099H5.27624L3.93594 6.41003ZM14.1417 6.41003L12.7623 9.85099H15.4819L14.1417 6.41003Z" fill="#9D5CFF"/>
</svg>
