<svg width="33" height="32" viewBox="0 0 33 32" fill="none" xmlns="http://www.w3.org/2000/svg">
<path d="M10.6693 26.667L9.72646 27.6098L10.6693 28.5526L11.6121 27.6098L10.6693 26.667ZM13.3359 6.66699C14.0723 6.66699 14.6693 6.07004 14.6693 5.33366C14.6693 4.59728 14.0723 4.00032 13.3359 4.00032L13.3359 6.66699ZM4.39313 22.2765L9.72646 27.6098L11.6121 25.7242L6.27875 20.3908L4.39313 22.2765ZM11.6121 27.6098L16.9454 22.2765L15.0598 20.3908L9.72646 25.7242L11.6121 27.6098ZM12.0026 26.667L12.0026 8.00033L9.33594 8.00033L9.33594 26.667L12.0026 26.667ZM12.0026 8.00033C12.0026 7.26395 12.5996 6.66699 13.3359 6.66699L13.3359 4.00032C11.1268 4.00032 9.33594 5.79119 9.33594 8.00033L12.0026 8.00033Z" fill="#090015"/>
<path d="M21.3363 5.33368L20.3935 4.39087L21.3363 3.44806L22.2791 4.39087L21.3363 5.33368ZM21.3363 25.3337L20.0029 25.3337L20.0029 25.3337L21.3363 25.3337ZM18.6696 29.3337C17.9332 29.3337 17.3363 28.7367 17.3363 28.0003C17.3363 27.264 17.9332 26.667 18.6696 26.667L18.6696 29.3337ZM15.0601 9.7242L20.3935 4.39087L22.2791 6.27649L16.9457 11.6098L15.0601 9.7242ZM22.2791 4.39087L27.6124 9.7242L25.7268 11.6098L20.3935 6.27649L22.2791 4.39087ZM22.6696 5.33368L22.6696 25.3337L20.0029 25.3337L20.0029 5.33368L22.6696 5.33368ZM22.6696 25.3337C22.6696 27.5428 20.8787 29.3337 18.6696 29.3337L18.6696 26.667C19.406 26.667 20.0029 26.0701 20.0029 25.3337L22.6696 25.3337Z" fill="#090015"/>
</svg>
