<svg width="9" height="8" viewBox="0 0 9 8" fill="none" xmlns="http://www.w3.org/2000/svg">
<path fill-rule="evenodd" clip-rule="evenodd" d="M0.148398 7.14572C-0.0468619 7.34097 -0.0468619 7.65757 0.148398 7.85282C0.343663 8.04807 0.660243 8.04807 0.855508 7.85282L4.00195 4.70637L7.1484 7.85282C7.34365 8.04807 7.66025 8.04807 7.8555 7.85282C8.05075 7.65757 8.05075 7.34097 7.8555 7.14572L4.70905 3.99927L7.8555 0.852822C8.05075 0.657557 8.05075 0.340978 7.8555 0.145713C7.66025 -0.0495474 7.34365 -0.0495474 7.1484 0.145713L4.00195 3.29217L0.855508 0.145713C0.660243 -0.0495474 0.343663 -0.0495474 0.148398 0.145713C-0.0468619 0.340978 -0.0468619 0.657557 0.148398 0.852822L3.29485 3.99927L0.148398 7.14572Z" fill="white"/>
</svg>
