<svg width="17" height="18" viewBox="0 0 17 18" fill="none" xmlns="http://www.w3.org/2000/svg">
<path d="M2.91842 14.5824C2.83632 14.5009 2.77115 14.4039 2.72665 14.2971C2.68206 14.1901 2.6591 14.0753 2.6591 13.9593C2.6591 13.8434 2.68206 13.7286 2.72665 13.6215C2.77123 13.5145 2.83655 13.4174 2.91884 13.3358C2.91887 13.3357 2.91889 13.3357 2.91891 13.3357L7.26052 9.00099L2.91851 4.66587L2.91842 4.66578C2.75315 4.50051 2.66031 4.27637 2.66031 4.04265C2.66031 3.80894 2.75315 3.58479 2.91842 3.41953C3.08368 3.25426 3.30782 3.16142 3.54154 3.16142C3.77526 3.16142 3.9994 3.25426 4.16467 3.41953L4.16476 3.41962L8.49988 7.76163L12.835 3.41962L12.8351 3.41953C13.0003 3.25426 13.2245 3.16142 13.4582 3.16142C13.6919 3.16142 13.9161 3.25426 14.0813 3.41953C14.2466 3.58479 14.3394 3.80894 14.3394 4.04265C14.3394 4.27637 14.2466 4.50051 14.0813 4.66578L14.0812 4.66587L9.73923 9.00099L14.0808 13.3357C14.0809 13.3357 14.0809 13.3357 14.0809 13.3358C14.1632 13.4174 14.2285 13.5145 14.2731 13.6215C14.3177 13.7286 14.3406 13.8434 14.3406 13.9593C14.3406 14.0753 14.3177 14.1901 14.2731 14.2971C14.2286 14.4039 14.1634 14.5009 14.0813 14.5824C13.9998 14.6645 13.9028 14.7297 13.796 14.7742C13.689 14.8188 13.5742 14.8418 13.4582 14.8418C13.3423 14.8418 13.2275 14.8188 13.1204 14.7742C13.0134 14.7296 12.9163 14.6643 12.8346 14.582C12.8346 14.582 12.8346 14.582 12.8346 14.5819L8.49988 10.2403L4.16516 14.5819C4.16512 14.582 4.16509 14.582 4.16505 14.5821C4.08342 14.6643 3.98632 14.7296 3.87933 14.7742C3.77229 14.8188 3.65749 14.8418 3.54154 14.8418C3.42559 14.8418 3.31079 14.8188 3.20376 14.7742C3.09694 14.7297 2.99997 14.6645 2.91842 14.5824ZM2.91842 14.5824C2.91825 14.5823 2.91809 14.5821 2.91793 14.5819L3.03863 14.4622L2.91891 14.5829C2.91875 14.5828 2.91858 14.5826 2.91842 14.5824Z" fill="white" stroke="white" stroke-width="0.34"/>
</svg>
