<svg width="20" height="20" viewBox="0 0 20 20" fill="none" xmlns="http://www.w3.org/2000/svg">
<g clip-path="url(#clip0_85_9373)">
<mask id="mask0_85_9373" style="mask-type:luminance" maskUnits="userSpaceOnUse" x="0" y="0" width="20" height="20">
<path d="M20 0H0V20H20V0Z" fill="white"/>
</mask>
<g mask="url(#mask0_85_9373)">
<path d="M18.334 0.833391H12.5006C12.0235 0.831436 11.5609 0.997314 11.1938 1.302C10.8267 1.60669 10.5783 2.03077 10.4923 2.50006L9.72565 6.70839C9.67266 7.00159 9.68476 7.30285 9.76108 7.59086C9.8374 7.87886 9.97608 8.14658 10.1673 8.37506C10.3596 8.60365 10.5993 8.78765 10.8699 8.91429C11.1404 9.04092 11.4353 9.10716 11.734 9.10839H14.1673L13.959 9.65839C13.8052 10.0662 13.7517 10.505 13.8032 10.9378C13.8547 11.3706 14.0095 11.7847 14.2547 12.1451C14.4998 12.5054 14.8281 12.8015 15.2117 13.0084C15.5954 13.2152 16.0232 13.3267 16.459 13.3334C16.6207 13.3347 16.7793 13.2889 16.9154 13.2016C17.0515 13.1143 17.1593 12.9892 17.2256 12.8417L19.0923 8.62506C19.1348 8.5332 19.1602 8.43436 19.1673 8.33339V1.66672C19.1673 1.44571 19.0795 1.23375 18.9232 1.07747C18.7669 0.921188 18.555 0.833391 18.334 0.833391ZM17.5006 8.10839L15.9756 11.5501C15.8268 11.4691 15.6985 11.355 15.6006 11.2167C15.5026 11.0779 15.4406 10.9169 15.4202 10.7481C15.3998 10.5794 15.4217 10.4082 15.484 10.2501L15.8006 9.41672C15.8839 9.2006 15.9123 8.96718 15.8832 8.73739C15.8542 8.50759 15.7685 8.28861 15.634 8.10006C15.5015 7.91223 15.3253 7.75946 15.1206 7.65493C14.9159 7.5504 14.6888 7.49724 14.459 7.50006H11.7173C11.6619 7.50021 11.6072 7.48837 11.5569 7.46536C11.5065 7.44234 11.4617 7.40869 11.4256 7.36672C11.3609 7.27786 11.334 7.16704 11.3506 7.05839L12.1173 2.89172C12.1137 2.84008 12.1211 2.78826 12.139 2.73967C12.1569 2.69108 12.1848 2.64683 12.221 2.60983C12.2573 2.57283 12.3009 2.54392 12.3491 2.525C12.3973 2.50608 12.4489 2.49758 12.5006 2.50006H17.5006V8.10839ZM8.28398 10.8751H5.87565L6.08398 10.3251C6.23557 9.91486 6.28588 9.47414 6.23066 9.04033C6.17544 8.60653 6.01631 8.19247 5.7668 7.83333C5.51729 7.4742 5.18476 7.1806 4.79749 6.9775C4.41021 6.77439 3.97962 6.66778 3.54232 6.66672C3.3806 6.66545 3.22201 6.71125 3.08587 6.79855C2.94974 6.88586 2.84195 7.01088 2.77565 7.15839L0.908984 11.3751C0.86123 11.4798 0.835693 11.5933 0.833984 11.7084V18.3751C0.833984 18.5961 0.921781 18.808 1.07806 18.9643C1.23434 19.1206 1.4463 19.2084 1.66732 19.2084H7.50065C7.97775 19.2103 8.44035 19.0445 8.80749 18.7398C9.17464 18.4351 9.42295 18.011 9.50898 17.5417L10.2756 13.3751C10.3286 13.0819 10.3165 12.7806 10.2402 12.4926C10.1639 12.2046 10.0252 11.9369 9.83398 11.7084C9.65329 11.4635 9.42055 11.2618 9.15253 11.1177C8.88451 10.9736 8.58788 10.8907 8.28398 10.8751ZM7.88398 17.1917C7.86967 17.2815 7.82253 17.3627 7.7517 17.4197C7.68087 17.4767 7.5914 17.5053 7.50065 17.5001H2.50065V11.8917L4.02565 8.45006C4.17449 8.53104 4.30277 8.64507 4.40065 8.78339C4.49872 8.92221 4.56073 9.08324 4.58109 9.25199C4.60146 9.42073 4.57954 9.59189 4.51732 9.75006L4.20065 10.5834C4.11734 10.7995 4.08896 11.0329 4.11805 11.2627C4.14714 11.4925 4.23278 11.7115 4.36732 11.9001C4.49794 12.091 4.67333 12.247 4.87815 12.3545C5.08297 12.462 5.311 12.5177 5.54232 12.5167H8.28398C8.33934 12.5166 8.39408 12.5284 8.44443 12.5514C8.49478 12.5744 8.53955 12.6081 8.57565 12.6501C8.64034 12.7389 8.6673 12.8497 8.65065 12.9584L7.88398 17.1917Z" fill="white"/>
</g>
</g>
<defs>
<clipPath id="clip0_85_9373">
<rect width="20" height="20" fill="white"/>
</clipPath>
</defs>
</svg>
