<svg width="36" height="37" viewBox="0 0 36 37" fill="none" xmlns="http://www.w3.org/2000/svg">
<path d="M18 32.3296C14.8173 32.3296 11.7651 31.0653 9.51461 28.815C7.26431 26.5644 6 23.5122 6 20.3296C6 17.1469 7.26431 14.0947 9.51461 11.8442C11.7652 9.5939 14.8174 8.32959 18 8.32959C21.1826 8.32959 24.2349 9.5939 26.4854 11.8442C28.7357 14.0948 30 17.1469 30 20.3296C30 23.5122 28.7357 26.5645 26.4854 28.815C24.2348 31.0653 21.1826 32.3296 18 32.3296ZM18 10.9961C15.5247 10.9961 13.1506 11.9794 11.4003 13.7298C9.64993 15.4801 8.66661 17.8542 8.66661 20.3295C8.66661 22.8048 9.64993 25.1789 11.4003 26.9293C13.1506 28.6796 15.5247 29.6629 18 29.6629C20.4753 29.6629 22.8494 28.6796 24.5997 26.9293C26.3501 25.1789 27.3334 22.8048 27.3334 20.3295C27.3334 17.8542 26.3501 15.4801 24.5997 13.7298C22.8494 11.9794 20.4753 10.9961 18 10.9961Z" fill="#9C5BFF"/>
<path d="M20.6719 24.3349C20.3175 24.3369 19.977 24.1977 19.7252 23.9482L17.0585 21.2816C16.8091 21.0298 16.6698 20.6893 16.6719 20.3348V16.3348C16.6719 15.8583 16.9261 15.4181 17.3386 15.18C17.7511 14.9419 18.2594 14.9419 18.6719 15.18C19.0844 15.4181 19.3386 15.8583 19.3386 16.3348V19.7881L21.6187 22.0547C21.8711 22.3051 22.013 22.6458 22.013 23.0015C22.013 23.3572 21.8711 23.6979 21.6187 23.9482C21.3669 24.1977 21.0264 24.3369 20.6719 24.3349H20.6719Z" fill="#9C5BFF"/>
<path d="M21.9974 5.66815H13.9974C13.5209 5.66815 13.0807 5.41398 12.8426 5.00148C12.6045 4.58897 12.6045 4.08063 12.8426 3.66814C13.0807 3.25564 13.5209 3.00146 13.9974 3.00146H21.9974C22.4739 3.00146 22.9141 3.25563 23.1522 3.66814C23.3903 4.08064 23.3903 4.58898 23.1522 5.00148C22.9141 5.41398 22.4739 5.66815 21.9974 5.66815Z" fill="#9C5BFF"/>
</svg>
