<svg width="30" height="30" viewBox="0 0 30 30" fill="none" xmlns="http://www.w3.org/2000/svg">
<path d="M15.2998 27.6384C8.48541 27.6384 2.96124 22.1142 2.96124 15.2998C2.96124 8.48541 8.48541 2.96124 15.2998 2.96124C22.1142 2.96124 27.6384 8.48541 27.6384 15.2998C27.6309 22.1111 22.1111 27.6309 15.2998 27.6384ZM15.2998 19.0014C14.6184 19.0014 14.066 19.5538 14.066 20.2352V20.2352C14.066 20.9167 14.6184 21.4691 15.2998 21.4691V21.4691C15.9812 21.4691 16.5337 20.9167 16.5337 20.2352V20.2352C16.5337 19.5538 15.9812 19.0014 15.2998 19.0014V19.0014ZM15.2998 9.13052C14.6184 9.13052 14.066 9.68294 14.066 10.3644V15.2998C14.066 15.9812 14.6184 16.5337 15.2998 16.5337V16.5337C15.9812 16.5337 16.5337 15.9812 16.5337 15.2998V10.3644C16.5337 9.68294 15.9812 9.13052 15.2998 9.13052V9.13052Z" fill="#F97316"/>
</svg>