<svg width="20" height="20" viewBox="0 0 20 20" fill="none" xmlns="http://www.w3.org/2000/svg">
<mask id="mask0_85_9379" style="mask-type:luminance" maskUnits="userSpaceOnUse" x="3" y="1" width="14" height="18">
<path d="M16.43 1.86523H3.5V18.1352H16.43V1.86523Z" fill="white"/>
</mask>
<g mask="url(#mask0_85_9379)">
<path d="M6.83008 10.8352C6.83008 11.0052 6.90008 11.1652 7.02008 11.2852C7.14008 11.4052 7.30008 11.4752 7.47008 11.4752H12.4701C12.6401 11.4752 12.8001 11.4052 12.9201 11.2852C13.0401 11.1652 13.1101 11.0052 13.1101 10.8352C13.1101 10.6652 13.0401 10.5052 12.9201 10.3852C12.8001 10.2652 12.6401 10.1952 12.4701 10.1952H7.47008C7.30008 10.1952 7.14008 10.2652 7.02008 10.3852C6.90008 10.5052 6.83008 10.6652 6.83008 10.8352Z" fill="white"/>
<path d="M7.47008 8.13522H8.30008C8.47008 8.13522 8.63008 8.06522 8.75008 7.94522C8.87008 7.82522 8.94008 7.66522 8.94008 7.49522C8.94008 7.32522 8.87008 7.16522 8.75008 7.04522C8.63008 6.92522 8.47008 6.85522 8.30008 6.85522H7.47008C7.30008 6.85522 7.14008 6.92522 7.02008 7.04522C6.90008 7.16522 6.83008 7.32522 6.83008 7.49522C6.83008 7.66522 6.90008 7.82522 7.02008 7.94522C7.14008 8.06522 7.30008 8.13522 7.47008 8.13522Z" fill="white"/>
<path d="M12.4701 13.5353H7.47008C7.30008 13.5353 7.14008 13.6053 7.02008 13.7253C6.90008 13.8453 6.83008 14.0053 6.83008 14.1753C6.83008 14.3453 6.90008 14.5053 7.02008 14.6253C7.14008 14.7453 7.30008 14.8153 7.47008 14.8153H12.4701C12.6401 14.8153 12.8001 14.7453 12.9201 14.6253C13.0401 14.5053 13.1101 14.3453 13.1101 14.1753C13.1101 14.0053 13.0401 13.8453 12.9201 13.7253C12.8001 13.6053 12.6401 13.5353 12.4701 13.5353Z" fill="white"/>
<path d="M16.38 7.19522C16.35 7.14522 16.32 7.09522 16.28 7.05522L11.28 2.05522C11.28 2.05522 11.19 1.98522 11.14 1.95522H11.09L11.01 1.92522C10.95 1.89522 10.88 1.86522 10.81 1.85522H5.8C5.19 1.86522 4.61 2.10522 4.17 2.53522C3.74 2.97522 3.5 3.54522 3.5 4.16522V15.8352C3.5 16.4452 3.74 17.0252 4.17 17.4652C4.6 17.9052 5.18 18.1352 5.8 18.1352H14.13C14.74 18.1352 15.32 17.8952 15.76 17.4652C16.19 17.0352 16.43 16.4552 16.43 15.8352V7.46522C16.43 7.40522 16.41 7.34522 16.39 7.29522V7.20522L16.38 7.19522ZM11.43 4.02522L14.27 6.86522H12.46C12.18 6.86522 11.92 6.75522 11.73 6.56522C11.53 6.36522 11.43 6.10522 11.43 5.83522V4.02522ZM15.16 15.8352C15.16 16.1052 15.05 16.3752 14.86 16.5652C14.67 16.7552 14.4 16.8652 14.13 16.8652H5.8C5.53 16.8652 5.26 16.7552 5.07 16.5652C4.88 16.3752 4.77 16.1052 4.77 15.8352V4.16522C4.77 3.88522 4.88 3.62522 5.07 3.43522C5.26 3.24522 5.53 3.13522 5.8 3.13522H10.17V5.83522C10.17 6.45522 10.41 7.02522 10.84 7.46522C11.27 7.89522 11.86 8.13522 12.47 8.13522H15.17V15.8352H15.16Z" fill="white"/>
</g>
</svg>
