<svg width="18" height="18" viewBox="0 0 18 18" fill="none" xmlns="http://www.w3.org/2000/svg">
<path d="M14.25 3.375L3.75 3.375C3.15326 3.375 2.58097 3.61205 2.15901 4.03401C1.73705 4.45597 1.5 5.02826 1.5 5.625L1.5 12.375C1.5 12.9717 1.73705 13.544 2.15901 13.966C2.58097 14.3879 3.15326 14.625 3.75 14.625H14.25C14.8467 14.625 15.419 14.3879 15.841 13.966C16.2629 13.544 16.5 12.9717 16.5 12.375V5.625C16.5 5.02826 16.2629 4.45597 15.841 4.03401C15.419 3.61205 14.8467 3.375 14.25 3.375ZM15 12.375C15 12.5739 14.921 12.7647 14.7803 12.9053C14.6397 13.046 14.4489 13.125 14.25 13.125H3.75C3.55109 13.125 3.36032 13.046 3.21967 12.9053C3.07902 12.7647 3 12.5739 3 12.375V5.625C3 5.42609 3.07902 5.23532 3.21967 5.09467C3.36032 4.95402 3.55109 4.875 3.75 4.875H14.25C14.4489 4.875 14.6397 4.95402 14.7803 5.09467C14.921 5.23532 15 5.42609 15 5.625V12.375ZM12 7.875C11.6013 7.87779 11.2104 7.9865 10.8675 8.19C10.5259 7.98729 10.1367 7.87864 9.73947 7.87509C9.34225 7.87154 8.95117 7.97321 8.60598 8.16977C8.26079 8.36633 7.97379 8.65077 7.77414 8.99419C7.5745 9.33761 7.46934 9.72777 7.46934 10.125C7.46934 10.5222 7.5745 10.9124 7.77414 11.2558C7.97379 11.5992 8.26079 11.8837 8.60598 12.0802C8.95117 12.2768 9.34225 12.3785 9.73947 12.3749C10.1367 12.3714 10.5259 12.2627 10.8675 12.06C11.1658 12.237 11.5011 12.3426 11.847 12.3686C12.193 12.3946 12.5402 12.3403 12.8617 12.2098C13.1831 12.0794 13.47 11.8763 13.7 11.6166C13.93 11.3569 14.0968 11.0475 14.1875 10.7127C14.2781 10.3778 14.29 10.0265 14.2224 9.68628C14.1548 9.34603 14.0094 9.02602 13.7976 8.75127C13.5858 8.47652 13.3133 8.25447 13.0015 8.10246C12.6897 7.95045 12.3469 7.8726 12 7.875V7.875ZM9.8775 10.875C9.83508 10.8786 9.79242 10.8786 9.75 10.875C9.55109 10.875 9.36032 10.796 9.21967 10.6553C9.07902 10.5147 9 10.3239 9 10.125C9 9.92609 9.07902 9.73532 9.21967 9.59467C9.36032 9.45402 9.55109 9.375 9.75 9.375C9.79242 9.37138 9.83508 9.37138 9.8775 9.375C9.70779 9.84 9.70779 10.35 9.8775 10.815V10.875ZM12 10.875C11.8517 10.875 11.7067 10.831 11.5833 10.7486C11.46 10.6662 11.3639 10.5491 11.3071 10.412C11.2503 10.275 11.2355 10.1242 11.2644 9.97868C11.2933 9.8332 11.3648 9.69956 11.4697 9.59467C11.5746 9.48978 11.7082 9.41835 11.8537 9.38941C11.9992 9.36047 12.15 9.37532 12.287 9.43209C12.4241 9.48886 12.5412 9.58499 12.6236 9.70832C12.706 9.83166 12.75 9.97666 12.75 10.125C12.75 10.3239 12.671 10.5147 12.5303 10.6553C12.3897 10.796 12.1989 10.875 12 10.875Z" fill="white"/>
</svg>
