<svg width="14" height="14" viewBox="0 0 14 14" fill="none" xmlns="http://www.w3.org/2000/svg">
<path d="M6.99984 6.4165C6.84513 6.4165 6.69676 6.47796 6.58736 6.58736C6.47796 6.69675 6.41651 6.84513 6.41651 6.99984V9.33317C6.41651 9.48788 6.47796 9.63625 6.58736 9.74565C6.69676 9.85505 6.84513 9.9165 6.99984 9.9165C7.15455 9.9165 7.30292 9.85505 7.41232 9.74565C7.52171 9.63625 7.58317 9.48788 7.58317 9.33317V6.99984C7.58317 6.84513 7.52171 6.69675 7.41232 6.58736C7.30292 6.47796 7.15455 6.4165 6.99984 6.4165ZM7.22151 4.12984C7.07949 4.07149 6.92019 4.07149 6.77817 4.12984C6.70657 4.1576 6.64115 4.19923 6.58567 4.25234C6.53415 4.30904 6.49271 4.37415 6.46317 4.44484C6.43052 4.51407 6.41453 4.58998 6.41651 4.6665C6.41606 4.74327 6.43078 4.81938 6.45981 4.89045C6.48884 4.96152 6.53161 5.02616 6.58567 5.08067C6.64237 5.1322 6.70748 5.17363 6.77817 5.20317C6.86655 5.23948 6.96249 5.25352 7.05756 5.24407C7.15263 5.23462 7.24393 5.20196 7.32342 5.14896C7.40292 5.09596 7.46818 5.02425 7.51347 4.94013C7.55876 4.856 7.5827 4.76204 7.58317 4.6665C7.58102 4.51206 7.5206 4.36412 7.41401 4.25234C7.35853 4.19923 7.29311 4.1576 7.22151 4.12984ZM6.99984 1.1665C5.84612 1.1665 4.7183 1.50862 3.75901 2.1496C2.79973 2.79057 2.05205 3.70161 1.61054 4.76752C1.16903 5.83342 1.05351 7.00631 1.27859 8.13786C1.50367 9.26942 2.05924 10.3088 2.87505 11.1246C3.69086 11.9404 4.73026 12.496 5.86181 12.7211C6.99337 12.9462 8.16626 12.8306 9.23216 12.3891C10.2981 11.9476 11.2091 11.2 11.8501 10.2407C12.4911 9.28138 12.8332 8.15356 12.8332 6.99984C12.8332 6.23379 12.6823 5.47525 12.3891 4.76752C12.096 4.05978 11.6663 3.41672 11.1246 2.87505C10.583 2.33337 9.93989 1.90369 9.23216 1.61054C8.52443 1.31739 7.76588 1.1665 6.99984 1.1665ZM6.99984 11.6665C6.07686 11.6665 5.17461 11.3928 4.40718 10.88C3.63975 10.3672 3.04161 9.63841 2.6884 8.78569C2.33519 7.93297 2.24278 6.99466 2.42284 6.08942C2.60291 5.18417 3.04736 4.35265 3.70001 3.70001C4.35265 3.04736 5.18417 2.6029 6.08942 2.42284C6.99466 2.24277 7.93297 2.33519 8.7857 2.6884C9.63842 3.04161 10.3673 3.63975 10.88 4.40718C11.3928 5.17461 11.6665 6.07686 11.6665 6.99984C11.6665 8.23751 11.1748 9.4245 10.2997 10.2997C9.4245 11.1748 8.23752 11.6665 6.99984 11.6665Z" fill="#CFCED1"/>
</svg>
