<svg width="30" height="30" viewBox="0 0 30 30" fill="none" xmlns="http://www.w3.org/2000/svg">
<path fill-rule="evenodd" clip-rule="evenodd" d="M27.0969 15.003C27.0969 21.6839 21.681 27.0998 15.0002 27.0998C8.31929 27.0998 2.90338 21.6839 2.90338 15.003C2.90338 8.32215 8.31929 2.90624 15.0002 2.90624C21.681 2.90624 27.0969 8.32215 27.0969 15.003ZM16.344 9.62772C16.344 10.37 15.7422 10.9718 14.9999 10.9718C14.2576 10.9718 13.6558 10.37 13.6558 9.62772C13.6558 8.8854 14.2576 8.28363 14.9999 8.28363C15.7422 8.28363 16.344 8.8854 16.344 9.62772ZM16.2752 21.7224V13.6579H13.7251V21.7224H16.2752Z" fill="#396CDB"/>
</svg>
