<svg width="70" height="38" viewBox="0 0 70 38" fill="none" xmlns="http://www.w3.org/2000/svg">
<circle cx="19.0002" cy="19" r="18.5" fill="#7F3FF3" fill-opacity="0.1" stroke="#9D5CFF"/>
<path fill-rule="evenodd" clip-rule="evenodd" d="M30.6636 34C35.1284 30.5234 38.0003 25.0971 38.0003 19C38.0003 12.9029 35.1284 7.47662 30.6636 4H55.0003C63.2845 4 70.0003 10.7157 70.0003 19C70.0003 27.2843 63.2845 34 55.0003 34H30.6636Z" fill="#7F3FF3" fill-opacity="0.1"/>
<path d="M26.467 16.8928H25.9338V13.6786C25.9338 13.5365 25.8776 13.4002 25.7776 13.2998C25.6776 13.1993 25.5419 13.1428 25.4005 13.1428H12.6028C12.4765 13.1449 12.3536 13.1019 12.256 13.0215C12.1583 12.941 12.0922 12.8284 12.0695 12.7036V12.5107C12.0922 12.3859 12.1583 12.2733 12.256 12.1928C12.3536 12.1124 12.4765 12.0694 12.6028 12.0714H25.1766C25.318 12.0714 25.4536 12.015 25.5536 11.9145C25.6536 11.8141 25.7098 11.6778 25.7098 11.5357C25.7098 11.3936 25.6536 11.2574 25.5536 11.1569C25.4536 11.0564 25.318 11 25.1766 11H12.6028C12.1785 11 11.7716 11.1693 11.4716 11.4707C11.1716 11.7721 11.0031 12.1809 11.0031 12.6071C10.9993 12.6714 10.9993 12.7358 11.0031 12.8V23.8196C11.0051 24.108 11.0638 24.3932 11.1756 24.6589C11.2874 24.9246 11.4502 25.1655 11.6547 25.368C11.8592 25.5705 12.1014 25.7305 12.3675 25.8389C12.6335 25.9473 12.9182 26.0021 13.2053 25.9999H25.4005C25.5419 25.9999 25.6776 25.9435 25.7776 25.843C25.8776 25.7426 25.9338 25.6063 25.9338 25.4642V22.25H26.467C26.6084 22.25 26.7441 22.1935 26.8441 22.093C26.9441 21.9926 27.0002 21.8563 27.0002 21.7142V17.4285C27.0002 17.2865 26.9441 17.1502 26.8441 17.0497C26.7441 16.9493 26.6084 16.8928 26.467 16.8928ZM24.8673 24.9285H13.2053C12.9087 24.9314 12.623 24.8165 12.4103 24.6088C12.1976 24.4012 12.0751 24.1175 12.0695 23.8196V14.15C12.2426 14.2004 12.4227 14.2221 12.6028 14.2143H24.8673V16.8928H21.1346C20.4275 16.8928 19.7493 17.175 19.2493 17.6774C18.7493 18.1797 18.4684 18.861 18.4684 19.5714C18.4684 20.2818 18.7493 20.9631 19.2493 21.4654C19.7493 21.9678 20.4275 22.25 21.1346 22.25H24.8673V24.9285ZM25.9338 21.1785H21.1346C20.7103 21.1785 20.3034 21.0092 20.0034 20.7078C19.7034 20.4064 19.5349 19.9976 19.5349 19.5714C19.5349 19.1452 19.7034 18.7364 20.0034 18.435C20.3034 18.1336 20.7103 17.9643 21.1346 17.9643H25.9338V21.1785Z" fill="#9D5CFF"/>
<path fill-rule="evenodd" clip-rule="evenodd" d="M46.9699 16.2197C47.2628 15.9268 47.7377 15.9268 48.0306 16.2197L52.0002 20.1893L55.9699 16.2197C56.2628 15.9268 56.7377 15.9268 57.0306 16.2197C57.3235 16.5126 57.3235 16.9874 57.0306 17.2803L52.5306 21.7803C52.2377 22.0732 51.7628 22.0732 51.4699 21.7803L46.9699 17.2803C46.677 16.9874 46.677 16.5126 46.9699 16.2197Z" fill="#9D99A1"/>
</svg>
