<svg width="136" height="44" viewBox="0 0 136 44" fill="none" xmlns="http://www.w3.org/2000/svg">
<rect x="0.5" y="0.5" width="135" height="43" rx="11.5" fill="#08050D"/>
<path d="M30.9678 20.0516C30.976 20.1789 30.9309 20.304 30.8433 20.3969C30.7556 20.4897 30.6334 20.5421 30.5057 20.5413H24.3943V14.4317C24.3935 14.3041 24.4459 14.1819 24.5387 14.0943C24.6317 14.0066 24.7567 13.9615 24.8841 13.9697C26.4585 14.0869 27.9385 14.7653 29.0549 15.8814C30.1712 16.9975 30.85 18.4773 30.9676 20.0516L30.9678 20.0516ZM29.4772 22.7146C29.4772 24.6384 28.713 26.4835 27.3527 27.8439C25.9922 29.2043 24.1472 29.9686 22.2235 29.9688C20.2996 29.969 18.4545 29.2049 17.0941 27.8447C15.7335 26.4845 14.969 24.6396 14.9688 22.7156C14.9684 20.7918 15.7324 18.9467 17.0925 17.586C18.4527 16.2253 20.2976 15.4608 22.2213 15.4604C22.432 15.4604 22.634 15.5438 22.7831 15.6927C22.9321 15.8414 23.0161 16.0432 23.0165 16.2538V21.9194H28.6822C28.8931 21.9194 29.0952 22.0031 29.2444 22.1523C29.3935 22.3013 29.4773 22.5036 29.4773 22.7145L29.4772 22.7146ZM27.8314 23.5096H22.2211C22.0103 23.5096 21.808 23.4259 21.659 23.2767C21.5098 23.1276 21.4261 22.9254 21.4261 22.7146V17.1044C20.0294 17.3026 18.7569 18.0145 17.8576 19.1011C16.9581 20.1878 16.4964 21.5708 16.5626 22.98C16.6289 24.389 17.2184 25.7227 18.2158 26.7201C19.2132 27.7175 20.5468 28.307 21.956 28.3733C23.365 28.4395 24.7481 27.9778 25.8349 27.0783C26.9216 26.1789 27.6335 24.9064 27.8316 23.5099L27.8314 23.5096Z" fill="#9D5CFF"/>
<path d="M40.994 27V17.2H42.744L46.062 23.724L49.366 17.2H51.116V27H49.632V19.762L46.636 25.6H45.488L42.478 19.776V27H40.994ZM53.8633 30.08L55.5293 26.426H55.1233L52.3793 20.056H53.9893L56.1173 25.194L58.3433 20.056H59.9113L55.4313 30.08H53.8633ZM64.7147 27V17.2H68.1447C68.91 17.2 69.5447 17.3307 70.0487 17.592C70.5527 17.844 70.926 18.194 71.1687 18.642C71.4207 19.0807 71.5467 19.58 71.5467 20.14C71.5467 20.672 71.4254 21.162 71.1827 21.61C70.9494 22.0487 70.5807 22.3987 70.0767 22.66C69.5727 22.9213 68.9287 23.052 68.1447 23.052H66.1987V27H64.7147ZM66.1987 21.834H68.0747C68.7747 21.834 69.274 21.6847 69.5727 21.386C69.8807 21.078 70.0347 20.6627 70.0347 20.14C70.0347 19.5987 69.8807 19.1787 69.5727 18.88C69.274 18.572 68.7747 18.418 68.0747 18.418H66.1987V21.834ZM75.8227 27.168C75.1601 27.168 74.5627 27.0187 74.0307 26.72C73.5081 26.412 73.0927 25.9873 72.7847 25.446C72.4767 24.8953 72.3227 24.256 72.3227 23.528C72.3227 22.8 72.4767 22.1653 72.7847 21.624C73.1021 21.0733 73.5267 20.6487 74.0587 20.35C74.5907 20.042 75.1834 19.888 75.8367 19.888C76.4994 19.888 77.0921 20.042 77.6147 20.35C78.1467 20.6487 78.5667 21.0733 78.8747 21.624C79.1921 22.1653 79.3507 22.8 79.3507 23.528C79.3507 24.256 79.1921 24.8953 78.8747 25.446C78.5667 25.9873 78.1467 26.412 77.6147 26.72C77.0827 27.0187 76.4854 27.168 75.8227 27.168ZM75.8227 25.894C76.1774 25.894 76.5041 25.8053 76.8027 25.628C77.1107 25.4507 77.3581 25.1893 77.5447 24.844C77.7314 24.4893 77.8247 24.0507 77.8247 23.528C77.8247 23.0053 77.7314 22.5713 77.5447 22.226C77.3674 21.8713 77.1247 21.6053 76.8167 21.428C76.5181 21.2507 76.1914 21.162 75.8367 21.162C75.4821 21.162 75.1507 21.2507 74.8427 21.428C74.5441 21.6053 74.3014 21.8713 74.1147 22.226C73.9281 22.5713 73.8347 23.0053 73.8347 23.528C73.8347 24.0507 73.9281 24.4893 74.1147 24.844C74.3014 25.1893 74.5441 25.4507 74.8427 25.628C75.1414 25.8053 75.4681 25.894 75.8227 25.894ZM83.7276 27.168C82.8502 27.168 82.1269 26.9533 81.5576 26.524C80.9882 26.0947 80.6616 25.5253 80.5776 24.816H82.0756C82.1502 25.1333 82.3276 25.4087 82.6076 25.642C82.8876 25.866 83.2562 25.978 83.7136 25.978C84.1616 25.978 84.4882 25.8847 84.6936 25.698C84.8989 25.5113 85.0016 25.2967 85.0016 25.054C85.0016 24.6993 84.8569 24.4613 84.5676 24.34C84.2876 24.2093 83.8956 24.0927 83.3916 23.99C82.9996 23.906 82.6076 23.794 82.2156 23.654C81.8329 23.514 81.5109 23.318 81.2496 23.066C80.9976 22.8047 80.8716 22.4547 80.8716 22.016C80.8716 21.4093 81.1049 20.9053 81.5716 20.504C82.0382 20.0933 82.6916 19.888 83.5316 19.888C84.3062 19.888 84.9316 20.0747 85.4076 20.448C85.8929 20.8213 86.1776 21.3487 86.2616 22.03H84.8336C84.7869 21.7313 84.6469 21.498 84.4136 21.33C84.1896 21.162 83.8862 21.078 83.5036 21.078C83.1302 21.078 82.8409 21.1573 82.6356 21.316C82.4302 21.4653 82.3276 21.6613 82.3276 21.904C82.3276 22.1467 82.4676 22.338 82.7476 22.478C83.0369 22.618 83.4149 22.744 83.8816 22.856C84.3482 22.9587 84.7776 23.08 85.1696 23.22C85.5709 23.3507 85.8929 23.5467 86.1356 23.808C86.3782 24.0693 86.4996 24.452 86.4996 24.956C86.5089 25.5907 86.2616 26.118 85.7576 26.538C85.2629 26.958 84.5862 27.168 83.7276 27.168ZM88.9596 18.74C88.6796 18.74 88.4463 18.656 88.2596 18.488C88.0823 18.3107 87.9936 18.0913 87.9936 17.83C87.9936 17.5687 88.0823 17.354 88.2596 17.186C88.4463 17.0087 88.6796 16.92 88.9596 16.92C89.2396 16.92 89.4683 17.0087 89.6456 17.186C89.8323 17.354 89.9256 17.5687 89.9256 17.83C89.9256 18.0913 89.8323 18.3107 89.6456 18.488C89.4683 18.656 89.2396 18.74 88.9596 18.74ZM88.2176 27V20.056H89.7016V27H88.2176ZM94.5727 27C93.8913 27 93.35 26.8367 92.9487 26.51C92.5473 26.174 92.3467 25.5813 92.3467 24.732V21.302H91.1567V20.056H92.3467L92.5287 18.292H93.8307V20.056H95.7907V21.302H93.8307V24.732C93.8307 25.1147 93.91 25.3807 94.0687 25.53C94.2367 25.67 94.5213 25.74 94.9227 25.74H95.7207V27H94.5727ZM98.1608 18.74C97.8808 18.74 97.6475 18.656 97.4608 18.488C97.2835 18.3107 97.1948 18.0913 97.1948 17.83C97.1948 17.5687 97.2835 17.354 97.4608 17.186C97.6475 17.0087 97.8808 16.92 98.1608 16.92C98.4408 16.92 98.6695 17.0087 98.8468 17.186C99.0335 17.354 99.1268 17.5687 99.1268 17.83C99.1268 18.0913 99.0335 18.3107 98.8468 18.488C98.6695 18.656 98.4408 18.74 98.1608 18.74ZM97.4188 27V20.056H98.9028V27H97.4188ZM104.11 27.168C103.447 27.168 102.85 27.0187 102.318 26.72C101.795 26.412 101.38 25.9873 101.072 25.446C100.764 24.8953 100.61 24.256 100.61 23.528C100.61 22.8 100.764 22.1653 101.072 21.624C101.389 21.0733 101.814 20.6487 102.346 20.35C102.878 20.042 103.47 19.888 104.124 19.888C104.786 19.888 105.379 20.042 105.902 20.35C106.434 20.6487 106.854 21.0733 107.162 21.624C107.479 22.1653 107.638 22.8 107.638 23.528C107.638 24.256 107.479 24.8953 107.162 25.446C106.854 25.9873 106.434 26.412 105.902 26.72C105.37 27.0187 104.772 27.168 104.11 27.168ZM104.11 25.894C104.464 25.894 104.791 25.8053 105.09 25.628C105.398 25.4507 105.645 25.1893 105.832 24.844C106.018 24.4893 106.112 24.0507 106.112 23.528C106.112 23.0053 106.018 22.5713 105.832 22.226C105.654 21.8713 105.412 21.6053 105.104 21.428C104.805 21.2507 104.478 21.162 104.124 21.162C103.769 21.162 103.438 21.2507 103.13 21.428C102.831 21.6053 102.588 21.8713 102.402 22.226C102.215 22.5713 102.122 23.0053 102.122 23.528C102.122 24.0507 102.215 24.4893 102.402 24.844C102.588 25.1893 102.831 25.4507 103.13 25.628C103.428 25.8053 103.755 25.894 104.11 25.894ZM109.243 27V20.056H110.559L110.671 21.274C110.885 20.8447 111.198 20.5087 111.609 20.266C112.029 20.014 112.509 19.888 113.051 19.888C113.891 19.888 114.549 20.1493 115.025 20.672C115.51 21.1947 115.753 21.974 115.753 23.01V27H114.283V23.164C114.283 21.82 113.732 21.148 112.631 21.148C112.08 21.148 111.623 21.344 111.259 21.736C110.904 22.128 110.727 22.688 110.727 23.416V27H109.243ZM120.273 27.168C119.395 27.168 118.672 26.9533 118.103 26.524C117.533 26.0947 117.207 25.5253 117.123 24.816H118.62C118.695 25.1333 118.873 25.4087 119.153 25.642C119.433 25.866 119.801 25.978 120.258 25.978C120.707 25.978 121.033 25.8847 121.239 25.698C121.444 25.5113 121.547 25.2967 121.547 25.054C121.547 24.6993 121.402 24.4613 121.113 24.34C120.833 24.2093 120.441 24.0927 119.937 23.99C119.545 23.906 119.153 23.794 118.761 23.654C118.378 23.514 118.056 23.318 117.795 23.066C117.543 22.8047 117.417 22.4547 117.417 22.016C117.417 21.4093 117.65 20.9053 118.117 20.504C118.583 20.0933 119.237 19.888 120.077 19.888C120.851 19.888 121.477 20.0747 121.953 20.448C122.438 20.8213 122.723 21.3487 122.807 22.03H121.379C121.332 21.7313 121.192 21.498 120.959 21.33C120.735 21.162 120.431 21.078 120.049 21.078C119.675 21.078 119.386 21.1573 119.181 21.316C118.975 21.4653 118.873 21.6613 118.873 21.904C118.873 22.1467 119.013 22.338 119.293 22.478C119.582 22.618 119.96 22.744 120.427 22.856C120.893 22.9587 121.323 23.08 121.715 23.22C122.116 23.3507 122.438 23.5467 122.681 23.808C122.923 24.0693 123.045 24.452 123.045 24.956C123.054 25.5907 122.807 26.118 122.303 26.538C121.808 26.958 121.131 27.168 120.273 27.168Z" fill="#9D5CFF"/>
<rect x="0.5" y="0.5" width="135" height="43" rx="11.5" stroke="#160D24"/>
</svg>
