<svg width="170" height="38" viewBox="0 0 170 38" fill="none" xmlns="http://www.w3.org/2000/svg">
<rect y="0.000976562" width="170" height="38" rx="8" fill="#9D5CFF" fill-opacity="0.1"/>
<path d="M29.68 13.881L26.384 25.001H24.32L21.984 16.585L19.504 25.001L17.456 25.017L14.304 13.881H16.24L18.544 22.937L21.04 13.881H23.088L25.408 22.889L27.728 13.881H29.68ZM30.5764 20.553C30.5764 19.6676 30.7577 18.8836 31.1204 18.201C31.4937 17.5183 31.995 16.9903 32.6244 16.617C33.2644 16.233 33.9684 16.041 34.7364 16.041C35.4297 16.041 36.0324 16.1796 36.5444 16.457C37.067 16.7236 37.483 17.0596 37.7924 17.465V16.185H39.6324V25.001H37.7924V23.689C37.483 24.105 37.0617 24.4516 36.5284 24.729C35.995 25.0063 35.387 25.145 34.7044 25.145C33.947 25.145 33.2537 24.953 32.6244 24.569C31.995 24.1743 31.4937 23.6303 31.1204 22.937C30.7577 22.233 30.5764 21.4383 30.5764 20.553ZM37.7924 20.585C37.7924 19.977 37.6644 19.449 37.4084 19.001C37.163 18.553 36.8377 18.2116 36.4324 17.977C36.027 17.7423 35.5897 17.625 35.1204 17.625C34.651 17.625 34.2137 17.7423 33.8084 17.977C33.403 18.201 33.0724 18.537 32.8164 18.985C32.571 19.4223 32.4484 19.945 32.4484 20.553C32.4484 21.161 32.571 21.6943 32.8164 22.153C33.0724 22.6116 33.403 22.9636 33.8084 23.209C34.2244 23.4436 34.6617 23.561 35.1204 23.561C35.5897 23.561 36.027 23.4436 36.4324 23.209C36.8377 22.9743 37.163 22.633 37.4084 22.185C37.6644 21.7263 37.7924 21.193 37.7924 20.585ZM44.1561 17.673V22.553C44.1561 22.8836 44.2308 23.1236 44.3801 23.273C44.5401 23.4116 44.8068 23.481 45.1801 23.481H46.3001V25.001H44.8601C44.0388 25.001 43.4095 24.809 42.9721 24.425C42.5348 24.041 42.3161 23.417 42.3161 22.553V17.673H41.2761V16.185H42.3161V13.993H44.1561V16.185H46.3001V17.673H44.1561ZM47.3733 20.585C47.3733 19.6783 47.5546 18.8836 47.9173 18.201C48.2906 17.5076 48.8026 16.9743 49.4533 16.601C50.1039 16.2276 50.8506 16.041 51.6933 16.041C52.7599 16.041 53.6399 16.297 54.3333 16.809C55.0373 17.3103 55.5119 18.0303 55.7573 18.969H53.7893C53.6293 18.5316 53.3733 18.1903 53.0213 17.945C52.6693 17.6996 52.2266 17.577 51.6933 17.577C50.9466 17.577 50.3493 17.8436 49.9013 18.377C49.4639 18.8996 49.2453 19.6356 49.2453 20.585C49.2453 21.5343 49.4639 22.2756 49.9013 22.809C50.3493 23.3423 50.9466 23.609 51.6933 23.609C52.7493 23.609 53.4479 23.145 53.7893 22.217H55.7573C55.5013 23.113 55.0213 23.8276 54.3173 24.361C53.6133 24.8836 52.7386 25.145 51.6933 25.145C50.8506 25.145 50.1039 24.9583 49.4533 24.585C48.8026 24.201 48.2906 23.6676 47.9173 22.985C47.5546 22.2916 47.3733 21.4916 47.3733 20.585ZM62.135 16.041C62.807 16.041 63.4043 16.185 63.927 16.473C64.4603 16.761 64.8763 17.1876 65.175 17.753C65.4843 18.3183 65.639 19.001 65.639 19.801V25.001H63.831V20.073C63.831 19.2836 63.6337 18.681 63.239 18.265C62.8443 17.8383 62.3057 17.625 61.623 17.625C60.9403 17.625 60.3963 17.8383 59.991 18.265C59.5963 18.681 59.399 19.2836 59.399 20.073V25.001H57.575V13.161H59.399V17.209C59.7083 16.8356 60.0977 16.5476 60.567 16.345C61.047 16.1423 61.5697 16.041 62.135 16.041ZM75.5299 23.369L78.0259 16.185H79.9619L76.6019 25.001H74.4259L71.0819 16.185H73.0339L75.5299 23.369ZM82.2686 15.017C81.938 15.017 81.6606 14.905 81.4366 14.681C81.2126 14.457 81.1006 14.1796 81.1006 13.849C81.1006 13.5183 81.2126 13.241 81.4366 13.017C81.6606 12.793 81.938 12.681 82.2686 12.681C82.5886 12.681 82.8606 12.793 83.0846 13.017C83.3086 13.241 83.4206 13.5183 83.4206 13.849C83.4206 14.1796 83.3086 14.457 83.0846 14.681C82.8606 14.905 82.5886 15.017 82.2686 15.017ZM83.1646 16.185V25.001H81.3406V16.185H83.1646ZM84.9514 20.553C84.9514 19.6676 85.1327 18.8836 85.4954 18.201C85.8687 17.5183 86.37 16.9903 86.9994 16.617C87.6394 16.233 88.3487 16.041 89.1274 16.041C89.7034 16.041 90.2687 16.169 90.8234 16.425C91.3887 16.6703 91.8367 17.001 92.1674 17.417V13.161H94.0074V25.001H92.1674V23.673C91.8687 24.0996 91.4527 24.4516 90.9194 24.729C90.3967 25.0063 89.794 25.145 89.1114 25.145C88.3434 25.145 87.6394 24.953 86.9994 24.569C86.37 24.1743 85.8687 23.6303 85.4954 22.937C85.1327 22.233 84.9514 21.4383 84.9514 20.553ZM92.1674 20.585C92.1674 19.977 92.0394 19.449 91.7834 19.001C91.538 18.553 91.2127 18.2116 90.8074 17.977C90.402 17.7423 89.9647 17.625 89.4954 17.625C89.026 17.625 88.5887 17.7423 88.1834 17.977C87.778 18.201 87.4474 18.537 87.1914 18.985C86.946 19.4223 86.8234 19.945 86.8234 20.553C86.8234 21.161 86.946 21.6943 87.1914 22.153C87.4474 22.6116 87.778 22.9636 88.1834 23.209C88.5994 23.4436 89.0367 23.561 89.4954 23.561C89.9647 23.561 90.402 23.4436 90.8074 23.209C91.2127 22.9743 91.538 22.633 91.7834 22.185C92.0394 21.7263 92.1674 21.193 92.1674 20.585ZM104.483 20.377C104.483 20.7076 104.462 21.0063 104.419 21.273H97.6831C97.7365 21.977 97.9978 22.5423 98.4671 22.969C98.9365 23.3956 99.5125 23.609 100.195 23.609C101.176 23.609 101.87 23.1983 102.275 22.377H104.243C103.976 23.1876 103.491 23.8543 102.787 24.377C102.094 24.889 101.23 25.145 100.195 25.145C99.3525 25.145 98.5951 24.9583 97.9231 24.585C97.2618 24.201 96.7391 23.6676 96.3551 22.985C95.9818 22.2916 95.7951 21.4916 95.7951 20.585C95.7951 19.6783 95.9765 18.8836 96.3391 18.201C96.7125 17.5076 97.2298 16.9743 97.8911 16.601C98.5631 16.2276 99.3311 16.041 100.195 16.041C101.027 16.041 101.768 16.2223 102.419 16.585C103.07 16.9476 103.576 17.4596 103.939 18.121C104.302 18.7716 104.483 19.5236 104.483 20.377ZM102.579 19.801C102.568 19.129 102.328 18.5903 101.859 18.185C101.39 17.7796 100.808 17.577 100.115 17.577C99.4858 17.577 98.9471 17.7796 98.4991 18.185C98.0511 18.5796 97.7845 19.1183 97.6991 19.801H102.579ZM110.102 25.145C109.27 25.145 108.518 24.9583 107.846 24.585C107.174 24.201 106.646 23.6676 106.262 22.985C105.878 22.2916 105.686 21.4916 105.686 20.585C105.686 19.689 105.883 18.8943 106.278 18.201C106.673 17.5076 107.211 16.9743 107.894 16.601C108.577 16.2276 109.339 16.041 110.182 16.041C111.025 16.041 111.787 16.2276 112.47 16.601C113.153 16.9743 113.691 17.5076 114.086 18.201C114.481 18.8943 114.678 19.689 114.678 20.585C114.678 21.481 114.475 22.2756 114.07 22.969C113.665 23.6623 113.11 24.201 112.406 24.585C111.713 24.9583 110.945 25.145 110.102 25.145ZM110.102 23.561C110.571 23.561 111.009 23.449 111.414 23.225C111.83 23.001 112.166 22.665 112.422 22.217C112.678 21.769 112.806 21.225 112.806 20.585C112.806 19.945 112.683 19.4063 112.438 18.969C112.193 18.521 111.867 18.185 111.462 17.961C111.057 17.737 110.619 17.625 110.15 17.625C109.681 17.625 109.243 17.737 108.838 17.961C108.443 18.185 108.129 18.521 107.894 18.969C107.659 19.4063 107.542 19.945 107.542 20.585C107.542 21.5343 107.782 22.2703 108.262 22.793C108.753 23.305 109.366 23.561 110.102 23.561Z" fill="#9D5CFF"/>
<circle cx="140.001" cy="19.0008" r="11.9989" fill="#9D5CFF" fill-opacity="0.3"/>
<path d="M144.402 19.6935C144.935 19.3856 144.935 18.6159 144.402 18.308L138.402 14.8439C137.868 14.536 137.202 14.9209 137.202 15.5367V22.4648C137.202 23.0806 137.868 23.4655 138.402 23.1576L144.402 19.6935Z" fill="#9D5CFF"/>
</svg>
