<svg width="103" height="32" viewBox="0 0 103 32" fill="none" xmlns="http://www.w3.org/2000/svg">
<path fill-rule="evenodd" clip-rule="evenodd" d="M70.5944 11.6823V22.3007H73.2516V14.798L77.6766 19.7127V22.3007H80.3338V10.2602H77.6766V15.7522L73.2193 10.787L73.1936 10.7615C73.1197 10.6884 73.0021 10.5769 72.8613 10.484C72.5998 10.3114 72.313 10.2424 72.0485 10.2424C71.6715 10.2424 71.3693 10.3869 71.1617 10.5411C70.7372 10.8564 70.5944 11.313 70.5944 11.6823Z" fill="white"/>
<path fill-rule="evenodd" clip-rule="evenodd" d="M42.6396 10.2602H37.5278V22.3007H40.185V18.8032H42.6396C43.2713 18.8032 43.875 18.7389 44.4 18.5608C44.885 18.3999 45.3579 18.1509 45.7292 17.7603L45.7413 17.7476L45.753 17.7346C46.0808 17.3695 46.3046 16.9421 46.4234 16.4714L46.4248 16.4658L46.4262 16.4602C46.5233 16.0595 46.568 15.6428 46.568 15.2152V13.9015C46.568 13.4739 46.5233 13.0572 46.4262 12.6565C46.3102 12.178 46.0888 11.7384 45.753 11.3643C45.385 10.9544 44.9106 10.6922 44.4173 10.5262C43.8832 10.3303 43.2725 10.2602 42.6396 10.2602ZM43.5334 13.01C43.6998 13.0629 43.7509 13.1117 43.7548 13.1156C43.7887 13.1538 43.8149 13.1988 43.8315 13.2744L43.8369 13.299L43.8433 13.3234C43.8851 13.482 43.9108 13.6725 43.9108 13.9015V15.2152C43.9108 15.4442 43.8851 15.6347 43.8433 15.7932L43.8383 15.812L43.834 15.831C43.8223 15.882 43.8036 15.9222 43.7724 15.9622C43.7513 15.9786 43.6848 16.023 43.5334 16.0712L43.5271 16.0732L43.5208 16.0753C43.3737 16.1238 43.0969 16.1721 42.6396 16.1721H40.185V12.8913H42.6396C43.0881 12.8913 43.35 12.944 43.4823 12.9925L43.5077 13.0018L43.5334 13.01Z" fill="white"/>
<path d="M51.277 10.2602H48.6198V22.3007H57.6958V16.1721H55.0386V19.6695H51.277V10.2602Z" fill="white"/>
<path d="M68.5308 10.2602H60.0107V22.3007H68.5308V19.6695H62.6679V17.525H67.0785V14.8938H62.6679V12.8913H68.5308V10.2602Z" fill="white"/>
<path d="M92.0226 10.2602H82.0143V12.8913H85.6898V22.3007H88.3471V12.8913H92.0226V10.2602Z" fill="white"/>
<path d="M95.9896 10.2561H93.3323V12.5517C93.3323 12.8491 93.346 13.1386 93.3743 13.4195C93.4182 13.8542 93.5668 14.2719 93.8375 14.6393L93.8376 14.6395L93.8398 14.6425L93.841 14.644L95.5755 17.0345L95.5772 17.0368L95.5774 17.037C95.8331 17.3852 96.1488 17.7115 96.5429 17.941L96.5561 17.9487L96.5694 17.956C96.6542 18.0027 96.7407 18.0442 96.8286 18.0808V22.3007H99.4858V18.0601C99.5598 18.0269 99.6327 17.9899 99.7045 17.9487C100.112 17.7215 100.437 17.396 100.698 17.0408L100.698 17.0407L100.7 17.0386L100.701 17.0372L102.483 14.6548L102.484 14.6537L102.485 14.6526L102.485 14.6524C102.76 14.288 102.929 13.8617 102.96 13.3946C102.987 13.1216 103 12.8404 103 12.5517V10.2561H100.343V12.5517C100.343 12.757 100.333 12.9548 100.314 13.1454L98.555 15.4971C98.4826 15.5862 98.4292 15.6331 98.3992 15.6557C98.3943 15.6561 98.3878 15.6566 98.3795 15.6567C98.3773 15.6568 98.3749 15.6568 98.3724 15.6568H97.8883C97.8854 15.6568 97.8788 15.6566 97.8671 15.6539C97.8585 15.6519 97.846 15.6482 97.8293 15.6416C97.8198 15.6314 97.8027 15.6111 97.7796 15.5759L97.7795 15.5758L97.7638 15.5518L96.0269 13.1582C96.0224 13.1502 96.0198 13.1425 96.0181 13.1284C95.9995 12.9516 95.9896 12.7596 95.9896 12.5517V10.2561Z" fill="white"/>
<path d="M25.1259 24.2944L22.5665 21.7601C22.106 21.3042 22.4327 20.5266 23.0825 20.5266H25.152C27.496 20.5266 29.3969 18.6444 29.3969 16.3235H2.99951C2.99951 18.6444 4.90043 20.5266 7.24443 20.5266H9.3139C9.96375 20.5266 10.2904 21.3042 9.82996 21.7601L7.2705 24.2944C6.98553 24.5765 6.98553 25.0342 7.2705 25.3163L9.23918 27.2656C9.52414 27.5477 9.98634 27.5477 10.2713 27.2656L12.8308 24.7314C13.2912 24.2754 14.0766 24.5989 14.0766 25.2423V28.3632C14.0766 28.7624 14.4033 29.0858 14.8064 29.0858H17.5918C17.9949 29.0858 18.3215 28.7624 18.3215 28.3632V25.2423C18.3215 24.5989 19.1069 24.2754 19.5674 24.7314L22.1269 27.2656C22.4118 27.5477 22.874 27.5477 23.159 27.2656L25.1277 25.3163C25.4126 25.0342 25.4126 24.5765 25.1277 24.2944H25.1259Z" fill="#9D5CFF"/>
<path d="M16.1942 7.43395C19.2958 7.43395 22.0221 9.05634 23.5512 11.4891H8.83731C10.3681 9.05634 13.0944 7.43395 16.196 7.43395H16.1942ZM16.196 2.91431C8.9016 2.91431 2.96948 8.78795 2.96948 16.0087H29.419C29.419 8.78795 23.4869 2.91431 16.1942 2.91431L16.196 2.91431Z" fill="#3F2566"/>
<path d="M16.1933 7.42444C11.4045 7.42444 7.521 11.2679 7.521 16.0112H24.8656C24.8656 11.2697 20.9821 7.42444 16.1933 7.42444Z" fill="#5E3799"/>
<path d="M20.3076 16.0092H12.0923C12.0923 13.7657 13.9341 11.942 16.1999 11.942C18.4657 11.942 20.3076 13.7657 20.3076 16.0092Z" fill="#9D5CFF"/>
</svg>
