<svg width="161" height="50" viewBox="0 0 161 50" fill="none" xmlns="http://www.w3.org/2000/svg">
<path fill-rule="evenodd" clip-rule="evenodd" d="M110.347 18.2506V34.8483H114.5V23.1209L121.417 30.8031V34.8483H125.571V16.0277H121.417V24.6124L114.45 16.8513L114.41 16.8114C114.294 16.6971 114.11 16.5228 113.89 16.3776C113.482 16.1078 113.033 16 112.62 16C112.03 16 111.558 16.2258 111.234 16.4668C110.57 16.9596 110.347 17.6735 110.347 18.2506Z" fill="white"/>
<path fill-rule="evenodd" clip-rule="evenodd" d="M66.6504 16.0277H58.6602V34.8483H62.8137V29.3815H66.6504C67.6378 29.3815 68.5814 29.2809 69.4021 29.0025C70.1602 28.7511 70.8995 28.3619 71.4798 27.7513L71.4987 27.7315L71.517 27.7111C72.0293 27.1404 72.3792 26.4723 72.5649 25.7366L72.5671 25.7278L72.5693 25.7191C72.7211 25.0927 72.7909 24.4414 72.7909 23.773V21.7195C72.7909 21.0511 72.7211 20.3998 72.5693 19.7734C72.388 19.0255 72.0419 18.3384 71.517 17.7536C70.9418 17.1129 70.2003 16.7031 69.4291 16.4435C68.5943 16.1374 67.6397 16.0277 66.6504 16.0277ZM68.0476 20.326C68.3076 20.4088 68.3875 20.4849 68.3936 20.4911C68.4466 20.5507 68.4875 20.6211 68.5134 20.7393L68.5219 20.7778L68.5319 20.816C68.5972 21.0637 68.6374 21.3616 68.6374 21.7195V23.773C68.6374 24.1309 68.5972 24.4287 68.5319 24.6765L68.5242 24.7059L68.5174 24.7356C68.4991 24.8152 68.4699 24.8781 68.4211 24.9407C68.3881 24.9663 68.2841 25.0357 68.0476 25.111L68.0377 25.1141L68.0278 25.1174C67.7979 25.1932 67.3652 25.2687 66.6504 25.2687H62.8137V20.1405H66.6504C67.3514 20.1405 67.7609 20.2228 67.9676 20.2986L68.0073 20.3132L68.0476 20.326Z" fill="white"/>
<path d="M80.1516 16.0277H75.9981V34.8483H90.1849V25.2687H86.0314V30.7356H80.1516V16.0277Z" fill="white"/>
<path d="M107.121 16.0277H93.8033V34.8483H107.121V30.7356H97.9568V27.3834H104.851V23.2707H97.9568V20.1405H107.121V16.0277Z" fill="white"/>
<path d="M143.842 16.0277H128.197V20.1405H133.943V34.8483H138.096V20.1405H143.842V16.0277Z" fill="white"/>
<path d="M150.042 16.0213H145.889V19.6097C145.889 20.0745 145.91 20.527 145.954 20.966C146.023 21.6455 146.255 22.2984 146.678 22.8727L146.679 22.8731L146.682 22.8777L146.684 22.8802L149.395 26.6167L149.398 26.6203L149.398 26.6207C149.798 27.165 150.291 27.6749 150.907 28.0337L150.928 28.0457L150.949 28.0572C151.081 28.1301 151.216 28.1951 151.354 28.2523V34.8483H155.507V28.2198C155.623 28.168 155.737 28.1101 155.849 28.0457C156.486 27.6907 156.994 27.1818 157.403 26.6266L157.403 26.6265L157.405 26.6232L157.407 26.621L160.193 22.897L160.194 22.8954L160.195 22.8936L160.196 22.8933C160.626 22.3236 160.89 21.6573 160.939 20.9273C160.98 20.5004 161 20.0609 161 19.6097V16.0213H156.847V19.6097C156.847 19.9305 156.832 20.2397 156.802 20.5377L154.052 24.2137C153.939 24.3529 153.856 24.4262 153.809 24.4615C153.801 24.4622 153.791 24.4629 153.778 24.4631C153.775 24.4632 153.771 24.4632 153.767 24.4632H153.01C153.006 24.4632 152.995 24.4629 152.977 24.4587C152.964 24.4555 152.944 24.4499 152.918 24.4394C152.903 24.4235 152.876 24.3919 152.84 24.3368L152.84 24.3367L152.816 24.2992L150.101 20.5577C150.094 20.5451 150.09 20.5332 150.087 20.5112C150.058 20.2347 150.042 19.9346 150.042 19.6097V16.0213Z" fill="white"/>
<path d="M39.1987 37.9647L35.2008 34.0034C34.4815 33.2908 34.9918 32.0752 36.0069 32.0752H39.2394C42.9008 32.0752 45.8701 29.1332 45.8701 25.5054H4.63672C4.63672 29.1332 7.606 32.0752 11.2674 32.0752H14.4999C15.515 32.0752 16.0253 33.2908 15.3061 34.0034L11.3081 37.9647C10.863 38.4058 10.863 39.1211 11.3081 39.5622L14.3832 42.6091C14.8284 43.0501 15.5503 43.0501 15.9954 42.6091L19.9934 38.6478C20.7126 37.9352 21.9394 38.4407 21.9394 39.4465V44.3248C21.9394 44.9488 22.4497 45.4543 23.0794 45.4543H27.4302C28.0598 45.4543 28.5701 44.9488 28.5701 44.3248V39.4465C28.5701 38.4407 29.7969 37.9352 30.5162 38.6478L34.5141 42.6091C34.9592 43.0501 35.6812 43.0501 36.1263 42.6091L39.2014 39.5622C39.6466 39.1211 39.6466 38.4058 39.2014 37.9647H39.1987Z" fill="#9D5CFF"/>
<path d="M25.2473 11.6101C30.092 11.6101 34.3505 14.1461 36.739 17.9487H13.7555C16.1467 14.1461 20.4052 11.6101 25.25 11.6101H25.2473ZM25.25 4.54541C13.856 4.54541 4.58984 13.7266 4.58984 25.0134H45.9047C45.9047 13.7266 36.6385 4.54541 25.2473 4.54541L25.25 4.54541Z" fill="#3F2566"/>
<path d="M25.2456 11.5952C17.7653 11.5952 11.6992 17.603 11.6992 25.0173H38.7919C38.7919 17.6057 32.7258 11.5952 25.2456 11.5952V11.5952Z" fill="#5E3799"/>
<path d="M31.6724 25.0142H18.8398C18.8398 21.5074 21.7168 18.6567 25.2561 18.6567C28.7954 18.6567 31.6724 21.5074 31.6724 25.0142Z" fill="#9D5CFF"/>
</svg>
