<svg width="30" height="30" viewBox="0 0 30 30" fill="none" xmlns="http://www.w3.org/2000/svg">
<path fill-rule="evenodd" clip-rule="evenodd" d="M15.0002 27.1021C21.6811 27.1021 27.097 21.6862 27.097 15.0053C27.097 8.32448 21.6811 2.90857 15.0002 2.90857C8.31935 2.90857 2.90344 8.32448 2.90344 15.0053C2.90344 21.6862 8.31935 27.1021 15.0002 27.1021ZM12.9579 14.7876L13.0347 17.9535H15.2028L15.2604 16.4185C16.143 16.4057 16.9169 16.2586 17.5821 15.9772C18.26 15.6958 18.7909 15.2673 19.1746 14.6917C19.5711 14.116 19.7694 13.3869 19.7694 12.5043C19.7694 11.6473 19.5775 10.9246 19.1938 10.3361C18.8228 9.73494 18.3048 9.27445 17.6396 8.95466C16.9872 8.63487 16.2325 8.47498 15.3755 8.47498C14.4545 8.47498 13.6614 8.64766 12.9963 8.99303C12.3439 9.3384 11.845 9.81169 11.4997 10.4129C11.1543 11.0141 10.988 11.6984 11.0008 12.4659H13.3225C13.3225 11.8647 13.5016 11.3914 13.8597 11.0461C14.2179 10.6879 14.7168 10.5088 15.3563 10.5088C15.9703 10.5088 16.4628 10.6879 16.8337 11.0461C17.2047 11.3914 17.3902 11.8711 17.3902 12.4851C17.3902 13.1247 17.2303 13.6108 16.9105 13.9434C16.5907 14.2759 16.1622 14.4998 15.6249 14.6149C15.0877 14.73 14.4929 14.7876 13.8405 14.7876H12.9579ZM13.0155 21.8485C13.3097 22.1299 13.6806 22.2707 14.1283 22.2707C14.576 22.2707 14.9406 22.1299 15.222 21.8485C15.5034 21.5671 15.6441 21.2281 15.6441 20.8316C15.6441 20.4223 15.5034 20.0769 15.222 19.7955C14.9406 19.5141 14.576 19.3734 14.1283 19.3734C13.6806 19.3734 13.3097 19.5141 13.0155 19.7955C12.7341 20.0769 12.5934 20.4223 12.5934 20.8316C12.5934 21.2281 12.7341 21.5671 13.0155 21.8485Z" fill="#396CDB"/>
</svg>
