<svg width="30" height="30" viewBox="0 0 30 30" fill="none" xmlns="http://www.w3.org/2000/svg">
<path fill-rule="evenodd" clip-rule="evenodd" d="M27.097 15.0021C27.097 21.683 21.6811 27.0989 15.0002 27.0989C8.31935 27.0989 2.90344 21.683 2.90344 15.0021C2.90344 8.32123 8.31935 2.90532 15.0002 2.90532C21.6811 2.90532 27.097 8.32123 27.097 15.0021ZM8.71121 21.2919C8.20731 20.788 8.20731 19.971 8.71121 19.4671L13.1754 15.0029L8.71174 10.5392C8.20784 10.0353 8.20784 9.2183 8.71174 8.7144C9.21564 8.2105 10.0326 8.2105 10.5365 8.7144L15.0002 13.1781L19.4639 8.7144C19.9678 8.2105 20.7848 8.2105 21.2887 8.7144C21.7926 9.2183 21.7926 10.0353 21.2887 10.5392L16.825 15.0029L21.2892 19.4671C21.7931 19.971 21.7931 20.788 21.2892 21.2919C20.7853 21.7958 19.9683 21.7958 19.4644 21.2919L15.0002 16.8277L10.536 21.2919C10.0321 21.7958 9.21512 21.7958 8.71121 21.2919Z" fill="#F43552"/>
</svg>
