<svg width="16" height="16" viewBox="0 0 16 16" fill="none" xmlns="http://www.w3.org/2000/svg">
<path d="M14.4735 13.5266L12.0002 11.0733C12.9602 9.87621 13.4252 8.3568 13.2994 6.82747C13.1736 5.29814 12.4666 3.87512 11.3239 2.85103C10.1811 1.82694 8.68939 1.27961 7.15546 1.32158C5.62154 1.36356 4.16199 1.99164 3.07694 3.0767C1.99189 4.16175 1.3638 5.6213 1.32183 7.15522C1.27985 8.68914 1.82718 10.1808 2.85128 11.3236C3.87537 12.4664 5.29838 13.1733 6.82771 13.2991C8.35705 13.4249 9.87645 12.96 11.0735 11.9999L13.5268 14.4533C13.5888 14.5158 13.6626 14.5654 13.7438 14.5992C13.825 14.633 13.9122 14.6505 14.0002 14.6505C14.0882 14.6505 14.1753 14.633 14.2566 14.5992C14.3378 14.5654 14.4115 14.5158 14.4735 14.4533C14.5937 14.329 14.6608 14.1628 14.6608 13.9899C14.6608 13.817 14.5937 13.6509 14.4735 13.5266ZM7.33351 11.9999C6.41053 11.9999 5.50828 11.7262 4.74085 11.2135C3.97342 10.7007 3.37528 9.97185 3.02208 9.11913C2.66887 8.2664 2.57645 7.32809 2.75652 6.42285C2.93658 5.5176 3.38104 4.68608 4.03368 4.03344C4.68633 3.38079 5.51785 2.93634 6.42309 2.75627C7.32834 2.57621 8.26665 2.66862 9.11937 3.02183C9.97209 3.37504 10.7009 3.97318 11.2137 4.74061C11.7265 5.50804 12.0002 6.41029 12.0002 7.33327C12.0002 8.57095 11.5085 9.75793 10.6333 10.6331C9.75818 11.5083 8.57119 11.9999 7.33351 11.9999Z" fill="#58535E"/>
</svg>
