<svg width="20" height="20" viewBox="0 0 20 20" fill="none" xmlns="http://www.w3.org/2000/svg">
<path d="M16.5833 10.5503C16.4497 10.3983 16.376 10.2028 16.376 10.0003C16.376 9.79791 16.4497 9.6024 16.5833 9.45033L17.6499 8.25033C17.7675 8.11922 17.8405 7.95425 17.8584 7.77908C17.8764 7.60392 17.8384 7.42757 17.7499 7.27533L16.0833 4.392C15.9957 4.23993 15.8623 4.11939 15.7022 4.04757C15.5421 3.97574 15.3634 3.95629 15.1916 3.992L13.6249 4.30866C13.4256 4.34985 13.2181 4.31665 13.0415 4.21533C12.865 4.11401 12.7316 3.95157 12.6666 3.75866L12.1583 2.23366C12.1024 2.06815 11.9959 1.92438 11.8538 1.8227C11.7117 1.72101 11.5413 1.66655 11.3666 1.667H8.03327C7.85155 1.65751 7.67171 1.70777 7.52124 1.81009C7.37076 1.91241 7.25792 2.06118 7.19993 2.23366L6.73327 3.75866C6.66827 3.95157 6.53491 4.11401 6.35836 4.21533C6.18181 4.31665 5.97428 4.34985 5.77493 4.30866L4.1666 3.992C4.00373 3.96898 3.83768 3.99468 3.68939 4.06586C3.5411 4.13704 3.41719 4.25052 3.33327 4.392L1.6666 7.27533C1.5759 7.42587 1.53512 7.60123 1.55009 7.77635C1.56505 7.95146 1.635 8.11736 1.74993 8.25033L2.80827 9.45033C2.94187 9.6024 3.01555 9.79791 3.01555 10.0003C3.01555 10.2028 2.94187 10.3983 2.80827 10.5503L1.74993 11.7503C1.635 11.8833 1.56505 12.0492 1.55009 12.2243C1.53512 12.3994 1.5759 12.5748 1.6666 12.7253L3.33327 15.6087C3.42085 15.7607 3.5542 15.8813 3.71431 15.9531C3.87442 16.0249 4.05312 16.0444 4.22493 16.0087L5.7916 15.692C5.99095 15.6508 6.19848 15.684 6.37503 15.7853C6.55158 15.8867 6.68493 16.0491 6.74993 16.242L7.25827 17.767C7.31625 17.9395 7.4291 18.0882 7.57957 18.1906C7.73005 18.2929 7.90988 18.3431 8.0916 18.3337H11.4249C11.5996 18.3341 11.7701 18.2796 11.9121 18.178C12.0542 18.0763 12.1607 17.9325 12.2166 17.767L12.7249 16.242C12.7899 16.0491 12.9233 15.8867 13.0998 15.7853C13.2764 15.684 13.4839 15.6508 13.6833 15.692L15.2499 16.0087C15.4217 16.0444 15.6004 16.0249 15.7606 15.9531C15.9207 15.8813 16.054 15.7607 16.1416 15.6087L17.8083 12.7253C17.8967 12.5731 17.9347 12.3967 17.9168 12.2216C17.8988 12.0464 17.8258 11.8814 17.7083 11.7503L16.5833 10.5503ZM15.3416 11.667L16.0083 12.417L14.9416 14.267L13.9583 14.067C13.3581 13.9443 12.7337 14.0463 12.2038 14.3535C11.6738 14.6607 11.2751 15.1519 11.0833 15.7337L10.7666 16.667H8.63327L8.33327 15.717C8.14148 15.1352 7.74275 14.6441 7.21277 14.3368C6.68279 14.0296 6.05845 13.9276 5.45827 14.0503L4.47493 14.2503L3.3916 12.4087L4.05827 11.6587C4.46823 11.2003 4.69488 10.6069 4.69488 9.992C4.69488 9.37705 4.46823 8.78368 4.05827 8.32533L3.3916 7.57533L4.45827 5.742L5.4416 5.942C6.04178 6.06468 6.66612 5.96273 7.1961 5.65549C7.72608 5.34826 8.12481 4.85713 8.3166 4.27533L8.63327 3.33366H10.7666L11.0833 4.28366C11.2751 4.86546 11.6738 5.35659 12.2038 5.66383C12.7337 5.97106 13.3581 6.07301 13.9583 5.95033L14.9416 5.75033L16.0083 7.60033L15.3416 8.35033C14.9362 8.80763 14.7124 9.39756 14.7124 10.0087C14.7124 10.6198 14.9362 11.2097 15.3416 11.667V11.667ZM9.69993 6.667C9.04066 6.667 8.3962 6.86249 7.84803 7.22876C7.29987 7.59504 6.87263 8.11563 6.62034 8.72472C6.36804 9.3338 6.30203 10.004 6.43065 10.6506C6.55927 11.2972 6.87674 11.8912 7.34291 12.3574C7.80909 12.8235 8.40303 13.141 9.04963 13.2696C9.69624 13.3982 10.3665 13.3322 10.9755 13.0799C11.5846 12.8276 12.1052 12.4004 12.4715 11.8522C12.8378 11.3041 13.0333 10.6596 13.0333 10.0003C13.0333 9.11627 12.6821 8.26843 12.057 7.64331C11.4318 7.01819 10.584 6.667 9.69993 6.667V6.667ZM9.69993 11.667C9.3703 11.667 9.04806 11.5692 8.77398 11.3861C8.4999 11.203 8.28628 10.9427 8.16013 10.6381C8.03399 10.3336 8.00098 9.99848 8.06529 9.67518C8.1296 9.35188 8.28833 9.05491 8.52142 8.82182C8.75451 8.58873 9.05148 8.43 9.37478 8.36569C9.69808 8.30138 10.0332 8.33438 10.3377 8.46053C10.6423 8.58668 10.9026 8.8003 11.0857 9.07438C11.2689 9.34846 11.3666 9.67069 11.3666 10.0003C11.3666 10.4424 11.191 10.8663 10.8784 11.1788C10.5659 11.4914 10.142 11.667 9.69993 11.667Z" fill="#B6B3BA"/>
</svg>
