<svg width="31" height="31" viewBox="0 0 31 31" fill="none" xmlns="http://www.w3.org/2000/svg">
<path fill-rule="evenodd" clip-rule="evenodd" d="M15.5229 27.5122C22.2037 27.5122 27.6196 22.0963 27.6196 15.4154C27.6196 8.73453 22.2037 3.31862 15.5229 3.31862C8.842 3.31862 3.42609 8.73453 3.42609 15.4154C3.42609 22.0963 8.842 27.5122 15.5229 27.5122ZM21.8785 12.1994C22.3291 11.6586 22.2561 10.8549 21.7153 10.4043C21.1745 9.95361 20.3708 10.0267 19.9201 10.5675L14.0932 17.5598L11.0479 14.5144C10.5501 14.0167 9.7431 14.0167 9.24534 14.5144C8.74757 15.0122 8.74757 15.8192 9.24534 16.317L12.5135 19.5852C13.4538 20.5254 14.9985 20.4554 15.8498 19.4338L21.8785 12.1994Z" fill="#78F33F"/>
</svg>
