<svg width="48" height="112" viewBox="0 0 48 112" fill="none" xmlns="http://www.w3.org/2000/svg">
<path d="M0 4C0 1.79086 1.79086 0 4 0H48V112H0V4Z" fill="#66F524" fill-opacity="0.21"/>
<path fill-rule="evenodd" clip-rule="evenodd" d="M23.5229 67.5122C30.2037 67.5122 35.6196 62.0963 35.6196 55.4154C35.6196 48.7345 30.2037 43.3186 23.5229 43.3186C16.842 43.3186 11.4261 48.7345 11.4261 55.4154C11.4261 62.0963 16.842 67.5122 23.5229 67.5122ZM29.8785 52.1994C30.3291 51.6586 30.2561 50.8549 29.7153 50.4043C29.1745 49.9536 28.3708 50.0267 27.9201 50.5675L22.0932 57.5598L19.0479 54.5144C18.5501 54.0167 17.7431 54.0167 17.2453 54.5144C16.7476 55.0122 16.7476 55.8192 17.2453 56.317L20.5135 59.5852C21.4538 60.5254 22.9985 60.4554 23.8498 59.4338L29.8785 52.1994Z" fill="#78F33F"/>
</svg>
