<svg width="31" height="32" viewBox="0 0 31 32" fill="none" xmlns="http://www.w3.org/2000/svg">
<circle cx="15.5" cy="16" r="15" fill="#2B1E3E" stroke="#33204E"/>
<path fill-rule="evenodd" clip-rule="evenodd" d="M21.685 22.9998H8.36829C7.93132 22.9998 7.51203 22.8268 7.20288 22.5193C6.89372 22.2119 6.72015 21.7949 6.72015 21.36V10.7361C6.72015 10.2756 6.90403 9.8341 7.23133 9.5085C7.55851 9.1829 8.00248 9 8.46524 9H22.041C22.1497 9.00013 22.253 9.04778 22.3231 9.13039C22.3933 9.21314 22.4233 9.32227 22.4052 9.42896C22.3685 9.60994 22.2066 9.73867 22.0212 9.73457H8.4652C8.18077 9.7348 7.90973 9.8547 7.7189 10.0645C7.52808 10.2743 7.43525 10.5546 7.46332 10.8361C7.49563 11.0881 7.62027 11.3196 7.81341 11.4858C8.00657 11.6522 8.25454 11.7419 8.51 11.7375H21.685C22.1221 11.7375 22.5413 11.9102 22.8505 12.2177C23.1595 12.5252 23.3332 12.9422 23.3332 13.377V21.36C23.3332 21.7949 23.1595 22.2121 22.8504 22.5195C22.5414 22.827 22.1222 22.9998 21.685 22.9998ZM20.3969 18.9363C21.2077 18.9363 21.865 18.2789 21.865 17.4681C21.865 16.6573 21.2077 15.9999 20.3969 15.9999C19.586 15.9999 18.9287 16.6573 18.9287 17.4681C18.9287 18.2789 19.586 18.9363 20.3969 18.9363Z" fill="#9D5CFF"/>
</svg>
