<svg width="22" height="22" viewBox="0 0 22 22" fill="none" xmlns="http://www.w3.org/2000/svg">
<path d="M16.9931 3.31038C16.9835 3.14718 16.8523 3.01915 16.6892 3.00952C16.6892 3.00952 16.5484 3 16.2923 3C15.0764 3 10.9066 3.20162 8.30839 5.80313C7.4924 6.61596 6.77878 7.51518 6.222 8.41115C5.80923 8.1999 5.34845 8.08477 4.88765 8.08477C4.13887 8.08477 3.4284 8.38239 2.8876 8.92628L1.09244 10.7183C1.00284 10.8079 0.974051 10.9455 1.02524 11.0671C1.07318 11.1855 1.19157 11.2655 1.3196 11.2655H4.99644C4.70522 12.5998 4.91647 13.7006 5.60767 14.3917C6.29249 15.0765 7.41245 15.2942 8.73718 15.0028V18.68C8.73718 18.808 8.81402 18.9264 8.93241 18.9743C8.97396 18.9936 9.01552 19 9.05719 19C9.14041 19 9.22038 18.9679 9.28121 18.9071L11.0764 17.1151C11.9756 16.2126 12.1676 14.8815 11.5916 13.7776C12.4877 13.2208 13.3837 12.5072 14.1996 11.6912C17.2555 8.63535 17.0028 3.52479 16.9931 3.31055L16.9931 3.31038ZM13.6651 8.62567C13.3612 8.92965 12.9548 9.09926 12.5195 9.09926C12.0875 9.09926 11.6811 8.92968 11.3739 8.62567C11.07 8.31842 10.9003 7.91205 10.9003 7.48003C10.9003 7.04802 11.0699 6.63841 11.3739 6.3344C11.6811 6.02715 12.0875 5.85757 12.5195 5.85757C12.9547 5.85757 13.3611 6.02715 13.6651 6.3344C14.2988 6.96479 14.2988 7.99201 13.6651 8.62564V8.62567Z" fill="#282230"/>
</svg>
