<svg width="14" height="14" viewBox="0 0 14 14" fill="none" xmlns="http://www.w3.org/2000/svg">
<path d="M7.82263 7.00011L11.4976 3.33094C11.6075 3.2211 11.6692 3.07212 11.6692 2.91677C11.6692 2.76143 11.6075 2.61245 11.4976 2.50261C11.3878 2.39276 11.2388 2.33105 11.0835 2.33105C10.9281 2.33105 10.7791 2.39276 10.6693 2.50261L7.00013 6.17761L3.33096 2.50261C3.22112 2.39276 3.07214 2.33105 2.91679 2.33105C2.76145 2.33105 2.61247 2.39276 2.50263 2.50261C2.39278 2.61245 2.33107 2.76143 2.33107 2.91677C2.33107 3.07212 2.39278 3.2211 2.50263 3.33094L6.17763 7.00011L2.50263 10.6693C2.44795 10.7235 2.40456 10.788 2.37494 10.8591C2.34533 10.9302 2.33008 11.0064 2.33008 11.0834C2.33008 11.1604 2.34533 11.2367 2.37494 11.3078C2.40456 11.3789 2.44795 11.4434 2.50263 11.4976C2.55686 11.5523 2.62137 11.5957 2.69246 11.6253C2.76354 11.6549 2.83979 11.6702 2.91679 11.6702C2.9938 11.6702 3.07005 11.6549 3.14113 11.6253C3.21221 11.5957 3.27673 11.5523 3.33096 11.4976L7.00013 7.82261L10.6693 11.4976C10.7235 11.5523 10.788 11.5957 10.8591 11.6253C10.9302 11.6549 11.0065 11.6702 11.0835 11.6702C11.1605 11.6702 11.2367 11.6549 11.3078 11.6253C11.3789 11.5957 11.4434 11.5523 11.4976 11.4976C11.5523 11.4434 11.5957 11.3789 11.6253 11.3078C11.6549 11.2367 11.6702 11.1604 11.6702 11.0834C11.6702 11.0064 11.6549 10.9302 11.6253 10.8591C11.5957 10.788 11.5523 10.7235 11.4976 10.6693L7.82263 7.00011Z" fill="#706B75" stroke="#706B75" stroke-width="0.4"/>
</svg>
