<svg width="26" height="26" viewBox="0 0 26 26" fill="none" xmlns="http://www.w3.org/2000/svg">
<path fill-rule="evenodd" clip-rule="evenodd" d="M23.4834 13.0029C23.4834 18.793 18.7896 23.4868 12.9995 23.4868C7.20941 23.4868 2.51562 18.793 2.51562 13.0029C2.51562 7.21283 7.20941 2.51904 12.9995 2.51904C18.7896 2.51904 23.4834 7.21283 23.4834 13.0029ZM14.1637 8.34437C14.1637 8.98771 13.6422 9.50924 12.9989 9.50924C12.3555 9.50924 11.834 8.98771 11.834 8.34437C11.834 7.70102 12.3555 7.17949 12.9989 7.17949C13.6422 7.17949 14.1637 7.70102 14.1637 8.34437ZM14.1053 18.8262V11.837H11.8952V18.8262H14.1053Z" fill="#396CDB"/>
</svg>
