<svg width="20" height="20" viewBox="0 0 20 20" fill="none" xmlns="http://www.w3.org/2000/svg">
<path d="M15.1052 5.44594C15.2063 5.31107 15.0377 5.15933 14.9197 5.26049C13.9082 6.01915 12.1717 7.33417 11.177 8.10969C11.0758 8.07598 10.9578 8.05912 10.8398 8.05912C10.0306 8.05912 9.37305 8.71663 9.37305 9.52587C9.37305 9.62702 9.38991 9.72818 9.40677 9.82933H12.2728C12.2897 9.72818 12.3065 9.62702 12.3065 9.52587C12.3065 9.40785 12.2897 9.28984 12.256 9.18868C13.0315 8.19399 14.3465 6.45749 15.1052 5.44594Z" fill="#282230"/>
<path d="M10.8398 5.90103C11.3793 5.93475 11.9019 6.08648 12.374 6.30565C12.7955 5.98532 13.2844 5.61442 13.8576 5.19294C12.9304 4.70402 11.8682 4.48486 10.8398 4.53543C9.32248 4.61973 7.88945 5.31096 6.94533 6.4068C6.15295 7.28348 5.68089 8.41305 5.57974 9.54262C5.56288 9.67749 5.68089 9.79551 5.81576 9.79551C5.93378 9.79551 6.01808 9.71121 6.03493 9.61005C6.2541 8.5985 6.7936 7.67125 7.55226 7.01374C8.46236 6.20449 9.67652 5.81673 10.8398 5.90103Z" fill="#282230"/>
<path d="M14.1445 7.87409C14.4649 8.39672 14.6672 8.98679 14.7177 9.57687C14.7346 9.69488 14.8358 9.77918 14.9369 9.77918H16.7746C16.9263 9.77918 17.0275 9.6443 16.9937 9.50943C16.7746 8.27871 16.1845 7.13228 15.3247 6.27246C14.8695 6.89625 14.4817 7.43575 14.1445 7.87409Z" fill="#282230"/>
<g clip-path="url(#clip0_3253_43788)">
<path d="M16.7749 2.1875H5.34956C4.20375 2.1875 3.28711 3.12051 3.28711 4.24995V8.46195C3.70656 8.22022 4.16985 8.0466 4.66208 7.95628V4.26632C4.66208 3.88984 4.97308 3.57883 5.34956 3.57883H16.7585C17.135 3.57883 17.446 3.88984 17.446 4.26632V10.1263H17.4624C17.4624 10.5028 17.1514 10.8138 16.7749 10.8138H9.54812C9.70011 11.2554 9.78283 11.729 9.78283 12.2215C9.78283 13.4404 9.27716 14.5429 8.46515 15.3315H16.7588C17.9046 15.3315 18.8212 14.3985 18.8212 13.2691V4.26632C18.8376 3.12051 17.9046 2.1875 16.7752 2.1875H16.7749ZM11.0622 13.9238C10.5875 13.9238 10.211 13.5473 10.211 13.0726C10.211 12.598 10.5875 12.2215 11.0622 12.2215C11.5369 12.2215 11.9134 12.598 11.9134 13.0726C11.9134 13.5473 11.5369 13.9238 11.0622 13.9238ZM14.074 13.9238C13.5994 13.9238 13.2229 13.5473 13.2229 13.0726C13.2229 12.598 13.5994 12.2215 14.074 12.2215C14.5487 12.2215 14.9252 12.598 14.9252 13.0726C14.9252 13.5473 14.5487 13.9238 14.074 13.9238Z" fill="#282230"/>
<path fill-rule="evenodd" clip-rule="evenodd" d="M5.44905 7.77246C2.9958 7.77246 1 9.76827 1 12.2215C1 14.6748 2.9958 16.6706 5.44905 16.6706C6.64046 16.6706 7.75879 16.2087 8.59739 15.3698C9.43599 14.531 9.89811 13.4129 9.89811 12.2215C9.89811 9.76827 7.9023 7.77246 5.44905 7.77246ZM7.2686 13.372C7.45801 13.5614 7.45801 13.8593 7.2686 14.0487C7.0792 14.2381 6.78134 14.2381 6.59194 14.0487L5.44145 12.8982L4.29097 14.0487C4.11501 14.2381 3.81716 14.2381 3.62775 14.0487C3.43834 13.8593 3.43834 13.5614 3.62775 13.372L4.77823 12.2215L3.62775 11.0576C3.43834 10.8816 3.43834 10.5838 3.62775 10.3944C3.81716 10.205 4.11501 10.205 4.30442 10.3944L5.4549 11.5448L6.60538 10.3944C6.79479 10.205 7.09264 10.205 7.28205 10.3944C7.45801 10.5838 7.45801 10.8816 7.2686 11.071L6.11812 12.2215L7.2686 13.372Z" fill="#433B4E"/>
</g>
<defs>
<clipPath id="clip0_3253_43788">
<rect width="17.824" height="14.483" fill="white" transform="translate(1 2.1875)"/>
</clipPath>
</defs>
</svg>
