<svg width="16" height="16" viewBox="0 0 16 16" fill="none" xmlns="http://www.w3.org/2000/svg">
<path d="M9.81326 5.85998L6.95326 8.72665L5.85325 7.62665C5.79349 7.55686 5.71994 7.50018 5.63723 7.46016C5.55452 7.42015 5.46444 7.39766 5.37262 7.39411C5.28081 7.39057 5.18926 7.40604 5.10371 7.43955C5.01816 7.47307 4.94046 7.52391 4.87549 7.58888C4.81052 7.65385 4.75968 7.73155 4.72616 7.8171C4.69265 7.90265 4.67718 7.9942 4.68072 8.08601C4.68427 8.17783 4.70676 8.26792 4.74677 8.35063C4.78679 8.43334 4.84347 8.50688 4.91325 8.56665L6.47992 10.14C6.54222 10.2018 6.61609 10.2506 6.69732 10.2838C6.77854 10.317 6.86552 10.3338 6.95326 10.3333C7.12815 10.3326 7.29575 10.2631 7.41992 10.14L10.7533 6.80665C10.8157 6.74467 10.8653 6.67094 10.8992 6.5897C10.933 6.50846 10.9505 6.42132 10.9505 6.33331C10.9505 6.2453 10.933 6.15817 10.8992 6.07693C10.8653 5.99569 10.8157 5.92195 10.7533 5.85998C10.6283 5.73581 10.4594 5.66612 10.2833 5.66612C10.1071 5.66612 9.93816 5.73581 9.81326 5.85998ZM7.99992 1.33331C6.68138 1.33331 5.39245 1.72431 4.29612 2.45685C3.19979 3.18939 2.34531 4.23058 1.84072 5.44876C1.33614 6.66693 1.20412 8.00737 1.46135 9.30058C1.71859 10.5938 2.35353 11.7817 3.28588 12.714C4.21823 13.6464 5.40611 14.2813 6.69932 14.5385C7.99253 14.7958 9.33297 14.6638 10.5511 14.1592C11.7693 13.6546 12.8105 12.8001 13.5431 11.7038C14.2756 10.6075 14.6666 9.31852 14.6666 7.99998C14.6666 7.1245 14.4942 6.25759 14.1591 5.44876C13.8241 4.63992 13.333 3.90499 12.714 3.28593C12.0949 2.66688 11.36 2.17581 10.5511 1.84078C9.74231 1.50575 8.8754 1.33331 7.99992 1.33331ZM7.99992 13.3333C6.94509 13.3333 5.91394 13.0205 5.03688 12.4345C4.15982 11.8484 3.47623 11.0155 3.07256 10.041C2.6689 9.06642 2.56328 7.99406 2.76907 6.9595C2.97485 5.92493 3.48281 4.97462 4.22869 4.22874C4.97457 3.48286 5.92487 2.97491 6.95944 2.76912C7.99401 2.56334 9.06636 2.66895 10.0409 3.07262C11.0154 3.47629 11.8484 4.15988 12.4344 5.03694C13.0205 5.914 13.3333 6.94515 13.3333 7.99998C13.3333 9.41447 12.7714 10.771 11.7712 11.7712C10.771 12.7714 9.41441 13.3333 7.99992 13.3333Z" fill="#CFCED1"/>
</svg>
