<svg width="385" height="70" viewBox="0 0 385 70" fill="none" xmlns="http://www.w3.org/2000/svg">
<path d="M112.797 18.0015H110.973L105.485 9.69746V18.0015H103.661V6.86546H105.485L110.973 15.1535V6.86546H112.797V18.0015ZM119.016 18.1455C118.184 18.1455 117.432 17.9588 116.76 17.5855C116.088 17.2015 115.56 16.6681 115.176 15.9855C114.792 15.2921 114.6 14.4921 114.6 13.5855C114.6 12.6895 114.798 11.8948 115.192 11.2015C115.587 10.5081 116.126 9.9748 116.808 9.60146C117.491 9.22813 118.254 9.04146 119.096 9.04146C119.939 9.04146 120.702 9.22813 121.384 9.60146C122.067 9.9748 122.606 10.5081 123 11.2015C123.395 11.8948 123.592 12.6895 123.592 13.5855C123.592 14.4815 123.39 15.2761 122.984 15.9695C122.579 16.6628 122.024 17.2015 121.32 17.5855C120.627 17.9588 119.859 18.1455 119.016 18.1455ZM119.016 16.5615C119.486 16.5615 119.923 16.4495 120.328 16.2255C120.744 16.0015 121.08 15.6655 121.336 15.2175C121.592 14.7695 121.72 14.2255 121.72 13.5855C121.72 12.9455 121.598 12.4068 121.352 11.9695C121.107 11.5215 120.782 11.1855 120.376 10.9615C119.971 10.7375 119.534 10.6255 119.064 10.6255C118.595 10.6255 118.158 10.7375 117.752 10.9615C117.358 11.1855 117.043 11.5215 116.808 11.9695C116.574 12.4068 116.456 12.9455 116.456 13.5855C116.456 14.5348 116.696 15.2708 117.176 15.7935C117.667 16.3055 118.28 16.5615 119.016 16.5615ZM131.376 16.5295H135.136V18.0015H129.552V6.88146H131.376V16.5295ZM137.589 8.01746C137.258 8.01746 136.981 7.90546 136.757 7.68146C136.533 7.45746 136.421 7.18013 136.421 6.84946C136.421 6.5188 136.533 6.24146 136.757 6.01746C136.981 5.79346 137.258 5.68146 137.589 5.68146C137.909 5.68146 138.181 5.79346 138.405 6.01746C138.629 6.24146 138.741 6.5188 138.741 6.84946C138.741 7.18013 138.629 7.45746 138.405 7.68146C138.181 7.90546 137.909 8.01746 137.589 8.01746ZM138.485 9.18546V18.0015H136.661V9.18546H138.485ZM140.272 13.5535C140.272 12.6681 140.453 11.8841 140.816 11.2015C141.189 10.5188 141.69 9.9908 142.32 9.61746C142.96 9.23346 143.669 9.04146 144.448 9.04146C145.13 9.04146 145.733 9.18013 146.256 9.45746C146.789 9.7348 147.2 10.0708 147.488 10.4655V9.18546H149.328V22.1935H147.488V16.7215C147.2 17.1161 146.784 17.4521 146.24 17.7295C145.696 18.0068 145.077 18.1455 144.384 18.1455C143.626 18.1455 142.933 17.9535 142.304 17.5695C141.685 17.1748 141.189 16.6308 140.816 15.9375C140.453 15.2335 140.272 14.4388 140.272 13.5535ZM147.488 13.5855C147.488 12.9775 147.36 12.4495 147.104 12.0015C146.858 11.5535 146.533 11.2121 146.128 10.9775C145.722 10.7428 145.285 10.6255 144.816 10.6255C144.346 10.6255 143.909 10.7428 143.504 10.9775C143.098 11.2015 142.768 11.5375 142.512 11.9855C142.266 12.4228 142.144 12.9455 142.144 13.5535C142.144 14.1615 142.266 14.6948 142.512 15.1535C142.768 15.6121 143.098 15.9641 143.504 16.2095C143.92 16.4441 144.357 16.5615 144.816 16.5615C145.285 16.5615 145.722 16.4441 146.128 16.2095C146.533 15.9748 146.858 15.6335 147.104 15.1855C147.36 14.7268 147.488 14.1935 147.488 13.5855ZM159.707 9.18546V18.0015H157.883V16.9615C157.595 17.3241 157.217 17.6121 156.747 17.8255C156.289 18.0281 155.798 18.1295 155.275 18.1295C154.582 18.1295 153.958 17.9855 153.403 17.6975C152.859 17.4095 152.427 16.9828 152.107 16.4175C151.798 15.8521 151.643 15.1695 151.643 14.3695V9.18546H153.451V14.0975C153.451 14.8868 153.649 15.4948 154.043 15.9215C154.438 16.3375 154.977 16.5455 155.659 16.5455C156.342 16.5455 156.881 16.3375 157.275 15.9215C157.681 15.4948 157.883 14.8868 157.883 14.0975V9.18546H159.707ZM163.042 8.01746C162.711 8.01746 162.434 7.90546 162.21 7.68146C161.986 7.45746 161.874 7.18013 161.874 6.84946C161.874 6.5188 161.986 6.24146 162.21 6.01746C162.434 5.79346 162.711 5.68146 163.042 5.68146C163.362 5.68146 163.634 5.79346 163.858 6.01746C164.082 6.24146 164.194 6.5188 164.194 6.84946C164.194 7.18013 164.082 7.45746 163.858 7.68146C163.634 7.90546 163.362 8.01746 163.042 8.01746ZM163.938 9.18546V18.0015H162.114V9.18546H163.938ZM165.725 13.5535C165.725 12.6681 165.906 11.8841 166.269 11.2015C166.642 10.5188 167.143 9.9908 167.773 9.61746C168.413 9.23346 169.122 9.04146 169.901 9.04146C170.477 9.04146 171.042 9.16946 171.597 9.42546C172.162 9.6708 172.61 10.0015 172.941 10.4175V6.16146H174.781V18.0015H172.941V16.6735C172.642 17.1001 172.226 17.4521 171.693 17.7295C171.17 18.0068 170.567 18.1455 169.885 18.1455C169.117 18.1455 168.413 17.9535 167.773 17.5695C167.143 17.1748 166.642 16.6308 166.269 15.9375C165.906 15.2335 165.725 14.4388 165.725 13.5535ZM172.941 13.5855C172.941 12.9775 172.813 12.4495 172.557 12.0015C172.311 11.5535 171.986 11.2121 171.581 10.9775C171.175 10.7428 170.738 10.6255 170.269 10.6255C169.799 10.6255 169.362 10.7428 168.957 10.9775C168.551 11.2015 168.221 11.5375 167.965 11.9855C167.719 12.4228 167.597 12.9455 167.597 13.5535C167.597 14.1615 167.719 14.6948 167.965 15.1535C168.221 15.6121 168.551 15.9641 168.957 16.2095C169.373 16.4441 169.81 16.5615 170.269 16.5615C170.738 16.5615 171.175 16.4441 171.581 16.2095C171.986 15.9748 172.311 15.6335 172.557 15.1855C172.813 14.7268 172.941 14.1935 172.941 13.5855ZM178.105 8.01746C177.774 8.01746 177.497 7.90546 177.273 7.68146C177.049 7.45746 176.937 7.18013 176.937 6.84946C176.937 6.5188 177.049 6.24146 177.273 6.01746C177.497 5.79346 177.774 5.68146 178.105 5.68146C178.425 5.68146 178.697 5.79346 178.921 6.01746C179.145 6.24146 179.257 6.5188 179.257 6.84946C179.257 7.18013 179.145 7.45746 178.921 7.68146C178.697 7.90546 178.425 8.01746 178.105 8.01746ZM179.001 9.18546V18.0015H177.177V9.18546H179.001ZM183.523 10.6735V15.5535C183.523 15.8841 183.598 16.1241 183.747 16.2735C183.907 16.4121 184.174 16.4815 184.547 16.4815H185.667V18.0015H184.227C183.406 18.0015 182.777 17.8095 182.339 17.4255C181.902 17.0415 181.683 16.4175 181.683 15.5535V10.6735H180.643V9.18546H181.683V6.99346H183.523V9.18546H185.667V10.6735H183.523ZM195.284 9.18546L189.876 22.1455H187.988L189.78 17.8575L186.308 9.18546H188.34L190.82 15.9055L193.396 9.18546H195.284ZM208.593 10.1935C208.593 10.7588 208.46 11.2921 208.193 11.7935C207.927 12.2948 207.5 12.7055 206.913 13.0255C206.327 13.3348 205.575 13.4895 204.657 13.4895H202.641V18.0015H200.817V6.88146H204.657C205.511 6.88146 206.231 7.0308 206.817 7.32946C207.415 7.61746 207.857 8.01213 208.145 8.51346C208.444 9.0148 208.593 9.5748 208.593 10.1935ZM204.657 12.0015C205.351 12.0015 205.868 11.8468 206.209 11.5375C206.551 11.2175 206.721 10.7695 206.721 10.1935C206.721 8.97746 206.033 8.36946 204.657 8.36946H202.641V12.0015H204.657ZM215.405 18.1135C214.37 18.1135 213.415 17.8735 212.541 17.3935C211.677 16.9028 210.989 16.2255 210.477 15.3615C209.975 14.4868 209.725 13.5055 209.725 12.4175C209.725 11.3295 209.975 10.3535 210.477 9.48946C210.989 8.62546 211.677 7.95346 212.541 7.47346C213.415 6.9828 214.37 6.73746 215.405 6.73746C216.45 6.73746 217.405 6.9828 218.269 7.47346C219.143 7.95346 219.831 8.62546 220.333 9.48946C220.834 10.3535 221.085 11.3295 221.085 12.4175C221.085 13.5055 220.834 14.4868 220.333 15.3615C219.831 16.2255 219.143 16.9028 218.269 17.3935C217.405 17.8735 216.45 18.1135 215.405 18.1135ZM215.405 16.5295C216.141 16.5295 216.797 16.3641 217.373 16.0335C217.949 15.6921 218.397 15.2121 218.717 14.5935C219.047 13.9641 219.213 13.2388 219.213 12.4175C219.213 11.5961 219.047 10.8761 218.717 10.2575C218.397 9.6388 217.949 9.16413 217.373 8.83346C216.797 8.5028 216.141 8.33746 215.405 8.33746C214.669 8.33746 214.013 8.5028 213.437 8.83346C212.861 9.16413 212.407 9.6388 212.077 10.2575C211.757 10.8761 211.597 11.5961 211.597 12.4175C211.597 13.2388 211.757 13.9641 212.077 14.5935C212.407 15.2121 212.861 15.6921 213.437 16.0335C214.013 16.3641 214.669 16.5295 215.405 16.5295ZM226.544 18.1135C225.797 18.1135 225.125 17.9855 224.528 17.7295C223.93 17.4628 223.461 17.0895 223.12 16.6095C222.778 16.1295 222.608 15.5695 222.608 14.9295H224.56C224.602 15.4095 224.789 15.8041 225.12 16.1135C225.461 16.4228 225.936 16.5775 226.544 16.5775C227.173 16.5775 227.664 16.4281 228.016 16.1295C228.368 15.8201 228.544 15.4255 228.544 14.9455C228.544 14.5721 228.432 14.2681 228.208 14.0335C227.994 13.7988 227.722 13.6175 227.392 13.4895C227.072 13.3615 226.624 13.2228 226.048 13.0735C225.322 12.8815 224.73 12.6895 224.272 12.4975C223.824 12.2948 223.44 11.9855 223.12 11.5695C222.8 11.1535 222.64 10.5988 222.64 9.90546C222.64 9.26546 222.8 8.70546 223.12 8.22546C223.44 7.74546 223.888 7.37746 224.464 7.12146C225.04 6.86546 225.706 6.73746 226.464 6.73746C227.541 6.73746 228.421 7.00946 229.104 7.55346C229.797 8.0868 230.181 8.8228 230.256 9.76146H228.24C228.208 9.35613 228.016 9.00946 227.664 8.72146C227.312 8.43346 226.848 8.28946 226.272 8.28946C225.749 8.28946 225.322 8.4228 224.992 8.68946C224.661 8.95613 224.496 9.34013 224.496 9.84146C224.496 10.1828 224.597 10.4655 224.8 10.6895C225.013 10.9028 225.28 11.0735 225.6 11.2015C225.92 11.3295 226.357 11.4681 226.912 11.6175C227.648 11.8201 228.245 12.0228 228.704 12.2255C229.173 12.4281 229.568 12.7428 229.888 13.1695C230.218 13.5855 230.384 14.1455 230.384 14.8495C230.384 15.4148 230.229 15.9481 229.92 16.4495C229.621 16.9508 229.178 17.3561 228.592 17.6655C228.016 17.9641 227.333 18.1135 226.544 18.1135ZM234.36 6.88146V18.0015H232.536V6.88146H234.36ZM243.939 6.88146V8.36946H240.979V18.0015H239.155V8.36946H236.179V6.88146H243.939ZM247.61 6.88146V18.0015H245.786V6.88146H247.61ZM255.077 18.1135C254.042 18.1135 253.087 17.8735 252.213 17.3935C251.349 16.9028 250.661 16.2255 250.149 15.3615C249.647 14.4868 249.397 13.5055 249.397 12.4175C249.397 11.3295 249.647 10.3535 250.149 9.48946C250.661 8.62546 251.349 7.95346 252.213 7.47346C253.087 6.9828 254.042 6.73746 255.077 6.73746C256.122 6.73746 257.077 6.9828 257.941 7.47346C258.815 7.95346 259.503 8.62546 260.005 9.48946C260.506 10.3535 260.757 11.3295 260.757 12.4175C260.757 13.5055 260.506 14.4868 260.005 15.3615C259.503 16.2255 258.815 16.9028 257.941 17.3935C257.077 17.8735 256.122 18.1135 255.077 18.1135ZM255.077 16.5295C255.813 16.5295 256.469 16.3641 257.045 16.0335C257.621 15.6921 258.069 15.2121 258.389 14.5935C258.719 13.9641 258.885 13.2388 258.885 12.4175C258.885 11.5961 258.719 10.8761 258.389 10.2575C258.069 9.6388 257.621 9.16413 257.045 8.83346C256.469 8.5028 255.813 8.33746 255.077 8.33746C254.341 8.33746 253.685 8.5028 253.109 8.83346C252.533 9.16413 252.079 9.6388 251.749 10.2575C251.429 10.8761 251.269 11.5961 251.269 12.4175C251.269 13.2388 251.429 13.9641 251.749 14.5935C252.079 15.2121 252.533 15.6921 253.109 16.0335C253.685 16.3641 254.341 16.5295 255.077 16.5295ZM271.688 18.0015H269.864L264.376 9.69746V18.0015H262.552V6.86546H264.376L269.864 15.1535V6.86546H271.688V18.0015ZM277.747 18.1135C277 18.1135 276.328 17.9855 275.731 17.7295C275.133 17.4628 274.664 17.0895 274.323 16.6095C273.981 16.1295 273.811 15.5695 273.811 14.9295H275.763C275.805 15.4095 275.992 15.8041 276.323 16.1135C276.664 16.4228 277.139 16.5775 277.747 16.5775C278.376 16.5775 278.867 16.4281 279.219 16.1295C279.571 15.8201 279.747 15.4255 279.747 14.9455C279.747 14.5721 279.635 14.2681 279.411 14.0335C279.197 13.7988 278.925 13.6175 278.595 13.4895C278.275 13.3615 277.827 13.2228 277.251 13.0735C276.525 12.8815 275.933 12.6895 275.475 12.4975C275.027 12.2948 274.643 11.9855 274.323 11.5695C274.003 11.1535 273.843 10.5988 273.843 9.90546C273.843 9.26546 274.003 8.70546 274.323 8.22546C274.643 7.74546 275.091 7.37746 275.667 7.12146C276.243 6.86546 276.909 6.73746 277.667 6.73746C278.744 6.73746 279.624 7.00946 280.307 7.55346C281 8.0868 281.384 8.8228 281.459 9.76146H279.443C279.411 9.35613 279.219 9.00946 278.867 8.72146C278.515 8.43346 278.051 8.28946 277.475 8.28946C276.952 8.28946 276.525 8.4228 276.195 8.68946C275.864 8.95613 275.699 9.34013 275.699 9.84146C275.699 10.1828 275.8 10.4655 276.003 10.6895C276.216 10.9028 276.483 11.0735 276.803 11.2015C277.123 11.3295 277.56 11.4681 278.115 11.6175C278.851 11.8201 279.448 12.0228 279.907 12.2255C280.376 12.4281 280.771 12.7428 281.091 13.1695C281.421 13.5855 281.587 14.1455 281.587 14.8495C281.587 15.4148 281.432 15.9481 281.123 16.4495C280.824 16.9508 280.381 17.3561 279.795 17.6655C279.219 17.9641 278.536 18.1135 277.747 18.1135Z" fill="#B7B5BA"/>
<path d="M56.37 37.2435L53.192 43.3195V47.0015H51.918V43.3195L48.726 37.2435H50.14L52.548 42.1855L54.956 37.2435H56.37ZM61.0597 47.1275C60.3411 47.1275 59.6877 46.9641 59.0997 46.6375C58.5211 46.3108 58.0637 45.8488 57.7277 45.2515C57.4011 44.6448 57.2377 43.9448 57.2377 43.1515C57.2377 42.3675 57.4057 41.6768 57.7417 41.0795C58.0871 40.4728 58.5537 40.0108 59.1417 39.6935C59.7297 39.3668 60.3877 39.2035 61.1157 39.2035C61.8437 39.2035 62.5017 39.3668 63.0897 39.6935C63.6777 40.0108 64.1397 40.4681 64.4757 41.0655C64.8211 41.6628 64.9937 42.3581 64.9937 43.1515C64.9937 43.9448 64.8164 44.6448 64.4617 45.2515C64.1164 45.8488 63.6451 46.3108 63.0477 46.6375C62.4504 46.9641 61.7877 47.1275 61.0597 47.1275ZM61.0597 46.0075C61.5171 46.0075 61.9464 45.9001 62.3477 45.6855C62.7491 45.4708 63.0711 45.1488 63.3137 44.7195C63.5657 44.2901 63.6917 43.7675 63.6917 43.1515C63.6917 42.5355 63.5704 42.0128 63.3277 41.5835C63.0851 41.1541 62.7677 40.8368 62.3757 40.6315C61.9837 40.4168 61.5591 40.3095 61.1017 40.3095C60.6351 40.3095 60.2057 40.4168 59.8137 40.6315C59.4311 40.8368 59.1231 41.1541 58.8897 41.5835C58.6564 42.0128 58.5397 42.5355 58.5397 43.1515C58.5397 43.7768 58.6517 44.3041 58.8757 44.7335C59.1091 45.1628 59.4171 45.4848 59.7997 45.6995C60.1824 45.9048 60.6024 46.0075 61.0597 46.0075ZM73.4728 39.3295V47.0015H72.1988V45.8675C71.9562 46.2595 71.6155 46.5675 71.1768 46.7915C70.7475 47.0061 70.2715 47.1135 69.7488 47.1135C69.1515 47.1135 68.6148 46.9921 68.1388 46.7495C67.6628 46.4975 67.2848 46.1241 67.0048 45.6295C66.7342 45.1348 66.5988 44.5328 66.5988 43.8235V39.3295H67.8588V43.6555C67.8588 44.4115 68.0502 44.9948 68.4328 45.4055C68.8155 45.8068 69.3382 46.0075 70.0008 46.0075C70.6822 46.0075 71.2188 45.7975 71.6108 45.3775C72.0028 44.9575 72.1988 44.3461 72.1988 43.5435V39.3295H73.4728ZM78.8803 43.1375C78.8803 42.3535 79.039 41.6675 79.3563 41.0795C79.6737 40.4821 80.1077 40.0201 80.6583 39.6935C81.2183 39.3668 81.8437 39.2035 82.5343 39.2035C83.1317 39.2035 83.687 39.3435 84.2003 39.6235C84.7137 39.8941 85.1057 40.2535 85.3763 40.7015V36.6415H86.6643V47.0015H85.3763V45.5595C85.1243 46.0168 84.751 46.3948 84.2563 46.6935C83.7617 46.9828 83.183 47.1275 82.5203 47.1275C81.839 47.1275 81.2183 46.9595 80.6583 46.6235C80.1077 46.2875 79.6737 45.8161 79.3563 45.2095C79.039 44.6028 78.8803 43.9121 78.8803 43.1375ZM85.3763 43.1515C85.3763 42.5728 85.2597 42.0688 85.0263 41.6395C84.793 41.2101 84.4757 40.8835 84.0743 40.6595C83.6823 40.4261 83.2483 40.3095 82.7723 40.3095C82.2963 40.3095 81.8623 40.4215 81.4703 40.6455C81.0783 40.8695 80.7657 41.1961 80.5323 41.6255C80.299 42.0548 80.1823 42.5588 80.1823 43.1375C80.1823 43.7255 80.299 44.2388 80.5323 44.6775C80.7657 45.1068 81.0783 45.4381 81.4703 45.6715C81.8623 45.8955 82.2963 46.0075 82.7723 46.0075C83.2483 46.0075 83.6823 45.8955 84.0743 45.6715C84.4757 45.4381 84.793 45.1068 85.0263 44.6775C85.2597 44.2388 85.3763 43.7301 85.3763 43.1515ZM92.1633 47.1275C91.4446 47.1275 90.7913 46.9641 90.2033 46.6375C89.6246 46.3108 89.1673 45.8488 88.8313 45.2515C88.5046 44.6448 88.3413 43.9448 88.3413 43.1515C88.3413 42.3675 88.5093 41.6768 88.8453 41.0795C89.1906 40.4728 89.6573 40.0108 90.2453 39.6935C90.8333 39.3668 91.4913 39.2035 92.2193 39.2035C92.9473 39.2035 93.6053 39.3668 94.1933 39.6935C94.7813 40.0108 95.2433 40.4681 95.5793 41.0655C95.9246 41.6628 96.0973 42.3581 96.0973 43.1515C96.0973 43.9448 95.9199 44.6448 95.5653 45.2515C95.2199 45.8488 94.7486 46.3108 94.1513 46.6375C93.5539 46.9641 92.8913 47.1275 92.1633 47.1275ZM92.1633 46.0075C92.6206 46.0075 93.0499 45.9001 93.4513 45.6855C93.8526 45.4708 94.1746 45.1488 94.4173 44.7195C94.6693 44.2901 94.7953 43.7675 94.7953 43.1515C94.7953 42.5355 94.6739 42.0128 94.4313 41.5835C94.1886 41.1541 93.8713 40.8368 93.4793 40.6315C93.0873 40.4168 92.6626 40.3095 92.2053 40.3095C91.7386 40.3095 91.3093 40.4168 90.9173 40.6315C90.5346 40.8368 90.2266 41.1541 89.9933 41.5835C89.7599 42.0128 89.6433 42.5355 89.6433 43.1515C89.6433 43.7768 89.7553 44.3041 89.9793 44.7335C90.2126 45.1628 90.5206 45.4848 90.9033 45.6995C91.2859 45.9048 91.7059 46.0075 92.1633 46.0075ZM105.243 39.1895C106.176 39.1895 106.932 39.4741 107.511 40.0435C108.089 40.6035 108.379 41.4155 108.379 42.4795V47.0015H107.119V42.6615C107.119 41.8961 106.927 41.3128 106.545 40.9115C106.162 40.5008 105.639 40.2955 104.977 40.2955C104.305 40.2955 103.768 40.5055 103.367 40.9255C102.975 41.3455 102.779 41.9568 102.779 42.7595V47.0015H101.505V39.3295H102.779V40.4215C103.031 40.0295 103.371 39.7261 103.801 39.5115C104.239 39.2968 104.72 39.1895 105.243 39.1895ZM113.806 47.1275C113.087 47.1275 112.434 46.9641 111.846 46.6375C111.267 46.3108 110.81 45.8488 110.474 45.2515C110.147 44.6448 109.984 43.9448 109.984 43.1515C109.984 42.3675 110.152 41.6768 110.488 41.0795C110.833 40.4728 111.3 40.0108 111.888 39.6935C112.476 39.3668 113.134 39.2035 113.862 39.2035C114.59 39.2035 115.248 39.3668 115.836 39.6935C116.424 40.0108 116.886 40.4681 117.222 41.0655C117.567 41.6628 117.74 42.3581 117.74 43.1515C117.74 43.9448 117.563 44.6448 117.208 45.2515C116.863 45.8488 116.391 46.3108 115.794 46.6375C115.197 46.9641 114.534 47.1275 113.806 47.1275ZM113.806 46.0075C114.263 46.0075 114.693 45.9001 115.094 45.6855C115.495 45.4708 115.817 45.1488 116.06 44.7195C116.312 44.2901 116.438 43.7675 116.438 43.1515C116.438 42.5355 116.317 42.0128 116.074 41.5835C115.831 41.1541 115.514 40.8368 115.122 40.6315C114.73 40.4168 114.305 40.3095 113.848 40.3095C113.381 40.3095 112.952 40.4168 112.56 40.6315C112.177 40.8368 111.869 41.1541 111.636 41.5835C111.403 42.0128 111.286 42.5355 111.286 43.1515C111.286 43.7768 111.398 44.3041 111.622 44.7335C111.855 45.1628 112.163 45.4848 112.546 45.6995C112.929 45.9048 113.349 46.0075 113.806 46.0075ZM120.969 40.3795V44.9015C120.969 45.2748 121.048 45.5408 121.207 45.6995C121.366 45.8488 121.641 45.9235 122.033 45.9235H122.971V47.0015H121.823C121.114 47.0015 120.582 46.8381 120.227 46.5115C119.872 46.1848 119.695 45.6481 119.695 44.9015V40.3795H118.701V39.3295H119.695V37.3975H120.969V39.3295H122.971V40.3795H120.969ZM132.055 39.1895C132.634 39.1895 133.156 39.3155 133.623 39.5675C134.09 39.8101 134.454 40.1788 134.715 40.6735C134.986 41.1681 135.121 41.7701 135.121 42.4795V47.0015H133.861V42.6615C133.861 41.8961 133.67 41.3128 133.287 40.9115C132.904 40.5008 132.382 40.2955 131.719 40.2955C131.047 40.2955 130.51 40.5055 130.109 40.9255C129.717 41.3455 129.521 41.9568 129.521 42.7595V47.0015H128.247V36.6415H129.521V40.4215C129.773 40.0295 130.118 39.7261 130.557 39.5115C131.005 39.2968 131.504 39.1895 132.055 39.1895ZM136.726 43.1375C136.726 42.3535 136.885 41.6675 137.202 41.0795C137.519 40.4821 137.953 40.0201 138.504 39.6935C139.064 39.3668 139.685 39.2035 140.366 39.2035C141.038 39.2035 141.621 39.3481 142.116 39.6375C142.611 39.9268 142.979 40.2908 143.222 40.7295V39.3295H144.51V47.0015H143.222V45.5735C142.97 46.0215 142.592 46.3948 142.088 46.6935C141.593 46.9828 141.015 47.1275 140.352 47.1275C139.671 47.1275 139.055 46.9595 138.504 46.6235C137.953 46.2875 137.519 45.8161 137.202 45.2095C136.885 44.6028 136.726 43.9121 136.726 43.1375ZM143.222 43.1515C143.222 42.5728 143.105 42.0688 142.872 41.6395C142.639 41.2101 142.321 40.8835 141.92 40.6595C141.528 40.4261 141.094 40.3095 140.618 40.3095C140.142 40.3095 139.708 40.4215 139.316 40.6455C138.924 40.8695 138.611 41.1961 138.378 41.6255C138.145 42.0548 138.028 42.5588 138.028 43.1375C138.028 43.7255 138.145 44.2388 138.378 44.6775C138.611 45.1068 138.924 45.4381 139.316 45.6715C139.708 45.8955 140.142 46.0075 140.618 46.0075C141.094 46.0075 141.528 45.8955 141.92 45.6715C142.321 45.4381 142.639 45.1068 142.872 44.6775C143.105 44.2388 143.222 43.7301 143.222 43.1515ZM149.519 45.8255L151.899 39.3295H153.257L150.247 47.0015H148.763L145.753 39.3295H147.125L149.519 45.8255ZM161.511 42.8715C161.511 43.1141 161.497 43.3708 161.469 43.6415H155.337C155.383 44.3975 155.64 44.9901 156.107 45.4195C156.583 45.8395 157.157 46.0495 157.829 46.0495C158.379 46.0495 158.837 45.9235 159.201 45.6715C159.574 45.4101 159.835 45.0648 159.985 44.6355H161.357C161.151 45.3728 160.741 45.9748 160.125 46.4415C159.509 46.8988 158.743 47.1275 157.829 47.1275C157.101 47.1275 156.447 46.9641 155.869 46.6375C155.299 46.3108 154.851 45.8488 154.525 45.2515C154.198 44.6448 154.035 43.9448 154.035 43.1515C154.035 42.3581 154.193 41.6628 154.511 41.0655C154.828 40.4681 155.271 40.0108 155.841 39.6935C156.419 39.3668 157.082 39.2035 157.829 39.2035C158.557 39.2035 159.201 39.3621 159.761 39.6795C160.321 39.9968 160.75 40.4355 161.049 40.9955C161.357 41.5461 161.511 42.1715 161.511 42.8715ZM160.195 42.6055C160.195 42.1201 160.087 41.7048 159.873 41.3595C159.658 41.0048 159.364 40.7388 158.991 40.5615C158.627 40.3748 158.221 40.2815 157.773 40.2815C157.129 40.2815 156.578 40.4868 156.121 40.8975C155.673 41.3081 155.416 41.8775 155.351 42.6055H160.195ZM166.449 43.1375C166.449 42.3535 166.607 41.6675 166.925 41.0795C167.242 40.4821 167.676 40.0201 168.227 39.6935C168.787 39.3668 169.407 39.2035 170.089 39.2035C170.761 39.2035 171.344 39.3481 171.839 39.6375C172.333 39.9268 172.702 40.2908 172.945 40.7295V39.3295H174.233V47.0015H172.945V45.5735C172.693 46.0215 172.315 46.3948 171.811 46.6935C171.316 46.9828 170.737 47.1275 170.075 47.1275C169.393 47.1275 168.777 46.9595 168.227 46.6235C167.676 46.2875 167.242 45.8161 166.925 45.2095C166.607 44.6028 166.449 43.9121 166.449 43.1375ZM172.945 43.1515C172.945 42.5728 172.828 42.0688 172.595 41.6395C172.361 41.2101 172.044 40.8835 171.643 40.6595C171.251 40.4261 170.817 40.3095 170.341 40.3095C169.865 40.3095 169.431 40.4215 169.039 40.6455C168.647 40.8695 168.334 41.1961 168.101 41.6255C167.867 42.0548 167.751 42.5588 167.751 43.1375C167.751 43.7255 167.867 44.2388 168.101 44.6775C168.334 45.1068 168.647 45.4381 169.039 45.6715C169.431 45.8955 169.865 46.0075 170.341 46.0075C170.817 46.0075 171.251 45.8955 171.643 45.6715C172.044 45.4381 172.361 45.1068 172.595 44.6775C172.828 44.2388 172.945 43.7301 172.945 43.1515ZM175.91 43.1515C175.91 42.3581 176.068 41.6675 176.386 41.0795C176.703 40.4821 177.142 40.0201 177.702 39.6935C178.271 39.3668 178.92 39.2035 179.648 39.2035C180.59 39.2035 181.365 39.4321 181.972 39.8895C182.588 40.3468 182.994 40.9815 183.19 41.7935H181.818C181.687 41.3268 181.43 40.9581 181.048 40.6875C180.674 40.4168 180.208 40.2815 179.648 40.2815C178.92 40.2815 178.332 40.5335 177.884 41.0375C177.436 41.5321 177.212 42.2368 177.212 43.1515C177.212 44.0755 177.436 44.7895 177.884 45.2935C178.332 45.7975 178.92 46.0495 179.648 46.0495C180.208 46.0495 180.674 45.9188 181.048 45.6575C181.421 45.3961 181.678 45.0228 181.818 44.5375H183.19C182.984 45.3215 182.574 45.9515 181.958 46.4275C181.342 46.8941 180.572 47.1275 179.648 47.1275C178.92 47.1275 178.271 46.9641 177.702 46.6375C177.142 46.3108 176.703 45.8488 176.386 45.2515C176.068 44.6541 175.91 43.9541 175.91 43.1515ZM186.444 40.3795V44.9015C186.444 45.2748 186.523 45.5408 186.682 45.6995C186.84 45.8488 187.116 45.9235 187.508 45.9235H188.446V47.0015H187.298C186.588 47.0015 186.056 46.8381 185.702 46.5115C185.347 46.1848 185.17 45.6481 185.17 44.9015V40.3795H184.176V39.3295H185.17V37.3975H186.444V39.3295H188.446V40.3795H186.444ZM190.647 38.0835C190.404 38.0835 190.199 37.9995 190.031 37.8315C189.863 37.6635 189.779 37.4581 189.779 37.2155C189.779 36.9728 189.863 36.7675 190.031 36.5995C190.199 36.4315 190.404 36.3475 190.647 36.3475C190.88 36.3475 191.076 36.4315 191.235 36.5995C191.403 36.7675 191.487 36.9728 191.487 37.2155C191.487 37.4581 191.403 37.6635 191.235 37.8315C191.076 37.9995 190.88 38.0835 190.647 38.0835ZM191.263 39.3295V47.0015H189.989V39.3295H191.263ZM196.29 45.8255L198.67 39.3295H200.028L197.018 47.0015H195.534L192.524 39.3295H193.896L196.29 45.8255ZM208.282 42.8715C208.282 43.1141 208.268 43.3708 208.24 43.6415H202.108C202.155 44.3975 202.411 44.9901 202.878 45.4195C203.354 45.8395 203.928 46.0495 204.6 46.0495C205.151 46.0495 205.608 45.9235 205.972 45.6715C206.345 45.4101 206.607 45.0648 206.756 44.6355H208.128C207.923 45.3728 207.512 45.9748 206.896 46.4415C206.28 46.8988 205.515 47.1275 204.6 47.1275C203.872 47.1275 203.219 46.9641 202.64 46.6375C202.071 46.3108 201.623 45.8488 201.296 45.2515C200.969 44.6448 200.806 43.9448 200.806 43.1515C200.806 42.3581 200.965 41.6628 201.282 41.0655C201.599 40.4681 202.043 40.0108 202.612 39.6935C203.191 39.3668 203.853 39.2035 204.6 39.2035C205.328 39.2035 205.972 39.3621 206.532 39.6795C207.092 39.9968 207.521 40.4355 207.82 40.9955C208.128 41.5461 208.282 42.1715 208.282 42.8715ZM206.966 42.6055C206.966 42.1201 206.859 41.7048 206.644 41.3595C206.429 41.0048 206.135 40.7388 205.762 40.5615C205.398 40.3748 204.992 40.2815 204.544 40.2815C203.9 40.2815 203.349 40.4868 202.892 40.8975C202.444 41.3081 202.187 41.8775 202.122 42.6055H206.966ZM214.97 45.9655H218.386V47.0015H213.696V37.2435H214.97V45.9655ZM220.397 38.0835C220.154 38.0835 219.949 37.9995 219.781 37.8315C219.613 37.6635 219.529 37.4581 219.529 37.2155C219.529 36.9728 219.613 36.7675 219.781 36.5995C219.949 36.4315 220.154 36.3475 220.397 36.3475C220.63 36.3475 220.826 36.4315 220.985 36.5995C221.153 36.7675 221.237 36.9728 221.237 37.2155C221.237 37.4581 221.153 37.6635 220.985 37.8315C220.826 37.9995 220.63 38.0835 220.397 38.0835ZM221.013 39.3295V47.0015H219.739V39.3295H221.013ZM222.708 43.1375C222.708 42.3535 222.867 41.6675 223.184 41.0795C223.502 40.4821 223.936 40.0201 224.486 39.6935C225.046 39.3668 225.672 39.2035 226.362 39.2035C227.025 39.2035 227.604 39.3528 228.098 39.6515C228.602 39.9408 228.971 40.3001 229.204 40.7295V39.3295H230.492V50.6415H229.204V45.5875C228.962 46.0168 228.588 46.3808 228.084 46.6795C227.58 46.9781 226.992 47.1275 226.32 47.1275C225.648 47.1275 225.037 46.9595 224.486 46.6235C223.936 46.2875 223.502 45.8161 223.184 45.2095C222.867 44.6028 222.708 43.9121 222.708 43.1375ZM229.204 43.1515C229.204 42.5728 229.088 42.0688 228.854 41.6395C228.621 41.2101 228.304 40.8835 227.902 40.6595C227.51 40.4261 227.076 40.3095 226.6 40.3095C226.124 40.3095 225.69 40.4215 225.298 40.6455C224.906 40.8695 224.594 41.1961 224.36 41.6255C224.127 42.0548 224.01 42.5588 224.01 43.1375C224.01 43.7255 224.127 44.2388 224.36 44.6775C224.594 45.1068 224.906 45.4381 225.298 45.6715C225.69 45.8955 226.124 46.0075 226.6 46.0075C227.076 46.0075 227.51 45.8955 227.902 45.6715C228.304 45.4381 228.621 45.1068 228.854 44.6775C229.088 44.2388 229.204 43.7301 229.204 43.1515ZM239.449 39.3295V47.0015H238.175V45.8675C237.933 46.2595 237.592 46.5675 237.153 46.7915C236.724 47.0061 236.248 47.1135 235.725 47.1135C235.128 47.1135 234.591 46.9921 234.115 46.7495C233.639 46.4975 233.261 46.1241 232.981 45.6295C232.711 45.1348 232.575 44.5328 232.575 43.8235V39.3295H233.835V43.6555C233.835 44.4115 234.027 44.9948 234.409 45.4055C234.792 45.8068 235.315 46.0075 235.977 46.0075C236.659 46.0075 237.195 45.7975 237.587 45.3775C237.979 44.9575 238.175 44.3461 238.175 43.5435V39.3295H239.449ZM242.258 38.0835C242.016 38.0835 241.81 37.9995 241.642 37.8315C241.474 37.6635 241.39 37.4581 241.39 37.2155C241.39 36.9728 241.474 36.7675 241.642 36.5995C241.81 36.4315 242.016 36.3475 242.258 36.3475C242.492 36.3475 242.688 36.4315 242.846 36.5995C243.014 36.7675 243.098 36.9728 243.098 37.2155C243.098 37.4581 243.014 37.6635 242.846 37.8315C242.688 37.9995 242.492 38.0835 242.258 38.0835ZM242.874 39.3295V47.0015H241.6V39.3295H242.874ZM244.57 43.1375C244.57 42.3535 244.728 41.6675 245.046 41.0795C245.363 40.4821 245.797 40.0201 246.348 39.6935C246.908 39.3668 247.533 39.2035 248.224 39.2035C248.821 39.2035 249.376 39.3435 249.89 39.6235C250.403 39.8941 250.795 40.2535 251.066 40.7015V36.6415H252.354V47.0015H251.066V45.5595C250.814 46.0168 250.44 46.3948 249.946 46.6935C249.451 46.9828 248.872 47.1275 248.21 47.1275C247.528 47.1275 246.908 46.9595 246.348 46.6235C245.797 46.2875 245.363 45.8161 245.046 45.2095C244.728 44.6028 244.57 43.9121 244.57 43.1375ZM251.066 43.1515C251.066 42.5728 250.949 42.0688 250.716 41.6395C250.482 41.2101 250.165 40.8835 249.764 40.6595C249.372 40.4261 248.938 40.3095 248.462 40.3095C247.986 40.3095 247.552 40.4215 247.16 40.6455C246.768 40.8695 246.455 41.1961 246.222 41.6255C245.988 42.0548 245.872 42.5588 245.872 43.1375C245.872 43.7255 245.988 44.2388 246.222 44.6775C246.455 45.1068 246.768 45.4381 247.16 45.6715C247.552 45.8955 247.986 46.0075 248.462 46.0075C248.938 46.0075 249.372 45.8955 249.764 45.6715C250.165 45.4381 250.482 45.1068 250.716 44.6775C250.949 44.2388 251.066 43.7301 251.066 43.1515ZM255.165 38.0835C254.922 38.0835 254.717 37.9995 254.549 37.8315C254.381 37.6635 254.297 37.4581 254.297 37.2155C254.297 36.9728 254.381 36.7675 254.549 36.5995C254.717 36.4315 254.922 36.3475 255.165 36.3475C255.398 36.3475 255.594 36.4315 255.753 36.5995C255.921 36.7675 256.005 36.9728 256.005 37.2155C256.005 37.4581 255.921 37.6635 255.753 37.8315C255.594 37.9995 255.398 38.0835 255.165 38.0835ZM255.781 39.3295V47.0015H254.507V39.3295H255.781ZM259.506 40.3795V44.9015C259.506 45.2748 259.585 45.5408 259.744 45.6995C259.903 45.8488 260.178 45.9235 260.57 45.9235H261.508V47.0015H260.36C259.651 47.0015 259.119 46.8381 258.764 46.5115C258.409 46.1848 258.232 45.6481 258.232 44.9015V40.3795H257.238V39.3295H258.232V37.3975H259.506V39.3295H261.508V40.3795H259.506ZM269.66 39.3295L265.04 50.6135H263.724L265.236 46.9175L262.142 39.3295H263.556L265.964 45.5455L268.344 39.3295H269.66ZM275.947 40.7435C276.199 40.3048 276.572 39.9408 277.067 39.6515C277.571 39.3528 278.154 39.2035 278.817 39.2035C279.498 39.2035 280.114 39.3668 280.665 39.6935C281.225 40.0201 281.663 40.4821 281.981 41.0795C282.298 41.6675 282.457 42.3535 282.457 43.1375C282.457 43.9121 282.298 44.6028 281.981 45.2095C281.663 45.8161 281.225 46.2875 280.665 46.6235C280.114 46.9595 279.498 47.1275 278.817 47.1275C278.163 47.1275 277.585 46.9828 277.081 46.6935C276.586 46.3948 276.208 46.0261 275.947 45.5875V50.6415H274.673V39.3295H275.947V40.7435ZM281.155 43.1375C281.155 42.5588 281.038 42.0548 280.805 41.6255C280.571 41.1961 280.254 40.8695 279.853 40.6455C279.461 40.4215 279.027 40.3095 278.551 40.3095C278.084 40.3095 277.65 40.4261 277.249 40.6595C276.857 40.8835 276.539 41.2148 276.297 41.6535C276.063 42.0828 275.947 42.5821 275.947 43.1515C275.947 43.7301 276.063 44.2388 276.297 44.6775C276.539 45.1068 276.857 45.4381 277.249 45.6715C277.65 45.8955 278.084 46.0075 278.551 46.0075C279.027 46.0075 279.461 45.8955 279.853 45.6715C280.254 45.4381 280.571 45.1068 280.805 44.6775C281.038 44.2388 281.155 43.7255 281.155 43.1375ZM287.48 47.1275C286.761 47.1275 286.108 46.9641 285.52 46.6375C284.941 46.3108 284.484 45.8488 284.148 45.2515C283.821 44.6448 283.658 43.9448 283.658 43.1515C283.658 42.3675 283.826 41.6768 284.162 41.0795C284.507 40.4728 284.974 40.0108 285.562 39.6935C286.15 39.3668 286.808 39.2035 287.536 39.2035C288.264 39.2035 288.922 39.3668 289.51 39.6935C290.098 40.0108 290.56 40.4681 290.896 41.0655C291.241 41.6628 291.414 42.3581 291.414 43.1515C291.414 43.9448 291.236 44.6448 290.882 45.2515C290.536 45.8488 290.065 46.3108 289.468 46.6375C288.87 46.9641 288.208 47.1275 287.48 47.1275ZM287.48 46.0075C287.937 46.0075 288.366 45.9001 288.768 45.6855C289.169 45.4708 289.491 45.1488 289.734 44.7195C289.986 44.2901 290.112 43.7675 290.112 43.1515C290.112 42.5355 289.99 42.0128 289.748 41.5835C289.505 41.1541 289.188 40.8368 288.796 40.6315C288.404 40.4168 287.979 40.3095 287.522 40.3095C287.055 40.3095 286.626 40.4168 286.234 40.6315C285.851 40.8368 285.543 41.1541 285.31 41.5835C285.076 42.0128 284.96 42.5355 284.96 43.1515C284.96 43.7768 285.072 44.3041 285.296 44.7335C285.529 45.1628 285.837 45.4848 286.22 45.6995C286.602 45.9048 287.022 46.0075 287.48 46.0075ZM295.805 47.1275C295.217 47.1275 294.689 47.0295 294.223 46.8335C293.756 46.6281 293.387 46.3481 293.117 45.9935C292.846 45.6295 292.697 45.2141 292.669 44.7475H293.985C294.022 45.1301 294.199 45.4428 294.517 45.6855C294.843 45.9281 295.268 46.0495 295.791 46.0495C296.276 46.0495 296.659 45.9421 296.939 45.7275C297.219 45.5128 297.359 45.2421 297.359 44.9155C297.359 44.5795 297.209 44.3321 296.911 44.1735C296.612 44.0055 296.15 43.8421 295.525 43.6835C294.955 43.5341 294.489 43.3848 294.125 43.2355C293.77 43.0768 293.462 42.8481 293.201 42.5495C292.949 42.2415 292.823 41.8401 292.823 41.3455C292.823 40.9535 292.939 40.5941 293.173 40.2675C293.406 39.9408 293.737 39.6841 294.167 39.4975C294.596 39.3015 295.086 39.2035 295.637 39.2035C296.486 39.2035 297.172 39.4181 297.695 39.8475C298.217 40.2768 298.497 40.8648 298.535 41.6115H297.261C297.233 41.2101 297.069 40.8881 296.771 40.6455C296.481 40.4028 296.089 40.2815 295.595 40.2815C295.137 40.2815 294.773 40.3795 294.503 40.5755C294.232 40.7715 294.097 41.0281 294.097 41.3455C294.097 41.5975 294.176 41.8075 294.335 41.9755C294.503 42.1341 294.708 42.2648 294.951 42.3675C295.203 42.4608 295.548 42.5681 295.987 42.6895C296.537 42.8388 296.985 42.9881 297.331 43.1375C297.676 43.2775 297.97 43.4921 298.213 43.7815C298.465 44.0708 298.595 44.4488 298.605 44.9155C298.605 45.3355 298.488 45.7135 298.255 46.0495C298.021 46.3855 297.69 46.6515 297.261 46.8475C296.841 47.0341 296.355 47.1275 295.805 47.1275ZM301.061 38.0835C300.819 38.0835 300.613 37.9995 300.445 37.8315C300.277 37.6635 300.193 37.4581 300.193 37.2155C300.193 36.9728 300.277 36.7675 300.445 36.5995C300.613 36.4315 300.819 36.3475 301.061 36.3475C301.295 36.3475 301.491 36.4315 301.649 36.5995C301.817 36.7675 301.901 36.9728 301.901 37.2155C301.901 37.4581 301.817 37.6635 301.649 37.8315C301.491 37.9995 301.295 38.0835 301.061 38.0835ZM301.677 39.3295V47.0015H300.403V39.3295H301.677ZM305.403 40.3795V44.9015C305.403 45.2748 305.482 45.5408 305.641 45.6995C305.799 45.8488 306.075 45.9235 306.467 45.9235H307.405V47.0015H306.257C305.547 47.0015 305.015 46.8381 304.661 46.5115C304.306 46.1848 304.129 45.6481 304.129 44.9015V40.3795H303.135V39.3295H304.129V37.3975H305.403V39.3295H307.405V40.3795H305.403ZM309.606 38.0835C309.363 38.0835 309.158 37.9995 308.99 37.8315C308.822 37.6635 308.738 37.4581 308.738 37.2155C308.738 36.9728 308.822 36.7675 308.99 36.5995C309.158 36.4315 309.363 36.3475 309.606 36.3475C309.839 36.3475 310.035 36.4315 310.194 36.5995C310.362 36.7675 310.446 36.9728 310.446 37.2155C310.446 37.4581 310.362 37.6635 310.194 37.8315C310.035 37.9995 309.839 38.0835 309.606 38.0835ZM310.222 39.3295V47.0015H308.948V39.3295H310.222ZM315.739 47.1275C315.021 47.1275 314.367 46.9641 313.779 46.6375C313.201 46.3108 312.743 45.8488 312.407 45.2515C312.081 44.6448 311.917 43.9448 311.917 43.1515C311.917 42.3675 312.085 41.6768 312.421 41.0795C312.767 40.4728 313.233 40.0108 313.821 39.6935C314.409 39.3668 315.067 39.2035 315.795 39.2035C316.523 39.2035 317.181 39.3668 317.769 39.6935C318.357 40.0108 318.819 40.4681 319.155 41.0655C319.501 41.6628 319.673 42.3581 319.673 43.1515C319.673 43.9448 319.496 44.6448 319.141 45.2515C318.796 45.8488 318.325 46.3108 317.727 46.6375C317.13 46.9641 316.467 47.1275 315.739 47.1275ZM315.739 46.0075C316.197 46.0075 316.626 45.9001 317.027 45.6855C317.429 45.4708 317.751 45.1488 317.993 44.7195C318.245 44.2901 318.371 43.7675 318.371 43.1515C318.371 42.5355 318.25 42.0128 318.007 41.5835C317.765 41.1541 317.447 40.8368 317.055 40.6315C316.663 40.4168 316.239 40.3095 315.781 40.3095C315.315 40.3095 314.885 40.4168 314.493 40.6315C314.111 40.8368 313.803 41.1541 313.569 41.5835C313.336 42.0128 313.219 42.5355 313.219 43.1515C313.219 43.7768 313.331 44.3041 313.555 44.7335C313.789 45.1628 314.097 45.4848 314.479 45.6995C314.862 45.9048 315.282 46.0075 315.739 46.0075ZM325.087 39.1895C326.02 39.1895 326.776 39.4741 327.355 40.0435C327.933 40.6035 328.223 41.4155 328.223 42.4795V47.0015H326.963V42.6615C326.963 41.8961 326.771 41.3128 326.389 40.9115C326.006 40.5008 325.483 40.2955 324.821 40.2955C324.149 40.2955 323.612 40.5055 323.211 40.9255C322.819 41.3455 322.623 41.9568 322.623 42.7595V47.0015H321.349V39.3295H322.623V40.4215C322.875 40.0295 323.215 39.7261 323.645 39.5115C324.083 39.2968 324.564 39.1895 325.087 39.1895ZM333.02 47.1275C332.432 47.1275 331.904 47.0295 331.438 46.8335C330.971 46.6281 330.602 46.3481 330.332 45.9935C330.061 45.6295 329.912 45.2141 329.884 44.7475H331.2C331.237 45.1301 331.414 45.4428 331.732 45.6855C332.058 45.9281 332.483 46.0495 333.006 46.0495C333.491 46.0495 333.874 45.9421 334.154 45.7275C334.434 45.5128 334.574 45.2421 334.574 44.9155C334.574 44.5795 334.424 44.3321 334.126 44.1735C333.827 44.0055 333.365 43.8421 332.74 43.6835C332.17 43.5341 331.704 43.3848 331.34 43.2355C330.985 43.0768 330.677 42.8481 330.416 42.5495C330.164 42.2415 330.038 41.8401 330.038 41.3455C330.038 40.9535 330.154 40.5941 330.388 40.2675C330.621 39.9408 330.952 39.6841 331.382 39.4975C331.811 39.3015 332.301 39.2035 332.852 39.2035C333.701 39.2035 334.387 39.4181 334.91 39.8475C335.432 40.2768 335.712 40.8648 335.75 41.6115H334.476C334.448 41.2101 334.284 40.8881 333.986 40.6455C333.696 40.4028 333.304 40.2815 332.81 40.2815C332.352 40.2815 331.988 40.3795 331.718 40.5755C331.447 40.7715 331.312 41.0281 331.312 41.3455C331.312 41.5975 331.391 41.8075 331.55 41.9755C331.718 42.1341 331.923 42.2648 332.166 42.3675C332.418 42.4608 332.763 42.5681 333.202 42.6895C333.752 42.8388 334.2 42.9881 334.546 43.1375C334.891 43.2775 335.185 43.4921 335.428 43.7815C335.68 44.0708 335.81 44.4488 335.82 44.9155C335.82 45.3355 335.703 45.7135 335.47 46.0495C335.236 46.3855 334.905 46.6515 334.476 46.8475C334.056 47.0341 333.57 47.1275 333.02 47.1275Z" fill="#706B75"/>
<path fill-rule="evenodd" clip-rule="evenodd" d="M134 68.0015H254V69.0015H134V68.0015Z" fill="#544D5D" fill-opacity="0.4"/>
</svg>
