<svg width="15" height="16" viewBox="0 0 15 16" fill="none" xmlns="http://www.w3.org/2000/svg">
<path d="M11.9242 6.95785H8.83774V3.83153C8.83774 3.55515 8.72934 3.29009 8.5364 3.09465C8.34346 2.89922 8.08177 2.78943 7.80891 2.78943C7.53605 2.78943 7.27437 2.89922 7.08143 3.09465C6.88848 3.29009 6.78009 3.55515 6.78009 3.83153V6.95785H3.69362C3.42076 6.95785 3.15907 7.06764 2.96613 7.26308C2.77319 7.45851 2.66479 7.72357 2.66479 7.99996C2.66479 8.27634 2.77319 8.5414 2.96613 8.73684C3.15907 8.93227 3.42076 9.04206 3.69362 9.04206H6.78009V12.1684C6.78009 12.4448 6.88848 12.7098 7.08143 12.9053C7.27437 13.1007 7.53605 13.2105 7.80891 13.2105C8.08177 13.2105 8.34346 13.1007 8.5364 12.9053C8.72934 12.7098 8.83774 12.4448 8.83774 12.1684V9.04206H11.9242C12.1971 9.04206 12.4588 8.93227 12.6517 8.73684C12.8446 8.5414 12.953 8.27634 12.953 7.99996C12.953 7.72357 12.8446 7.45851 12.6517 7.26308C12.4588 7.06764 12.1971 6.95785 11.9242 6.95785Z" fill="white"/>
</svg>
