<svg width="20" height="20" viewBox="0 0 20 20" fill="none" xmlns="http://www.w3.org/2000/svg">
<g clip-path="url(#clip0_755_20372)">
<path d="M5.15834 7.27344C4.43374 7.27344 3.7388 7.55519 3.22644 8.05648C2.71407 8.55777 2.42609 9.23768 2.42609 9.94662V11.4317H2.12257C1.8004 11.4317 1.49179 11.5569 1.26401 11.7798C1.03622 12.0027 0.908203 12.3049 0.908203 12.6198V15.5899C0.908203 15.9049 1.03622 16.2071 1.26401 16.4299C1.49179 16.6528 1.8004 16.7781 2.12257 16.7781H8.19384C8.51601 16.7781 8.82462 16.6528 9.0524 16.4299C9.28018 16.2071 9.4082 15.9049 9.4082 15.5899V12.6198C9.4082 12.3046 9.28018 12.0024 9.0524 11.7798C8.82462 11.5569 8.51601 11.4317 8.19384 11.4317H7.89032V9.94662C7.89032 9.23768 7.60234 8.55777 7.08997 8.05648C6.5776 7.55519 5.88267 7.27344 5.15806 7.27344H5.15834ZM6.37271 11.4314H3.94398V9.94634C3.94398 9.52192 4.17543 9.12984 4.55102 8.91749C4.92661 8.70514 5.38952 8.70514 5.76539 8.91749C6.14097 9.12984 6.37243 9.52192 6.37243 9.94634V11.4314H6.37271Z" fill="#282230"/>
<path d="M18.6859 10.7091C18.6423 10.7144 18.5997 10.7224 18.5547 10.7224H14.5104C13.9215 10.7224 13.4428 10.2431 13.4428 9.65487V7.98693C13.4428 7.39809 13.9215 6.91879 14.5104 6.91879H18.5544C18.5994 6.91879 18.642 6.92678 18.6856 6.9324V4.32984C18.6856 3.44969 17.9653 2.72852 17.0842 2.72852H4.11109C3.23035 2.72852 2.50977 3.44969 2.50977 4.32984V7.38447C2.63795 7.19677 2.7845 7.01944 2.94881 6.85513C3.64008 6.16357 4.55961 5.78285 5.53745 5.78285C6.5153 5.78285 7.43453 6.16357 8.1261 6.85513C8.81767 7.5467 9.19839 8.46593 9.19839 9.44378V9.87009C9.47075 9.98229 9.72062 10.1484 9.93525 10.363C10.3625 10.7899 10.5978 11.358 10.5978 11.9623V14.7608C10.5978 14.8114 10.5954 14.8615 10.5922 14.9115H17.0845C17.9653 14.9115 18.6859 14.1906 18.6859 13.3096V10.7085V10.7091Z" fill="#282230"/>
<path d="M18.5563 7.45117H14.5126C14.2192 7.45117 13.9785 7.69067 13.9785 7.98524V9.65318C13.9785 9.94656 14.2189 10.1873 14.5126 10.1873H18.5566C18.85 10.1873 19.0904 9.94686 19.0904 9.65318V7.98524C19.0904 7.69067 18.85 7.45117 18.5563 7.45117ZM15.6544 9.63571C15.2036 9.63571 14.8379 9.2695 14.8379 8.81862C14.8379 8.36774 15.2039 8.00212 15.6544 8.00212C16.105 8.00212 16.4709 8.36803 16.4709 8.81862C16.4709 9.26921 16.1059 9.63571 15.6544 9.63571Z" fill="#282230"/>
</g>
<defs>
<clipPath id="clip0_755_20372">
<rect width="18.1818" height="14.3089" fill="white" transform="translate(0.908203 2.72754)"/>
</clipPath>
</defs>
</svg>
