<svg width="20" height="20" viewBox="0 0 20 20" fill="none" xmlns="http://www.w3.org/2000/svg">
<g clip-path="url(#clip0_3253_43674)">
<path d="M5.1603 7.27148C4.43569 7.27148 3.74076 7.55324 3.22839 8.05453C2.71602 8.55582 2.42804 9.23573 2.42804 9.94467V11.4297H2.12452C1.80235 11.4297 1.49374 11.555 1.26596 11.7778C1.03818 12.0007 0.910156 12.3029 0.910156 12.6178V15.588C0.910156 15.9029 1.03818 16.2051 1.26596 16.428C1.49374 16.6508 1.80235 16.7761 2.12452 16.7761H8.19579C8.51796 16.7761 8.82657 16.6508 9.05435 16.428C9.28214 16.2051 9.41016 15.9029 9.41016 15.588V12.6178C9.41016 12.3026 9.28214 12.0004 9.05435 11.7778C8.82657 11.555 8.51796 11.4297 8.19579 11.4297H7.89227V9.94467C7.89227 9.23573 7.60429 8.55582 7.09192 8.05453C6.57955 7.55324 5.88462 7.27148 5.16001 7.27148H5.1603ZM6.37466 11.4295H3.94593V9.94439C3.94593 9.51997 4.17739 9.12789 4.55297 8.91554C4.92856 8.70319 5.39147 8.70319 5.76734 8.91554C6.14292 9.12789 6.37438 9.51997 6.37438 9.94439V11.4295H6.37466Z" fill="#282230"/>
<path d="M18.6898 10.7071C18.6462 10.7125 18.6036 10.7205 18.5586 10.7205H14.5143C13.9255 10.7205 13.4467 10.2412 13.4467 9.65291V7.98497C13.4467 7.39613 13.9255 6.91683 14.5143 6.91683H18.5583C18.6033 6.91683 18.6459 6.92483 18.6895 6.93045V4.32789C18.6895 3.44774 17.9692 2.72656 17.0881 2.72656H4.115C3.23425 2.72656 2.51367 3.44774 2.51367 4.32789V7.38252C2.64186 7.19482 2.7884 7.01749 2.95271 6.85318C3.64399 6.16161 4.56351 5.78089 5.54136 5.78089C6.51921 5.78089 7.43844 6.16161 8.13001 6.85318C8.82158 7.54475 9.2023 8.46398 9.2023 9.44183V9.86814C9.47466 9.98034 9.72452 10.1464 9.93916 10.3611C10.3664 10.788 10.6017 11.3561 10.6017 11.9603V14.7589C10.6017 14.8095 10.5993 14.8595 10.5961 14.9095H17.0884C17.9692 14.9095 18.6898 14.1887 18.6898 13.3076V10.7065V10.7071Z" fill="#282230"/>
<path d="M18.5583 7.44922H14.5145C14.2212 7.44922 13.9805 7.68872 13.9805 7.98329V9.65123C13.9805 9.94461 14.2209 10.1853 14.5145 10.1853H18.5586C18.8519 10.1853 19.0923 9.94491 19.0923 9.65123V7.98329C19.0923 7.68872 18.8519 7.44922 18.5583 7.44922ZM15.6564 9.63376C15.2055 9.63376 14.8399 9.26755 14.8399 8.81667C14.8399 8.36578 15.2058 8.00016 15.6564 8.00016C16.107 8.00016 16.4729 8.36608 16.4729 8.81667C16.4729 9.26725 16.1079 9.63376 15.6564 9.63376Z" fill="#282230"/>
</g>
<defs>
<clipPath id="clip0_3253_43674">
<rect width="18.1818" height="14.3089" fill="white" transform="translate(0.910156 2.72656)"/>
</clipPath>
</defs>
</svg>
