<svg width="22" height="22" viewBox="0 0 22 22" fill="none" xmlns="http://www.w3.org/2000/svg">
<g clip-path="url(#clip0_876_14280)">
<path d="M5.67516 8C4.87809 8 4.11366 8.30993 3.55006 8.86135C2.98645 9.41277 2.66968 10.1607 2.66968 10.9405V12.5741H2.3358C1.98141 12.5741 1.64194 12.7119 1.39138 12.957C1.14082 13.2021 1 13.5346 1 13.881V17.1482C1 17.4946 1.14082 17.827 1.39138 18.0722C1.64194 18.3173 1.98141 18.4551 2.3358 18.4551H9.0142C9.36859 18.4551 9.70806 18.3173 9.95862 18.0722C10.2092 17.827 10.35 17.4946 10.35 17.1482V13.881C10.35 13.5343 10.2092 13.2018 9.95862 12.957C9.70806 12.7119 9.36859 12.5741 9.0142 12.5741H8.68032V10.9405C8.68032 10.1607 8.36355 9.41277 7.79994 8.86135C7.23634 8.30993 6.47191 8 5.67484 8H5.67516ZM7.01096 12.5738H4.33935V10.9402C4.33935 10.4733 4.59395 10.042 5.0071 9.80846C5.42024 9.57488 5.92945 9.57488 6.3429 9.80846C6.75605 10.042 7.01065 10.4733 7.01065 10.9402V12.5738H7.01096Z" fill="#282230"/>
<path d="M20.5564 11.7786C20.5085 11.7845 20.4616 11.7933 20.4121 11.7933H15.9634C15.3157 11.7933 14.7891 11.2661 14.7891 10.619V8.78425C14.7891 8.13653 15.3157 7.6093 15.9634 7.6093H20.4118C20.4613 7.6093 20.5082 7.61809 20.5561 7.62428V4.76146C20.5561 3.79329 19.7638 3 18.7946 3H4.52415C3.55534 3 2.7627 3.79329 2.7627 4.76146V8.12155C2.9037 7.91509 3.0649 7.72002 3.24564 7.53928C4.00604 6.77856 5.01752 6.35977 6.09315 6.35977C7.16879 6.35977 8.17994 6.77856 8.94066 7.53928C9.70139 8.30001 10.1202 9.31116 10.1202 10.3868V10.8557C10.4198 10.9792 10.6946 11.1618 10.9307 11.3979C11.4007 11.8675 11.6595 12.4925 11.6595 13.1571V16.2355C11.6595 16.2912 11.6569 16.3462 11.6534 16.4013H18.7949C19.7638 16.4013 20.5564 15.6083 20.5564 14.6392V11.778V11.7786Z" fill="#282230"/>
<path d="M20.4125 8.19531H15.9644C15.6417 8.19531 15.377 8.45877 15.377 8.78279V10.6175C15.377 10.9402 15.6414 11.205 15.9644 11.205H20.4129C20.7356 11.205 21 10.9406 21 10.6175V8.78279C21 8.45877 20.7356 8.19531 20.4125 8.19531ZM17.2205 10.5983C16.7245 10.5983 16.3223 10.1955 16.3223 9.69951C16.3223 9.20354 16.7248 8.80135 17.2205 8.80135C17.7161 8.80135 18.1186 9.20386 18.1186 9.69951C18.1186 10.1951 17.7171 10.5983 17.2205 10.5983Z" fill="#282230"/>
</g>
<defs>
<clipPath id="clip0_876_14280">
<rect width="20" height="15.7398" fill="white" transform="translate(1 3)"/>
</clipPath>
</defs>
</svg>
