<svg width="8" height="8" viewBox="0 0 8 8" fill="none" xmlns="http://www.w3.org/2000/svg">
<path d="M5.42433 1.50628L2.60712 1.52399C2.40557 1.52359 2.21237 1.44335 2.06983 1.30081C1.92693 1.15791 1.84665 0.964093 1.84665 0.761998C1.84665 0.559904 1.92693 0.366087 2.06983 0.223184C2.21273 0.0802817 2.40655 6.91627e-08 2.60865 0L7.2318 7.83309e-08C7.32961 0.00280866 7.42591 0.024662 7.51546 0.0641718L7.52562 0.0684153C7.70939 0.145161 7.8554 0.291307 7.93214 0.475077L7.93659 0.485151C7.97609 0.574698 7.99785 0.671045 8.00066 0.768847L8.00065 5.39201L8.00066 5.39428C8.00107 5.49416 7.9817 5.59314 7.94367 5.6855C7.90563 5.77786 7.84968 5.86178 7.77905 5.93241C7.70842 6.00304 7.62451 6.05898 7.53215 6.09702C7.43979 6.13505 7.34081 6.15443 7.24093 6.15402H7.23639C7.13651 6.15443 7.03753 6.13505 6.94517 6.09702C6.85281 6.05898 6.76889 6.00304 6.69827 5.93241C6.62764 5.86178 6.57169 5.77786 6.53365 5.6855C6.49569 5.59331 6.47632 5.49398 6.47666 5.39428L6.49438 2.57633L1.29166 7.77904C1.14977 7.92094 0.957313 8.00066 0.756639 8.00066C0.555966 8.00066 0.363511 7.92094 0.221614 7.77904C0.0797168 7.63715 -8.4584e-09 7.44469 0 7.24402C8.45693e-09 7.04334 0.0797165 6.85089 0.221614 6.70899L5.42433 1.50628Z" fill="white"/>
</svg>
