<svg width="385" height="70" viewBox="0 0 385 70" fill="none" xmlns="http://www.w3.org/2000/svg">
<path d="M112.365 12.4175C112.365 11.3295 112.616 10.3535 113.117 9.48946C113.629 8.62546 114.317 7.95346 115.181 7.47346C116.056 6.9828 117.011 6.73746 118.045 6.73746C119.229 6.73746 120.28 7.0308 121.197 7.61746C122.125 8.19346 122.797 9.0148 123.213 10.0815H121.021C120.733 9.4948 120.333 9.05746 119.821 8.76946C119.309 8.48146 118.717 8.33746 118.045 8.33746C117.309 8.33746 116.653 8.5028 116.077 8.83346C115.501 9.16413 115.048 9.6388 114.717 10.2575C114.397 10.8761 114.237 11.5961 114.237 12.4175C114.237 13.2388 114.397 13.9588 114.717 14.5775C115.048 15.1961 115.501 15.6761 116.077 16.0175C116.653 16.3481 117.309 16.5135 118.045 16.5135C118.717 16.5135 119.309 16.3695 119.821 16.0815C120.333 15.7935 120.733 15.3561 121.021 14.7695H123.213C122.797 15.8361 122.125 16.6575 121.197 17.2335C120.28 17.8095 119.229 18.0975 118.045 18.0975C117 18.0975 116.045 17.8575 115.181 17.3775C114.317 16.8868 113.629 16.2095 113.117 15.3455C112.616 14.4815 112.365 13.5055 112.365 12.4175ZM129.172 18.1455C128.34 18.1455 127.588 17.9588 126.916 17.5855C126.244 17.2015 125.716 16.6681 125.332 15.9855C124.948 15.2921 124.756 14.4921 124.756 13.5855C124.756 12.6895 124.954 11.8948 125.348 11.2015C125.743 10.5081 126.282 9.9748 126.964 9.60146C127.647 9.22813 128.41 9.04146 129.252 9.04146C130.095 9.04146 130.858 9.22813 131.54 9.60146C132.223 9.9748 132.762 10.5081 133.156 11.2015C133.551 11.8948 133.748 12.6895 133.748 13.5855C133.748 14.4815 133.546 15.2761 133.14 15.9695C132.735 16.6628 132.18 17.2015 131.476 17.5855C130.783 17.9588 130.015 18.1455 129.172 18.1455ZM129.172 16.5615C129.642 16.5615 130.079 16.4495 130.484 16.2255C130.9 16.0015 131.236 15.6655 131.492 15.2175C131.748 14.7695 131.876 14.2255 131.876 13.5855C131.876 12.9455 131.754 12.4068 131.508 11.9695C131.263 11.5215 130.938 11.1855 130.532 10.9615C130.127 10.7375 129.69 10.6255 129.22 10.6255C128.751 10.6255 128.314 10.7375 127.908 10.9615C127.514 11.1855 127.199 11.5215 126.964 11.9695C126.73 12.4068 126.612 12.9455 126.612 13.5855C126.612 14.5348 126.852 15.2708 127.332 15.7935C127.823 16.3055 128.436 16.5615 129.172 16.5615ZM140 9.04146C140.693 9.04146 141.312 9.18546 141.856 9.47346C142.41 9.76146 142.842 10.1881 143.152 10.7535C143.461 11.3188 143.616 12.0015 143.616 12.8015V18.0015H141.808V13.0735C141.808 12.2841 141.61 11.6815 141.216 11.2655C140.821 10.8388 140.282 10.6255 139.6 10.6255C138.917 10.6255 138.373 10.8388 137.968 11.2655C137.573 11.6815 137.376 12.2841 137.376 13.0735V18.0015H135.552V9.18546H137.376V10.1935C137.674 9.8308 138.053 9.54813 138.512 9.34546C138.981 9.1428 139.477 9.04146 140 9.04146ZM150.39 9.04146C151.084 9.04146 151.702 9.18546 152.246 9.47346C152.801 9.76146 153.233 10.1881 153.542 10.7535C153.852 11.3188 154.006 12.0015 154.006 12.8015V18.0015H152.198V13.0735C152.198 12.2841 152.001 11.6815 151.606 11.2655C151.212 10.8388 150.673 10.6255 149.99 10.6255C149.308 10.6255 148.764 10.8388 148.358 11.2655C147.964 11.6815 147.766 12.2841 147.766 13.0735V18.0015H145.942V9.18546H147.766V10.1935C148.065 9.8308 148.444 9.54813 148.902 9.34546C149.372 9.1428 149.868 9.04146 150.39 9.04146ZM164.413 13.3775C164.413 13.7081 164.391 14.0068 164.349 14.2735H157.613C157.666 14.9775 157.927 15.5428 158.397 15.9695C158.866 16.3961 159.442 16.6095 160.125 16.6095C161.106 16.6095 161.799 16.1988 162.205 15.3775H164.173C163.906 16.1881 163.421 16.8548 162.717 17.3775C162.023 17.8895 161.159 18.1455 160.125 18.1455C159.282 18.1455 158.525 17.9588 157.853 17.5855C157.191 17.2015 156.669 16.6681 156.285 15.9855C155.911 15.2921 155.725 14.4921 155.725 13.5855C155.725 12.6788 155.906 11.8841 156.269 11.2015C156.642 10.5081 157.159 9.9748 157.821 9.60146C158.493 9.22813 159.261 9.04146 160.125 9.04146C160.957 9.04146 161.698 9.2228 162.349 9.58546C162.999 9.94813 163.506 10.4601 163.869 11.1215C164.231 11.7721 164.413 12.5241 164.413 13.3775ZM162.509 12.8015C162.498 12.1295 162.258 11.5908 161.789 11.1855C161.319 10.7801 160.738 10.5775 160.045 10.5775C159.415 10.5775 158.877 10.7801 158.429 11.1855C157.981 11.5801 157.714 12.1188 157.629 12.8015H162.509ZM165.6 13.5855C165.6 12.6788 165.781 11.8841 166.144 11.2015C166.517 10.5081 167.029 9.9748 167.68 9.60146C168.33 9.22813 169.077 9.04146 169.92 9.04146C170.986 9.04146 171.866 9.29746 172.56 9.80946C173.264 10.3108 173.738 11.0308 173.984 11.9695H172.016C171.856 11.5321 171.6 11.1908 171.248 10.9455C170.896 10.7001 170.453 10.5775 169.92 10.5775C169.173 10.5775 168.576 10.8441 168.128 11.3775C167.69 11.9001 167.472 12.6361 167.472 13.5855C167.472 14.5348 167.69 15.2761 168.128 15.8095C168.576 16.3428 169.173 16.6095 169.92 16.6095C170.976 16.6095 171.674 16.1455 172.016 15.2175H173.984C173.728 16.1135 173.248 16.8281 172.544 17.3615C171.84 17.8841 170.965 18.1455 169.92 18.1455C169.077 18.1455 168.33 17.9588 167.68 17.5855C167.029 17.2015 166.517 16.6681 166.144 15.9855C165.781 15.2921 165.6 14.4921 165.6 13.5855ZM177.93 10.6735V15.5535C177.93 15.8841 178.004 16.1241 178.154 16.2735C178.314 16.4121 178.58 16.4815 178.954 16.4815H180.074V18.0015H178.634C177.812 18.0015 177.183 17.8095 176.746 17.4255C176.308 17.0415 176.09 16.4175 176.09 15.5535V10.6735H175.05V9.18546H176.09V6.99346H177.93V9.18546H180.074V10.6735H177.93ZM193.847 9.18546L188.439 22.1455H186.551L188.343 17.8575L184.871 9.18546H186.903L189.383 15.9055L191.959 9.18546H193.847ZM199.047 18.1455C198.215 18.1455 197.463 17.9588 196.791 17.5855C196.119 17.2015 195.591 16.6681 195.207 15.9855C194.823 15.2921 194.631 14.4921 194.631 13.5855C194.631 12.6895 194.829 11.8948 195.223 11.2015C195.618 10.5081 196.157 9.9748 196.839 9.60146C197.522 9.22813 198.285 9.04146 199.127 9.04146C199.97 9.04146 200.733 9.22813 201.415 9.60146C202.098 9.9748 202.637 10.5081 203.031 11.2015C203.426 11.8948 203.623 12.6895 203.623 13.5855C203.623 14.4815 203.421 15.2761 203.015 15.9695C202.61 16.6628 202.055 17.2015 201.351 17.5855C200.658 17.9588 199.89 18.1455 199.047 18.1455ZM199.047 16.5615C199.517 16.5615 199.954 16.4495 200.359 16.2255C200.775 16.0015 201.111 15.6655 201.367 15.2175C201.623 14.7695 201.751 14.2255 201.751 13.5855C201.751 12.9455 201.629 12.4068 201.383 11.9695C201.138 11.5215 200.813 11.1855 200.407 10.9615C200.002 10.7375 199.565 10.6255 199.095 10.6255C198.626 10.6255 198.189 10.7375 197.783 10.9615C197.389 11.1855 197.074 11.5215 196.839 11.9695C196.605 12.4068 196.487 12.9455 196.487 13.5855C196.487 14.5348 196.727 15.2708 197.207 15.7935C197.698 16.3055 198.311 16.5615 199.047 16.5615ZM213.411 9.18546V18.0015H211.587V16.9615C211.299 17.3241 210.92 17.6121 210.451 17.8255C209.992 18.0281 209.501 18.1295 208.979 18.1295C208.285 18.1295 207.661 17.9855 207.107 17.6975C206.563 17.4095 206.131 16.9828 205.811 16.4175C205.501 15.8521 205.347 15.1695 205.347 14.3695V9.18546H207.155V14.0975C207.155 14.8868 207.352 15.4948 207.747 15.9215C208.141 16.3375 208.68 16.5455 209.363 16.5455C210.045 16.5455 210.584 16.3375 210.979 15.9215C211.384 15.4948 211.587 14.8868 211.587 14.0975V9.18546H213.411ZM217.641 10.4655C217.908 10.0175 218.26 9.6708 218.697 9.42546C219.145 9.16946 219.673 9.04146 220.281 9.04146V10.9295H219.817C219.103 10.9295 218.559 11.1108 218.185 11.4735C217.823 11.8361 217.641 12.4655 217.641 13.3615V18.0015H215.817V9.18546H217.641V10.4655ZM237.954 9.18546L235.218 18.0015H233.298L231.522 11.4895L229.746 18.0015H227.826L225.074 9.18546H226.93L228.77 16.2735L230.642 9.18546H232.546L234.338 16.2415L236.162 9.18546H237.954ZM238.709 13.5535C238.709 12.6681 238.891 11.8841 239.253 11.2015C239.627 10.5188 240.128 9.9908 240.757 9.61746C241.397 9.23346 242.101 9.04146 242.869 9.04146C243.563 9.04146 244.165 9.18013 244.677 9.45746C245.2 9.72413 245.616 10.0601 245.925 10.4655V9.18546H247.765V18.0015H245.925V16.6895C245.616 17.1055 245.195 17.4521 244.661 17.7295C244.128 18.0068 243.52 18.1455 242.837 18.1455C242.08 18.1455 241.387 17.9535 240.757 17.5695C240.128 17.1748 239.627 16.6308 239.253 15.9375C238.891 15.2335 238.709 14.4388 238.709 13.5535ZM245.925 13.5855C245.925 12.9775 245.797 12.4495 245.541 12.0015C245.296 11.5535 244.971 11.2121 244.565 10.9775C244.16 10.7428 243.723 10.6255 243.253 10.6255C242.784 10.6255 242.347 10.7428 241.941 10.9775C241.536 11.2015 241.205 11.5375 240.949 11.9855C240.704 12.4228 240.581 12.9455 240.581 13.5535C240.581 14.1615 240.704 14.6948 240.949 15.1535C241.205 15.6121 241.536 15.9641 241.941 16.2095C242.357 16.4441 242.795 16.5615 243.253 16.5615C243.723 16.5615 244.16 16.4441 244.565 16.2095C244.971 15.9748 245.296 15.6335 245.541 15.1855C245.797 14.7268 245.925 14.1935 245.925 13.5855ZM251.985 6.16146V18.0015H250.161V6.16146H251.985ZM256.204 6.16146V18.0015H254.38V6.16146H256.204ZM266.678 13.3775C266.678 13.7081 266.657 14.0068 266.614 14.2735H259.878C259.932 14.9775 260.193 15.5428 260.662 15.9695C261.132 16.3961 261.708 16.6095 262.39 16.6095C263.372 16.6095 264.065 16.1988 264.47 15.3775H266.438C266.172 16.1881 265.686 16.8548 264.982 17.3775C264.289 17.8895 263.425 18.1455 262.39 18.1455C261.548 18.1455 260.79 17.9588 260.118 17.5855C259.457 17.2015 258.934 16.6681 258.55 15.9855C258.177 15.2921 257.99 14.4921 257.99 13.5855C257.99 12.6788 258.172 11.8841 258.534 11.2015C258.908 10.5081 259.425 9.9748 260.086 9.60146C260.758 9.22813 261.526 9.04146 262.39 9.04146C263.222 9.04146 263.964 9.2228 264.614 9.58546C265.265 9.94813 265.772 10.4601 266.134 11.1215C266.497 11.7721 266.678 12.5241 266.678 13.3775ZM264.774 12.8015C264.764 12.1295 264.524 11.5908 264.054 11.1855C263.585 10.7801 263.004 10.5775 262.31 10.5775C261.681 10.5775 261.142 10.7801 260.694 11.1855C260.246 11.5801 259.98 12.1188 259.894 12.8015H264.774ZM270.601 10.6735V15.5535C270.601 15.8841 270.676 16.1241 270.825 16.2735C270.985 16.4121 271.252 16.4815 271.625 16.4815H272.745V18.0015H271.305C270.484 18.0015 269.855 17.8095 269.417 17.4255C268.98 17.0415 268.761 16.4175 268.761 15.5535V10.6735H267.721V9.18546H268.761V6.99346H270.601V9.18546H272.745V10.6735H270.601Z" fill="#B7B5BA"/>
<path d="M31.9174 40.0995C31.9174 40.9115 31.6374 41.5881 31.0774 42.1295C30.5268 42.6615 29.6821 42.9275 28.5434 42.9275H26.6674V47.0015H25.3934V37.2435H28.5434C29.6448 37.2435 30.4801 37.5095 31.0494 38.0415C31.6281 38.5735 31.9174 39.2595 31.9174 40.0995ZM28.5434 41.8775C29.2528 41.8775 29.7754 41.7235 30.1114 41.4155C30.4474 41.1075 30.6154 40.6688 30.6154 40.0995C30.6154 38.8955 29.9248 38.2935 28.5434 38.2935H26.6674V41.8775H28.5434ZM34.7749 36.6415V47.0015H33.5009V36.6415H34.7749ZM43.9462 42.8715C43.9462 43.1141 43.9322 43.3708 43.9042 43.6415H37.7722C37.8188 44.3975 38.0755 44.9901 38.5422 45.4195C39.0182 45.8395 39.5922 46.0495 40.2642 46.0495C40.8148 46.0495 41.2722 45.9235 41.6362 45.6715C42.0095 45.4101 42.2708 45.0648 42.4202 44.6355H43.7922C43.5868 45.3728 43.1762 45.9748 42.5602 46.4415C41.9442 46.8988 41.1788 47.1275 40.2642 47.1275C39.5362 47.1275 38.8828 46.9641 38.3042 46.6375C37.7348 46.3108 37.2868 45.8488 36.9602 45.2515C36.6335 44.6448 36.4702 43.9448 36.4702 43.1515C36.4702 42.3581 36.6288 41.6628 36.9462 41.0655C37.2635 40.4681 37.7068 40.0108 38.2762 39.6935C38.8548 39.3668 39.5175 39.2035 40.2642 39.2035C40.9922 39.2035 41.6362 39.3621 42.1962 39.6795C42.7562 39.9968 43.1855 40.4355 43.4842 40.9955C43.7922 41.5461 43.9462 42.1715 43.9462 42.8715ZM42.6302 42.6055C42.6302 42.1201 42.5228 41.7048 42.3082 41.3595C42.0935 41.0048 41.7995 40.7388 41.4262 40.5615C41.0622 40.3748 40.6562 40.2815 40.2082 40.2815C39.5642 40.2815 39.0135 40.4868 38.5562 40.8975C38.1082 41.3081 37.8515 41.8775 37.7862 42.6055H42.6302ZM45.1518 43.1375C45.1518 42.3535 45.3105 41.6675 45.6278 41.0795C45.9451 40.4821 46.3791 40.0201 46.9298 39.6935C47.4898 39.3668 48.1105 39.2035 48.7918 39.2035C49.4638 39.2035 50.0471 39.3481 50.5418 39.6375C51.0365 39.9268 51.4051 40.2908 51.6478 40.7295V39.3295H52.9358V47.0015H51.6478V45.5735C51.3958 46.0215 51.0178 46.3948 50.5138 46.6935C50.0191 46.9828 49.4405 47.1275 48.7778 47.1275C48.0965 47.1275 47.4805 46.9595 46.9298 46.6235C46.3791 46.2875 45.9451 45.8161 45.6278 45.2095C45.3105 44.6028 45.1518 43.9121 45.1518 43.1375ZM51.6478 43.1515C51.6478 42.5728 51.5311 42.0688 51.2978 41.6395C51.0645 41.2101 50.7471 40.8835 50.3458 40.6595C49.9538 40.4261 49.5198 40.3095 49.0438 40.3095C48.5678 40.3095 48.1338 40.4215 47.7418 40.6455C47.3498 40.8695 47.0371 41.1961 46.8038 41.6255C46.5705 42.0548 46.4538 42.5588 46.4538 43.1375C46.4538 43.7255 46.5705 44.2388 46.8038 44.6775C47.0371 45.1068 47.3498 45.4381 47.7418 45.6715C48.1338 45.8955 48.5678 46.0075 49.0438 46.0075C49.5198 46.0075 49.9538 45.8955 50.3458 45.6715C50.7471 45.4381 51.0645 45.1068 51.2978 44.6775C51.5311 44.2388 51.6478 43.7301 51.6478 43.1515ZM57.8047 47.1275C57.2167 47.1275 56.6894 47.0295 56.2227 46.8335C55.7561 46.6281 55.3874 46.3481 55.1167 45.9935C54.8461 45.6295 54.6967 45.2141 54.6687 44.7475H55.9847C56.0221 45.1301 56.1994 45.4428 56.5167 45.6855C56.8434 45.9281 57.2681 46.0495 57.7907 46.0495C58.2761 46.0495 58.6587 45.9421 58.9387 45.7275C59.2187 45.5128 59.3587 45.2421 59.3587 44.9155C59.3587 44.5795 59.2094 44.3321 58.9107 44.1735C58.6121 44.0055 58.1501 43.8421 57.5247 43.6835C56.9554 43.5341 56.4887 43.3848 56.1247 43.2355C55.7701 43.0768 55.4621 42.8481 55.2007 42.5495C54.9487 42.2415 54.8227 41.8401 54.8227 41.3455C54.8227 40.9535 54.9394 40.5941 55.1727 40.2675C55.4061 39.9408 55.7374 39.6841 56.1667 39.4975C56.5961 39.3015 57.0861 39.2035 57.6367 39.2035C58.4861 39.2035 59.1721 39.4181 59.6947 39.8475C60.2174 40.2768 60.4974 40.8648 60.5347 41.6115H59.2607C59.2327 41.2101 59.0694 40.8881 58.7707 40.6455C58.4814 40.4028 58.0894 40.2815 57.5947 40.2815C57.1374 40.2815 56.7734 40.3795 56.5027 40.5755C56.2321 40.7715 56.0967 41.0281 56.0967 41.3455C56.0967 41.5975 56.1761 41.8075 56.3347 41.9755C56.5027 42.1341 56.7081 42.2648 56.9507 42.3675C57.2027 42.4608 57.5481 42.5681 57.9867 42.6895C58.5374 42.8388 58.9854 42.9881 59.3307 43.1375C59.6761 43.2775 59.9701 43.4921 60.2127 43.7815C60.4647 44.0708 60.5954 44.4488 60.6047 44.9155C60.6047 45.3355 60.4881 45.7135 60.2547 46.0495C60.0214 46.3855 59.6901 46.6515 59.2607 46.8475C58.8407 47.0341 58.3554 47.1275 57.8047 47.1275ZM69.4032 42.8715C69.4032 43.1141 69.3892 43.3708 69.3612 43.6415H63.2292C63.2759 44.3975 63.5325 44.9901 63.9992 45.4195C64.4752 45.8395 65.0492 46.0495 65.7212 46.0495C66.2719 46.0495 66.7292 45.9235 67.0932 45.6715C67.4665 45.4101 67.7279 45.0648 67.8772 44.6355H69.2492C69.0439 45.3728 68.6332 45.9748 68.0172 46.4415C67.4012 46.8988 66.6359 47.1275 65.7212 47.1275C64.9932 47.1275 64.3399 46.9641 63.7612 46.6375C63.1919 46.3108 62.7439 45.8488 62.4172 45.2515C62.0905 44.6448 61.9272 43.9448 61.9272 43.1515C61.9272 42.3581 62.0859 41.6628 62.4032 41.0655C62.7205 40.4681 63.1639 40.0108 63.7332 39.6935C64.3119 39.3668 64.9745 39.2035 65.7212 39.2035C66.4492 39.2035 67.0932 39.3621 67.6532 39.6795C68.2132 39.9968 68.6425 40.4355 68.9412 40.9955C69.2492 41.5461 69.4032 42.1715 69.4032 42.8715ZM68.0872 42.6055C68.0872 42.1201 67.9799 41.7048 67.7652 41.3595C67.5505 41.0048 67.2565 40.7388 66.8832 40.5615C66.5192 40.3748 66.1132 40.2815 65.6652 40.2815C65.0212 40.2815 64.4705 40.4868 64.0132 40.8975C63.5652 41.3081 63.3085 41.8775 63.2432 42.6055H68.0872ZM74.3413 43.1515C74.3413 42.3581 74.4999 41.6675 74.8173 41.0795C75.1346 40.4821 75.5733 40.0201 76.1333 39.6935C76.7026 39.3668 77.3513 39.2035 78.0793 39.2035C79.0219 39.2035 79.7966 39.4321 80.4033 39.8895C81.0193 40.3468 81.4253 40.9815 81.6213 41.7935H80.2493C80.1186 41.3268 79.8619 40.9581 79.4793 40.6875C79.1059 40.4168 78.6393 40.2815 78.0793 40.2815C77.3513 40.2815 76.7633 40.5335 76.3153 41.0375C75.8673 41.5321 75.6433 42.2368 75.6433 43.1515C75.6433 44.0755 75.8673 44.7895 76.3153 45.2935C76.7633 45.7975 77.3513 46.0495 78.0793 46.0495C78.6393 46.0495 79.1059 45.9188 79.4793 45.6575C79.8526 45.3961 80.1093 45.0228 80.2493 44.5375H81.6213C81.4159 45.3215 81.0053 45.9515 80.3893 46.4275C79.7733 46.8941 79.0033 47.1275 78.0793 47.1275C77.3513 47.1275 76.7026 46.9641 76.1333 46.6375C75.5733 46.3108 75.1346 45.8488 74.8173 45.2515C74.4999 44.6541 74.3413 43.9541 74.3413 43.1515ZM86.6672 47.1275C85.9485 47.1275 85.2952 46.9641 84.7072 46.6375C84.1285 46.3108 83.6712 45.8488 83.3352 45.2515C83.0085 44.6448 82.8452 43.9448 82.8452 43.1515C82.8452 42.3675 83.0132 41.6768 83.3492 41.0795C83.6945 40.4728 84.1612 40.0108 84.7492 39.6935C85.3372 39.3668 85.9952 39.2035 86.7232 39.2035C87.4512 39.2035 88.1092 39.3668 88.6972 39.6935C89.2852 40.0108 89.7472 40.4681 90.0832 41.0655C90.4285 41.6628 90.6012 42.3581 90.6012 43.1515C90.6012 43.9448 90.4238 44.6448 90.0692 45.2515C89.7238 45.8488 89.2525 46.3108 88.6552 46.6375C88.0578 46.9641 87.3952 47.1275 86.6672 47.1275ZM86.6672 46.0075C87.1245 46.0075 87.5538 45.9001 87.9552 45.6855C88.3565 45.4708 88.6785 45.1488 88.9212 44.7195C89.1732 44.2901 89.2992 43.7675 89.2992 43.1515C89.2992 42.5355 89.1778 42.0128 88.9352 41.5835C88.6925 41.1541 88.3752 40.8368 87.9832 40.6315C87.5912 40.4168 87.1665 40.3095 86.7092 40.3095C86.2425 40.3095 85.8132 40.4168 85.4212 40.6315C85.0385 40.8368 84.7305 41.1541 84.4972 41.5835C84.2638 42.0128 84.1472 42.5355 84.1472 43.1515C84.1472 43.7768 84.2592 44.3041 84.4832 44.7335C84.7165 45.1628 85.0245 45.4848 85.4072 45.6995C85.7898 45.9048 86.2098 46.0075 86.6672 46.0075ZM96.0142 39.1895C96.9476 39.1895 97.7036 39.4741 98.2822 40.0435C98.8609 40.6035 99.1502 41.4155 99.1502 42.4795V47.0015H97.8902V42.6615C97.8902 41.8961 97.6989 41.3128 97.3162 40.9115C96.9336 40.5008 96.4109 40.2955 95.7482 40.2955C95.0762 40.2955 94.5396 40.5055 94.1382 40.9255C93.7462 41.3455 93.5502 41.9568 93.5502 42.7595V47.0015H92.2762V39.3295H93.5502V40.4215C93.8022 40.0295 94.1429 39.7261 94.5722 39.5115C95.0109 39.2968 95.4916 39.1895 96.0142 39.1895ZM104.969 39.1895C105.903 39.1895 106.659 39.4741 107.237 40.0435C107.816 40.6035 108.105 41.4155 108.105 42.4795V47.0015H106.845V42.6615C106.845 41.8961 106.654 41.3128 106.271 40.9115C105.889 40.5008 105.366 40.2955 104.703 40.2955C104.031 40.2955 103.495 40.5055 103.093 40.9255C102.701 41.3455 102.505 41.9568 102.505 42.7595V47.0015H101.231V39.3295H102.505V40.4215C102.757 40.0295 103.098 39.7261 103.527 39.5115C103.966 39.2968 104.447 39.1895 104.969 39.1895ZM117.186 42.8715C117.186 43.1141 117.172 43.3708 117.144 43.6415H111.012C111.059 44.3975 111.316 44.9901 111.782 45.4195C112.258 45.8395 112.832 46.0495 113.504 46.0495C114.055 46.0495 114.512 45.9235 114.876 45.6715C115.25 45.4101 115.511 45.0648 115.66 44.6355H117.032C116.827 45.3728 116.416 45.9748 115.8 46.4415C115.184 46.8988 114.419 47.1275 113.504 47.1275C112.776 47.1275 112.123 46.9641 111.544 46.6375C110.975 46.3108 110.527 45.8488 110.2 45.2515C109.874 44.6448 109.71 43.9448 109.71 43.1515C109.71 42.3581 109.869 41.6628 110.186 41.0655C110.504 40.4681 110.947 40.0108 111.516 39.6935C112.095 39.3668 112.758 39.2035 113.504 39.2035C114.232 39.2035 114.876 39.3621 115.436 39.6795C115.996 39.9968 116.426 40.4355 116.724 40.9955C117.032 41.5461 117.186 42.1715 117.186 42.8715ZM115.87 42.6055C115.87 42.1201 115.763 41.7048 115.548 41.3595C115.334 41.0048 115.04 40.7388 114.666 40.5615C114.302 40.3748 113.896 40.2815 113.448 40.2815C112.804 40.2815 112.254 40.4868 111.796 40.8975C111.348 41.3081 111.092 41.8775 111.026 42.6055H115.87ZM118.392 43.1515C118.392 42.3581 118.551 41.6675 118.868 41.0795C119.185 40.4821 119.624 40.0201 120.184 39.6935C120.753 39.3668 121.402 39.2035 122.13 39.2035C123.073 39.2035 123.847 39.4321 124.454 39.8895C125.07 40.3468 125.476 40.9815 125.672 41.7935H124.3C124.169 41.3268 123.913 40.9581 123.53 40.6875C123.157 40.4168 122.69 40.2815 122.13 40.2815C121.402 40.2815 120.814 40.5335 120.366 41.0375C119.918 41.5321 119.694 42.2368 119.694 43.1515C119.694 44.0755 119.918 44.7895 120.366 45.2935C120.814 45.7975 121.402 46.0495 122.13 46.0495C122.69 46.0495 123.157 45.9188 123.53 45.6575C123.903 45.3961 124.16 45.0228 124.3 44.5375H125.672C125.467 45.3215 125.056 45.9515 124.44 46.4275C123.824 46.8941 123.054 47.1275 122.13 47.1275C121.402 47.1275 120.753 46.9641 120.184 46.6375C119.624 46.3108 119.185 45.8488 118.868 45.2515C118.551 44.6541 118.392 43.9541 118.392 43.1515ZM128.926 40.3795V44.9015C128.926 45.2748 129.005 45.5408 129.164 45.6995C129.323 45.8488 129.598 45.9235 129.99 45.9235H130.928V47.0015H129.78C129.071 47.0015 128.539 46.8381 128.184 46.5115C127.829 46.1848 127.652 45.6481 127.652 44.9015V40.3795H126.658V39.3295H127.652V37.3975H128.926V39.3295H130.928V40.3795H128.926ZM142.812 39.3295L138.192 50.6135H136.876L138.388 46.9175L135.294 39.3295H136.708L139.116 45.5455L141.496 39.3295H142.812ZM147.439 47.1275C146.72 47.1275 146.067 46.9641 145.479 46.6375C144.9 46.3108 144.443 45.8488 144.107 45.2515C143.78 44.6448 143.617 43.9448 143.617 43.1515C143.617 42.3675 143.785 41.6768 144.121 41.0795C144.466 40.4728 144.933 40.0108 145.521 39.6935C146.109 39.3668 146.767 39.2035 147.495 39.2035C148.223 39.2035 148.881 39.3668 149.469 39.6935C150.057 40.0108 150.519 40.4681 150.855 41.0655C151.2 41.6628 151.373 42.3581 151.373 43.1515C151.373 43.9448 151.195 44.6448 150.841 45.2515C150.495 45.8488 150.024 46.3108 149.427 46.6375C148.829 46.9641 148.167 47.1275 147.439 47.1275ZM147.439 46.0075C147.896 46.0075 148.325 45.9001 148.727 45.6855C149.128 45.4708 149.45 45.1488 149.693 44.7195C149.945 44.2901 150.071 43.7675 150.071 43.1515C150.071 42.5355 149.949 42.0128 149.707 41.5835C149.464 41.1541 149.147 40.8368 148.755 40.6315C148.363 40.4168 147.938 40.3095 147.481 40.3095C147.014 40.3095 146.585 40.4168 146.193 40.6315C145.81 40.8368 145.502 41.1541 145.269 41.5835C145.035 42.0128 144.919 42.5355 144.919 43.1515C144.919 43.7768 145.031 44.3041 145.255 44.7335C145.488 45.1628 145.796 45.4848 146.179 45.6995C146.561 45.9048 146.981 46.0075 147.439 46.0075ZM159.852 39.3295V47.0015H158.578V45.8675C158.335 46.2595 157.994 46.5675 157.556 46.7915C157.126 47.0061 156.65 47.1135 156.128 47.1135C155.53 47.1135 154.994 46.9921 154.518 46.7495C154.042 46.4975 153.664 46.1241 153.384 45.6295C153.113 45.1348 152.978 44.5328 152.978 43.8235V39.3295H154.238V43.6555C154.238 44.4115 154.429 44.9948 154.812 45.4055C155.194 45.8068 155.717 46.0075 156.38 46.0075C157.061 46.0075 157.598 45.7975 157.99 45.3775C158.382 44.9575 158.578 44.3461 158.578 43.5435V39.3295H159.852ZM175.955 39.3295L173.561 47.0015H172.245L170.397 40.9115L168.549 47.0015H167.233L164.825 39.3295H166.127L167.891 45.7695L169.795 39.3295H171.097L172.959 45.7835L174.695 39.3295H175.955ZM176.744 43.1375C176.744 42.3535 176.902 41.6675 177.22 41.0795C177.537 40.4821 177.971 40.0201 178.522 39.6935C179.082 39.3668 179.702 39.2035 180.384 39.2035C181.056 39.2035 181.639 39.3481 182.134 39.6375C182.628 39.9268 182.997 40.2908 183.24 40.7295V39.3295H184.528V47.0015H183.24V45.5735C182.988 46.0215 182.61 46.3948 182.106 46.6935C181.611 46.9828 181.032 47.1275 180.37 47.1275C179.688 47.1275 179.072 46.9595 178.522 46.6235C177.971 46.2875 177.537 45.8161 177.22 45.2095C176.902 44.6028 176.744 43.9121 176.744 43.1375ZM183.24 43.1515C183.24 42.5728 183.123 42.0688 182.89 41.6395C182.656 41.2101 182.339 40.8835 181.938 40.6595C181.546 40.4261 181.112 40.3095 180.636 40.3095C180.16 40.3095 179.726 40.4215 179.334 40.6455C178.942 40.8695 178.629 41.1961 178.396 41.6255C178.162 42.0548 178.046 42.5588 178.046 43.1375C178.046 43.7255 178.162 44.2388 178.396 44.6775C178.629 45.1068 178.942 45.4381 179.334 45.6715C179.726 45.8955 180.16 46.0075 180.636 46.0075C181.112 46.0075 181.546 45.8955 181.938 45.6715C182.339 45.4381 182.656 45.1068 182.89 44.6775C183.123 44.2388 183.24 43.7301 183.24 43.1515ZM187.955 36.6415V47.0015H186.681V36.6415H187.955ZM191.4 36.6415V47.0015H190.126V36.6415H191.4ZM200.571 42.8715C200.571 43.1141 200.557 43.3708 200.529 43.6415H194.397C194.444 44.3975 194.7 44.9901 195.167 45.4195C195.643 45.8395 196.217 46.0495 196.889 46.0495C197.44 46.0495 197.897 45.9235 198.261 45.6715C198.634 45.4101 198.896 45.0648 199.045 44.6355H200.417C200.212 45.3728 199.801 45.9748 199.185 46.4415C198.569 46.8988 197.804 47.1275 196.889 47.1275C196.161 47.1275 195.508 46.9641 194.929 46.6375C194.36 46.3108 193.912 45.8488 193.585 45.2515C193.258 44.6448 193.095 43.9448 193.095 43.1515C193.095 42.3581 193.254 41.6628 193.571 41.0655C193.888 40.4681 194.332 40.0108 194.901 39.6935C195.48 39.3668 196.142 39.2035 196.889 39.2035C197.617 39.2035 198.261 39.3621 198.821 39.6795C199.381 39.9968 199.81 40.4355 200.109 40.9955C200.417 41.5461 200.571 42.1715 200.571 42.8715ZM199.255 42.6055C199.255 42.1201 199.148 41.7048 198.933 41.3595C198.718 41.0048 198.424 40.7388 198.051 40.5615C197.687 40.3748 197.281 40.2815 196.833 40.2815C196.189 40.2815 195.638 40.4868 195.181 40.8975C194.733 41.3081 194.476 41.8775 194.411 42.6055H199.255ZM203.807 40.3795V44.9015C203.807 45.2748 203.886 45.5408 204.045 45.6995C204.203 45.8488 204.479 45.9235 204.871 45.9235H205.809V47.0015H204.661C203.951 47.0015 203.419 46.8381 203.065 46.5115C202.71 46.1848 202.533 45.6481 202.533 44.9015V40.3795H201.539V39.3295H202.533V37.3975H203.807V39.3295H205.809V40.3795H203.807ZM212.639 40.3795V44.9015C212.639 45.2748 212.718 45.5408 212.877 45.6995C213.036 45.8488 213.311 45.9235 213.703 45.9235H214.641V47.0015H213.493C212.784 47.0015 212.252 46.8381 211.897 46.5115C211.542 46.1848 211.365 45.6481 211.365 44.9015V40.3795H210.371V39.3295H211.365V37.3975H212.639V39.3295H214.641V40.3795H212.639ZM219.53 47.1275C218.812 47.1275 218.158 46.9641 217.57 46.6375C216.992 46.3108 216.534 45.8488 216.198 45.2515C215.872 44.6448 215.708 43.9448 215.708 43.1515C215.708 42.3675 215.876 41.6768 216.212 41.0795C216.558 40.4728 217.024 40.0108 217.612 39.6935C218.2 39.3668 218.858 39.2035 219.586 39.2035C220.314 39.2035 220.972 39.3668 221.56 39.6935C222.148 40.0108 222.61 40.4681 222.946 41.0655C223.292 41.6628 223.464 42.3581 223.464 43.1515C223.464 43.9448 223.287 44.6448 222.932 45.2515C222.587 45.8488 222.116 46.3108 221.518 46.6375C220.921 46.9641 220.258 47.1275 219.53 47.1275ZM219.53 46.0075C219.988 46.0075 220.417 45.9001 220.818 45.6855C221.22 45.4708 221.542 45.1488 221.784 44.7195C222.036 44.2901 222.162 43.7675 222.162 43.1515C222.162 42.5355 222.041 42.0128 221.798 41.5835C221.556 41.1541 221.238 40.8368 220.846 40.6315C220.454 40.4168 220.03 40.3095 219.572 40.3095C219.106 40.3095 218.676 40.4168 218.284 40.6315C217.902 40.8368 217.594 41.1541 217.36 41.5835C217.127 42.0128 217.01 42.5355 217.01 43.1515C217.01 43.7768 217.122 44.3041 217.346 44.7335C217.58 45.1628 217.888 45.4848 218.27 45.6995C218.653 45.9048 219.073 46.0075 219.53 46.0075ZM231.728 45.8255L234.108 39.3295H235.466L232.456 47.0015H230.972L227.962 39.3295H229.334L231.728 45.8255ZM237.378 38.0835C237.135 38.0835 236.93 37.9995 236.762 37.8315C236.594 37.6635 236.51 37.4581 236.51 37.2155C236.51 36.9728 236.594 36.7675 236.762 36.5995C236.93 36.4315 237.135 36.3475 237.378 36.3475C237.611 36.3475 237.807 36.4315 237.966 36.5995C238.134 36.7675 238.218 36.9728 238.218 37.2155C238.218 37.4581 238.134 37.6635 237.966 37.8315C237.807 37.9995 237.611 38.0835 237.378 38.0835ZM237.994 39.3295V47.0015H236.72V39.3295H237.994ZM247.165 42.8715C247.165 43.1141 247.151 43.3708 247.123 43.6415H240.991C241.038 44.3975 241.294 44.9901 241.761 45.4195C242.237 45.8395 242.811 46.0495 243.483 46.0495C244.034 46.0495 244.491 45.9235 244.855 45.6715C245.228 45.4101 245.49 45.0648 245.639 44.6355H247.011C246.806 45.3728 246.395 45.9748 245.779 46.4415C245.163 46.8988 244.398 47.1275 243.483 47.1275C242.755 47.1275 242.102 46.9641 241.523 46.6375C240.954 46.3108 240.506 45.8488 240.179 45.2515C239.852 44.6448 239.689 43.9448 239.689 43.1515C239.689 42.3581 239.848 41.6628 240.165 41.0655C240.482 40.4681 240.926 40.0108 241.495 39.6935C242.074 39.3668 242.736 39.2035 243.483 39.2035C244.211 39.2035 244.855 39.3621 245.415 39.6795C245.975 39.9968 246.404 40.4355 246.703 40.9955C247.011 41.5461 247.165 42.1715 247.165 42.8715ZM245.849 42.6055C245.849 42.1201 245.742 41.7048 245.527 41.3595C245.312 41.0048 245.018 40.7388 244.645 40.5615C244.281 40.3748 243.875 40.2815 243.427 40.2815C242.783 40.2815 242.232 40.4868 241.775 40.8975C241.327 41.3081 241.07 41.8775 241.005 42.6055H245.849ZM259.067 39.3295L256.673 47.0015H255.357L253.509 40.9115L251.661 47.0015H250.345L247.937 39.3295H249.239L251.003 45.7695L252.907 39.3295H254.209L256.071 45.7835L257.807 39.3295H259.067ZM270.671 39.3295L266.051 50.6135H264.735L266.247 46.9175L263.153 39.3295H264.567L266.975 45.5455L269.355 39.3295H270.671ZM275.298 47.1275C274.579 47.1275 273.926 46.9641 273.338 46.6375C272.759 46.3108 272.302 45.8488 271.966 45.2515C271.639 44.6448 271.476 43.9448 271.476 43.1515C271.476 42.3675 271.644 41.6768 271.98 41.0795C272.325 40.4728 272.792 40.0108 273.38 39.6935C273.968 39.3668 274.626 39.2035 275.354 39.2035C276.082 39.2035 276.74 39.3668 277.328 39.6935C277.916 40.0108 278.378 40.4681 278.714 41.0655C279.059 41.6628 279.232 42.3581 279.232 43.1515C279.232 43.9448 279.055 44.6448 278.7 45.2515C278.355 45.8488 277.883 46.3108 277.286 46.6375C276.689 46.9641 276.026 47.1275 275.298 47.1275ZM275.298 46.0075C275.755 46.0075 276.185 45.9001 276.586 45.6855C276.987 45.4708 277.309 45.1488 277.552 44.7195C277.804 44.2901 277.93 43.7675 277.93 43.1515C277.93 42.5355 277.809 42.0128 277.566 41.5835C277.323 41.1541 277.006 40.8368 276.614 40.6315C276.222 40.4168 275.797 40.3095 275.34 40.3095C274.873 40.3095 274.444 40.4168 274.052 40.6315C273.669 40.8368 273.361 41.1541 273.128 41.5835C272.895 42.0128 272.778 42.5355 272.778 43.1515C272.778 43.7768 272.89 44.3041 273.114 44.7335C273.347 45.1628 273.655 45.4848 274.038 45.6995C274.421 45.9048 274.841 46.0075 275.298 46.0075ZM287.711 39.3295V47.0015H286.437V45.8675C286.194 46.2595 285.854 46.5675 285.415 46.7915C284.986 47.0061 284.51 47.1135 283.987 47.1135C283.39 47.1135 282.853 46.9921 282.377 46.7495C281.901 46.4975 281.523 46.1241 281.243 45.6295C280.972 45.1348 280.837 44.5328 280.837 43.8235V39.3295H282.097V43.6555C282.097 44.4115 282.288 44.9948 282.671 45.4055C283.054 45.8068 283.576 46.0075 284.239 46.0075C284.92 46.0075 285.457 45.7975 285.849 45.3775C286.241 44.9575 286.437 44.3461 286.437 43.5435V39.3295H287.711ZM291.136 40.5755C291.36 40.1368 291.678 39.7961 292.088 39.5535C292.508 39.3108 293.017 39.1895 293.614 39.1895V40.5055H293.278C291.85 40.5055 291.136 41.2801 291.136 42.8295V47.0015H289.862V39.3295H291.136V40.5755ZM300.091 40.7435C300.343 40.3048 300.717 39.9408 301.211 39.6515C301.715 39.3528 302.299 39.2035 302.961 39.2035C303.643 39.2035 304.259 39.3668 304.809 39.6935C305.369 40.0201 305.808 40.4821 306.125 41.0795C306.443 41.6675 306.601 42.3535 306.601 43.1375C306.601 43.9121 306.443 44.6028 306.125 45.2095C305.808 45.8161 305.369 46.2875 304.809 46.6235C304.259 46.9595 303.643 47.1275 302.961 47.1275C302.308 47.1275 301.729 46.9828 301.225 46.6935C300.731 46.3948 300.353 46.0261 300.091 45.5875V50.6415H298.817V39.3295H300.091V40.7435ZM305.299 43.1375C305.299 42.5588 305.183 42.0548 304.949 41.6255C304.716 41.1961 304.399 40.8695 303.997 40.6455C303.605 40.4215 303.171 40.3095 302.695 40.3095C302.229 40.3095 301.795 40.4261 301.393 40.6595C301.001 40.8835 300.684 41.2148 300.441 41.6535C300.208 42.0828 300.091 42.5821 300.091 43.1515C300.091 43.7301 300.208 44.2388 300.441 44.6775C300.684 45.1068 301.001 45.4381 301.393 45.6715C301.795 45.8955 302.229 46.0075 302.695 46.0075C303.171 46.0075 303.605 45.8955 303.997 45.6715C304.399 45.4381 304.716 45.1068 304.949 44.6775C305.183 44.2388 305.299 43.7255 305.299 43.1375ZM311.624 47.1275C310.906 47.1275 310.252 46.9641 309.664 46.6375C309.086 46.3108 308.628 45.8488 308.292 45.2515C307.966 44.6448 307.802 43.9448 307.802 43.1515C307.802 42.3675 307.97 41.6768 308.306 41.0795C308.652 40.4728 309.118 40.0108 309.706 39.6935C310.294 39.3668 310.952 39.2035 311.68 39.2035C312.408 39.2035 313.066 39.3668 313.654 39.6935C314.242 40.0108 314.704 40.4681 315.04 41.0655C315.386 41.6628 315.558 42.3581 315.558 43.1515C315.558 43.9448 315.381 44.6448 315.026 45.2515C314.681 45.8488 314.21 46.3108 313.612 46.6375C313.015 46.9641 312.352 47.1275 311.624 47.1275ZM311.624 46.0075C312.082 46.0075 312.511 45.9001 312.912 45.6855C313.314 45.4708 313.636 45.1488 313.878 44.7195C314.13 44.2901 314.256 43.7675 314.256 43.1515C314.256 42.5355 314.135 42.0128 313.892 41.5835C313.65 41.1541 313.332 40.8368 312.94 40.6315C312.548 40.4168 312.124 40.3095 311.666 40.3095C311.2 40.3095 310.77 40.4168 310.378 40.6315C309.996 40.8368 309.688 41.1541 309.454 41.5835C309.221 42.0128 309.104 42.5355 309.104 43.1515C309.104 43.7768 309.216 44.3041 309.44 44.7335C309.674 45.1628 309.982 45.4848 310.364 45.6995C310.747 45.9048 311.167 46.0075 311.624 46.0075ZM319.949 47.1275C319.361 47.1275 318.834 47.0295 318.367 46.8335C317.901 46.6281 317.532 46.3481 317.261 45.9935C316.991 45.6295 316.841 45.2141 316.813 44.7475H318.129C318.167 45.1301 318.344 45.4428 318.661 45.6855C318.988 45.9281 319.413 46.0495 319.935 46.0495C320.421 46.0495 320.803 45.9421 321.083 45.7275C321.363 45.5128 321.503 45.2421 321.503 44.9155C321.503 44.5795 321.354 44.3321 321.055 44.1735C320.757 44.0055 320.295 43.8421 319.669 43.6835C319.1 43.5341 318.633 43.3848 318.269 43.2355C317.915 43.0768 317.607 42.8481 317.345 42.5495C317.093 42.2415 316.967 41.8401 316.967 41.3455C316.967 40.9535 317.084 40.5941 317.317 40.2675C317.551 39.9408 317.882 39.6841 318.311 39.4975C318.741 39.3015 319.231 39.2035 319.781 39.2035C320.631 39.2035 321.317 39.4181 321.839 39.8475C322.362 40.2768 322.642 40.8648 322.679 41.6115H321.405C321.377 41.2101 321.214 40.8881 320.915 40.6455C320.626 40.4028 320.234 40.2815 319.739 40.2815C319.282 40.2815 318.918 40.3795 318.647 40.5755C318.377 40.7715 318.241 41.0281 318.241 41.3455C318.241 41.5975 318.321 41.8075 318.479 41.9755C318.647 42.1341 318.853 42.2648 319.095 42.3675C319.347 42.4608 319.693 42.5681 320.131 42.6895C320.682 42.8388 321.13 42.9881 321.475 43.1375C321.821 43.2775 322.115 43.4921 322.357 43.7815C322.609 44.0708 322.74 44.4488 322.749 44.9155C322.749 45.3355 322.633 45.7135 322.399 46.0495C322.166 46.3855 321.835 46.6515 321.405 46.8475C320.985 47.0341 320.5 47.1275 319.949 47.1275ZM325.206 38.0835C324.963 38.0835 324.758 37.9995 324.59 37.8315C324.422 37.6635 324.338 37.4581 324.338 37.2155C324.338 36.9728 324.422 36.7675 324.59 36.5995C324.758 36.4315 324.963 36.3475 325.206 36.3475C325.439 36.3475 325.635 36.4315 325.794 36.5995C325.962 36.7675 326.046 36.9728 326.046 37.2155C326.046 37.4581 325.962 37.6635 325.794 37.8315C325.635 37.9995 325.439 38.0835 325.206 38.0835ZM325.822 39.3295V47.0015H324.548V39.3295H325.822ZM329.547 40.3795V44.9015C329.547 45.2748 329.626 45.5408 329.785 45.6995C329.944 45.8488 330.219 45.9235 330.611 45.9235H331.549V47.0015H330.401C329.692 47.0015 329.16 46.8381 328.805 46.5115C328.45 46.1848 328.273 45.6481 328.273 44.9015V40.3795H327.279V39.3295H328.273V37.3975H329.547V39.3295H331.549V40.3795H329.547ZM333.751 38.0835C333.508 38.0835 333.303 37.9995 333.135 37.8315C332.967 37.6635 332.883 37.4581 332.883 37.2155C332.883 36.9728 332.967 36.7675 333.135 36.5995C333.303 36.4315 333.508 36.3475 333.751 36.3475C333.984 36.3475 334.18 36.4315 334.339 36.5995C334.507 36.7675 334.591 36.9728 334.591 37.2155C334.591 37.4581 334.507 37.6635 334.339 37.8315C334.18 37.9995 333.984 38.0835 333.751 38.0835ZM334.367 39.3295V47.0015H333.093V39.3295H334.367ZM339.884 47.1275C339.165 47.1275 338.512 46.9641 337.924 46.6375C337.345 46.3108 336.888 45.8488 336.552 45.2515C336.225 44.6448 336.062 43.9448 336.062 43.1515C336.062 42.3675 336.23 41.6768 336.566 41.0795C336.911 40.4728 337.378 40.0108 337.966 39.6935C338.554 39.3668 339.212 39.2035 339.94 39.2035C340.668 39.2035 341.326 39.3668 341.914 39.6935C342.502 40.0108 342.964 40.4681 343.3 41.0655C343.645 41.6628 343.818 42.3581 343.818 43.1515C343.818 43.9448 343.641 44.6448 343.286 45.2515C342.941 45.8488 342.469 46.3108 341.872 46.6375C341.275 46.9641 340.612 47.1275 339.884 47.1275ZM339.884 46.0075C340.341 46.0075 340.771 45.9001 341.172 45.6855C341.573 45.4708 341.895 45.1488 342.138 44.7195C342.39 44.2901 342.516 43.7675 342.516 43.1515C342.516 42.5355 342.395 42.0128 342.152 41.5835C341.909 41.1541 341.592 40.8368 341.2 40.6315C340.808 40.4168 340.383 40.3095 339.926 40.3095C339.459 40.3095 339.03 40.4168 338.638 40.6315C338.255 40.8368 337.947 41.1541 337.714 41.5835C337.481 42.0128 337.364 42.5355 337.364 43.1515C337.364 43.7768 337.476 44.3041 337.7 44.7335C337.933 45.1628 338.241 45.4848 338.624 45.6995C339.007 45.9048 339.427 46.0075 339.884 46.0075ZM349.231 39.1895C350.164 39.1895 350.92 39.4741 351.499 40.0435C352.078 40.6035 352.367 41.4155 352.367 42.4795V47.0015H351.107V42.6615C351.107 41.8961 350.916 41.3128 350.533 40.9115C350.15 40.5008 349.628 40.2955 348.965 40.2955C348.293 40.2955 347.756 40.5055 347.355 40.9255C346.963 41.3455 346.767 41.9568 346.767 42.7595V47.0015H345.493V39.3295H346.767V40.4215C347.019 40.0295 347.36 39.7261 347.789 39.5115C348.228 39.2968 348.708 39.1895 349.231 39.1895ZM357.164 47.1275C356.576 47.1275 356.049 47.0295 355.582 46.8335C355.115 46.6281 354.747 46.3481 354.476 45.9935C354.205 45.6295 354.056 45.2141 354.028 44.7475H355.344C355.381 45.1301 355.559 45.4428 355.876 45.6855C356.203 45.9281 356.627 46.0495 357.15 46.0495C357.635 46.0495 358.018 45.9421 358.298 45.7275C358.578 45.5128 358.718 45.2421 358.718 44.9155C358.718 44.5795 358.569 44.3321 358.27 44.1735C357.971 44.0055 357.509 43.8421 356.884 43.6835C356.315 43.5341 355.848 43.3848 355.484 43.2355C355.129 43.0768 354.821 42.8481 354.56 42.5495C354.308 42.2415 354.182 41.8401 354.182 41.3455C354.182 40.9535 354.299 40.5941 354.532 40.2675C354.765 39.9408 355.097 39.6841 355.526 39.4975C355.955 39.3015 356.445 39.2035 356.996 39.2035C357.845 39.2035 358.531 39.4181 359.054 39.8475C359.577 40.2768 359.857 40.8648 359.894 41.6115H358.62C358.592 41.2101 358.429 40.8881 358.13 40.6455C357.841 40.4028 357.449 40.2815 356.954 40.2815C356.497 40.2815 356.133 40.3795 355.862 40.5755C355.591 40.7715 355.456 41.0281 355.456 41.3455C355.456 41.5975 355.535 41.8075 355.694 41.9755C355.862 42.1341 356.067 42.2648 356.31 42.3675C356.562 42.4608 356.907 42.5681 357.346 42.6895C357.897 42.8388 358.345 42.9881 358.69 43.1375C359.035 43.2775 359.329 43.4921 359.572 43.7815C359.824 44.0708 359.955 44.4488 359.964 44.9155C359.964 45.3355 359.847 45.7135 359.614 46.0495C359.381 46.3855 359.049 46.6515 358.62 46.8475C358.2 47.0341 357.715 47.1275 357.164 47.1275Z" fill="#706B75"/>
<path fill-rule="evenodd" clip-rule="evenodd" d="M134 68.0015H254V69.0015H134V68.0015Z" fill="#544D5D" fill-opacity="0.4"/>
</svg>
