<svg width="32" height="32" viewBox="0 0 32 32" fill="none" xmlns="http://www.w3.org/2000/svg">
<path d="M4.00342 25.0188C4.00342 25.8095 4.31731 26.5679 4.87648 27.1271C5.43566 27.6862 6.19382 28.0001 6.98453 27.9999H22.884C23.6743 27.9992 24.4322 27.6847 24.9909 27.126C25.5498 26.567 25.8641 25.8093 25.8651 25.0188V23.4574H22.3161C21.676 23.4579 21.0617 23.2039 20.609 22.7512C20.1563 22.2986 19.9023 21.6843 19.9029 21.0441V17.6371C19.9032 16.9972 20.1576 16.3837 20.6101 15.9312C21.0626 15.4787 21.6763 15.2243 22.3161 15.2237H25.8651V13.6623C25.8634 12.8721 25.5485 12.1151 24.99 11.5563C24.4312 10.9977 23.6742 10.6831 22.884 10.6812H6.98453C6.19421 10.6821 5.43654 10.9964 4.8776 11.5553C4.31886 12.1141 4.00439 12.8719 4.00342 13.6623V25.0188Z" fill="#282230"/>
<path d="M17.1033 4.04356C16.2211 3.89052 15.3171 4.14528 14.6444 4.73635L9.14795 9.54585H21.5095L19.1986 5.50292C18.7565 4.72477 17.9864 4.18841 17.1032 4.04356H17.1033Z" fill="#282230"/>
<path d="M26.7401 16.2H23.3802C22.7491 16.2007 22.1442 16.4607 21.698 16.9226C21.2519 17.3847 21.0009 18.011 21.0001 18.6645V19.9356C21.0007 20.5891 21.2517 21.2155 21.698 21.6773C22.144 22.1394 22.7491 22.3994 23.3802 22.4H26.7401C27.0741 22.3994 27.3943 22.2619 27.6306 22.0173C27.8668 21.7727 27.9995 21.441 28.0001 21.0953V17.5047C27.9995 17.1589 27.8668 16.8273 27.6306 16.5826C27.3943 16.338 27.0741 16.2005 26.7401 16.2Z" fill="#282230"/>
</svg>
