<svg width="30" height="30" viewBox="0 0 30 30" fill="none" xmlns="http://www.w3.org/2000/svg">
<g clip-path="url(#clip0_3408_44106)">
<path d="M15 30C23.2843 30 30 23.2843 30 15C30 6.71573 23.2843 0 15 0C6.71573 0 0 6.71573 0 15C0 23.2843 6.71573 30 15 30Z" fill="#201B26"/>
<path d="M20.7148 20.1814L19.115 18.5974C18.8272 18.3124 19.0314 17.8263 19.4376 17.8263H20.7311C22.1962 17.8263 23.3843 16.6499 23.3843 15.1992H6.88477C6.88477 16.6499 8.07293 17.8263 9.53804 17.8263H10.8315C11.2377 17.8263 11.4419 18.3124 11.1541 18.5974L9.55433 20.1814C9.37621 20.3577 9.37621 20.6438 9.55433 20.8201L10.7848 22.0385C10.963 22.2149 11.2519 22.2149 11.43 22.0385L13.0298 20.4545C13.3176 20.1696 13.8085 20.3717 13.8085 20.7739V22.7246C13.8085 22.9741 14.0126 23.1763 14.2646 23.1763H16.0056C16.2576 23.1763 16.4617 22.9741 16.4617 22.7246V20.7739C16.4617 20.3717 16.9526 20.1696 17.2404 20.4545L18.8402 22.0385C19.0183 22.2149 19.3072 22.2149 19.4854 22.0385L20.7159 20.8201C20.894 20.6438 20.894 20.3577 20.7159 20.1814H20.7148Z" fill="#72687D"/>
<path d="M15.132 9.64236C17.0707 9.64236 18.7747 10.6564 19.7305 12.177H10.5336C11.4905 10.6564 13.1945 9.64236 15.1331 9.64236H15.132ZM15.1331 6.81738C10.5738 6.81738 6.86597 10.4887 6.86597 15.002H23.3981C23.3981 10.4887 19.6903 6.81738 15.132 6.81738H15.1331Z" fill="#413B47"/>
<path d="M15.1314 9.63672C12.1382 9.63672 9.71082 12.0391 9.71082 15.0039H20.552C20.552 12.0402 18.1246 9.63672 15.1314 9.63672Z" fill="#5B5463"/>
<path d="M17.7031 15.0026H12.5681C12.5681 13.6003 13.7193 12.4604 15.1356 12.4604C16.5518 12.4604 17.7031 13.6003 17.7031 15.0026Z" fill="#72687D"/>
</g>
<defs>
<clipPath id="clip0_3408_44106">
<rect width="30" height="30" fill="white"/>
</clipPath>
</defs>
</svg>
