<?xml version="1.0" encoding="UTF-8"?>
<svg xmlns="http://www.w3.org/2000/svg" xmlns:xlink="http://www.w3.org/1999/xlink" width="32px" height="32px" viewBox="0 0 32 32" version="1.1">
<g id="surface1">
<path style=" stroke:none;fill-rule:nonzero;fill:rgb(100%,1.568627%,12.54902%);fill-opacity:1;" d="M 32 16 C 32 24.835938 24.835938 32 16 32 C 7.164062 32 0 24.835938 0 16 C 0 7.164062 7.164062 0 16 0 C 24.835938 0 32 7.164062 32 16 Z M 32 16 "/>
<path style=" stroke:none;fill-rule:nonzero;fill:rgb(100%,100%,100%);fill-opacity:1;" d="M 11.335938 20.253906 C 10.382812 20.253906 9.601562 20.027344 8.996094 19.578125 C 8.394531 19.125 8.09375 18.476562 8.09375 17.632812 C 8.09375 17.457031 8.113281 17.242188 8.152344 16.984375 C 8.257812 16.410156 8.40625 15.71875 8.597656 14.910156 C 9.144531 12.707031 10.546875 11.605469 12.8125 11.605469 C 13.429688 11.605469 13.984375 11.710938 14.472656 11.917969 C 14.960938 12.117188 15.34375 12.421875 15.625 12.832031 C 15.902344 13.230469 16.042969 13.710938 16.042969 14.273438 C 16.042969 14.441406 16.023438 14.652344 15.984375 14.910156 C 15.863281 15.621094 15.71875 16.3125 15.550781 16.984375 C 15.269531 18.082031 14.785156 18.902344 14.097656 19.449219 C 13.410156 19.984375 12.488281 20.253906 11.335938 20.253906 Z M 11.503906 18.523438 C 11.953125 18.523438 12.332031 18.390625 12.644531 18.128906 C 12.964844 17.863281 13.195312 17.457031 13.328125 16.914062 C 13.515625 16.160156 13.652344 15.503906 13.75 14.945312 C 13.78125 14.777344 13.796875 14.605469 13.796875 14.429688 C 13.796875 13.699219 13.417969 13.335938 12.65625 13.335938 C 12.210938 13.335938 11.824219 13.46875 11.503906 13.730469 C 11.191406 13.996094 10.96875 14.398438 10.832031 14.945312 C 10.6875 15.480469 10.542969 16.136719 10.398438 16.914062 C 10.367188 17.074219 10.351562 17.242188 10.351562 17.417969 C 10.351562 18.15625 10.734375 18.523438 11.503906 18.523438 Z M 11.503906 18.523438 "/>
<path style=" stroke:none;fill-rule:nonzero;fill:rgb(100%,100%,100%);fill-opacity:1;" d="M 16.59375 20.132812 C 16.507812 20.132812 16.4375 20.105469 16.390625 20.046875 C 16.351562 19.984375 16.339844 19.914062 16.355469 19.832031 L 18.011719 12.027344 C 18.027344 11.9375 18.074219 11.867188 18.144531 11.808594 C 18.214844 11.753906 18.292969 11.726562 18.371094 11.726562 L 21.566406 11.726562 C 22.457031 11.726562 23.167969 11.910156 23.703125 12.277344 C 24.25 12.648438 24.519531 13.179688 24.519531 13.875 C 24.519531 14.074219 24.496094 14.285156 24.449219 14.5 C 24.25 15.421875 23.84375 16.101562 23.234375 16.542969 C 22.636719 16.980469 21.8125 17.203125 20.761719 17.203125 L 19.140625 17.203125 L 18.589844 19.832031 C 18.574219 19.921875 18.527344 19.992188 18.457031 20.046875 C 18.382812 20.105469 18.308594 20.132812 18.230469 20.132812 Z M 20.847656 15.546875 C 21.183594 15.546875 21.476562 15.453125 21.722656 15.269531 C 21.980469 15.085938 22.148438 14.820312 22.226562 14.476562 C 22.25 14.339844 22.261719 14.21875 22.261719 14.117188 C 22.261719 13.882812 22.195312 13.707031 22.058594 13.585938 C 21.921875 13.460938 21.691406 13.394531 21.363281 13.394531 L 19.921875 13.394531 L 19.464844 15.546875 Z M 20.847656 15.546875 "/>
</g>
</svg>
