<svg width="18" height="18" viewBox="0 0 18 18" fill="none" xmlns="http://www.w3.org/2000/svg">
<g clip-path="url(#clip0_3673_45480)">
<path d="M11.5372 2.98828C10.8128 2.36529 9.88553 2.01758 8.92932 2.01758C8.21941 2.01758 7.50949 2.20592 6.88651 2.56812C6.26352 2.93032 5.74195 3.4374 5.39424 4.06039C5.30731 4.20527 5.24936 4.35015 5.22038 4.50952C5.19141 4.66889 5.2059 4.82826 5.23487 4.98762C5.27834 5.14699 5.33629 5.29187 5.4377 5.42226C5.53912 5.55266 5.65502 5.65407 5.7999 5.741C5.94479 5.82793 6.08967 5.87139 6.24903 5.88588C6.4084 5.90037 6.56777 5.88588 6.72714 5.84242C6.88651 5.79895 7.0169 5.72651 7.14729 5.6251C7.27768 5.52368 7.3791 5.39329 7.45154 5.2629C7.61091 4.98762 7.82823 4.7703 8.08901 4.62542C8.3498 4.48054 8.63956 4.39361 8.94381 4.39361C9.39294 4.39361 9.82758 4.58196 10.1463 4.9007C10.4651 5.21943 10.6534 5.65407 10.6534 6.1032C10.6534 6.55233 10.4651 6.98697 10.1463 7.30571C9.82758 7.62444 9.39294 7.81279 8.94381 7.81279C8.62507 7.81279 8.32082 7.94318 8.1035 8.1605C7.88618 8.37782 7.75579 8.68207 7.75579 9.00081V10.9633C7.75579 11.282 7.87169 11.5718 8.1035 11.8036C8.53814 12.2382 9.33498 12.2382 9.78411 11.8036C10.0159 11.5718 10.1318 11.282 10.1318 10.9633V10.0005L10.3057 9.94253C11.2039 9.60931 11.9718 8.98632 12.4499 8.1605C12.928 7.33468 13.1019 6.36399 12.9425 5.42226C12.7831 4.48054 12.2905 3.62575 11.5661 3.00276L11.5372 2.98828Z" fill="white"/>
<path d="M7.85646 15.2308C7.91441 15.4047 8.00134 15.5351 8.10276 15.6365C8.21866 15.7524 8.33456 15.8248 8.47944 15.8828C8.79818 16.0132 9.10243 16.0132 9.39219 15.8828C9.55156 15.8248 9.68195 15.7379 9.79785 15.6365C9.89927 15.5351 9.9862 15.3902 10.0442 15.2598C10.1021 15.1149 10.1166 14.9555 10.1166 14.8107C10.1166 14.6368 10.0876 14.4919 10.0297 14.347C9.97171 14.2022 9.88478 14.0718 9.76888 13.9559C9.65297 13.84 9.52258 13.753 9.3777 13.6951C9.08794 13.5792 8.75472 13.5792 8.46496 13.6951C8.32008 13.753 8.18968 13.84 8.08827 13.9559C8.03031 14.0138 7.98685 14.0718 7.94339 14.1442C7.89992 14.2022 7.87095 14.2746 7.84197 14.3326C7.79851 14.4195 7.78402 14.4919 7.76953 14.5499C7.76953 14.6078 7.76953 14.6948 7.76953 14.7817C7.76953 14.9555 7.79851 15.1004 7.85646 15.2453V15.2308Z" fill="white"/>
</g>
<defs>
<clipPath id="clip0_3673_45480">
<rect width="18" height="18" fill="white"/>
</clipPath>
</defs>
</svg>
