<svg width="20" height="21" viewBox="0 0 20 21" fill="none" xmlns="http://www.w3.org/2000/svg">
<path d="M9.99402 3.39777C7.06255 3.39777 4.68726 5.33277 4.68726 7.73125C4.68726 7.7892 4.71045 7.84715 4.75676 7.89346L8.23281 11.5897C8.30232 11.4506 8.41822 11.3347 8.55724 11.2652L5.19706 7.68489C5.25501 7.45318 5.78797 7.12875 6.62222 7.12875C7.5028 7.12875 8.00107 7.45318 8.07057 7.71965L9.125 11.1146H9.62319L8.59196 7.78918C8.56876 7.73122 8.56876 7.66172 8.59196 7.61541C8.71942 7.39524 9.22926 7.14033 9.99401 7.14033C10.724 7.14033 11.2222 7.38369 11.3729 7.60376C11.4076 7.66171 11.4076 7.73122 11.3961 7.80072L10.3648 11.1261H10.8515L11.9059 7.7312C11.987 7.44153 12.4737 7.14029 13.3658 7.14029C14.2001 7.14029 14.733 7.46473 14.791 7.69644L11.4424 11.2652C11.5814 11.3347 11.6973 11.4506 11.7668 11.5896L15.2429 7.89342C15.2892 7.84711 15.3124 7.78915 15.3124 7.73121C15.3008 5.33273 12.9255 3.39774 9.99402 3.39774L9.99402 3.39777Z" fill="white"/>
<path d="M12.5502 9.87494H7.41803C6.69837 9.87494 6.10376 10.4695 6.10376 11.1892V16.1334C6.10376 16.8531 6.69837 17.4477 7.41803 17.4477H12.5811C13.3008 17.4477 13.8954 16.8531 13.8954 16.1334L13.8956 11.2204C13.8956 10.4693 13.301 9.87494 12.5502 9.87494H12.5502ZM11.7991 13.9115L10.1406 15.57C10.0468 15.6327 9.92148 15.6327 9.85905 15.57L8.23179 13.9428C7.88757 13.5985 7.7625 13.0666 7.98143 12.6597C8.35687 11.9401 9.23301 11.8462 9.7652 12.3467L10.0156 12.5971L10.2347 12.3779C10.5789 12.0337 11.0797 11.9086 11.5178 12.1276C12.206 12.5034 12.2998 13.4108 11.7991 13.9116V13.9115Z" fill="white"/>
</svg>
