<svg width="26" height="26" viewBox="0 0 26 26" fill="none" xmlns="http://www.w3.org/2000/svg">
<path fill-rule="evenodd" clip-rule="evenodd" d="M13.0001 3.33301C9.40681 3.33301 6.38817 6.03483 5.99136 9.60611L5.71857 12.0612C5.69865 12.2405 5.69025 12.3156 5.6805 12.3887C5.56113 13.2847 5.26938 14.149 4.82136 14.934C4.78477 14.9981 4.74594 15.0629 4.65313 15.2176L4.02692 16.2613L3.99746 16.3104C3.70403 16.7993 3.43854 17.2417 3.27097 17.6165C3.09896 18.0012 2.92911 18.5253 3.1071 19.0956C3.1919 19.3672 3.3337 19.6177 3.52304 19.8302C3.92046 20.2762 4.45723 20.4002 4.87563 20.4506C5.28323 20.4998 5.79916 20.4997 6.3694 20.4997L6.42666 20.4997H19.5735L19.6308 20.4997C20.201 20.4997 20.7169 20.4998 21.1245 20.4506C21.5429 20.4002 22.0797 20.2762 22.4771 19.8302C22.6665 19.6177 22.8083 19.3672 22.8931 19.0956C23.071 18.5253 22.9012 18.0012 22.7292 17.6165C22.5616 17.2417 22.2961 16.7993 22.0027 16.3104L22.0027 16.3103L21.9732 16.2613L21.347 15.2176C21.2542 15.0629 21.2154 14.9981 21.1788 14.934C20.7308 14.149 20.439 13.2847 20.3197 12.3887C20.3099 12.3156 20.3015 12.2405 20.2816 12.0612L20.2024 11.3487C19.6612 11.6058 19.0558 11.7497 18.4167 11.7497C18.3556 11.7497 18.2947 11.7484 18.2342 11.7457L18.2938 12.282L18.2952 12.2941C18.3133 12.4578 18.3242 12.5555 18.3372 12.6529C18.4907 13.8048 18.8658 14.9161 19.4418 15.9253C19.4904 16.0105 19.5409 16.0947 19.6255 16.2356L19.6256 16.2359L19.632 16.2466L20.2582 17.2903C20.5907 17.8444 20.7912 18.1818 20.9034 18.4328L20.9158 18.4611L20.8851 18.465C20.6122 18.4979 20.2197 18.4997 19.5735 18.4997H6.42666C5.78045 18.4997 5.38797 18.4979 5.11502 18.465L5.0844 18.4611L5.09679 18.4328C5.209 18.1818 5.40944 17.8444 5.74191 17.2903L6.36811 16.2466L6.37433 16.2362L6.37444 16.2361C6.45915 16.0949 6.5097 16.0106 6.55837 15.9253C7.13439 14.9161 7.5095 13.8048 7.66298 12.6529C7.67595 12.5555 7.68681 12.4578 7.705 12.2941L7.70634 12.282L7.97912 9.82698C8.26339 7.26855 10.4259 5.33301 13.0001 5.33301C13.6063 5.33301 14.1896 5.44034 14.731 5.63787C15.0663 5.00393 15.5603 4.46689 16.1601 4.07972C15.2064 3.60099 14.1317 3.33301 13.0001 3.33301ZM18.0371 5.44949C17.3253 5.57528 16.7334 6.04859 16.443 6.6879C17.2739 7.46153 17.8462 8.51493 18.0068 9.71095C18.1395 9.73637 18.2766 9.74967 18.4167 9.74967C19.0099 9.74967 19.5474 9.51128 19.9387 9.12508C19.6808 7.69893 19.0004 6.432 18.0371 5.44949Z" fill="#B6B3BA"/>
<path d="M9.86074 19.9397C10.0459 20.7459 10.4539 21.4583 11.0215 21.9665C11.5891 22.4746 12.2846 22.75 13 22.75C13.7154 22.75 14.4109 22.4746 14.9785 21.9665C15.5461 21.4583 15.9541 20.7459 16.1393 19.9397" stroke="#B6B3BA" stroke-width="2" stroke-linecap="round"/>
<ellipse cx="18.4167" cy="7.58366" rx="2.16667" ry="2.16667" fill="#B6B3BA"/>
</svg>
