<svg width="26" height="26" viewBox="0 0 26 26" fill="none" xmlns="http://www.w3.org/2000/svg">
<path fill-rule="evenodd" clip-rule="evenodd" d="M15.5969 3.82766C14.7909 3.50817 13.9141 3.33334 13 3.33334C9.40678 3.33334 6.38814 6.03516 5.99133 9.60645L5.71854 12.0615C5.69862 12.2408 5.69022 12.3159 5.68047 12.3891C5.5611 13.285 5.26935 14.1493 4.82133 14.9343C4.78474 14.9984 4.74591 15.0633 4.6531 15.2179L4.02689 16.2616L3.99743 16.3107C3.704 16.7997 3.43851 17.242 3.27094 17.6168C3.09893 18.0016 2.92908 18.5256 3.10707 19.0959C3.19187 19.3676 3.33367 19.618 3.52301 19.8305C3.92043 20.2765 4.4572 20.4005 4.8756 20.451C5.2832 20.5001 5.79913 20.5001 6.36937 20.5L6.42663 20.5H19.5735L19.6307 20.5C20.201 20.5001 20.7169 20.5001 21.1245 20.451C21.5429 20.4005 22.0797 20.2765 22.4771 19.8305C22.6664 19.618 22.8082 19.3676 22.893 19.0959C23.071 18.5256 22.9012 18.0016 22.7292 17.6168C22.5616 17.2421 22.2961 16.7997 22.0027 16.3107L22.0026 16.3107L21.9732 16.2616L21.347 15.2179C21.2542 15.0633 21.2154 14.9984 21.1788 14.9343C20.9349 14.507 20.7373 14.0562 20.5886 13.5895C19.9803 13.8394 19.3172 13.9835 18.6224 13.9986C18.8192 14.6692 19.0938 15.316 19.4418 15.9257C19.4904 16.0109 19.5409 16.095 19.6254 16.236L19.6256 16.2362L19.632 16.2469L20.2582 17.2906C20.5907 17.8447 20.7911 18.1822 20.9033 18.4332L20.9157 18.4614L20.8851 18.4654C20.6122 18.4983 20.2197 18.5 19.5735 18.5H6.42663C5.78042 18.5 5.38794 18.4983 5.11499 18.4654L5.08437 18.4614L5.09676 18.4332C5.20897 18.1822 5.40941 17.8447 5.74188 17.2906L6.36808 16.2469L6.3743 16.2366L6.37441 16.2364C6.45912 16.0952 6.50967 16.011 6.55834 15.9257C7.13436 14.9164 7.50947 13.8051 7.66295 12.6532C7.67592 12.5559 7.68678 12.4582 7.70497 12.2945L7.70631 12.2824L7.97909 9.82731C8.26336 7.26889 10.4259 5.33334 13 5.33334C13.3213 5.33334 13.6362 5.36349 13.9417 5.42123C14.375 4.781 14.9396 4.23691 15.5969 3.82766ZM17.668 5.09946C16.9495 5.27463 16.3179 5.67158 15.8498 6.21366C17.0281 7.01951 17.8529 8.31452 18.021 9.82731L18.2615 11.992C18.3403 11.9973 18.4198 12 18.5 12C19.1269 12 19.7154 11.8351 20.2243 11.5464L20.0088 9.60645C19.8085 7.80419 18.9405 6.22336 17.668 5.09946Z" fill="#B6B3BA"/>
<path d="M9.86074 19.9397C10.0459 20.7459 10.4539 21.4583 11.0215 21.9665C11.5891 22.4746 12.2846 22.75 13 22.75C13.7154 22.75 14.4109 22.4746 14.9785 21.9665C15.5461 21.4583 15.9541 20.7459 16.1393 19.9397" stroke="#B6B3BA" stroke-width="2" stroke-linecap="round"/>
<circle cx="18.5" cy="8.5" r="3.5" fill="#9D5CFF"/>
</svg>
