<svg width="26" height="26" viewBox="0 0 26 26" fill="none" xmlns="http://www.w3.org/2000/svg">
<path fill-rule="evenodd" clip-rule="evenodd" d="M13 3.33334C9.40675 3.33334 6.38811 6.03516 5.9913 9.60645L5.71851 12.0615C5.69859 12.2408 5.69019 12.3159 5.68044 12.3891C5.56107 13.285 5.26932 14.1493 4.8213 14.9343C4.78471 14.9984 4.74588 15.0633 4.65307 15.2179L4.02686 16.2616L3.9974 16.3107C3.70397 16.7997 3.43848 17.242 3.27091 17.6168C3.0989 18.0016 2.92905 18.5256 3.10704 19.0959C3.19184 19.3676 3.33364 19.618 3.52298 19.8305C3.9204 20.2765 4.45717 20.4005 4.87557 20.451C5.28316 20.5001 5.7991 20.5001 6.36933 20.5L6.4266 20.5H19.5734L19.6307 20.5C20.2009 20.5001 20.7169 20.5001 21.1245 20.451C21.5429 20.4005 22.0796 20.2765 22.4771 19.8305C22.6664 19.618 22.8082 19.3676 22.893 19.0959C23.071 18.5256 22.9011 18.0016 22.7291 17.6168C22.5616 17.2421 22.2961 16.7997 22.0026 16.3107L22.0026 16.3107L21.9732 16.2616L21.347 15.2179C21.2542 15.0633 21.2153 14.9984 21.1787 14.9343C20.7307 14.1493 20.439 13.285 20.3196 12.3891C20.3098 12.3159 20.3014 12.2408 20.2815 12.0615L20.2024 11.349C19.6611 11.6061 19.0557 11.75 18.4166 11.75C18.3555 11.75 18.2947 11.7487 18.2342 11.7461L18.2938 12.2824L18.2951 12.2945C18.3133 12.4582 18.3241 12.5559 18.3371 12.6532C18.4906 13.8051 18.8657 14.9164 19.4417 15.9257C19.4903 16.0109 19.5408 16.095 19.6254 16.236L19.6256 16.2362L19.632 16.2469L20.2582 17.2906C20.5907 17.8447 20.7911 18.1822 20.9033 18.4332L20.9157 18.4614L20.8851 18.4654C20.6121 18.4983 20.2196 18.5 19.5734 18.5H6.4266C5.78039 18.5 5.38791 18.4983 5.11495 18.4654L5.08434 18.4614L5.09673 18.4332C5.20894 18.1822 5.40938 17.8447 5.74185 17.2906L6.36805 16.2469L6.37427 16.2366L6.37438 16.2364C6.45909 16.0952 6.50964 16.011 6.55831 15.9257C7.13433 14.9164 7.50944 13.8051 7.66292 12.6532C7.67589 12.5559 7.68675 12.4582 7.70494 12.2945L7.70628 12.2824L7.97906 9.82731C8.26333 7.26889 10.4258 5.33334 13 5.33334C13.6062 5.33334 14.1896 5.44068 14.7309 5.63821C15.0662 5.00426 15.5602 4.46723 16.16 4.08005C15.2063 3.60133 14.1317 3.33334 13 3.33334ZM18.037 5.44982C17.3252 5.57561 16.7333 6.04893 16.4429 6.68823C17.2738 7.46186 17.8462 8.51527 18.0067 9.71129C18.1395 9.7367 18.2765 9.75001 18.4166 9.75001C19.0099 9.75001 19.5474 9.51162 19.9386 9.12541C19.6808 7.69927 19.0003 6.43234 18.037 5.44982Z" fill="#B6B3BA"/>
<path d="M9.86074 19.9397C10.0459 20.7459 10.4539 21.4583 11.0215 21.9665C11.5891 22.4746 12.2846 22.75 13 22.75C13.7154 22.75 14.4109 22.4746 14.9785 21.9665C15.5461 21.4583 15.9541 20.7459 16.1393 19.9397" stroke="#B6B3BA" stroke-width="2" stroke-linecap="round"/>
<ellipse cx="18.4167" cy="7.58332" rx="2.16667" ry="2.16667" fill="#9D5CFF"/>
</svg>
