<svg width="26" height="26" viewBox="0 0 26 26" fill="none" xmlns="http://www.w3.org/2000/svg">
<path fill-rule="evenodd" clip-rule="evenodd" d="M15.5969 3.82769C14.791 3.5082 13.9141 3.33337 13.0001 3.33337C9.40681 3.33337 6.38817 6.03519 5.99136 9.60648L5.71857 12.0615C5.69865 12.2408 5.69025 12.3159 5.6805 12.3891C5.56113 13.285 5.26938 14.1494 4.82136 14.9344C4.78477 14.9985 4.74594 15.0633 4.65313 15.218L4.02692 16.2616L3.99746 16.3108C3.70403 16.7997 3.43854 17.2421 3.27097 17.6169C3.09896 18.0016 2.92911 18.5257 3.1071 19.0959C3.1919 19.3676 3.3337 19.6181 3.52304 19.8306C3.92046 20.2766 4.45723 20.4006 4.87563 20.451C5.28323 20.5001 5.79916 20.5001 6.3694 20.5L6.42666 20.5H19.5735L19.6308 20.5C20.201 20.5001 20.7169 20.5001 21.1245 20.451C21.5429 20.4006 22.0797 20.2766 22.4771 19.8306C22.6665 19.6181 22.8083 19.3676 22.8931 19.0959C23.071 18.5257 22.9012 18.0016 22.7292 17.6169C22.5616 17.2421 22.2961 16.7997 22.0027 16.3108L22.0027 16.3107L21.9732 16.2616L21.347 15.218C21.2542 15.0633 21.2154 14.9985 21.1788 14.9344C20.9349 14.507 20.7373 14.0562 20.5887 13.5895C19.9803 13.8395 19.3173 13.9835 18.6225 13.9987C18.8192 14.6692 19.0938 15.3161 19.4418 15.9257C19.4904 16.0109 19.5409 16.0951 19.6255 16.236L19.6256 16.2363L19.632 16.247L20.2582 17.2906C20.5907 17.8448 20.7912 18.1822 20.9034 18.4332L20.9158 18.4615L20.8851 18.4654C20.6122 18.4983 20.2197 18.5 19.5735 18.5H6.42666C5.78045 18.5 5.38797 18.4983 5.11502 18.4654L5.0844 18.4615L5.09679 18.4332C5.209 18.1822 5.40944 17.8448 5.74191 17.2906L6.36811 16.247L6.37433 16.2366L6.37444 16.2364C6.45915 16.0952 6.5097 16.011 6.55837 15.9257C7.13439 14.9164 7.5095 13.8052 7.66298 12.6532C7.67595 12.5559 7.68681 12.4582 7.705 12.2945L7.70634 12.2824L7.97912 9.82734C8.26339 7.26892 10.4259 5.33337 13.0001 5.33337C13.3213 5.33337 13.6362 5.36352 13.9418 5.42126C14.375 4.78103 14.9397 4.23694 15.5969 3.82769ZM17.668 5.09949C16.9495 5.27467 16.318 5.67161 15.8499 6.21369C17.0282 7.01954 17.8529 8.31455 18.021 9.82734L18.2615 11.992C18.3403 11.9973 18.4199 12 18.5 12C19.1269 12 19.7154 11.8352 20.2244 11.5465L20.0088 9.60648C19.8085 7.80422 18.9406 6.22339 17.668 5.09949Z" fill="#B6B3BA"/>
<path d="M9.86074 19.9397C10.0459 20.7459 10.4539 21.4583 11.0215 21.9665C11.5891 22.4746 12.2846 22.75 13 22.75C13.7154 22.75 14.4109 22.4746 14.9785 21.9665C15.5461 21.4583 15.9541 20.7459 16.1393 19.9397" stroke="#B6B3BA" stroke-width="2" stroke-linecap="round"/>
<circle cx="18.5" cy="8.5" r="3.5" fill="#B6B3BA"/>
</svg>
