<svg width="20" height="20" viewBox="0 0 20 20" fill="none" xmlns="http://www.w3.org/2000/svg">
<path d="M4.99992 9.16663C4.8351 9.16663 4.67398 9.2155 4.53694 9.30707C4.3999 9.39864 4.29309 9.52878 4.23002 9.68106C4.16695 9.83333 4.15044 10.0009 4.1826 10.1625C4.21475 10.3242 4.29412 10.4727 4.41066 10.5892C4.52721 10.7058 4.67569 10.7851 4.83734 10.8173C4.99899 10.8494 5.16655 10.8329 5.31882 10.7699C5.47109 10.7068 5.60124 10.6 5.69281 10.4629C5.78438 10.3259 5.83325 10.1648 5.83325 9.99996C5.83325 9.77895 5.74545 9.56698 5.58917 9.4107C5.43289 9.25442 5.22093 9.16663 4.99992 9.16663ZM14.9999 9.16663C14.8351 9.16663 14.674 9.2155 14.5369 9.30707C14.3999 9.39864 14.2931 9.52878 14.23 9.68106C14.1669 9.83333 14.1504 10.0009 14.1826 10.1625C14.2148 10.3242 14.2941 10.4727 14.4107 10.5892C14.5272 10.7058 14.6757 10.7851 14.8373 10.8173C14.999 10.8494 15.1665 10.8329 15.3188 10.7699C15.4711 10.7068 15.6012 10.6 15.6928 10.4629C15.7844 10.3259 15.8333 10.1648 15.8333 9.99996C15.8333 9.77895 15.7455 9.56698 15.5892 9.4107C15.4329 9.25442 15.2209 9.16663 14.9999 9.16663ZM16.6666 4.16663H3.33325C2.67021 4.16663 2.03433 4.43002 1.56548 4.89886C1.09664 5.3677 0.833252 6.00358 0.833252 6.66663V13.3333C0.833252 13.9963 1.09664 14.6322 1.56548 15.1011C2.03433 15.5699 2.67021 15.8333 3.33325 15.8333H16.6666C17.3296 15.8333 17.9655 15.5699 18.4344 15.1011C18.9032 14.6322 19.1666 13.9963 19.1666 13.3333V6.66663C19.1666 6.00358 18.9032 5.3677 18.4344 4.89886C17.9655 4.43002 17.3296 4.16663 16.6666 4.16663ZM17.4999 13.3333C17.4999 13.5543 17.4121 13.7663 17.2558 13.9225C17.0996 14.0788 16.8876 14.1666 16.6666 14.1666H3.33325C3.11224 14.1666 2.90028 14.0788 2.744 13.9225C2.58772 13.7663 2.49992 13.5543 2.49992 13.3333V6.66663C2.49992 6.44561 2.58772 6.23365 2.744 6.07737C2.90028 5.92109 3.11224 5.83329 3.33325 5.83329H16.6666C16.8876 5.83329 17.0996 5.92109 17.2558 6.07737C17.4121 6.23365 17.4999 6.44561 17.4999 6.66663V13.3333ZM9.99992 7.49996C9.50546 7.49996 9.02212 7.64658 8.61099 7.92129C8.19987 8.19599 7.87944 8.58644 7.69022 9.04325C7.501 9.50007 7.45149 10.0027 7.54795 10.4877C7.64442 10.9726 7.88252 11.4181 8.23215 11.7677C8.58178 12.1174 9.02724 12.3555 9.51219 12.4519C9.99714 12.5484 10.4998 12.4989 10.9566 12.3097C11.4134 12.1204 11.8039 11.8 12.0786 11.3889C12.3533 10.9778 12.4999 10.4944 12.4999 9.99996C12.4999 9.33692 12.2365 8.70103 11.7677 8.23219C11.2988 7.76335 10.663 7.49996 9.99992 7.49996ZM9.99992 10.8333C9.8351 10.8333 9.67398 10.7844 9.53694 10.6929C9.3999 10.6013 9.29309 10.4711 9.23002 10.3189C9.16695 10.1666 9.15044 9.99903 9.1826 9.83738C9.21475 9.67573 9.29412 9.52725 9.41066 9.4107C9.52721 9.29416 9.67569 9.21479 9.83734 9.18264C9.99899 9.15048 10.1665 9.16699 10.3188 9.23006C10.4711 9.29313 10.6012 9.39994 10.6928 9.53698C10.7844 9.67402 10.8333 9.83514 10.8333 9.99996C10.8333 10.221 10.7455 10.4329 10.5892 10.5892C10.4329 10.7455 10.2209 10.8333 9.99992 10.8333Z" fill="white"/>
</svg>
