<svg width="20" height="20" viewBox="0 0 20 20" fill="none" xmlns="http://www.w3.org/2000/svg">
<path d="M3.93762 7.35837V7.35837C4.55726 7.35837 5.15152 7.60452 5.58966 8.04267L5.75214 8.20515V8.20515C7.07351 9.52651 9.1219 10.0362 10.4433 11.3576L11.4812 12.3955C11.7086 12.6277 12.0473 12.739 12.4102 12.6519C12.7441 12.5697 13.0199 12.2939 13.1022 11.96C13.1893 11.5971 13.078 11.2584 12.8457 11.031L11.8005 9.98579C11.0941 9.27934 10.7022 8.32127 10.7118 7.31966C10.7167 6.79708 11.1667 6.39062 11.6893 6.39062C12.8747 6.39546 13.9151 6.88417 14.6747 7.69708C14.9264 7.96321 15.0667 8.32127 15.0667 8.68902V10.9148" stroke="white" stroke-width="1.3125" stroke-miterlimit="10"/>
<path d="M2.48438 3H12.6457C13.2554 3 13.8263 3.28548 14.1941 3.7742L16.807 7.26291C16.928 7.42259 17.0005 7.62098 17.0005 7.83872V11.6516C17.0005 11.9274 16.8941 12.1936 16.7102 12.3823" stroke="white" stroke-width="1.3125" stroke-miterlimit="10" stroke-linecap="round" stroke-linejoin="round"/>
<path d="M12.8465 11.0289C13.2258 10.8468 13.6498 10.7422 14.0985 10.7422C14.4373 10.7422 14.7615 10.8003 15.0663 10.9115C15.7873 11.1632 16.3824 11.7003 16.7115 12.3825C16.9002 12.7648 17.0018 13.1906 17.0018 13.6454C17.0018 15.247 15.7002 16.5487 14.0985 16.5487C12.4969 16.5487 11.1953 15.2489 11.1953 13.6454C11.1953 13.1966 11.3 12.7726 11.482 12.3934" stroke="white" stroke-width="1.3125" stroke-miterlimit="10"/>
</svg>
