<svg width="20" height="21" viewBox="0 0 20 21" fill="none" xmlns="http://www.w3.org/2000/svg">
<g opacity="0.9">
<path d="M3.93359 7.85739V7.85739C4.55323 7.85739 5.14748 8.10354 5.58563 8.54168L5.74811 8.70416V8.70416C7.06946 10.0255 9.11785 10.5352 10.4392 11.8566L11.4771 12.8945C11.7045 13.1267 12.0433 13.238 12.4062 13.1509C12.74 13.0687 13.0158 12.7929 13.0981 12.459C13.1852 12.0961 13.0739 11.7574 12.8416 11.53L11.7965 10.4848C11.09 9.77835 10.6981 8.82029 10.7078 7.81868C10.7126 7.2961 11.1626 6.88965 11.6852 6.88965C12.8707 6.89449 13.911 7.3832 14.6707 8.1961C14.9223 8.46223 15.0626 8.82029 15.0626 9.18803V11.4138" stroke="#9F9DA3" stroke-width="1.3125" stroke-miterlimit="10"/>
<path d="M2.48438 3.49902H12.6456C13.2553 3.49902 13.8263 3.78451 14.194 4.27322L16.8069 7.76192C16.9279 7.92159 17.0005 8.11998 17.0005 8.33772V12.1506C17.0005 12.4264 16.894 12.6926 16.7102 12.8813" stroke="#9F9DA3" stroke-width="1.3125" stroke-miterlimit="10" stroke-linecap="round" stroke-linejoin="round"/>
<path d="M12.8465 11.5308C13.2258 11.3488 13.6497 11.2441 14.0985 11.2441C14.4372 11.2441 14.7614 11.3022 15.0663 11.4135C15.7872 11.6651 16.3824 12.2022 16.7114 12.8845C16.9001 13.2667 17.0018 13.6925 17.0018 14.1474C17.0018 15.749 15.7001 17.0506 14.0985 17.0506C12.4969 17.0506 11.1953 15.7508 11.1953 14.1474C11.1953 13.6986 11.2999 13.2746 11.482 12.8953" stroke="#9F9DA3" stroke-width="1.3125" stroke-miterlimit="10"/>
</g>
</svg>
