<svg width="20" height="21" viewBox="0 0 20 21" fill="none" xmlns="http://www.w3.org/2000/svg">
<g opacity="0.9">
<path d="M3.93359 7.35739V7.35739C4.55323 7.35739 5.14748 7.60354 5.58563 8.04168L5.74811 8.20416V8.20416C7.06946 9.52552 9.11785 10.0352 10.4392 11.3566L11.4771 12.3945C11.7045 12.6267 12.0433 12.738 12.4062 12.6509C12.74 12.5687 13.0158 12.2929 13.0981 11.959C13.1852 11.5961 13.0739 11.2574 12.8416 11.03L11.7965 9.9848C11.09 9.27835 10.6981 8.32029 10.7078 7.31868C10.7126 6.7961 11.1626 6.38965 11.6852 6.38965C12.8707 6.39449 13.911 6.8832 14.6707 7.6961C14.9223 7.96223 15.0626 8.32029 15.0626 8.68803V10.9138" stroke="white" stroke-width="1.3125" stroke-miterlimit="10"/>
<path d="M2.48438 2.99902H12.6456C13.2553 2.99902 13.8263 3.28451 14.194 3.77322L16.8069 7.26192C16.9279 7.42159 17.0005 7.61998 17.0005 7.83772V11.6506C17.0005 11.9264 16.894 12.1926 16.7102 12.3813" stroke="white" stroke-width="1.3125" stroke-miterlimit="10" stroke-linecap="round" stroke-linejoin="round"/>
<path d="M12.8465 11.0308C13.2258 10.8488 13.6497 10.7441 14.0985 10.7441C14.4372 10.7441 14.7614 10.8022 15.0663 10.9135C15.7872 11.1651 16.3824 11.7022 16.7114 12.3845C16.9001 12.7667 17.0018 13.1925 17.0018 13.6474C17.0018 15.249 15.7001 16.5506 14.0985 16.5506C12.4969 16.5506 11.1953 15.2508 11.1953 13.6474C11.1953 13.1986 11.2999 12.7746 11.482 12.3953" stroke="white" stroke-width="1.3125" stroke-miterlimit="10"/>
</g>
</svg>
