<svg width="20" height="20" viewBox="0 0 20 20" fill="none" xmlns="http://www.w3.org/2000/svg">
<g clip-path="url(#clip0_4130_45309)">
<g clip-path="url(#clip1_4130_45309)">
<path d="M4.33 4.20998C4.24 4.07998 4.09 3.99998 3.93 3.99998H3.12C2.99 3.99998 2.86 4.04998 2.76 4.14998C2.66 4.24998 2.61 4.36998 2.61 4.50998C2.62 5.11998 1.93 6.59998 1.15 7.37998C1.06 7.46998 1 7.59998 1 7.72998C1 7.85998 1.05 7.98998 1.15 8.08998C1.25 8.18998 1.37 8.23998 1.5 8.23998C1.64 8.23998 1.76 8.18998 1.86 8.08998C2.14 7.79998 2.39 7.47998 2.61 7.13998V12.08H1.51C1.38 12.08 1.25 12.13 1.15 12.23C1.05 12.33 1 12.45 1 12.59V13.4C1 13.53 1.05 13.66 1.15 13.76C1.24 13.86 1.37 13.91 1.51 13.91H2.62V15.02C2.62 15.15 2.67 15.28 2.77 15.38C2.86 15.48 2.99 15.53 3.13 15.53H3.94C4.08 15.53 4.2 15.48 4.3 15.38C4.4 15.29 4.45 15.16 4.45 15.02V13.91H15.53V15.02C15.53 15.16 15.58 15.28 15.68 15.38C15.77 15.47 15.9 15.53 16.04 15.53H16.85C16.98 15.53 17.11 15.48 17.21 15.38C17.31 15.29 17.36 15.16 17.36 15.02V13.91H18.47C18.6 13.91 18.73 13.86 18.83 13.76C18.93 13.67 18.98 13.54 18.98 13.4V12.59C18.98 12.46 18.93 12.33 18.83 12.23C18.74 12.14 18.61 12.08 18.47 12.08H17.36V7.12998C17.58 7.46998 17.83 7.78998 18.11 8.07998C18.2 8.17998 18.33 8.22998 18.47 8.22998C18.6 8.22998 18.73 8.17998 18.82 8.07998C18.92 7.97998 18.97 7.84998 18.97 7.71998C18.97 7.57998 18.92 7.45998 18.82 7.35998C18.04 6.57998 17.35 5.10998 17.35 4.48998C17.35 4.35998 17.3 4.22998 17.2 4.12998C17.11 4.02998 16.98 3.97998 16.84 3.97998H16.03C15.83 3.97998 15.65 4.09998 15.58 4.27998H15.56L15.54 4.37998C14.86 7.44998 12.67 9.42998 9.98 9.42998C7.29 9.42998 5.1 7.45998 4.42 4.38998M15.53 7.16998V12.08H4.43V7.16998C5.67 9.26998 7.67 10.46 9.98 10.46C12.29 10.46 14.29 9.26998 15.53 7.16998Z" fill="white"/>
</g>
</g>
<defs>
<clipPath id="clip0_4130_45309">
<rect width="18.16" height="11.7" fill="white" transform="translate(1 4)"/>
</clipPath>
<clipPath id="clip1_4130_45309">
<rect width="17.96" height="11.5" fill="white" transform="translate(1 4)"/>
</clipPath>
</defs>
</svg>
