<svg width="20" height="20" viewBox="0 0 20 20" fill="none" xmlns="http://www.w3.org/2000/svg">
<path d="M17.8635 12.3769H16.757V7.44781C16.9911 7.85867 17.2752 8.23903 17.6026 8.58025C17.6716 8.65089 17.7658 8.69102 17.8645 8.69164C17.963 8.69225 18.0579 8.65335 18.1276 8.58358C18.1973 8.51393 18.2362 8.41908 18.2356 8.32053C18.2349 8.22186 18.1949 8.12751 18.1243 8.05873C17.401 7.33541 16.757 5.95154 16.757 5.36876C16.757 5.27095 16.7182 5.17709 16.649 5.10794C16.5799 5.03878 16.486 4.99988 16.3881 5H15.6504C15.4789 5.00136 15.3317 5.12238 15.2974 5.29046L15.2903 5.28886C14.6571 8.138 12.627 9.97921 10.1178 9.97921C7.60865 9.97921 5.57861 8.13791 4.94537 5.28886L4.93981 5.29812V5.29799C4.90844 5.12646 4.75951 5.00136 4.58513 5H3.84749C3.74956 4.99988 3.6557 5.03878 3.58655 5.10794C3.51739 5.17709 3.47861 5.27095 3.47861 5.36876C3.47861 5.95154 2.83459 7.33541 2.11128 8.05873C2.04064 8.12751 2.00062 8.22186 2.00001 8.32053C1.99939 8.41908 2.03829 8.51393 2.10794 8.58358C2.17772 8.65335 2.27256 8.69225 2.37111 8.69164C2.46978 8.69102 2.56401 8.65088 2.63292 8.58025C2.96041 8.23903 3.24447 7.85867 3.47861 7.44781V12.3769H2.3721C2.27429 12.3769 2.18043 12.4156 2.11128 12.4848C2.04199 12.5539 2.00322 12.6478 2.00322 12.7457V13.4834C2.00322 13.5812 2.04199 13.675 2.11128 13.7442C2.18043 13.8135 2.27429 13.8522 2.3721 13.8522H3.47861V14.9588C3.47861 15.0566 3.51739 15.1504 3.58655 15.2196C3.6557 15.2887 3.74956 15.3276 3.84749 15.3275H4.58513C4.68293 15.3276 4.77679 15.2887 4.84595 15.2196C4.91523 15.1504 4.95401 15.0566 4.95401 14.9588V13.8522H15.2813V14.9588C15.2813 15.0566 15.32 15.1504 15.3893 15.2196C15.4585 15.2887 15.5523 15.3276 15.6501 15.3275H16.3878C16.4857 15.3276 16.5796 15.2887 16.6487 15.2196C16.7179 15.1504 16.7567 15.0566 16.7567 14.9588V13.8522H17.8632C17.961 13.8522 18.0548 13.8135 18.124 13.7442C18.1933 13.675 18.2321 13.5812 18.2321 13.4834V12.7457C18.2321 12.6478 18.1933 12.5539 18.124 12.4848C18.0548 12.4156 17.961 12.3769 17.8632 12.3769L17.8635 12.3769ZM10.1179 10.7171C12.3313 10.7171 14.2104 9.4825 15.2815 7.45002V12.3769H4.95424V7.45002C6.02532 9.48262 7.90452 10.7171 10.1179 10.7171Z" fill="white"/>
</svg>
