<svg width="24" height="25" viewBox="0 0 24 25" fill="none" xmlns="http://www.w3.org/2000/svg">
<path d="M17.3798 16.4769L17.3583 16.4563H16.2333V8.83026C16.2333 8.62443 16.15 8.43146 15.997 8.28738C15.8439 8.14073 15.6426 8.06097 15.4278 8.06097H14.7055V7.46406C14.7055 6.93404 14.5014 6.42719 14.1282 6.03611L10.533 2.25655C10.2349 1.94008 9.72479 1.91178 9.39453 2.19737C9.06427 2.48296 9.03742 2.97181 9.33546 3.29085L12.9468 7.08584C13.0461 7.19133 13.1025 7.32512 13.1025 7.46406V8.06097H8.2534L7.99564 7.57469C7.90435 7.38944 7.73519 7.24279 7.53113 7.1759C7.32707 7.109 7.09884 7.12186 6.90552 7.21449C6.7122 7.30711 6.56452 7.47435 6.50008 7.67246C6.43564 7.87057 6.45712 8.08669 6.55647 8.26165L8.8441 12.6098C8.9166 12.7488 8.92734 12.9134 8.87364 13.0601C8.81994 13.2067 8.70448 13.3277 8.55681 13.3945C8.40913 13.4614 8.23729 13.464 8.08961 13.41L8.02249 13.3843C7.89629 13.3354 7.78889 13.2479 7.71908 13.1321L6.19936 10.6441C6.13224 10.5335 6.05437 10.428 5.96577 10.3302L4.1507 8.30539C3.95201 8.08412 3.84192 7.80111 3.83923 7.5078L3.80164 2.85346C3.80164 2.64763 3.71841 2.45466 3.56536 2.30801C3.415 2.16393 3.20826 2.08159 2.99614 2.08159C2.55848 2.08159 2.19869 2.42893 2.19869 2.85603L2.23628 7.51552C2.24434 8.1716 2.49404 8.8071 2.94244 9.30367L3.82581 10.2891V16.4614H2.80282C2.35979 16.4614 2 16.8062 2 17.2307C2 17.6552 2.35979 18 2.80282 18H17.1972C17.6402 18 18 17.6552 18 17.2307C18 16.8679 17.7396 16.5592 17.3798 16.482V16.4769ZM10.1893 13.9683C10.592 13.3379 10.627 12.5661 10.2779 11.9074L9.06159 9.60212H14.6249V16.4588H5.41534V12.404L6.33093 13.9065C6.57795 14.3131 6.96728 14.6321 7.42373 14.8071L7.50696 14.8379C7.76473 14.9331 8.03591 14.982 8.31515 14.982C9.08575 14.9794 9.78923 14.6012 10.192 13.9709L10.1893 13.9683Z" fill="white"/>
</svg>
