<svg width="20" height="21" viewBox="0 0 20 21" fill="none" xmlns="http://www.w3.org/2000/svg">
<path d="M16.4048 9.23827C16.1128 8.94626 15.7247 8.78571 15.3116 8.78571H12.4112C12.2235 8.78571 12.0474 8.86339 11.9239 8.99884C11.8 9.13469 11.739 9.31755 11.7566 9.50081C11.7773 9.66455 11.859 9.81673 11.9857 9.92669C12.1123 10.0362 12.2745 10.0944 12.4446 10.0924H14.6259L9.04857 15.6694C8.88402 15.834 8.81908 16.0762 8.87924 16.3009C8.9394 16.526 9.1167 16.7029 9.3414 16.7634C9.5665 16.824 9.80834 16.759 9.97288 16.5941L15.5502 11.0171V13.2317C15.5494 13.417 15.6271 13.5946 15.7634 13.7189C15.9 13.8432 16.0837 13.9042 16.2674 13.8863C16.4315 13.8647 16.5821 13.7831 16.6913 13.6572C16.8016 13.5297 16.8606 13.3668 16.857 13.1986V10.3315C16.857 9.91872 16.6961 9.53069 16.404 9.23867L16.4048 9.23827Z" fill="#9D99A1"/>
<path d="M8.0141 11.0733C7.88662 10.9629 7.72329 10.9048 7.55558 10.9076H5.37456L10.9512 5.33057C11.0747 5.20707 11.1428 5.04293 11.1428 4.86804C11.1428 4.69315 11.0747 4.52942 10.9512 4.40592C10.8297 4.28401 10.6608 4.21429 10.4887 4.21429C10.3166 4.21429 10.1501 4.28242 10.0266 4.40592L4.44997 9.9833V7.76868C4.45076 7.58343 4.37308 7.40575 4.23684 7.28146C4.11614 7.1715 3.95839 7.11095 3.79626 7.11095C3.77514 7.11095 3.75403 7.11214 3.73292 7.11414C3.56919 7.13565 3.41821 7.21732 3.30906 7.34321C3.19872 7.47029 3.13976 7.63323 3.14295 7.80175V10.6689C3.14295 11.0816 3.30388 11.4697 3.59588 11.7617C3.88788 12.0537 4.27588 12.2143 4.68898 12.2143H7.58905C7.77269 12.2162 7.95036 12.139 8.07624 12.0011C8.20013 11.8653 8.26108 11.6824 8.24355 11.4992C8.22284 11.3354 8.14117 11.1832 8.0145 11.0733H8.0141Z" fill="#9D99A1"/>
</svg>
