<svg width="20" height="20" viewBox="0 0 20 20" fill="none" xmlns="http://www.w3.org/2000/svg">
<g opacity="1">
<g clip-path="url(#clip0_2_3581)">
<path d="M8.01192 11.3905L5.28174 11.3127C5.11667 11.3089 4.95161 11.3696 4.83018 11.4853C4.70686 11.6011 4.63666 11.7585 4.63287 11.9255C4.62718 12.0943 4.68979 12.2632 4.80742 12.3846L4.8226 12.3998C4.93833 12.5136 5.09011 12.5782 5.25138 12.5838L6.41631 12.6161L3.60075 15.4317C3.47932 15.5569 3.41292 15.7295 3.42051 15.8927C3.42241 16.0597 3.49071 16.2171 3.60644 16.331L3.65387 16.3765C3.76771 16.4676 3.90811 16.515 4.0523 16.515C4.06748 16.515 4.08076 16.515 4.09594 16.515C4.25531 16.5055 4.40519 16.4353 4.51334 16.3234L7.31562 13.5211L7.34407 14.6803C7.34787 14.853 7.42186 15.018 7.54519 15.13C7.66851 15.2457 7.82598 15.3102 7.99864 15.3026C8.1656 15.2988 8.32876 15.2249 8.4426 15.1034C8.56023 14.9801 8.62094 14.8188 8.61715 14.6481L8.53746 11.9198C8.52987 11.6314 8.29841 11.3999 8.01192 11.3924V11.3905Z" fill="white"/>
<path d="M10.0009 3C6.13999 3 3 6.13999 3 10.0009C3 10.4202 3.33961 10.7599 3.75891 10.7599C4.17821 10.7599 4.51782 10.4202 4.51782 10.0009C4.51782 6.97859 6.97669 4.51782 10.0009 4.51782C13.0252 4.51782 15.4841 6.97669 15.4841 10.0009C15.4841 13.0252 13.0252 15.4841 10.0009 15.4841C9.58165 15.4841 9.24204 15.8237 9.24204 16.243C9.24204 16.6623 9.58165 17.0019 10.0009 17.0019C13.86 17.0019 17.0019 13.8619 17.0019 10.0009C17.0019 6.13999 13.86 3 10.0009 3Z" fill="white"/>
</g>
</g>
<defs>
<clipPath id="clip0_2_3581">
<rect width="14" height="14" fill="white" transform="translate(3 3)"/>
</clipPath>
</defs>
</svg>
