<svg width="20" height="20" viewBox="0 0 20 20" fill="none" xmlns="http://www.w3.org/2000/svg">
<path d="M16.4051 8.73827C16.113 8.44626 15.725 8.28571 15.3118 8.28571H12.4114C12.2237 8.28571 12.0477 8.36339 11.9241 8.49884C11.8002 8.63469 11.7393 8.81755 11.7568 9.00081C11.7775 9.16455 11.8592 9.31673 11.9859 9.42669C12.1126 9.53624 12.2747 9.59441 12.4449 9.59242H14.6262L9.04881 15.1694C8.88427 15.334 8.81933 15.5762 8.87949 15.8009C8.93965 16.026 9.11694 16.2029 9.34164 16.2634C9.56675 16.324 9.80858 16.259 9.97313 16.0941L15.5505 10.5171V12.7317C15.5497 12.917 15.6274 13.0946 15.7636 13.2189C15.9003 13.3432 16.084 13.4042 16.2676 13.3863C16.4318 13.3648 16.5824 13.2831 16.6915 13.1572C16.8019 13.0297 16.8609 12.8668 16.8573 12.6986V9.83145C16.8573 9.41872 16.6963 9.03069 16.4043 8.73867L16.4051 8.73827Z" fill="white"/>
<path d="M8.01385 10.5733C7.88638 10.4629 7.72305 10.4048 7.55534 10.4076H5.37432L10.951 4.83057C11.0745 4.70707 11.1426 4.54293 11.1426 4.36804C11.1426 4.19315 11.0745 4.02942 10.951 3.90592C10.8295 3.78401 10.6606 3.71429 10.4885 3.71429C10.3164 3.71429 10.1499 3.78242 10.0264 3.90592L4.44972 9.4833V7.26868C4.45052 7.08343 4.37284 6.90575 4.2366 6.78146C4.1159 6.6715 3.95814 6.61095 3.79601 6.61095C3.7749 6.61095 3.75379 6.61214 3.73267 6.61414C3.56895 6.63565 3.41797 6.71732 3.30882 6.84321C3.19847 6.97029 3.13951 7.13323 3.1427 7.30175V10.1689C3.1427 10.5816 3.30364 10.9697 3.59564 11.2617C3.88764 11.5537 4.27564 11.7143 4.68874 11.7143H7.5888C7.77245 11.7162 7.95012 11.639 8.076 11.5011C8.19989 11.3653 8.26084 11.1824 8.24331 10.9992C8.22259 10.8354 8.14093 10.6832 8.01425 10.5733H8.01385Z" fill="white"/>
</svg>
