<svg width="20" height="20" viewBox="0 0 20 20" fill="none" xmlns="http://www.w3.org/2000/svg">
<path d="M17.2059 8.58055C16.8774 8.25203 16.4409 8.07141 15.9761 8.07141H12.7131C12.502 8.07141 12.3039 8.15881 12.1649 8.31119C12.0255 8.46402 11.9569 8.66974 11.9767 8.87591C12 9.06011 12.0918 9.23132 12.2344 9.35502C12.3769 9.47827 12.5593 9.5437 12.7507 9.54146H15.2047L8.93016 15.8156C8.74505 16.0007 8.67199 16.2732 8.73967 16.526C8.80735 16.7792 9.0068 16.9782 9.25959 17.0463C9.51283 17.1145 9.7849 17.0414 9.97001 16.8559L16.2445 10.5817V13.0732C16.2436 13.2816 16.331 13.4815 16.4843 13.6213C16.6381 13.7611 16.8447 13.8297 17.0513 13.8095C17.236 13.7853 17.4054 13.6935 17.5282 13.5518C17.6524 13.4084 17.7187 13.2251 17.7147 13.036V9.81037C17.7147 9.34605 17.5336 8.90952 17.2051 8.581L17.2059 8.58055Z" fill="white"/>
<path d="M7.76534 10.645C7.62193 10.5208 7.43819 10.4554 7.24951 10.4585H4.79586L11.0696 4.1844C11.2085 4.04546 11.2852 3.86081 11.2852 3.66406C11.2852 3.4673 11.2085 3.2831 11.0696 3.14416C10.9329 3.00702 10.7429 2.92859 10.5493 2.92859C10.3557 2.92859 10.1684 3.00523 10.0294 3.14416L3.75569 9.41872V6.92728C3.75659 6.71887 3.6692 6.51898 3.51593 6.37915C3.38014 6.25545 3.20267 6.18733 3.02027 6.18733C2.99652 6.18733 2.97277 6.18867 2.94901 6.19091C2.76482 6.21511 2.59497 6.30699 2.47218 6.44862C2.34804 6.59159 2.28171 6.77489 2.28529 6.96447V10.19C2.28529 10.6544 2.46635 11.0909 2.79485 11.4194C3.12335 11.7479 3.55985 11.9285 4.02459 11.9285H7.28716C7.49376 11.9308 7.69364 11.8438 7.83525 11.6888C7.97463 11.5359 8.0432 11.3302 8.02348 11.1241C8.00017 10.9399 7.9083 10.7686 7.76579 10.645H7.76534Z" fill="white"/>
</svg>
