<?xml version="1.0" encoding="UTF-8"?>
<svg xmlns="http://www.w3.org/2000/svg" xmlns:xlink="http://www.w3.org/1999/xlink" width="1000px" height="1000px" viewBox="0 0 1000 1000" version="1.1">
<g id="surface1">
<path style=" stroke:none;fill-rule:nonzero;fill:rgb(61.568627%,36.078431%,100%);fill-opacity:1;" d="M 835.992188 815.476562 L 739.660156 719.085938 C 722.332031 701.746094 734.625 672.164062 759.082031 672.164062 L 836.964844 672.164062 C 925.191406 672.164062 996.734375 600.574219 996.734375 512.300781 L 3.238281 512.300781 C 3.238281 600.574219 74.78125 672.164062 163 672.164062 L 240.886719 672.164062 C 265.34375 672.164062 277.640625 701.746094 260.308594 719.085938 L 163.980469 815.476562 C 153.257812 826.207031 153.257812 843.617188 163.980469 854.351562 L 238.074219 928.492188 C 248.800781 939.226562 266.195312 939.226562 276.921875 928.492188 L 373.25 832.097656 C 390.578125 814.757812 420.136719 827.058594 420.136719 851.535156 L 420.136719 970.242188 C 420.136719 985.425781 432.433594 997.726562 447.601562 997.726562 L 552.433594 997.726562 C 567.605469 997.726562 579.898438 985.425781 579.898438 970.242188 L 579.898438 851.535156 C 579.898438 827.058594 609.457031 814.757812 626.789062 832.097656 L 723.117188 928.492188 C 733.839844 939.226562 751.234375 939.226562 761.960938 928.492188 L 836.058594 854.351562 C 846.773438 843.617188 846.773438 826.207031 836.058594 815.476562 Z M 835.992188 815.476562 "/>
<path style=" stroke:none;fill-rule:nonzero;fill:rgb(100%,100%,100%);fill-opacity:1;" d="M 97.152344 414.410156 C 136.78125 228.300781 302.363281 88.261719 499.988281 88.261719 C 697.617188 88.261719 863.199219 228.300781 902.824219 414.410156 Z M 97.152344 414.410156 "/>
<path style=" stroke:none;fill-rule:nonzero;fill:rgb(24.705882%,14.509804%,40%);fill-opacity:1;" d="M 499.988281 174.179688 C 616.722656 174.179688 719.328125 235.886719 776.875 328.417969 L 223.105469 328.417969 C 280.71875 235.886719 383.324219 174.179688 500.054688 174.179688 Z M 500.054688 2.269531 C 225.523438 2.269531 2.261719 225.679688 2.261719 500.324219 L 997.714844 500.324219 C 997.714844 225.679688 774.457031 2.269531 499.988281 2.269531 Z M 500.054688 2.269531 "/>
<path style=" stroke:none;fill-rule:nonzero;fill:rgb(100%,100%,100%);fill-opacity:1;" d="M 275.375 414.410156 C 310.035156 324.039062 397.664062 259.714844 500.007812 259.714844 C 602.351562 259.714844 689.984375 324.039062 724.644531 414.410156 Z M 275.375 414.410156 "/>
<path style=" stroke:none;fill-rule:nonzero;fill:rgb(36.862745%,21.568627%,60%);fill-opacity:1;" d="M 500.007812 173.792969 C 319.777344 173.792969 173.617188 319.984375 173.617188 500.398438 L 826.398438 500.398438 C 826.398438 320.050781 680.238281 173.792969 500.007812 173.792969 Z M 500.007812 173.792969 "/>
<path style=" stroke:none;fill-rule:nonzero;fill:rgb(61.568627%,36.078431%,100%);fill-opacity:1;" d="M 654.601562 500.328125 L 345.410156 500.328125 C 345.410156 414.996094 414.730469 345.628906 500.003906 345.628906 C 585.28125 345.628906 654.601562 414.996094 654.601562 500.328125 Z M 654.601562 500.328125 "/>
</g>
</svg>
