<svg width="61" height="23" viewBox="0 0 61 23" fill="none" xmlns="http://www.w3.org/2000/svg">
<path d="M11.2969 5.78664C11.2969 6.62398 11.0971 7.40899 10.6976 8.14166C10.3129 8.87434 9.6989 9.46497 8.85552 9.91354C8.02693 10.3621 6.9764 10.5864 5.70393 10.5864H3.1072V16.5973H0V0.942011H5.70393C6.90242 0.942011 7.92336 1.15135 8.76674 1.57002C9.61013 1.98869 10.239 2.56436 10.6533 3.29704C11.0823 4.02971 11.2969 4.85958 11.2969 5.78664ZM5.57077 8.05195C6.42895 8.05195 7.06518 7.85757 7.47948 7.4688C7.89377 7.06508 8.10091 6.50436 8.10091 5.78664C8.10091 4.26148 7.25753 3.4989 5.57077 3.4989H3.1072V8.05195H5.57077Z" fill="#9D5CFF"/>
<path d="M14.5507 0V16.5973H11.4435V0H14.5507Z" fill="#9D5CFF"/>
<path d="M26.9913 10.1154C26.9913 10.564 26.9617 10.9677 26.9025 11.3266H17.9138C17.9878 12.2237 18.2985 12.9265 18.846 13.4349C19.3934 13.9433 20.0667 14.1974 20.8657 14.1974C22.0198 14.1974 22.8409 13.6965 23.3292 12.6947H26.6806C26.3254 13.8909 25.6448 14.8778 24.6387 15.6553C23.6325 16.4179 22.3971 16.7992 20.9322 16.7992C19.7485 16.7992 18.6832 16.5375 17.7363 16.0142C16.8041 15.4759 16.0717 14.7208 15.539 13.7489C15.0212 12.777 14.7622 11.6555 14.7622 10.3845C14.7622 9.09863 15.0212 7.96971 15.539 6.99779C16.0569 6.02588 16.7819 5.27825 17.7141 4.75491C18.6462 4.23157 19.7189 3.9699 20.9322 3.9699C22.1011 3.9699 23.1443 4.2241 24.0616 4.73248C24.9938 5.24087 25.7114 5.96607 26.2145 6.90808C26.7323 7.83514 26.9913 8.90424 26.9913 10.1154ZM23.7731 9.21825C23.7583 8.41081 23.4698 7.76785 22.9075 7.28937C22.3453 6.79594 21.6572 6.54922 20.8435 6.54922C20.0741 6.54922 19.423 6.78846 18.8904 7.26694C18.3725 7.73047 18.0544 8.38091 17.936 9.21825H23.7731Z" fill="#9D5CFF"/>
<path d="M34.0135 3.99233C35.4783 3.99233 36.662 4.46334 37.5645 5.40535C38.4671 6.33241 38.9184 7.63328 38.9184 9.30796V16.5973H35.8112V9.73411C35.8112 8.74724 35.5671 7.99214 35.0788 7.4688C34.5905 6.93051 33.9247 6.66136 33.0813 6.66136C32.2231 6.66136 31.5425 6.93051 31.0394 7.4688C30.5512 7.99214 30.307 8.74724 30.307 9.73411V16.5973H27.1998V4.17176H30.307V5.71935C30.7213 5.18106 31.2466 4.76239 31.8828 4.46334C32.5338 4.14933 33.2441 3.99233 34.0135 3.99233Z" fill="#9D5CFF"/>
<path d="M43.4314 6.75108V12.762C43.4314 13.1807 43.5276 13.4872 43.7199 13.6816C43.9271 13.861 44.2674 13.9507 44.7409 13.9507H46.1835V16.5973H44.2304C41.6115 16.5973 40.302 15.3114 40.302 12.7396V6.75108H38.8372V4.17176H40.302V1.09901H43.4314V4.17176H46.1835V6.75108H43.4314Z" fill="#9D5CFF"/>
<path d="M58.1219 4.17176L50.5093 22.4737H47.2023L49.8656 16.2833L44.9385 4.17176H48.423L51.5968 12.8517L54.815 4.17176H58.1219Z" fill="#9D5CFF"/>
<path d="M59.1135 16.7543C58.5512 16.7543 58.0852 16.5824 57.7152 16.2385C57.3601 15.8796 57.1826 15.4385 57.1826 14.9152C57.1826 14.3918 57.3601 13.9582 57.7152 13.6143C58.0852 13.2554 58.5512 13.076 59.1135 13.076C59.6609 13.076 60.1122 13.2554 60.4673 13.6143C60.8225 13.9582 61 14.3918 61 14.9152C61 15.4385 60.8225 15.8796 60.4673 16.2385C60.1122 16.5824 59.6609 16.7543 59.1135 16.7543Z" fill="#9D5CFF"/>
</svg>
