<svg width="20" height="20" viewBox="0 0 20 20" fill="none" xmlns="http://www.w3.org/2000/svg">
<g clip-path="url(#clip0_4130_45322)">
<path d="M14 10C14 9.4475 13.329 9 12.5005 9C11.672 9 11.0009 9.4475 11.0009 10V10.3819C11.0009 10.7606 11.3215 11.1069 11.8294 11.2762L13.1706 11.7237C13.6785 11.8931 13.9991 12.2394 13.9991 12.6181V13C13.9991 13.5525 13.328 14 12.4995 14C11.671 14 11 13.5525 11 13" stroke="white" stroke-width="1.55" stroke-miterlimit="10"/>
<path d="M12.4825 8.56017V7" stroke="white" stroke-width="1.55" stroke-miterlimit="10"/>
<path d="M12.4825 14V15.5602" stroke="white" stroke-width="1.55" stroke-miterlimit="10"/>
<path d="M12.3566 17.0437C15.6372 17.0437 18.2967 14.3842 18.2967 11.1035C18.2967 7.82283 15.6372 5.16333 12.3566 5.16333C9.07589 5.16333 6.41638 7.82283 6.41638 11.1035C6.41638 14.3842 9.07589 17.0437 12.3566 17.0437Z" stroke="white" stroke-width="1.55" stroke-miterlimit="10"/>
<path d="M12.0893 5.17356C10.9998 3.84647 9.34735 3 7.49644 3C4.21585 3 1.55627 5.65958 1.55627 8.94017C1.55627 12.2208 4.21585 14.8803 7.49644 14.8803C7.5869 14.8803 7.67465 14.8709 7.76375 14.8668" stroke="white" stroke-width="1.55" stroke-miterlimit="10"/>
</g>
<defs>
<clipPath id="clip0_4130_45322">
<rect width="18.8038" height="15.9547" fill="white" transform="translate(0.522583 2.04517)"/>
</clipPath>
</defs>
</svg>
