<svg width="20" height="20" viewBox="0 0 20 20" fill="none" xmlns="http://www.w3.org/2000/svg">
<g opacity="0.9">
<g clip-path="url(#clip0_5156_31998)">
<path d="M13.1656 9.52876C13.1656 8.97818 12.7196 8.53223 12.169 8.53223C11.6184 8.53223 11.1725 8.97818 11.1725 9.52876V9.90931C11.1725 10.2868 11.3855 10.6318 11.7231 10.8006L12.6144 11.2465C12.9519 11.4153 13.1649 11.7604 13.1649 12.1378V12.5184C13.1649 13.069 12.719 13.5149 12.1684 13.5149C11.6178 13.5149 11.1719 13.069 11.1719 12.5184" stroke="white" stroke-width="1.15795" stroke-miterlimit="10"/>
<path d="M12.1719 8.52703V7.03223" stroke="white" stroke-width="1.15795" stroke-miterlimit="10"/>
<path d="M12.1719 13.5127V15.0075" stroke="white" stroke-width="1.15795" stroke-miterlimit="10"/>
<path d="M12.1684 16.5019C15.1955 16.5019 17.6494 14.048 17.6494 11.021C17.6494 7.99394 15.1955 5.54004 12.1684 5.54004C9.1414 5.54004 6.6875 7.99394 6.6875 11.021C6.6875 14.048 9.1414 16.5019 12.1684 16.5019Z" stroke="white" stroke-width="1.15795" stroke-miterlimit="10"/>
<path d="M11.9218 5.54947C10.9166 4.32498 9.39189 3.54395 7.68407 3.54395C4.6571 3.54395 2.20312 5.99792 2.20312 9.02489C2.20312 12.0519 4.6571 14.5058 7.68407 14.5058C7.76753 14.5058 7.8485 14.4971 7.93072 14.4934" stroke="white" stroke-width="1.15795" stroke-miterlimit="10"/>
</g>
</g>
<defs>
<clipPath id="clip0_5156_31998">
<rect width="16.4428" height="13.9515" fill="white" transform="translate(1.70312 3.04785)"/>
</clipPath>
</defs>
</svg>
