<svg width="24" height="24" viewBox="0 0 24 24" fill="none" xmlns="http://www.w3.org/2000/svg">
<path d="M20.6928 9.87508C20.7017 10.014 20.6525 10.1504 20.557 10.2518C20.4613 10.3531 20.328 10.4102 20.1887 10.4093H13.5217V3.74434C13.5208 3.60507 13.578 3.47175 13.6792 3.37622C13.7806 3.28055 13.9171 3.23135 14.056 3.2403C15.7735 3.36814 17.388 4.10826 18.6059 5.32583C19.8238 6.5434 20.5643 8.15769 20.6926 9.87507L20.6928 9.87508ZM19.0666 12.7801C19.0666 14.8788 18.233 16.8917 16.749 18.3758C15.2649 19.8599 13.2522 20.6937 11.1536 20.6938C9.0547 20.6941 7.04191 19.8605 5.55781 18.3767C4.07358 16.8928 3.23951 14.8802 3.23926 12.7813C3.23889 10.6826 4.07231 8.66972 5.55606 7.18532C7.0399 5.70099 9.05257 4.86694 11.1512 4.86646C11.381 4.86646 11.6013 4.95753 11.764 5.11992C11.9266 5.28218 12.0182 5.50232 12.0187 5.73206V11.9126H18.1993C18.4294 11.9126 18.65 12.004 18.8127 12.1667C18.9754 12.3294 19.0668 12.55 19.0668 12.7801L19.0666 12.7801ZM17.2712 13.6475H11.1509C10.921 13.6475 10.7003 13.5562 10.5377 13.3934C10.3749 13.2308 10.2836 13.0101 10.2836 12.7802V6.66C8.76 6.87619 7.3718 7.65283 6.39078 8.83822C5.40948 10.0236 4.90579 11.5324 4.97799 13.0697C5.0503 14.6068 5.69339 16.0617 6.78153 17.1498C7.86954 18.2379 9.32444 18.881 10.8617 18.9533C12.3988 19.0255 13.9077 18.5218 15.0933 17.5406C16.2787 16.5594 17.0553 15.1712 17.2715 13.6478L17.2712 13.6475Z" fill="#9D5CFF"/>
</svg>
