<svg width="15" height="16" viewBox="0 0 15 16" fill="none" xmlns="http://www.w3.org/2000/svg">
<path d="M12.893 1.18867C12.949 1.316 12.9243 1.4643 12.8301 1.56658L11.8994 2.58113C12.8499 3.20982 13.6297 4.06424 14.1695 5.06791C14.7092 6.07157 14.9918 7.1933 14.9922 8.33299C14.9922 10.1887 14.255 11.9684 12.9428 13.2807C11.6306 14.5929 9.85076 15.3301 7.9951 15.3301C6.13945 15.3301 4.35967 14.5929 3.0474 13.2807C1.73518 11.9685 0.998019 10.1886 0.998019 8.333C0.998019 6.47734 1.73518 4.69756 3.0474 3.38529L4.037 4.37489C2.98718 5.42458 2.39738 6.84841 2.39738 8.333C2.39738 9.81758 2.98718 11.2415 4.037 12.2911C5.08669 13.3409 6.51052 13.9307 7.9951 13.9307C9.47969 13.9307 10.9036 13.3409 11.9532 12.2911C13.003 11.2414 13.5928 9.81758 13.5928 8.33299C13.5912 7.39014 13.3479 6.46343 12.886 5.64146C12.4243 4.81949 11.7594 4.12965 10.9549 3.6379L10.0032 4.71549C9.90892 4.82666 9.75453 4.86601 9.61841 4.81342C9.48393 4.75942 9.39549 4.62951 9.39456 4.4846L9.39456 1.33587C9.39456 1.24309 9.43134 1.15407 9.49694 1.08847C9.56265 1.02287 9.65156 0.98597 9.74434 0.98597L12.5433 0.98597C12.6907 0.974607 12.8298 1.05513 12.893 1.18867Z" fill="#E6E6E8"/>
</svg>
