<svg width="20" height="20" viewBox="0 0 20 20" fill="none" xmlns="http://www.w3.org/2000/svg">
<path d="M7.50065 12.4974C7.33583 12.4974 7.17472 12.5463 7.03767 12.6378C6.90063 12.7294 6.79382 12.8596 6.73075 13.0118C6.66768 13.1641 6.65117 13.3317 6.68333 13.4933C6.71548 13.655 6.79485 13.8034 6.91139 13.92C7.02794 14.0365 7.17642 14.1159 7.33808 14.1481C7.49973 14.1802 7.66728 14.1637 7.81955 14.1006C7.97183 14.0376 8.10197 13.9307 8.19354 13.7937C8.28511 13.6567 8.33398 13.4955 8.33398 13.3307C8.33398 13.1097 8.24619 12.8978 8.08991 12.7415C7.93363 12.5852 7.72166 12.4974 7.50065 12.4974ZM1.66732 11.6641C1.4463 11.6641 1.23434 11.7519 1.07806 11.9081C0.921782 12.0644 0.833984 12.2764 0.833984 12.4974V14.1641C0.833984 14.3851 0.921782 14.597 1.07806 14.7533C1.23434 14.9096 1.4463 14.9974 1.66732 14.9974C1.88833 14.9974 2.10029 14.9096 2.25657 14.7533C2.41285 14.597 2.50065 14.3851 2.50065 14.1641V12.4974C2.50065 12.2764 2.41285 12.0644 2.25657 11.9081C2.10029 11.7519 1.88833 11.6641 1.66732 11.6641ZM18.334 11.6641C18.113 11.6641 17.901 11.7519 17.7447 11.9081C17.5884 12.0644 17.5006 12.2764 17.5006 12.4974V14.1641C17.5006 14.3851 17.5884 14.597 17.7447 14.7533C17.901 14.9096 18.113 14.9974 18.334 14.9974C18.555 14.9974 18.767 14.9096 18.9232 14.7533C19.0795 14.597 19.1673 14.3851 19.1673 14.1641V12.4974C19.1673 12.2764 19.0795 12.0644 18.9232 11.9081C18.767 11.7519 18.555 11.6641 18.334 11.6641ZM14.1673 5.83073H10.834V4.76406C11.0859 4.61864 11.2953 4.40982 11.4415 4.15837C11.5877 3.90692 11.6656 3.62159 11.6673 3.33073C11.6673 2.8887 11.4917 2.46478 11.1792 2.15222C10.8666 1.83966 10.4427 1.66406 10.0007 1.66406C9.55862 1.66406 9.1347 1.83966 8.82214 2.15222C8.50958 2.46478 8.33398 2.8887 8.33398 3.33073C8.33574 3.62159 8.41358 3.90692 8.55977 4.15837C8.70597 4.40982 8.91542 4.61864 9.16732 4.76406V5.83073H5.83398C5.17094 5.83073 4.53506 6.09412 4.06622 6.56296C3.59738 7.0318 3.33398 7.66769 3.33398 8.33073V15.8307C3.33398 16.4938 3.59738 17.1297 4.06622 17.5985C4.53506 18.0673 5.17094 18.3307 5.83398 18.3307H14.1673C14.8304 18.3307 15.4662 18.0673 15.9351 17.5985C16.4039 17.1297 16.6673 16.4938 16.6673 15.8307V8.33073C16.6673 7.66769 16.4039 7.0318 15.9351 6.56296C15.4662 6.09412 14.8304 5.83073 14.1673 5.83073ZM11.434 7.4974L11.0173 9.16406H8.98398L8.56732 7.4974H11.434ZM15.0006 15.8307C15.0006 16.0517 14.9129 16.2637 14.7566 16.42C14.6003 16.5763 14.3883 16.6641 14.1673 16.6641H5.83398C5.61297 16.6641 5.40101 16.5763 5.24473 16.42C5.08845 16.2637 5.00065 16.0517 5.00065 15.8307V8.33073C5.00065 8.10972 5.08845 7.89775 5.24473 7.74147C5.40101 7.58519 5.61297 7.4974 5.83398 7.4974H6.85065L7.50065 10.1974C7.54628 10.3823 7.65386 10.546 7.80548 10.6612C7.9571 10.7765 8.14362 10.8363 8.33398 10.8307H11.6673C11.8577 10.8363 12.0442 10.7765 12.1958 10.6612C12.3474 10.546 12.455 10.3823 12.5006 10.1974L13.1506 7.4974H14.1673C14.3883 7.4974 14.6003 7.58519 14.7566 7.74147C14.9129 7.89775 15.0006 8.10972 15.0006 8.33073V15.8307ZM12.5006 12.4974C12.3358 12.4974 12.1747 12.5463 12.0377 12.6378C11.9006 12.7294 11.7938 12.8596 11.7308 13.0118C11.6677 13.1641 11.6512 13.3317 11.6833 13.4933C11.7155 13.655 11.7949 13.8034 11.9114 13.92C12.0279 14.0365 12.1764 14.1159 12.3381 14.1481C12.4997 14.1802 12.6673 14.1637 12.8196 14.1006C12.9718 14.0376 13.102 13.9307 13.1935 13.7937C13.2851 13.6567 13.334 13.4955 13.334 13.3307C13.334 13.1097 13.2462 12.8978 13.0899 12.7415C12.9336 12.5852 12.7217 12.4974 12.5006 12.4974Z" fill="white"/>
</svg>
