<svg width="20" height="20" viewBox="0 0 18 12" fill="none" xmlns="http://www.w3.org/2000/svg">
<path d="M14 4.33414C14 4.11313 13.9122 3.90116 13.756 3.74488C13.5997 3.5886 13.3877 3.50081 13.1667 3.50081H3.50837L5.42503 1.59247C5.58195 1.43555 5.67011 1.22272 5.67011 1.00081C5.67011 0.778888 5.58195 0.566059 5.42503 0.409139C5.26812 0.252219 5.05529 0.164063 4.83337 0.164062C4.61145 0.164062 4.39862 0.252219 4.2417 0.409139L0.908368 3.74247C0.792737 3.85966 0.714407 4.00847 0.683262 4.17013C0.652116 4.33179 0.669552 4.49905 0.733368 4.65081C0.795885 4.80299 0.90205 4.93326 1.03848 5.02521C1.17492 5.11715 1.33551 5.16665 1.50003 5.16747H13.1667C13.3877 5.16747 13.5997 5.07968 13.756 4.92339C13.9122 4.76711 14 4.55515 14 4.33414ZM17.2667 7.35081C17.2042 7.19862 17.098 7.06835 16.9616 6.97641C16.8252 6.88446 16.6646 6.83496 16.5 6.83414H4.83337C4.61235 6.83414 4.40039 6.92194 4.24411 7.07822C4.08783 7.2345 4.00003 7.44646 4.00003 7.66747C4.00003 7.88849 4.08783 8.10045 4.24411 8.25673C4.40039 8.41301 4.61235 8.50081 4.83337 8.50081H14.4917L12.575 10.4091C12.4969 10.4866 12.4349 10.5788 12.3926 10.6803C12.3503 10.7819 12.3285 10.8908 12.3285 11.0008C12.3285 11.1108 12.3503 11.2197 12.3926 11.3213C12.4349 11.4228 12.4969 11.515 12.575 11.5925C12.6525 11.6706 12.7447 11.7326 12.8462 11.7749C12.9478 11.8172 13.0567 11.839 13.1667 11.839C13.2767 11.839 13.3856 11.8172 13.4872 11.7749C13.5887 11.7326 13.6809 11.6706 13.7584 11.5925L17.0917 8.25914C17.2073 8.14195 17.2857 7.99314 17.3168 7.83148C17.348 7.66983 17.3305 7.50257 17.2667 7.35081Z" fill="white"/>
</svg>
