<svg width="24" height="25" viewBox="0 0 24 25" fill="none" xmlns="http://www.w3.org/2000/svg">
<path d="M17.6411 10.7042C17.6411 10.4814 17.5526 10.2677 17.395 10.1101C17.2375 9.95256 17.0238 9.86405 16.801 9.86405H7.06359L8.99594 7.9401C9.15415 7.78189 9.24302 7.56732 9.24302 7.34359C9.24302 7.11986 9.15415 6.90529 8.99594 6.74708C8.83774 6.58888 8.62317 6.5 8.39943 6.5C8.1757 6.5 7.96113 6.58888 7.80293 6.74708L4.44232 10.1077C4.32574 10.2258 4.24677 10.3759 4.21537 10.5388C4.18397 10.7018 4.20155 10.8705 4.26588 11.0235C4.32891 11.1769 4.43595 11.3082 4.5735 11.4009C4.71105 11.4936 4.87296 11.5435 5.03882 11.5444H16.801C17.0238 11.5444 17.2375 11.4558 17.395 11.2983C17.5526 11.1407 17.6411 10.927 17.6411 10.7042ZM20.9345 13.7456C20.8715 13.5921 20.7644 13.4608 20.6269 13.3681C20.4893 13.2754 20.3274 13.2255 20.1616 13.2247H8.39943C8.17661 13.2247 7.96292 13.3132 7.80536 13.4707C7.6478 13.6283 7.55928 13.842 7.55928 14.0648C7.55928 14.2876 7.6478 14.5013 7.80536 14.6589C7.96292 14.8164 8.17661 14.905 8.39943 14.905H18.1368L16.2044 16.8289C16.1257 16.907 16.0632 16.9999 16.0205 17.1023C15.9779 17.2047 15.9559 17.3145 15.9559 17.4254C15.9559 17.5363 15.9779 17.6461 16.0205 17.7485C16.0632 17.8509 16.1257 17.9438 16.2044 18.0219C16.2826 18.1007 16.3755 18.1632 16.4779 18.2058C16.5802 18.2485 16.69 18.2704 16.801 18.2704C16.9119 18.2704 17.0217 18.2485 17.1241 18.2058C17.2264 18.1632 17.3194 18.1007 17.3975 18.0219L20.7581 14.6613C20.8747 14.5432 20.9536 14.3931 20.985 14.2302C21.0164 14.0672 20.9988 13.8986 20.9345 13.7456V13.7456Z" fill="white"/>
</svg>
