<svg width="20" height="20" viewBox="0 0 20 20" fill="none" xmlns="http://www.w3.org/2000/svg">
<path d="M18.3333 0.833025H12.4999C12.0228 0.83107 11.5602 0.996948 11.1931 1.30163C10.8259 1.60632 10.5776 2.03041 10.4916 2.49969L9.72492 6.70802C9.67193 7.00122 9.68403 7.30248 9.76035 7.59049C9.83667 7.8785 9.97535 8.14621 10.1666 8.37469C10.3589 8.60328 10.5986 8.78729 10.8691 8.91392C11.1397 9.04056 11.4345 9.10679 11.7333 9.10802H14.1666L13.9583 9.65802C13.8044 10.0658 13.751 10.5047 13.8025 10.9375C13.854 11.3703 14.0088 11.7843 14.254 12.1447C14.4991 12.5051 14.8274 12.8012 15.211 13.008C15.5947 13.2148 16.0225 13.3263 16.4583 13.333C16.62 13.3343 16.7786 13.2885 16.9147 13.2012C17.0508 13.1139 17.1586 12.9889 17.2249 12.8414L19.0916 8.62469C19.1341 8.53283 19.1595 8.43399 19.1666 8.33302V1.66636C19.1666 1.44534 19.0788 1.23338 18.9225 1.0771C18.7662 0.920822 18.5543 0.833025 18.3333 0.833025ZM17.4999 8.10802L15.9749 11.5497C15.8261 11.4687 15.6978 11.3547 15.5999 11.2164C15.5018 11.0775 15.4398 10.9165 15.4195 10.7478C15.3991 10.579 15.421 10.4079 15.4833 10.2497L15.7999 9.41636C15.8832 9.20023 15.9116 8.96681 15.8825 8.73702C15.8534 8.50723 15.7678 8.28824 15.6333 8.09969C15.5008 7.91186 15.3246 7.75909 15.1199 7.65456C14.9152 7.55003 14.6881 7.49688 14.4583 7.49969H11.7166C11.6612 7.49985 11.6065 7.48801 11.5561 7.46499C11.5058 7.44197 11.461 7.40833 11.4249 7.36636C11.3602 7.2775 11.3333 7.16667 11.3499 7.05802L12.1166 2.89136C12.113 2.83971 12.1204 2.78789 12.1383 2.7393C12.1561 2.69072 12.1841 2.64647 12.2203 2.60947C12.2565 2.57247 12.3002 2.54356 12.3484 2.52464C12.3966 2.50571 12.4482 2.49721 12.4999 2.49969H17.4999V8.10802ZM8.28325 10.8747H5.87492L6.08325 10.3247C6.23483 9.9145 6.28515 9.47377 6.22993 9.03997C6.17471 8.60616 6.01558 8.1921 5.76607 7.83297C5.51656 7.47383 5.18403 7.18024 4.79675 6.97713C4.40947 6.77403 3.97889 6.66742 3.54159 6.66636C3.37987 6.66508 3.22127 6.71089 3.08514 6.79819C2.94901 6.88549 2.84122 7.01052 2.77492 7.15802L0.908252 11.3747C0.860498 11.4794 0.834961 11.5929 0.833252 11.708V18.3747C0.833252 18.5957 0.921049 18.8077 1.07733 18.9639C1.23361 19.1202 1.44557 19.208 1.66659 19.208H7.49992C7.97702 19.21 8.43961 19.0441 8.80676 18.7394C9.17391 18.4347 9.42222 18.0106 9.50825 17.5414L10.2749 13.3747C10.3279 13.0815 10.3158 12.7802 10.2395 12.4922C10.1632 12.2042 10.0245 11.9365 9.83325 11.708C9.65255 11.4632 9.41982 11.2615 9.1518 11.1174C8.88378 10.9733 8.58715 10.8904 8.28325 10.8747V10.8747ZM7.88325 17.1914C7.86894 17.2811 7.8218 17.3624 7.75097 17.4194C7.68014 17.4763 7.59067 17.505 7.49992 17.4997H2.49992V11.8914L4.02492 8.44969C4.17376 8.53068 4.30204 8.64471 4.39992 8.78302C4.49799 8.92185 4.56 9.08288 4.58036 9.25162C4.60073 9.42036 4.57881 9.59152 4.51658 9.74969L4.19992 10.583C4.11661 10.7992 4.08823 11.0326 4.11732 11.2624C4.14641 11.4922 4.23205 11.7111 4.36658 11.8997C4.49721 12.0906 4.67259 12.2466 4.87742 12.3541C5.08224 12.4616 5.31027 12.5173 5.54158 12.5164H8.28325C8.33861 12.5162 8.39335 12.528 8.4437 12.5511C8.49405 12.5741 8.53881 12.6077 8.57492 12.6497C8.63961 12.7386 8.66657 12.8494 8.64992 12.958L7.88325 17.1914Z" fill="#9F9DA3"/>
</svg>
