<svg width="14" height="18" viewBox="0 0 14 18" fill="none" xmlns="http://www.w3.org/2000/svg">
<path d="M13.38 6.19547C13.35 6.14547 13.32 6.09547 13.28 6.05547L8.28 1.05547C8.28 1.05547 8.19 0.985469 8.14 0.955469H8.09L8.01 0.925469C7.95 0.895469 7.88 0.865469 7.81 0.855469H2.8C2.19 0.865469 1.61 1.10547 1.17 1.53547C0.74 1.97547 0.5 2.54547 0.5 3.16547V14.8355C0.5 15.4455 0.74 16.0255 1.17 16.4655C1.6 16.9055 2.18 17.1355 2.8 17.1355H11.13C11.74 17.1355 12.32 16.8955 12.76 16.4655C13.19 16.0355 13.43 15.4555 13.43 14.8355V6.46547C13.43 6.40547 13.41 6.34547 13.39 6.29547V6.20547L13.38 6.19547ZM8.43 3.02547L11.27 5.86547H9.46C9.18 5.86547 8.92 5.75547 8.73 5.56547C8.53 5.36547 8.43 5.10547 8.43 4.83547V3.02547V3.02547ZM12.16 14.8355C12.16 15.1055 12.05 15.3755 11.86 15.5655C11.67 15.7555 11.4 15.8655 11.13 15.8655H2.8C2.53 15.8655 2.26 15.7555 2.07 15.5655C1.88 15.3755 1.77 15.1055 1.77 14.8355V3.16547C1.77 2.88547 1.88 2.62547 2.07 2.43547C2.26 2.24547 2.53 2.13547 2.8 2.13547H7.17V4.83547C7.17 5.45547 7.41 6.02547 7.84 6.46547C8.27 6.89547 8.86 7.13547 9.47 7.13547H12.17V14.8355H12.16Z" fill="#9F9DA3"/>
</svg>
