<svg width="18" height="18" viewBox="0 0 18 18" fill="none" xmlns="http://www.w3.org/2000/svg">
<path d="M9.00008 4.00033C8.77907 4.00033 8.56711 4.08812 8.41083 4.2444C8.25455 4.40068 8.16675 4.61265 8.16675 4.83366V13.167C8.16675 13.388 8.25455 13.6 8.41083 13.7562C8.56711 13.9125 8.77907 14.0003 9.00008 14.0003C9.22109 14.0003 9.43306 13.9125 9.58934 13.7562C9.74562 13.6 9.83341 13.388 9.83341 13.167V4.83366C9.83341 4.61265 9.74562 4.40068 9.58934 4.2444C9.43306 4.08812 9.22109 4.00033 9.00008 4.00033ZM4.83341 9.00033C4.6124 9.00033 4.40044 9.08812 4.24416 9.2444C4.08788 9.40068 4.00008 9.61264 4.00008 9.83366V13.167C4.00008 13.388 4.08788 13.6 4.24416 13.7562C4.40044 13.9125 4.6124 14.0003 4.83341 14.0003C5.05443 14.0003 5.26639 13.9125 5.42267 13.7562C5.57895 13.6 5.66675 13.388 5.66675 13.167V9.83366C5.66675 9.61264 5.57895 9.40068 5.42267 9.2444C5.26639 9.08812 5.05443 9.00033 4.83341 9.00033ZM13.1667 7.33366C12.9457 7.33366 12.7338 7.42146 12.5775 7.57774C12.4212 7.73402 12.3334 7.94598 12.3334 8.16699V13.167C12.3334 13.388 12.4212 13.6 12.5775 13.7562C12.7338 13.9125 12.9457 14.0003 13.1667 14.0003C13.3878 14.0003 13.5997 13.9125 13.756 13.7562C13.9123 13.6 14.0001 13.388 14.0001 13.167V8.16699C14.0001 7.94598 13.9123 7.73402 13.756 7.57774C13.5997 7.42146 13.3878 7.33366 13.1667 7.33366ZM14.8334 0.666992H3.16675C2.50371 0.666992 1.86782 0.930384 1.39898 1.39923C0.93014 1.86807 0.666748 2.50395 0.666748 3.16699V14.8337C0.666748 15.4967 0.93014 16.1326 1.39898 16.6014C1.86782 17.0703 2.50371 17.3337 3.16675 17.3337H14.8334C15.4965 17.3337 16.1323 17.0703 16.6012 16.6014C17.07 16.1326 17.3334 15.4967 17.3334 14.8337V3.16699C17.3334 2.50395 17.07 1.86807 16.6012 1.39923C16.1323 0.930384 15.4965 0.666992 14.8334 0.666992ZM15.6667 14.8337C15.6667 15.0547 15.579 15.2666 15.4227 15.4229C15.2664 15.5792 15.0544 15.667 14.8334 15.667H3.16675C2.94573 15.667 2.73377 15.5792 2.57749 15.4229C2.42121 15.2666 2.33341 15.0547 2.33341 14.8337V3.16699C2.33341 2.94598 2.42121 2.73402 2.57749 2.57774C2.73377 2.42146 2.94573 2.33366 3.16675 2.33366H14.8334C15.0544 2.33366 15.2664 2.42146 15.4227 2.57774C15.579 2.73402 15.6667 2.94598 15.6667 3.16699V14.8337Z" fill="#9F9DA3"/>
</svg>
