<svg width="20" height="20" viewBox="0 0 20 20" fill="none" xmlns="http://www.w3.org/2000/svg">
<g clip-path="url(#clip0_155_4354)">
<path d="M18.3334 0.833391H12.5C12.0229 0.831436 11.5603 0.997314 11.1932 1.302C10.8261 1.60669 10.5777 2.03077 10.4917 2.50006L9.72504 6.70839C9.67205 7.00159 9.68415 7.30285 9.76047 7.59086C9.83679 7.87886 9.97547 8.14658 10.1667 8.37506C10.359 8.60365 10.5987 8.78765 10.8693 8.91429C11.1398 9.04092 11.4347 9.10716 11.7334 9.10839H14.1667L13.9584 9.65839C13.8046 10.0662 13.7511 10.505 13.8026 10.9378C13.8541 11.3706 14.0089 11.7847 14.2541 12.1451C14.4992 12.5054 14.8275 12.8015 15.2111 13.0084C15.5948 13.2152 16.0226 13.3267 16.4584 13.3334C16.6201 13.3347 16.7787 13.2889 16.9148 13.2016C17.0509 13.1143 17.1587 12.9892 17.225 12.8417L19.0917 8.62506C19.1342 8.5332 19.1596 8.43436 19.1667 8.33339V1.66672C19.1667 1.44571 19.0789 1.23375 18.9226 1.07747C18.7663 0.921188 18.5544 0.833391 18.3334 0.833391ZM17.5 8.10839L15.975 11.5501C15.8262 11.4691 15.6979 11.355 15.6 11.2167C15.502 11.0779 15.44 10.9169 15.4196 10.7481C15.3992 10.5794 15.4211 10.4082 15.4834 10.2501L15.8 9.41672C15.8833 9.2006 15.9117 8.96718 15.8826 8.73739C15.8536 8.50759 15.7679 8.28861 15.6334 8.10006C15.5009 7.91223 15.3247 7.75946 15.12 7.65493C14.9153 7.5504 14.6882 7.49724 14.4584 7.50006H11.7167C11.6613 7.50021 11.6066 7.48837 11.5563 7.46536C11.5059 7.44234 11.4611 7.40869 11.425 7.36672C11.3603 7.27786 11.3334 7.16704 11.35 7.05839L12.1167 2.89172C12.1131 2.84008 12.1205 2.78826 12.1384 2.73967C12.1563 2.69108 12.1842 2.64683 12.2204 2.60983C12.2567 2.57283 12.3003 2.54392 12.3485 2.525C12.3967 2.50608 12.4483 2.49758 12.5 2.50006H17.5V8.10839ZM8.28337 10.8751H5.87504L6.08337 10.3251C6.23496 9.91486 6.28527 9.47414 6.23005 9.04033C6.17483 8.60653 6.0157 8.19247 5.76619 7.83333C5.51668 7.4742 5.18415 7.1806 4.79688 6.9775C4.4096 6.77439 3.97901 6.66778 3.54171 6.66672C3.37999 6.66545 3.2214 6.71125 3.08526 6.79855C2.94913 6.88586 2.84134 7.01088 2.77504 7.15839L0.908374 11.3751C0.86062 11.4798 0.835083 11.5933 0.833374 11.7084V18.3751C0.833374 18.5961 0.921171 18.808 1.07745 18.9643C1.23373 19.1206 1.44569 19.2084 1.66671 19.2084H7.50004C7.97714 19.2103 8.43974 19.0445 8.80688 18.7398C9.17403 18.4351 9.42234 18.011 9.50837 17.5417L10.275 13.3751C10.328 13.0819 10.3159 12.7806 10.2396 12.4926C10.1633 12.2046 10.0246 11.9369 9.83337 11.7084C9.65268 11.4635 9.41994 11.2618 9.15192 11.1177C8.8839 10.9736 8.58727 10.8907 8.28337 10.8751ZM7.88337 17.1917C7.86906 17.2815 7.82192 17.3627 7.75109 17.4197C7.68026 17.4767 7.59079 17.5053 7.50004 17.5001H2.50004V11.8917L4.02504 8.45006C4.17388 8.53104 4.30216 8.64507 4.40004 8.78339C4.49811 8.92221 4.56012 9.08324 4.58048 9.25199C4.60085 9.42073 4.57893 9.59189 4.51671 9.75006L4.20004 10.5834C4.11673 10.7995 4.08835 11.0329 4.11744 11.2627C4.14653 11.4925 4.23217 11.7115 4.36671 11.9001C4.49733 12.091 4.67272 12.247 4.87754 12.3545C5.08236 12.462 5.31039 12.5177 5.54171 12.5167H8.28337C8.33873 12.5166 8.39347 12.5284 8.44382 12.5514C8.49417 12.5744 8.53894 12.6081 8.57504 12.6501C8.63973 12.7389 8.66669 12.8497 8.65004 12.9584L7.88337 17.1917Z" fill="#9F9DA3"/>
</g>
<defs>
<clipPath id="clip0_155_4354">
<rect width="20" height="20" fill="white"/>
</clipPath>
</defs>
</svg>
