<svg width="20" height="20" viewBox="0 0 20 20" fill="none" xmlns="http://www.w3.org/2000/svg">
<path d="M9.99996 4.99996C9.77894 4.99996 9.56698 5.08776 9.4107 5.24404C9.25442 5.40032 9.16663 5.61228 9.16663 5.83329V14.1666C9.16663 14.3876 9.25442 14.5996 9.4107 14.7559C9.56698 14.9122 9.77894 15 9.99996 15C10.221 15 10.4329 14.9122 10.5892 14.7559C10.7455 14.5996 10.8333 14.3876 10.8333 14.1666V5.83329C10.8333 5.61228 10.7455 5.40032 10.5892 5.24404C10.4329 5.08776 10.221 4.99996 9.99996 4.99996ZM5.83329 9.99996C5.61228 9.99996 5.40032 10.0878 5.24404 10.244C5.08776 10.4003 4.99996 10.6123 4.99996 10.8333V14.1666C4.99996 14.3876 5.08776 14.5996 5.24404 14.7559C5.40032 14.9122 5.61228 15 5.83329 15C6.05431 15 6.26627 14.9122 6.42255 14.7559C6.57883 14.5996 6.66663 14.3876 6.66663 14.1666V10.8333C6.66663 10.6123 6.57883 10.4003 6.42255 10.244C6.26627 10.0878 6.05431 9.99996 5.83329 9.99996ZM14.1666 8.33329C13.9456 8.33329 13.7336 8.42109 13.5774 8.57737C13.4211 8.73365 13.3333 8.94561 13.3333 9.16663V14.1666C13.3333 14.3876 13.4211 14.5996 13.5774 14.7559C13.7336 14.9122 13.9456 15 14.1666 15C14.3876 15 14.5996 14.9122 14.7559 14.7559C14.9122 14.5996 15 14.3876 15 14.1666V9.16663C15 8.94561 14.9122 8.73365 14.7559 8.57737C14.5996 8.42109 14.3876 8.33329 14.1666 8.33329ZM15.8333 1.66663H4.16663C3.50358 1.66663 2.8677 1.93002 2.39886 2.39886C1.93002 2.8677 1.66663 3.50358 1.66663 4.16663V15.8333C1.66663 16.4963 1.93002 17.1322 2.39886 17.6011C2.8677 18.0699 3.50358 18.3333 4.16663 18.3333H15.8333C16.4963 18.3333 17.1322 18.0699 17.6011 17.6011C18.0699 17.1322 18.3333 16.4963 18.3333 15.8333V4.16663C18.3333 3.50358 18.0699 2.8677 17.6011 2.39886C17.1322 1.93002 16.4963 1.66663 15.8333 1.66663ZM16.6666 15.8333C16.6666 16.0543 16.5788 16.2663 16.4225 16.4225C16.2663 16.5788 16.0543 16.6666 15.8333 16.6666H4.16663C3.94561 16.6666 3.73365 16.5788 3.57737 16.4225C3.42109 16.2663 3.33329 16.0543 3.33329 15.8333V4.16663C3.33329 3.94561 3.42109 3.73365 3.57737 3.57737C3.73365 3.42109 3.94561 3.33329 4.16663 3.33329H15.8333C16.0543 3.33329 16.2663 3.42109 16.4225 3.57737C16.5788 3.73365 16.6666 3.94561 16.6666 4.16663V15.8333Z" fill="#9F9DA3"/>
</svg>
