<svg width="24" height="25" viewBox="0 0 24 25" fill="none" xmlns="http://www.w3.org/2000/svg">
<g opacity="1">
<g clip-path="url(#clip0_5250_41506)">
<path d="M13.1519 11.0379C13.1519 10.5249 12.718 10.1094 12.1822 10.1094C11.6465 10.1094 11.2125 10.5249 11.2125 11.0379V11.3925C11.2125 11.7442 11.4198 12.0658 11.7483 12.223L12.6155 12.6386C12.944 12.7958 13.1513 13.1174 13.1513 13.4691V13.8237C13.1513 14.3367 12.7174 14.7522 12.1816 14.7522C11.6459 14.7522 11.2119 14.3367 11.2119 13.8237" stroke="white" stroke-miterlimit="10"/>
<path d="M12.1816 10.1038V8.71094" stroke="white" stroke-miterlimit="10"/>
<path d="M12.1816 14.75V16.1429" stroke="white" stroke-miterlimit="10"/>
<path d="M12.182 17.5346C15.1275 17.5346 17.5153 15.2481 17.5153 12.4275C17.5153 9.60686 15.1275 7.32031 12.182 7.32031C9.23645 7.32031 6.84863 9.60686 6.84863 12.4275C6.84863 15.2481 9.23645 17.5346 12.182 17.5346Z" stroke="white" stroke-miterlimit="10"/>
<path d="M11.9413 7.32969C10.9632 6.18871 9.47953 5.46094 7.81771 5.46094C4.87225 5.46094 2.48438 7.74754 2.48438 10.5681C2.48438 13.3886 4.87225 15.6752 7.81771 15.6752C7.89892 15.6752 7.97771 15.6671 8.05771 15.6636" stroke="white" stroke-miterlimit="10"/>
</g>
</g>
<defs>
<clipPath id="clip0_5250_41506">
<rect width="16" height="13" fill="white" transform="translate(2 5)"/>
</clipPath>
</defs>
</svg>
