<svg width="20" height="20" viewBox="0 0 20 20" fill="none" xmlns="http://www.w3.org/2000/svg">
<g clip-path="url(#clip0_2472_33096)">
<path d="M10.6272 12.3358C10.617 12.424 10.5824 12.5075 10.5279 12.5777C10.4711 12.6507 10.3954 12.7057 10.3081 12.7366L10.2892 12.744C9.84955 12.9319 9.21458 12.8174 9.00078 12.6484L8.98692 12.6382C8.6706 12.4138 8.23467 12.4766 7.99454 12.7814C7.75441 13.0862 7.79551 13.5249 8.08828 13.7798L8.11322 13.7996C8.44478 14.0356 8.82622 14.1917 9.22613 14.2563V14.6701C9.22613 15.0709 9.55261 15.3974 9.95345 15.3974C10.3543 15.3974 10.6808 15.0709 10.6808 14.6701V14.1497C10.7399 14.1303 10.7981 14.1086 10.8535 14.085C11.1897 13.9502 11.4806 13.7253 11.6949 13.4334C11.9091 13.142 12.0375 12.798 12.0652 12.4424C12.2042 11.0243 10.9468 10.5546 10.1959 10.2739L10.1894 10.2716C9.41177 9.98295 9.28201 9.8772 9.28662 9.71003C9.29032 9.6403 9.31248 9.57242 9.35127 9.51423C9.39006 9.45605 9.44271 9.40987 9.50136 9.38216C9.91235 9.1956 10.3811 9.23439 10.7579 9.48745L10.7648 9.4916C11.1079 9.70495 11.5605 9.59966 11.7738 9.25655C11.9872 8.91344 11.8819 8.46089 11.5388 8.24754C11.2719 8.0813 10.9837 7.95985 10.6808 7.88596V7.41263C10.6808 7.0118 10.3543 6.68531 9.95345 6.68531C9.55261 6.68531 9.22613 7.0118 9.22613 7.41263V7.92845C9.09498 7.97139 8.96845 8.02588 8.84792 8.091C8.55423 8.23969 8.30578 8.46551 8.12892 8.74304C7.95159 9.02196 7.85277 9.34337 7.84261 9.67309C7.80336 10.9467 8.94074 11.3692 9.69346 11.6491C10.5787 11.9779 10.6498 12.0901 10.6277 12.3261L10.6267 12.3358H10.6272Z" fill="white"/>
<path d="M9.95339 17.995H9.95431C11.5438 17.9931 13.0386 17.3734 14.1631 16.2494C15.2875 15.1259 15.9077 13.6311 15.91 12.0411C15.91 8.60588 11.3092 3.17016 10.5805 2.33109V2.32232L10.4904 2.22857C10.351 2.08357 10.1556 2.00045 9.95431 2.00045C9.75297 2.00045 9.55763 2.08357 9.4154 2.23134L9.40894 2.23827C9.1882 2.48718 4 8.38607 4 12.0411C4.00139 13.6306 4.62157 15.125 5.74556 16.249C6.86956 17.3729 8.36391 17.9927 9.95339 17.9945V17.995ZM5.45464 12.0411C5.45464 10.9273 6.10991 9.34013 7.402 7.32442C8.32142 5.88964 9.34659 4.58785 9.95385 3.84945C10.5602 4.58647 11.5849 5.88687 12.5071 7.32488C13.8001 9.34059 14.4554 10.9268 14.4554 12.0347C14.423 13.6121 13.5507 15.0765 12.1787 15.856C10.8068 16.6355 9.10277 16.6355 7.73079 15.856C6.35882 15.0765 5.48696 13.6131 5.45464 12.0411Z" fill="white"/>
</g>
<defs>
<clipPath id="clip0_2472_33096">
<rect width="11.91" height="15.995" fill="white" transform="translate(4 2)"/>
</clipPath>
</defs>
</svg>
