<svg width="467" height="509" viewBox="0 0 467 509" fill="none" xmlns="http://www.w3.org/2000/svg">
<path d="M362.034 236.652C365.809 231.248 367.922 224.612 367.922 217.822V124.913C367.922 118.265 365.798 111.959 361.814 106.688L298.136 21.6589C287.758 7.89097 271.976 0 254.796 0H7.18262C3.31968 0 0.183105 3.13658 0.183105 6.99952C0.183105 10.8625 3.31968 13.999 7.18262 13.999H254.796C267.53 13.999 279.239 19.854 286.921 30.0561L350.61 115.096C352.767 117.946 353.912 121.336 353.912 124.902V217.811C353.912 219.043 353.791 220.265 353.571 221.453C345.295 209.82 333.882 200.576 320.796 195.007V145.625C320.796 134.917 316.614 124.352 309.362 116.67C288.946 94.8347 261.311 82.7396 231.497 82.6185C214.648 82.6185 200.825 95.8912 200.682 112.19C200.429 138.637 210.576 163.487 229.263 182.175L254.785 207.696C259 211.812 260.574 217.645 259.132 223.654C257.746 229.289 253.024 234 247.433 235.375C241.38 236.828 235.547 235.243 231.376 230.984L206.086 205.693C189.269 188.877 167.94 177.288 147.316 166.085C126.659 154.859 107.146 144.261 91.7711 128.875L87.8092 124.913C75.7361 112.84 59.679 106.192 42.5984 106.192V120.191C55.9371 120.191 68.4724 125.386 77.9042 134.818L81.8662 138.78C98.6826 155.596 120.011 167.185 140.636 178.389C161.293 189.614 180.806 200.213 196.181 215.598L218.093 237.51C214.362 246.744 212.458 256.44 212.458 266.4C212.458 309.266 247.334 344.143 290.201 344.143C333.067 344.143 367.944 309.266 367.944 266.4C367.944 255.945 365.952 245.941 362.023 236.652H362.034ZM239.157 172.281C223.155 156.279 214.461 134.983 214.681 112.333C214.758 103.672 222.308 96.6286 231.464 96.6286C257.349 96.7386 281.374 107.249 299.159 126.277C304.013 131.406 306.797 138.472 306.797 145.636V190.473C301.394 189.273 295.847 188.668 290.212 188.668C280.219 188.668 270.49 190.583 261.223 194.347L239.168 172.292L239.157 172.281ZM290.201 330.155C255.049 330.155 226.457 301.563 226.457 266.411C226.457 259.698 227.535 253.127 229.615 246.788C233.776 248.835 238.376 249.914 243.119 249.914C245.629 249.914 248.182 249.616 250.724 249C261.443 246.359 270.072 237.731 272.713 226.978C274.474 219.626 273.627 212.209 270.479 205.858C276.84 203.756 283.444 202.678 290.19 202.678C297.52 202.678 304.64 203.922 311.464 206.42C326.992 211.834 340.034 223.434 347.353 238.314C347.463 238.578 347.584 238.831 347.727 239.073C351.832 247.514 353.934 256.715 353.934 266.422C353.934 301.574 325.342 330.166 290.19 330.166L290.201 330.155Z" fill="url(#paint0_linear_2456_31863)"/>
<path d="M147.003 384.522C151.12 376.213 158.207 370.512 166.45 368.861C174.737 367.21 183.19 369.676 190.255 375.817C203.605 387.427 219.431 399.28 233.32 408.294C233.32 408.261 233.32 408.228 233.32 408.195C233.32 393.646 245.151 381.815 259.7 381.815H294.103C308.499 381.815 322.839 378.183 335.55 371.326C347.139 365.042 360.258 361.729 373.497 361.729C405.534 361.729 421.559 376.686 450.646 403.837C455.081 407.975 459.671 412.256 464.777 416.933C467.342 419.288 467.518 423.272 465.173 425.837C462.818 428.401 458.834 428.577 456.27 426.233C451.119 421.512 446.508 417.208 442.051 413.048C413.569 386.459 400.571 374.331 373.497 374.331C362.349 374.331 351.299 377.126 341.548 382.409C326.988 390.256 310.579 394.416 294.103 394.416H259.7C252.106 394.416 245.921 400.601 245.921 408.195C245.921 412.3 247.737 415.976 250.588 418.507C251.765 419.112 252.899 419.685 253.977 420.191C254.627 420.499 255.188 420.906 255.672 421.379C256.949 421.765 258.291 421.985 259.689 421.985H340.019C343.496 421.985 346.325 424.802 346.325 428.291C346.325 431.78 343.507 434.597 340.019 434.597H259.689C253.614 434.597 248.023 432.528 243.555 429.072C226.375 419.938 201.514 402.351 181.968 385.347C177.918 381.826 173.285 380.362 168.905 381.242C165.372 381.947 162.268 384.082 159.935 387.372C194.757 446.56 243.5 468.714 266.447 468.714H393.637C395.31 468.714 396.917 469.386 398.106 470.563L424.882 497.439C427.336 499.904 427.336 503.899 424.86 506.353C423.628 507.575 422.021 508.191 420.414 508.191C418.807 508.191 417.178 507.575 415.946 506.342L391.018 481.316H266.447C239.23 481.316 184.995 457.114 147.158 390.454C146.123 388.638 146.068 386.415 146.992 384.544L147.003 384.522Z" fill="url(#paint1_linear_2456_31863)"/>
<defs>
<linearGradient id="paint0_linear_2456_31863" x1="184.064" y1="0" x2="236.5" y2="446" gradientUnits="userSpaceOnUse">
<stop stop-color="#B27EFF"/>
<stop offset="1" stop-color="#6B29CF" stop-opacity="0"/>
</linearGradient>
<linearGradient id="paint1_linear_2456_31863" x1="306.58" y1="361.729" x2="306.58" y2="508.191" gradientUnits="userSpaceOnUse">
<stop stop-color="#9D5CFF"/>
<stop offset="1" stop-color="#6B29CF" stop-opacity="0"/>
</linearGradient>
</defs>
</svg>
