<svg width="29" height="29" viewBox="0 0 29 29" fill="none" xmlns="http://www.w3.org/2000/svg">
<path d="M27.854 12.1975V19.8337C27.8535 20.3857 27.6374 20.9152 27.2532 21.3054C26.8689 21.6959 26.3482 21.9155 25.8048 21.9162H25.1219V24.693V24.6928C25.1216 24.9621 24.9682 25.2071 24.7282 25.3214C24.4883 25.4358 24.205 25.3986 24.0012 25.2264L20.0928 21.9162H13.5095C12.9664 21.9155 12.4454 21.6959 12.0614 21.3054C11.6772 20.9151 11.461 20.3857 11.4603 19.8337V19.1394H18.2912C19.1967 19.1383 20.0649 18.7724 20.705 18.1217C21.3455 17.4709 21.7056 16.5888 21.7065 15.6687V10.1152H25.805C26.3484 10.1159 26.8691 10.3355 27.2533 10.726C27.6376 11.1162 27.8537 11.6457 27.8542 12.1977L27.854 12.1975ZM18.2912 17.751H9.04275L5.1483 22.3671C4.96236 22.5875 4.66116 22.6667 4.39314 22.5661C4.12532 22.4654 3.94739 22.2061 3.94693 21.916V17.751H3.26378C2.7206 17.7503 2.19959 17.5306 1.81563 17.1401C1.4314 16.7499 1.21526 16.2204 1.21456 15.6685V5.9497C1.21525 5.39769 1.43137 4.86822 1.81563 4.47802C2.19963 4.08755 2.72062 3.8679 3.26378 3.86719H18.2916C18.835 3.86788 19.3558 4.08752 19.74 4.47802C20.1242 4.86825 20.3401 5.39771 20.3408 5.9497V15.6685C20.3401 16.2205 20.1242 16.7499 19.74 17.1401C19.3557 17.5306 18.835 17.7503 18.2916 17.751L18.2912 17.751ZM16.2419 12.1977V12.1975C16.2419 12.0134 16.1699 11.837 16.0418 11.7066C15.9138 11.5764 15.7399 11.5035 15.5588 11.5035H5.99598C5.61884 11.5035 5.31283 11.8142 5.31283 12.1975C5.31283 12.581 5.61884 12.8917 5.99598 12.8917H15.5588C15.7399 12.8917 15.9138 12.8185 16.0418 12.6883C16.1699 12.5582 16.2419 12.3815 16.2419 12.1975V12.1977ZM16.2419 8.72694V8.72671C16.2419 8.54262 16.1699 8.36599 16.0418 8.23583C15.9138 8.10567 15.7399 8.03246 15.5588 8.03246H5.99598C5.61884 8.03246 5.31283 8.34344 5.31283 8.72671C5.31283 9.10997 5.61884 9.42095 5.99598 9.42095H15.5588C15.7399 9.42095 15.9138 9.34774 16.0418 9.21758C16.1699 9.08743 16.2419 8.91079 16.2419 8.72671V8.72694Z" fill="white"/>
</svg>
