<svg width="28" height="29" viewBox="0 0 28 29" fill="none" xmlns="http://www.w3.org/2000/svg">
<path d="M23.7032 4.92664C21.9186 4.09448 20.0048 3.48138 18.0039 3.13023C17.9674 3.12345 17.931 3.14039 17.9123 3.17426C17.6661 3.61912 17.3935 4.19948 17.2026 4.65564C15.0505 4.32821 12.9094 4.32821 10.8014 4.65564C10.6104 4.18934 10.3279 3.61912 10.0807 3.17426C10.0619 3.14152 10.0255 3.12458 9.98906 3.13023C7.98923 3.48025 6.07549 4.09336 4.28976 4.92664C4.2743 4.93342 4.26105 4.94472 4.25225 4.95939C0.62229 10.4706 -0.372109 15.8463 0.11571 21.1554C0.117917 21.1813 0.132265 21.2062 0.152131 21.222C2.54708 23.0094 4.86699 24.0944 7.14383 24.8137C7.18026 24.825 7.21887 24.8114 7.24206 24.7809C7.78065 24.0335 8.26075 23.2454 8.67239 22.4166C8.69668 22.368 8.67349 22.3104 8.62384 22.2912C7.86232 21.9977 7.1372 21.6398 6.43968 21.2333C6.38451 21.2005 6.3801 21.1203 6.43085 21.082C6.57763 20.9702 6.72446 20.8539 6.86461 20.7365C6.88997 20.715 6.92531 20.7105 6.95512 20.724C11.5375 22.8502 16.4985 22.8502 21.0268 20.724C21.0566 20.7094 21.0919 20.7139 21.1184 20.7353C21.2586 20.8528 21.4054 20.9702 21.5533 21.082C21.604 21.1203 21.6007 21.2005 21.5455 21.2333C20.848 21.6476 20.1229 21.9977 19.3603 22.2901C19.3106 22.3093 19.2885 22.368 19.3128 22.4166C19.7333 23.2442 20.2134 24.0323 20.742 24.7798C20.7641 24.8114 20.8038 24.825 20.8403 24.8137C23.1282 24.0944 25.4481 23.0094 27.843 21.222C27.864 21.2062 27.8772 21.1825 27.8794 21.1565C28.4633 15.0186 26.9016 9.68698 23.7396 4.96051C23.7319 4.94472 23.7186 4.93342 23.7032 4.92664ZM9.35669 17.9227C7.97708 17.9227 6.84032 16.6355 6.84032 15.0548C6.84032 13.474 7.95504 12.1868 9.35669 12.1868C10.7694 12.1868 11.8951 13.4853 11.873 15.0548C11.873 16.6355 10.7583 17.9227 9.35669 17.9227ZM18.6605 17.9227C17.281 17.9227 16.1442 16.6355 16.1442 15.0548C16.1442 13.474 17.2589 12.1868 18.6605 12.1868C20.0732 12.1868 21.199 13.4853 21.1769 15.0548C21.1769 16.6355 20.0732 17.9227 18.6605 17.9227Z" fill="white"/>
</svg>
