<svg width="29" height="28" viewBox="0 0 29 28" fill="none" xmlns="http://www.w3.org/2000/svg">
<g clip-path="url(#clip0_3960_46481)">
<path fill-rule="evenodd" clip-rule="evenodd" d="M14.0454 0.583191C10.7218 0.584915 7.50719 1.76206 4.97639 3.90413C2.44558 6.04621 0.763593 9.01354 0.231174 12.2755C-0.301244 15.5375 0.35062 18.8814 2.07022 21.7094C3.78982 24.5374 6.46502 26.6649 9.61746 27.7117C10.3129 27.8407 10.5749 27.4097 10.5749 27.0432C10.5749 26.6767 10.561 25.614 10.5564 24.4523C6.66167 25.2936 5.83869 22.8088 5.83869 22.8088C5.20348 21.1952 4.28545 20.7711 4.28545 20.7711C3.01504 19.909 4.38051 19.9251 4.38051 19.9251C5.78769 20.0242 6.52722 21.3612 6.52722 21.3612C7.77445 23.4888 9.80292 22.8733 10.6004 22.5137C10.7256 21.6124 11.0896 20.9993 11.4906 20.6512C8.37951 20.3008 5.11075 19.1068 5.11075 13.7729C5.09147 12.3895 5.60773 11.0518 6.55272 10.0363C6.40899 9.68595 5.9291 8.27063 6.68949 6.34819C6.68949 6.34819 7.86486 5.97477 10.5401 7.77504C12.8348 7.15109 15.2559 7.15109 17.5506 7.77504C20.2235 5.97477 21.3966 6.34819 21.3966 6.34819C22.1593 8.26602 21.6794 9.68134 21.5357 10.0363C22.4836 11.0519 23.001 12.392 22.9799 13.7775C22.9799 19.1229 19.7042 20.3008 16.5885 20.6443C17.0892 21.0776 17.5367 21.9236 17.5367 23.2237C17.5367 25.0862 17.5204 26.5845 17.5204 27.0432C17.5204 27.4143 17.7731 27.8477 18.4825 27.7117C21.6353 26.6648 24.3108 24.5368 26.0303 21.7084C27.7499 18.88 28.4014 15.5355 27.8684 12.2733C27.3354 9.01096 25.6526 6.0436 23.1209 3.9019C20.5893 1.76019 17.3739 0.583822 14.05 0.583191H14.0454Z" fill="white"/>
<path d="M5.34774 20.5708C5.3176 20.64 5.20632 20.6607 5.11591 20.6123C5.0255 20.5639 4.95827 20.474 4.99073 20.4025C5.02318 20.3311 5.13214 20.3126 5.22255 20.361C5.31297 20.4095 5.38251 20.5017 5.34774 20.5708Z" fill="white"/>
<path d="M5.91552 21.1998C5.86751 21.2239 5.81258 21.2306 5.76014 21.2188C5.7077 21.207 5.66101 21.1775 5.62806 21.1353C5.53764 21.0385 5.51909 20.9048 5.58863 20.8448C5.65818 20.7849 5.78338 20.8126 5.87379 20.9094C5.9642 21.0062 5.98507 21.1399 5.91552 21.1998Z" fill="white"/>
<path d="M6.47036 21.9999C6.38459 22.0598 6.23853 21.9999 6.15739 21.88C6.13495 21.8585 6.11711 21.8327 6.10492 21.8042C6.09273 21.7757 6.08644 21.745 6.08644 21.714C6.08644 21.6831 6.09273 21.6524 6.10492 21.6239C6.11711 21.5954 6.13495 21.5696 6.15739 21.5481C6.24316 21.4904 6.38922 21.5481 6.47036 21.6656C6.5515 21.7832 6.55382 21.9399 6.47036 21.9999Z" fill="white"/>
<path d="M7.21793 22.7741C7.14143 22.8594 6.9861 22.8363 6.8586 22.721C6.7311 22.6058 6.70095 22.449 6.77745 22.3661C6.85396 22.2831 7.00928 22.3061 7.14142 22.4191C7.27356 22.532 7.29907 22.6911 7.21793 22.7741Z" fill="white"/>
<path d="M8.26629 23.226C8.23151 23.3344 8.07387 23.3828 7.91623 23.3367C7.75859 23.2906 7.65426 23.1615 7.6844 23.0508C7.71454 22.9402 7.8745 22.8895 8.03446 22.9402C8.19442 22.9909 8.29642 23.1131 8.26629 23.226Z" fill="white"/>
<path d="M9.4144 23.3045C9.4144 23.4175 9.28459 23.5143 9.11767 23.5166C8.95076 23.5189 8.81398 23.4267 8.81398 23.3137C8.81398 23.2008 8.9438 23.104 9.11071 23.1017C9.27763 23.0994 9.4144 23.1893 9.4144 23.3045Z" fill="white"/>
<path d="M10.4785 23.127C10.4994 23.24 10.3835 23.3575 10.2166 23.3852C10.0497 23.4129 9.9036 23.346 9.88274 23.2354C9.86187 23.1247 9.98242 23.0049 10.1447 22.9749C10.307 22.9449 10.4577 23.0141 10.4785 23.127Z" fill="white"/>
</g>
<defs>
<clipPath id="clip0_3960_46481">
<rect width="28" height="28" fill="white" transform="translate(0.0468903)"/>
</clipPath>
</defs>
</svg>
