<svg width="29" height="29" viewBox="0 0 29 29" fill="none" xmlns="http://www.w3.org/2000/svg">
<rect x="0.364594" width="28" height="28.4549" rx="14" fill="white"/>
<path d="M9.02708 11.2042C9.02708 11.0264 8.93958 10.8485 8.85208 10.7596L7.53958 9.15902V8.89226H11.5646L14.7146 15.9171L17.5146 8.89226H21.3646V9.15902L20.2271 10.2261C20.1396 10.315 20.0521 10.4039 20.1396 10.5818V18.5847C20.1396 18.6736 20.1396 18.8515 20.2271 18.9404L21.2771 20.0074V20.2742H15.7646V20.0074L16.9021 18.8515C16.9896 18.7625 16.9896 18.6736 16.9896 18.4958V12.0045L13.8396 20.0964H13.4896L9.81458 12.0045V17.4287C9.81458 17.6955 9.90208 17.8733 9.98958 18.0512L11.4771 19.8296V20.0964H7.36458V19.8296L8.85208 18.0512C9.02708 17.8733 9.11458 17.6955 9.02708 17.4287V11.2042Z" fill="#6121D9"/>
</svg>
