<svg width="163" height="83" viewBox="0 0 163 83" fill="none" xmlns="http://www.w3.org/2000/svg">
<g clip-path="url(#clip0_3960_46445)">
<path d="M28.3216 31.7343C28.263 31.7343 28.263 31.675 28.3216 31.6158L38.3107 21.4982V20.4026C38.3061 20.323 38.2726 20.2478 38.2169 20.1914C38.1611 20.135 38.0867 20.1013 38.008 20.0966H19.6115V14.0458V12.2197L12.8349 13.6806V14.6676H13.1962C13.4182 14.6622 13.639 14.7025 13.8452 14.7859C14.0514 14.8692 14.2387 14.9941 14.3958 15.1529C14.5528 15.3116 14.6763 15.501 14.7588 15.7094C14.8413 15.9178 14.8811 16.141 14.8757 16.3654V20.1262H9.5931C9.54721 20.1286 9.50386 20.1481 9.47144 20.1809C9.43896 20.2137 9.41971 20.2575 9.41734 20.3039V22.6038H14.8757V35.6135C14.8757 39.6803 17.4536 42.523 22.0038 42.1578C22.9489 42.05 23.8538 41.7112 24.6403 41.1707C24.805 41.0647 24.9412 40.919 25.0366 40.7468C25.1321 40.5745 25.1838 40.381 25.1871 40.1837V38.8905C24.39 39.4486 23.4513 39.7638 22.4823 39.7987C19.6115 39.7987 19.6701 36.0972 19.6701 36.0972V22.6433H32.9206L23.3807 32.3462C23.3807 33.6196 23.3221 34.6461 23.3221 34.6461C23.3221 34.6618 23.3283 34.6769 23.3393 34.688C23.3502 34.6991 23.3651 34.7053 23.3807 34.7053C32.1688 36.2254 34.4732 41.9209 34.4732 43.5891C34.4732 43.5891 35.4497 51.6535 27.4037 52.2556C27.4037 52.2556 22.1894 52.5024 21.2227 50.3802C21.2104 50.3659 21.2019 50.3487 21.1983 50.3301C21.1946 50.3115 21.1957 50.2924 21.2017 50.2744C21.2076 50.2564 21.2181 50.2403 21.232 50.2277C21.246 50.2151 21.263 50.2064 21.2813 50.2025C21.7182 50.0179 22.0899 49.7043 22.3477 49.3028C22.6055 48.9013 22.7375 48.4305 22.7265 47.9519C22.748 47.5627 22.686 47.1733 22.5447 46.8105C22.4034 46.4477 22.1862 46.1201 21.908 45.8501C21.6298 45.5801 21.297 45.3741 20.9327 45.2462C20.5684 45.1183 20.181 45.0715 19.7971 45.1091C19.04 45.1085 18.3122 45.4042 17.766 45.9342C17.2199 46.4642 16.898 47.1873 16.8677 47.9519C16.8677 47.9519 16.0865 54.7431 27.3646 54.5654C40.166 54.289 39.3946 43.4311 39.3946 43.4311C38.9063 35.6135 29.2003 32.0995 28.3216 31.7343Z" fill="white"/>
<path d="M10.4872 59.4322H7.62939e-06V60.4588H4.61865V73.2514H5.81969V60.4588H10.4872V59.4322Z" fill="white"/>
<path d="M14.5662 62.8285C13.7815 62.8398 13.0149 63.069 12.3496 63.4898C11.6744 63.9691 11.1356 64.6191 10.7873 65.3753C10.4187 66.2133 10.2354 67.1229 10.2503 68.0403V68.4647C10.2269 69.3701 10.4319 70.2672 10.8459 71.0706C11.2015 71.8214 11.7645 72.4523 12.4668 72.8868C13.1717 73.3154 13.9779 73.544 14.8005 73.5481C15.5045 73.581 16.2052 73.4318 16.8359 73.1136C17.4665 72.7961 18.0063 72.3204 18.4037 71.7319L17.6811 71.1887C17.3618 71.6316 16.9251 71.9736 16.4215 72.176C15.937 72.4063 15.4035 72.5114 14.8689 72.4821C14.3894 72.4989 13.9125 72.4034 13.4755 72.2028C13.0385 72.0023 12.6532 71.7026 12.3496 71.3272C11.682 70.5143 11.3344 69.4811 11.3732 68.4253V68.2378H18.6283V67.6356C18.7085 66.3888 18.3254 65.1568 17.5542 64.181C17.1976 63.7321 16.7409 63.3758 16.2214 63.1406C15.7019 62.9055 15.1346 62.7986 14.5662 62.8285ZM17.4956 67.1915H11.4416C11.5228 66.2485 11.899 65.3568 12.5156 64.6447C12.7795 64.3403 13.1081 64.1004 13.4768 63.9434C13.8455 63.7858 14.2447 63.7154 14.6443 63.7363C15.0305 63.7202 15.4153 63.7936 15.7691 63.9512C16.1228 64.1081 16.4362 64.3457 16.6851 64.6447C17.2664 65.3353 17.5819 66.2151 17.5737 67.1223L17.5151 67.2405L17.4956 67.1915Z" fill="white"/>
<path d="M28.045 63.8534V63.0047H20.6728V63.9716H26.6682L20.497 72.4017V73.2504H28.4649V72.2734H21.8738L28.045 63.8534Z" fill="white"/>
<path d="M34.6594 62.8269C33.833 62.8174 33.021 63.0466 32.3188 63.487C31.6166 63.9275 31.0533 64.5614 30.6949 65.314C30.3298 66.1538 30.1467 67.0623 30.1579 67.9796V68.216C30.0876 69.6103 30.5371 70.9807 31.4175 72.0562C31.825 72.5325 32.3332 72.9097 32.9044 73.161C33.4757 73.4123 34.0954 73.5305 34.7179 73.5072C35.5462 73.5484 36.3655 73.3162 37.0517 72.8459C37.7349 72.4054 38.2775 71.7745 38.614 71.0296C38.9825 70.1874 39.1658 69.2748 39.1511 68.3545V68.108C39.2164 66.7202 38.7673 65.3582 37.8914 64.2874C37.4948 63.8153 36.9986 63.4393 36.4394 63.1862C35.88 62.9337 35.2718 62.8108 34.6594 62.8269ZM38.0769 68.1569C38.1343 69.2724 37.7871 70.3713 37.1005 71.2469C36.8088 71.6187 36.4378 71.9189 36.015 72.1254C35.5924 72.332 35.1289 72.4394 34.6594 72.4394C34.1898 72.4394 33.7264 72.332 33.3036 72.1254C32.8809 71.9189 32.5098 71.6187 32.2182 71.2469C31.5396 70.3898 31.1925 69.3124 31.2417 68.216V68.0387C31.1817 66.9226 31.5292 65.8232 32.2182 64.9488C32.4995 64.5596 32.8707 64.245 33.2995 64.0332C33.7284 63.8219 34.2019 63.7192 34.6788 63.7347C35.3184 63.7276 35.9449 63.9168 36.4756 64.2779C37.0128 64.6563 37.43 65.1845 37.6766 65.7981C37.9591 66.4684 38.0988 67.1912 38.0867 67.9199V68.1569H38.0769Z" fill="white"/>
<path d="M48.311 69.2507C48.0277 68.8472 47.6613 68.5106 47.2369 68.2635C46.5475 67.8893 45.7964 67.6451 45.0204 67.5431C44.2962 67.4147 43.6034 67.1468 42.9796 66.7534C42.7963 66.6132 42.6509 66.4281 42.5571 66.2156C42.4632 66.0038 42.4238 65.771 42.4425 65.5394C42.4377 65.2887 42.495 65.041 42.6093 64.8184C42.7236 64.5958 42.8912 64.406 43.0968 64.2657C43.6413 63.9273 44.2742 63.7619 44.913 63.7924C45.5876 63.7476 46.2539 63.9625 46.778 64.394C47.0002 64.579 47.1794 64.8112 47.3026 65.0738C47.4258 65.3365 47.4901 65.6236 47.4908 65.9142H48.6333C48.638 65.4923 48.5532 65.0739 48.3849 64.6871C48.2164 64.3009 47.9682 63.9553 47.6568 63.6736C46.8719 63.0684 45.8985 62.767 44.913 62.8249C43.9889 62.7765 43.0773 63.0559 42.3351 63.6145C42.0347 63.8467 41.7906 64.1457 41.6214 64.4877C41.4522 64.8297 41.3623 65.2064 41.3587 65.5883C41.3304 66.0426 41.458 66.492 41.7199 66.8621C42.0059 67.2423 42.3731 67.5526 42.794 67.7699C43.4636 68.0808 44.1688 68.3065 44.8934 68.4414C45.6166 68.5727 46.309 68.8407 46.9342 69.231C47.1489 69.3766 47.3228 69.576 47.4391 69.8094C47.5554 70.0427 47.6102 70.3024 47.5982 70.5638C47.5979 70.833 47.5306 71.098 47.4027 71.3344C47.2747 71.5701 47.0902 71.7707 46.8659 71.9157C46.2913 72.3084 45.6052 72.4988 44.913 72.4588C44.1971 72.4911 43.4884 72.3019 42.8819 71.9157C42.6286 71.7384 42.4204 71.5027 42.2744 71.2281C42.1285 70.9536 42.0489 70.648 42.0422 70.3364H40.8802C40.8714 70.7638 40.9676 71.1869 41.1601 71.5677C41.3527 71.9485 41.6356 72.275 41.9836 72.5179C42.8231 73.11 43.8314 73.4085 44.8544 73.3667C45.8193 73.4288 46.7754 73.1494 47.5592 72.577C47.8673 72.3341 48.1157 72.0219 48.2851 71.6662C48.4544 71.3099 48.5402 70.9189 48.5356 70.5238C48.5925 70.3083 48.6018 70.0821 48.563 69.8625C48.5242 69.6422 48.4382 69.4333 48.311 69.2507Z" fill="white"/>
<path d="M68.7046 3.05176e-05V82.9641" stroke="white" stroke-width="1.02556" stroke-miterlimit="10"/>
<path d="M89.1137 22.1389V27.6369H87.2877V13.5809H92.4145C93.7155 13.5187 94.9924 13.9559 95.9881 14.8048C96.4198 15.1949 96.76 15.6772 96.985 16.2167C97.2094 16.7561 97.3127 17.3393 97.2868 17.924C97.3222 18.513 97.2265 19.1024 97.0068 19.649C96.7871 20.1956 96.4487 20.6855 96.0176 21.0827C94.9811 21.8801 93.6949 22.2726 92.395 22.1882L89.1137 22.1389ZM89.1137 20.6188H92.4145C93.2419 20.6837 94.064 20.4338 94.7189 19.9179C94.987 19.6585 95.1955 19.343 95.3308 18.9934C95.4654 18.644 95.5233 18.2689 95.4997 17.8944C95.5109 17.5288 95.4471 17.1648 95.3125 16.8252C95.1784 16.4855 94.9758 16.1775 94.7189 15.9203C94.1272 15.3932 93.3588 15.1143 92.5704 15.1404H89.1137V20.6188Z" fill="white"/>
<path d="M104.344 18.7523C104.064 18.7326 103.784 18.7326 103.504 18.7523C103.004 18.7133 102.503 18.838 102.078 19.1082C101.652 19.3783 101.324 19.7795 101.141 20.2526V27.636H99.3739V17.1927H101.092V18.3969C101.342 17.9611 101.704 17.6011 102.138 17.3546C102.572 17.108 103.065 16.9839 103.563 16.9953C103.83 16.9823 104.097 17.0295 104.344 17.1335V18.7523Z" fill="white"/>
<path d="M105.307 22.3163C105.29 21.3638 105.495 20.4207 105.903 19.5623C106.265 18.7828 106.841 18.1249 107.563 17.6671C108.295 17.2159 109.137 16.9832 109.994 16.9959C110.637 16.9731 111.276 17.094 111.867 17.3499C112.458 17.6059 112.986 17.9906 113.412 18.4765C114.324 19.579 114.788 20.99 114.711 22.4248V22.5532C114.729 23.4972 114.532 24.4329 114.135 25.2874C113.779 26.0658 113.205 26.7214 112.484 27.1727C111.742 27.6331 110.885 27.8694 110.014 27.8538C109.373 27.8765 108.735 27.7555 108.146 27.4995C107.556 27.2436 107.031 26.8589 106.606 26.3731C105.693 25.2717 105.228 23.8599 105.307 22.4248V22.3163ZM107.085 22.5334C107.036 23.5272 107.314 24.5094 107.875 25.3268C108.122 25.6625 108.446 25.9328 108.818 26.115C109.19 26.2972 109.6 26.3857 110.014 26.3731C110.43 26.3869 110.842 26.2968 111.215 26.1109C111.588 25.9249 111.91 25.6489 112.152 25.3071C112.72 24.43 112.997 23.3928 112.943 22.3459C112.99 21.3538 112.709 20.3742 112.143 19.5623C111.896 19.2229 111.572 18.9488 111.198 18.7632C110.823 18.5776 110.411 18.486 109.994 18.4963C109.585 18.488 109.179 18.5796 108.812 18.7635C108.445 18.9473 108.127 19.2179 107.885 19.5524C107.302 20.4303 107.021 21.4778 107.085 22.5334Z" fill="white"/>
<path d="M123.323 26.6515C122.942 27.0721 122.472 27.4005 121.948 27.6124C121.423 27.8243 120.859 27.9142 120.296 27.8754C119.83 27.9044 119.364 27.8312 118.929 27.6608C118.495 27.4904 118.101 27.2269 117.776 26.8883C117.146 26.0718 116.833 25.0499 116.898 24.0159V17.1952H118.665V23.9469C118.665 25.5262 119.31 26.3158 120.618 26.3158C121.168 26.3793 121.724 26.2668 122.208 25.9941C122.691 25.7214 123.077 25.3023 123.313 24.7957V17.1952H125.081V27.6385H123.401L123.323 26.6515Z" fill="white"/>
<path d="M127.29 22.3274C127.222 20.9465 127.618 19.5829 128.413 18.458C128.752 17.9973 129.194 17.6246 129.703 17.3705C130.213 17.1166 130.775 16.9886 131.342 16.9971C131.885 16.9746 132.425 17.0755 132.924 17.2925C133.422 17.5095 133.866 17.8369 134.223 18.2507V12.8316H135.99V27.6379H134.37L134.282 26.5224C133.927 26.9549 133.477 27.2984 132.969 27.5262C132.461 27.7539 131.908 27.8597 131.352 27.8352C130.781 27.8471 130.215 27.7175 129.705 27.4577C129.194 27.1978 128.754 26.8158 128.423 26.3447C127.622 25.2185 127.222 23.8509 127.29 22.4656V22.3274ZM129.057 22.5347C128.999 23.5166 129.252 24.4918 129.78 25.3182C130.008 25.6364 130.309 25.8929 130.659 26.0651C131.008 26.2373 131.394 26.3197 131.782 26.3053C132.295 26.3287 132.803 26.1964 133.242 25.9256C133.68 25.6547 134.029 25.2576 134.243 24.7852V19.9978C134.022 19.5376 133.674 19.1524 133.24 18.8893C132.807 18.6263 132.307 18.497 131.801 18.5172C131.41 18.4986 131.02 18.5791 130.667 18.7514C130.314 18.9238 130.009 19.1826 129.78 19.5043C129.23 20.4125 128.977 21.4728 129.057 22.5347Z" fill="white"/>
<path d="M140.671 27.6378H138.904V12.8316H140.671V27.6378Z" fill="white"/>
<path d="M146.87 25.0228L149.281 17.1952H151.166L147.016 29.2574C146.371 30.9946 145.346 31.8633 143.95 31.8633H143.618L142.954 31.7349V30.2543H143.432C143.924 30.2853 144.413 30.1574 144.828 29.8891C145.236 29.5394 145.526 29.0703 145.658 28.5467L146.049 27.4905L142.358 17.1952H144.311L146.87 25.0228Z" fill="white"/>
<path d="M87.2877 48.7978V34.7418H91.7896C92.998 34.6539 94.1998 34.9846 95.1973 35.6795C95.5965 36.0234 95.9113 36.4568 96.1168 36.945C96.3218 37.4333 96.4115 37.9632 96.3784 38.4927C96.3897 39.1213 96.1936 39.7357 95.8221 40.2398C95.4388 40.7745 94.9191 41.1941 94.3185 41.4539C95.0296 41.6375 95.6574 42.0627 96.0956 42.6582C96.5391 43.2771 96.7688 44.0262 96.7499 44.7903C96.7777 45.3437 96.6832 45.8965 96.4741 46.4086C96.2645 46.9207 95.945 47.3794 95.5392 47.7515C94.5683 48.5284 93.3476 48.9152 92.1115 48.8373L87.2877 48.7978ZM89.1137 40.7333H91.8871C92.5905 40.7795 93.2856 40.5616 93.8401 40.1214C94.0693 39.92 94.2506 39.669 94.3705 39.387C94.4904 39.105 94.5459 38.7994 94.5335 38.4927C94.5642 38.1782 94.5205 37.8607 94.4047 37.5669C94.289 37.2732 94.1053 37.0118 93.8691 36.8048C93.2572 36.3888 92.5243 36.1941 91.7896 36.252H89.1137V40.7333ZM89.1137 42.2238V47.2777H92.1505C92.8816 47.3224 93.6015 47.0821 94.162 46.6065C94.413 46.3734 94.6097 46.087 94.7384 45.7678C94.8666 45.4486 94.9233 45.1047 94.9044 44.7606C94.9044 43.0728 93.9961 42.2238 92.17 42.2238H89.1137Z" fill="white"/>
<path d="M105.564 47.7647C105.184 48.1877 104.714 48.5184 104.19 48.7321C103.666 48.9458 103.101 49.0368 102.537 48.9986C102.071 49.0296 101.605 48.9573 101.17 48.7868C100.734 48.6162 100.341 48.3516 100.018 48.0115C99.3831 47.1975 99.0731 46.1727 99.1487 45.1391V38.348H100.916V45.0996C100.916 46.6888 101.551 47.4785 102.869 47.4785C103.42 47.5426 103.978 47.4294 104.462 47.1546C104.946 46.8799 105.331 46.4578 105.564 45.9485V38.348H107.332V48.8012H105.652L105.564 47.7647Z" fill="white"/>
<path d="M109.973 35.5847C109.967 35.3132 110.061 35.0491 110.237 34.8443C110.338 34.7397 110.46 34.6589 110.595 34.6077C110.73 34.5565 110.875 34.5362 111.018 34.5482C111.162 34.5362 111.307 34.5565 111.442 34.6077C111.577 34.6589 111.699 34.7397 111.8 34.8443C111.976 35.0491 112.07 35.3132 112.064 35.5847C112.064 35.7203 112.036 35.8546 111.983 35.9791C111.929 36.1036 111.852 36.2156 111.753 36.3083C111.655 36.4009 111.54 36.4721 111.413 36.5174C111.287 36.5628 111.152 36.5813 111.018 36.5717C110.875 36.585 110.731 36.5663 110.597 36.5168C110.461 36.4673 110.338 36.3884 110.237 36.2855C110.061 36.096 109.967 35.8443 109.973 35.5847ZM111.927 48.8017H110.159V38.3485H111.927V48.8017Z" fill="white"/>
<path d="M116.644 48.7982H114.876V33.992H116.644V48.7982Z" fill="white"/>
<path d="M119.031 43.4887C118.967 42.1068 119.366 40.7433 120.164 39.6193C120.509 39.1759 120.946 38.8139 121.443 38.5586C121.941 38.3033 122.488 38.1608 123.046 38.1411C123.603 38.1213 124.159 38.2248 124.673 38.4444C125.187 38.6639 125.647 38.9941 126.022 39.4121V33.9634H127.79V48.7696H126.159L126.081 47.6444C125.726 48.0774 125.277 48.422 124.769 48.6514C124.261 48.8808 123.708 48.9887 123.152 48.967C122.581 48.9738 122.017 48.842 121.507 48.5826C120.998 48.3232 120.557 47.9439 120.222 47.4765C119.429 46.3468 119.03 44.9818 119.09 43.5973L119.031 43.4887ZM120.799 43.6861C120.743 44.6692 121 45.6445 121.531 46.4697C121.757 46.7898 122.058 47.0478 122.408 47.2202C122.757 47.3926 123.144 47.4739 123.533 47.4568C124.04 47.4738 124.541 47.3396 124.973 47.0711C125.405 46.8026 125.75 46.4115 125.964 45.9466V41.1493C125.743 40.691 125.394 40.3078 124.96 40.0465C124.527 39.7853 124.027 39.6575 123.523 39.6786C123.132 39.6608 122.742 39.7417 122.389 39.914C122.036 40.0863 121.731 40.3447 121.502 40.6656C120.961 41.5736 120.715 42.6298 120.799 43.6861Z" fill="white"/>
<path d="M130.509 35.5841C130.502 35.3127 130.596 35.0485 130.773 34.8438C130.989 34.6535 131.266 34.5487 131.553 34.5487C131.84 34.5487 132.118 34.6535 132.335 34.8438C132.518 35.0449 132.616 35.3107 132.608 35.5841C132.613 35.7166 132.591 35.8487 132.544 35.9725C132.497 36.0963 132.426 36.2092 132.335 36.3047C132.193 36.4661 132.006 36.5798 131.798 36.6303C131.591 36.6808 131.373 36.6658 131.174 36.5874C130.975 36.5088 130.804 36.3706 130.685 36.1912C130.566 36.0118 130.505 35.7999 130.509 35.5841ZM132.462 48.8011H130.655V38.3479H132.423L132.462 48.8011Z" fill="white"/>
<path d="M136.911 38.3461L136.97 39.6688C137.33 39.1864 137.798 38.7978 138.337 38.5352C138.875 38.2725 139.468 38.1434 140.066 38.1586C142.246 38.1586 143.346 39.4056 143.366 41.8996V48.8092H141.579V41.8996C141.625 41.2955 141.444 40.696 141.071 40.2216C140.861 40.0293 140.614 39.8827 140.345 39.7911C140.076 39.6993 139.792 39.6645 139.509 39.6886C138.97 39.6768 138.441 39.8356 137.995 40.1426C137.573 40.4609 137.237 40.8819 137.019 41.3666V48.8092H135.251V38.3461H136.911Z" fill="white"/>
<path d="M145.626 43.4888C145.553 42.1012 145.949 40.7296 146.749 39.5997C147.103 39.1568 147.55 38.7982 148.057 38.549C148.564 38.2999 149.119 38.1663 149.683 38.1578C150.246 38.1493 150.805 38.2661 151.318 38.5C151.832 38.7338 152.289 39.0789 152.657 39.5109L152.745 38.3461H154.356V48.5526C154.388 49.1386 154.299 49.725 154.094 50.2741C153.889 50.8233 153.572 51.3228 153.165 51.7408C152.736 52.1415 152.233 52.4518 151.685 52.6535C151.137 52.8552 150.554 52.9443 149.971 52.9154C149.217 52.9099 148.472 52.7452 147.784 52.4317C147.127 52.1565 146.561 51.6977 146.153 51.1091L147.072 50.0331C147.391 50.4737 147.808 50.832 148.29 51.079C148.772 51.3259 149.304 51.4546 149.844 51.4546C150.211 51.4762 150.578 51.4226 150.924 51.297C151.27 51.1715 151.587 50.9767 151.856 50.7241C152.109 50.4459 152.303 50.1188 152.428 49.7625C152.552 49.4062 152.603 49.0282 152.579 48.6513V47.753C152.216 48.1723 151.764 48.5023 151.256 48.7178C150.749 48.9334 150.199 49.0288 149.649 48.9967C149.079 49.0071 148.515 48.8779 148.005 48.6201C147.494 48.3623 147.054 47.9835 146.72 47.5161C145.924 46.3336 145.538 44.9168 145.626 43.4888ZM147.404 43.6863C147.347 44.6667 147.596 45.6403 148.116 46.4698C148.344 46.7907 148.647 47.0491 148.998 47.2215C149.349 47.3939 149.737 47.4748 150.128 47.4569C150.642 47.4766 151.15 47.3405 151.586 47.0661C152.023 46.7917 152.369 46.3915 152.579 45.917V41.1692C152.36 40.7095 152.013 40.3239 151.582 40.0594C151.15 39.7948 150.652 39.6626 150.147 39.6787C149.756 39.6618 149.367 39.7431 149.014 39.9153C148.661 40.0875 148.356 40.3454 148.126 40.6658C147.6 41.579 147.365 42.6334 147.452 43.6863H147.404Z" fill="white"/>
<path d="M86.5332 64.6433C86.5214 63.6884 86.7252 62.7429 87.1291 61.8793C87.4917 61.0956 88.0735 60.4366 88.8022 59.9824C89.5304 59.5281 90.3744 59.299 91.2301 59.3229C91.8703 59.2983 92.5081 59.4174 93.0975 59.6717C93.6863 59.9263 94.2125 60.3089 94.6378 60.7936C95.5514 61.8954 96.0191 63.3064 95.9465 64.7418V64.8701C95.9613 65.8138 95.764 66.7491 95.3701 67.6044C95.0134 68.3731 94.4482 69.0237 93.7395 69.4797C92.9983 69.9333 92.1455 70.1661 91.2791 70.1512C90.6395 70.1727 90.0035 70.0509 89.4164 69.7949C88.8288 69.5388 88.3044 69.155 87.8809 68.6704C86.9614 67.5721 86.4931 66.1588 86.5722 64.7221L86.5332 64.6433ZM88.3103 64.8504C88.2607 65.846 88.5424 66.8296 89.1111 67.6438C89.3651 67.972 89.6899 68.2377 90.0602 68.4203C90.4305 68.6029 90.8374 68.6978 91.2496 68.6978C91.6618 68.6978 92.0687 68.6029 92.439 68.4203C92.8099 68.2377 93.1341 67.972 93.3881 67.6438C93.9562 66.767 94.2332 65.7296 94.1789 64.6827C94.2249 63.6866 93.9397 62.7029 93.3686 61.8894C93.1176 61.5593 92.7957 61.2925 92.4266 61.1087C92.0575 60.9249 91.6512 60.8294 91.2402 60.8294C90.8285 60.8294 90.4228 60.9249 90.0537 61.1087C89.6846 61.2925 89.3621 61.5593 89.1111 61.8894C88.54 62.765 88.2595 63.8024 88.3103 64.8504Z" fill="white"/>
<path d="M99.831 59.5088L99.8895 60.8218C100.25 60.3407 100.719 59.9533 101.257 59.6925C101.796 59.4313 102.388 59.3041 102.985 59.3213C105.172 59.3213 106.266 60.5651 106.285 63.0523V69.9621H104.479V63.0523C104.525 62.4512 104.344 61.8549 103.972 61.384C103.763 61.1877 103.517 61.0378 103.248 60.9441C102.978 60.8504 102.692 60.8152 102.409 60.8415C101.871 60.8313 101.345 60.9937 100.905 61.3052C100.482 61.618 100.145 62.0364 99.9285 62.5193V69.9717H98.1614V59.5088H99.831Z" fill="white"/>
<path d="M123.304 57.4179H118.831V69.9639H117.005V57.4179H112.543V55.8978H123.284L123.304 57.4179Z" fill="white"/>
<path d="M128.433 70.1529C127.799 70.1762 127.167 70.0646 126.578 69.8247C125.989 69.5853 125.457 69.2224 125.016 68.7611C124.565 68.2573 124.216 67.6682 123.989 67.0284C123.763 66.3879 123.664 65.7087 123.698 65.0301V64.6946C123.682 63.7367 123.882 62.7882 124.283 61.9204C124.657 61.1373 125.238 60.4742 125.963 60.0057C126.646 59.5571 127.444 59.3203 128.258 59.3246C128.844 59.295 129.43 59.3995 129.971 59.6302C130.512 59.8612 130.994 60.2122 131.382 60.6574C132.198 61.764 132.596 63.1297 132.505 64.5066V65.2473H125.504C125.483 66.1623 125.8 67.0528 126.393 67.7446C126.663 68.0592 126.998 68.3104 127.373 68.4811C127.75 68.6518 128.158 68.7372 128.57 68.7318C129.122 68.7503 129.669 68.6172 130.152 68.3468C130.591 68.0938 130.979 67.7589 131.295 67.3596L132.368 68.2084C131.943 68.8566 131.353 69.3782 130.662 69.7202C129.97 70.0616 129.201 70.2108 128.433 70.1529ZM128.218 60.7858C127.881 60.7798 127.546 60.8472 127.236 60.9833C126.926 61.1194 126.648 61.3212 126.422 61.5754C125.894 62.1908 125.579 62.9637 125.524 63.7767H130.699V63.6483C130.698 62.882 130.444 62.1383 129.977 61.5354C129.755 61.2883 129.483 61.0932 129.18 60.9636C128.876 60.8341 128.548 60.7732 128.218 60.7858Z" fill="white"/>
<path d="M136.176 68.5006H142.22V69.9617H134.008V68.6486L139.711 60.9891H134.096V59.5084H141.908V60.7718L136.176 68.5006Z" fill="white"/>
<path d="M143.595 64.6433C143.579 63.6877 143.782 62.7411 144.191 61.8792C144.553 61.0997 145.129 60.442 145.851 59.9842C146.583 59.536 147.426 59.3067 148.282 59.3229C148.924 59.2982 149.563 59.4172 150.154 59.6715C150.745 59.9257 151.273 60.3089 151.7 60.7935C152.61 61.8971 153.074 63.3075 152.999 64.7418V64.8701C153.018 65.8144 152.821 66.7502 152.422 67.6043C152.065 68.3839 151.492 69.0422 150.772 69.5C150.027 69.9524 149.171 70.1846 148.302 70.1709C147.661 70.1935 147.023 70.0724 146.434 69.8169C145.845 69.5609 145.319 69.1759 144.894 68.69C143.978 67.59 143.513 66.1772 143.595 64.7418V64.6433ZM145.373 64.8504C145.324 65.8442 145.602 66.8266 146.163 67.6437C146.41 67.9798 146.733 68.2502 147.105 68.4322C147.478 68.6142 147.889 68.7026 148.302 68.69C148.718 68.7038 149.13 68.6142 149.503 68.428C149.876 68.2418 150.198 67.9661 150.44 67.624C151.009 66.7473 151.286 65.7099 151.231 64.663C151.28 63.6674 150.998 62.6844 150.43 61.8697C150.184 61.5295 149.861 61.2549 149.486 61.0693C149.112 60.8837 148.699 60.7923 148.282 60.8037C147.873 60.7953 147.467 60.8866 147.1 61.0705C146.733 61.2543 146.415 61.5253 146.173 61.8595C145.589 62.7411 145.308 63.7916 145.373 64.8504Z" fill="white"/>
<path d="M161.228 67.1912C161.238 66.9721 161.192 66.7549 161.097 66.5579C161.001 66.3615 160.859 66.192 160.682 66.0655C160.108 65.7133 159.471 65.4782 158.807 65.3749C158.068 65.2341 157.349 64.9983 156.669 64.6736C156.207 64.4462 155.808 64.1072 155.507 63.687C155.247 63.2931 155.114 62.8275 155.126 62.3542C155.134 61.9352 155.238 61.524 155.429 61.1527C155.62 60.7809 155.894 60.4591 156.229 60.212C157.015 59.5983 157.99 59.2839 158.983 59.3239C160.01 59.2788 161.019 59.6003 161.834 60.2317C162.181 60.5141 162.46 60.8722 162.649 61.2792C162.839 61.6863 162.934 62.1316 162.928 62.581H161.112C161.11 62.3375 161.054 62.0969 160.947 61.8785C160.84 61.6594 160.686 61.4678 160.496 61.318C160.061 60.9539 159.509 60.7641 158.944 60.785C158.407 60.7558 157.876 60.905 157.43 61.2094C157.257 61.3371 157.117 61.5055 157.022 61.6994C156.927 61.8934 156.879 62.1083 156.884 62.3249C156.875 62.5195 156.918 62.7135 157.007 62.8866C157.096 63.0597 157.228 63.2065 157.391 63.3116C157.968 63.6136 158.587 63.8237 159.227 63.9335C159.966 64.0863 160.684 64.328 161.365 64.6539C161.849 64.8718 162.27 65.212 162.586 65.6411C162.861 66.0619 163.001 66.5585 162.987 67.0628C162.998 67.5015 162.902 67.9361 162.708 68.3282C162.514 68.7209 162.227 69.0594 161.873 69.313C161.034 69.9039 160.024 70.1988 159.003 70.1522C158.247 70.1677 157.497 70.0161 156.806 69.7081C156.2 69.4425 155.679 69.0122 155.301 68.4643C154.955 67.9599 154.768 67.3613 154.765 66.7465H156.532C156.538 67.0223 156.605 67.2932 156.729 67.5391C156.852 67.7851 157.028 67.9999 157.245 68.1682C157.754 68.5419 158.374 68.7263 159.003 68.6911C159.564 68.7221 160.122 68.5813 160.604 68.2864C160.794 68.1754 160.952 68.016 161.062 67.8233C161.171 67.6311 161.229 67.4132 161.228 67.1912Z" fill="white"/>
</g>
<defs>
<clipPath id="clip0_3960_46445">
<rect width="163" height="82.9641" fill="white"/>
</clipPath>
</defs>
</svg>
