<svg width="29" height="28" viewBox="0 0 29 28" fill="none" xmlns="http://www.w3.org/2000/svg">
<g clip-path="url(#clip0_3960_46477)">
<path d="M9.49081 25.375C20.0542 25.375 25.8336 16.6212 25.8336 9.03222C25.8336 8.78612 25.8282 8.53456 25.8172 8.28847C26.9415 7.47542 27.9117 6.46834 28.6823 5.31456C27.6352 5.78041 26.5235 6.08466 25.3852 6.2169C26.5838 5.49844 27.4813 4.36976 27.9112 3.04011C26.7836 3.70836 25.5505 4.17976 24.2646 4.43409C23.3983 3.51353 22.2528 2.90401 21.0053 2.69977C19.7577 2.49553 18.4777 2.70794 17.363 3.30416C16.2483 3.90038 15.3611 4.8472 14.8385 5.99824C14.3158 7.14928 14.187 8.44043 14.4717 9.67206C12.1885 9.55748 9.95489 8.96437 7.91561 7.93116C5.87633 6.89795 4.07694 5.44772 2.63409 3.67448C1.90076 4.93883 1.67636 6.43497 2.0065 7.85882C2.33664 9.28267 3.19654 10.5274 4.41144 11.34C3.49936 11.3111 2.60727 11.0655 1.80886 10.6236V10.6947C1.80804 12.0216 2.26674 13.3077 3.10699 14.3346C3.94724 15.3615 5.11717 16.0657 6.41792 16.3275C5.57303 16.5587 4.68628 16.5924 3.82628 16.426C4.19333 17.5671 4.90747 18.5651 5.86903 19.2808C6.83059 19.9965 7.9916 20.3941 9.19003 20.4182C7.15546 22.0163 4.64217 22.8832 2.05495 22.8791C1.59613 22.8784 1.13776 22.8503 0.682297 22.7949C3.31063 24.4811 6.36808 25.3767 9.49081 25.375Z" fill="white"/>
</g>
<defs>
<clipPath id="clip0_3960_46477">
<rect width="28" height="28" fill="white" transform="translate(0.682297)"/>
</clipPath>
</defs>
</svg>
