<svg width="20" height="20" viewBox="0 0 20 20" fill="none" xmlns="http://www.w3.org/2000/svg">
<path d="M14.9934 4.8746C14.9862 4.75222 14.8878 4.65621 14.7655 4.64898C14.7655 4.64898 14.6599 4.64185 14.4679 4.64185C13.556 4.64185 10.4291 4.79304 8.48064 6.74394C7.86872 7.35349 7.33357 8.02783 6.91603 8.69973C6.6065 8.54131 6.26095 8.45497 5.91539 8.45497C5.35388 8.45497 4.82109 8.67816 4.41553 9.08603L3.06933 10.4299C3.00213 10.4971 2.98054 10.6002 3.01893 10.6915C3.05488 10.7802 3.14366 10.8402 3.23967 10.8402H5.99698C5.77858 11.8409 5.937 12.6664 6.45534 13.1846C6.9689 13.6982 7.80877 13.8614 8.80219 13.6429V16.4004C8.80219 16.4964 8.85981 16.5852 8.9486 16.6212C8.97976 16.6356 9.01092 16.6404 9.04217 16.6404C9.10458 16.6404 9.16455 16.6164 9.21016 16.5708L10.5564 15.2269C11.2307 14.5501 11.3747 13.5519 10.9428 12.7241C11.6147 12.3065 12.2866 11.7714 12.8985 11.1594C15.1901 8.86786 15.0006 5.03539 14.9934 4.87473L14.9934 4.8746ZM12.4977 8.8606C12.2698 9.08855 11.965 9.21574 11.6386 9.21574C11.3146 9.21574 11.0099 9.08857 10.7795 8.8606C10.5516 8.63019 10.4243 8.32544 10.4243 8.00147C10.4243 7.6775 10.5515 7.37033 10.7795 7.14235C11.0099 6.91194 11.3146 6.78477 11.6386 6.78477C11.9649 6.78477 12.2697 6.91194 12.4977 7.14235C12.9729 7.61508 12.9729 8.38541 12.4977 8.86057V8.8606Z" fill="#2C7DF7"/>
</svg>
