<svg width="20" height="20" viewBox="0 0 20 20" fill="none" xmlns="http://www.w3.org/2000/svg">
<path d="M11.4243 7.50628L8.60712 7.52399C8.40557 7.52359 8.21237 7.44335 8.06983 7.30081C7.92693 7.15791 7.84665 6.96409 7.84665 6.762C7.84665 6.5599 7.92693 6.36609 8.06983 6.22318C8.21273 6.08028 8.40655 6 8.60865 6L13.2318 6C13.3296 6.00281 13.4259 6.02466 13.5155 6.06417L13.5256 6.06842C13.7094 6.14516 13.8554 6.29131 13.9321 6.47508L13.9366 6.48515C13.9761 6.5747 13.9978 6.67104 14.0007 6.76885L14.0007 11.392L14.0007 11.3943C14.0011 11.4942 13.9817 11.5931 13.9437 11.6855C13.9056 11.7779 13.8497 11.8618 13.7791 11.9324C13.7084 12.003 13.6245 12.059 13.5321 12.097C13.4398 12.1351 13.3408 12.1544 13.2409 12.154H13.2364C13.1365 12.1544 13.0375 12.1351 12.9452 12.097C12.8528 12.059 12.7689 12.003 12.6983 11.9324C12.6276 11.8618 12.5717 11.7779 12.5337 11.6855C12.4957 11.5933 12.4763 11.494 12.4767 11.3943L12.4944 8.57633L7.29166 13.779C7.14977 13.9209 6.95731 14.0007 6.75664 14.0007C6.55597 14.0007 6.36351 13.9209 6.22161 13.779C6.07972 13.6371 6 13.4447 6 13.244C6 13.0433 6.07972 12.8509 6.22161 12.709L11.4243 7.50628Z" fill="#2C7DF7"/>
</svg>
