<svg width="60" height="50" viewBox="0 0 60 50" fill="none" xmlns="http://www.w3.org/2000/svg">
<path d="M44.2841 10.8472C44.2841 10.5817 44.081 10.375 43.82 10.375L32.102 10.3752C31.841 10.3752 31.6379 10.5819 31.6379 10.8474V18.5204L29.8686 16.7202C29.6946 16.5432 29.3755 16.5432 29.2015 16.7202L28.0414 17.9006C27.8675 18.0776 27.8675 18.4022 28.0414 18.5793L32.6242 23.2421C32.7982 23.4191 33.1173 23.4191 33.2913 23.2421L37.8741 18.5793C38.0481 18.4023 38.0481 18.0776 37.8741 17.9006L36.714 16.7202C36.54 16.5432 36.2209 16.5432 36.0469 16.7202L34.2776 18.5204L34.2774 13.0313H43.849C44.11 13.0313 44.3132 12.8246 44.3132 12.5591L44.2841 10.8472Z" fill="#9D5CFF"/>
<path d="M41.1143 27.203C40.4442 27.497 39.3368 27.8204 37.8215 28.2319C37.4135 28.908 36.6267 29.7311 34.9949 30.1133C34.6743 30.1721 34.2955 30.2308 33.8584 30.2603C32.8677 30.3191 31.702 30.2603 30.449 30.2014H30.1868C29.7498 30.1721 29.4 29.8488 29.3418 29.4372C29.3128 29.1727 29.4002 28.9375 29.575 28.7612C29.7498 28.5848 29.9829 28.4671 30.2452 28.4966L30.5366 28.526C32.1684 28.6141 33.6838 28.673 34.6162 28.4671C36.2479 28.1144 36.6852 27.0855 36.5395 26.2918C36.423 25.6743 35.9567 25.0278 35.1989 25.116C33.9167 25.263 32.4306 25.2042 30.9736 25.1749C30.3909 25.1456 29.8663 25.1456 29.3418 25.1456C28.118 25.1456 27.1563 25.2044 26.4278 25.3219C25.0582 25.5278 22.4064 26.6447 20.1336 28.3203C18.9388 29.2023 17.6275 30.2605 16.9281 30.7895C16.7823 30.907 16.6949 31.0541 16.6949 31.2304C16.6658 31.4067 16.724 31.5831 16.8406 31.7301L20.5706 36.1393C20.6871 36.2863 20.8328 36.3745 21.0076 36.3745C21.1824 36.3745 21.3572 36.3452 21.503 36.2275L22.7559 35.1692C23.1055 34.8752 23.6008 34.7577 24.0381 34.9047C26.311 35.5514 28.8754 35.9629 30.5363 35.9923H30.5947C34.0624 35.9923 40.6189 31.6417 42.6587 30.0837C43.562 29.4076 43.5913 28.4669 43.2414 27.8497C42.892 27.2322 42.1052 26.7914 41.1145 27.2029L41.1143 27.203Z" fill="#9D5CFF"/>
<rect width="60" height="50" rx="12" fill="#9D5CFF" fill-opacity="0.1"/>
</svg>
