<svg width="30" height="30" viewBox="0 0 30 30" fill="none" xmlns="http://www.w3.org/2000/svg">
<path fill-rule="evenodd" clip-rule="evenodd" d="M27.0978 15.003C27.0978 21.6839 21.6819 27.0998 15.0011 27.0998C8.32021 27.0998 2.9043 21.6839 2.9043 15.003C2.9043 8.32216 8.32021 2.90625 15.0011 2.90625C21.6819 2.90625 27.0978 8.32216 27.0978 15.003ZM16.3449 9.62773C16.3449 10.37 15.7431 10.9718 15.0008 10.9718C14.2585 10.9718 13.6567 10.37 13.6567 9.62773C13.6567 8.88541 14.2585 8.28364 15.0008 8.28364C15.7431 8.28364 16.3449 8.88541 16.3449 9.62773ZM16.2761 21.7224V13.6579H13.726V21.7224H16.2761Z" fill="#396CDB"/>
</svg>
