<svg width="22" height="22" viewBox="0 0 22 22" fill="none" xmlns="http://www.w3.org/2000/svg">
<path d="M18.9678 9.05159C18.976 9.17892 18.9309 9.30396 18.8433 9.39691C18.7556 9.48973 18.6334 9.54212 18.5057 9.54132H12.3943V3.43174C12.3935 3.30407 12.4459 3.18187 12.5387 3.0943C12.6317 3.0066 12.7567 2.9615 12.8841 2.9697C14.4585 3.08689 15.9385 3.76533 17.0549 4.88144C18.1712 5.99755 18.85 7.47732 18.9676 9.05158L18.9678 9.05159ZM17.4772 11.7146C17.4772 13.6384 16.713 15.4835 15.3527 16.8439C13.9922 18.2043 12.1472 18.9686 10.2235 18.9688C8.29957 18.969 6.45451 18.2049 5.09409 16.8447C3.73354 15.4845 2.96898 13.6396 2.96875 11.7156C2.96841 9.79182 3.73238 7.94667 5.09248 6.58598C6.45267 5.22534 8.29762 4.46079 10.2213 4.46035C10.432 4.46035 10.634 4.54383 10.7831 4.69269C10.9321 4.84143 11.0161 5.04323 11.0165 5.25382V10.9194H16.6822C16.8931 10.9194 17.0952 11.0031 17.2444 11.1523C17.3935 11.3013 17.4773 11.5036 17.4773 11.7145L17.4772 11.7146ZM15.8314 12.5096H10.2211C10.0103 12.5096 9.80805 12.4259 9.65897 12.2767C9.50978 12.1276 9.42607 11.9254 9.42607 11.7146V6.10443C8.02943 6.3026 6.75691 7.01453 5.85765 8.10113C4.95812 9.18776 4.49641 10.5708 4.56259 11.98C4.62887 13.389 5.21837 14.7227 6.21583 15.7201C7.21317 16.7175 8.54683 17.307 9.95598 17.3733C11.365 17.4395 12.7481 16.9778 13.8349 16.0783C14.9216 15.1789 15.6335 13.9064 15.8316 12.5099L15.8314 12.5096Z" fill="#E2D2F9"/>
</svg>
