<svg width="24" height="24" viewBox="0 0 24 24" fill="none" xmlns="http://www.w3.org/2000/svg">
<g clip-path="url(#clip0_1644_23217)">
<path d="M19.3334 7.4376C19.3359 7.18774 19.1882 6.96579 18.9571 6.87179L12.233 4.10279C12.1206 4.05472 11.9976 4.042 11.8778 4.06603L11.5506 4.13106V4.1922L5.04175 6.87214L4.79048 6.97604V7.06404C4.7099 7.16936 4.66537 7.29906 4.66678 7.43336V16.5458C4.67208 16.7879 4.82016 17.0027 5.04211 17.0925L11.7729 19.864C11.8457 19.8933 11.922 19.9085 11.9998 19.9085C12.0775 19.9085 12.1546 19.8933 12.2288 19.8633L18.9553 17.0936C19.1797 17.0027 19.3281 16.7872 19.3331 16.544V7.4376H19.3334ZM5.87546 16.1291V8.33138L11.3958 10.6063V18.404L5.87546 16.1291ZM17.1423 7.43301L12.0001 9.54819L6.85795 7.43301L12.0001 5.31252L17.1423 7.43301ZM12.6045 18.404V10.6063L18.1248 8.33138V16.1291L12.6045 18.404V18.404Z" fill="#9D5CFF"/>
</g>
<defs>
<clipPath id="clip0_1644_23217">
<rect width="14.6667" height="15.8541" fill="white" transform="translate(4.66675 4.0542)"/>
</clipPath>
</defs>
</svg>
