<svg width="24" height="24" viewBox="0 0 24 24" fill="none" xmlns="http://www.w3.org/2000/svg">
<g clip-path="url(#clip0_1644_24690)">
<path d="M19.3334 7.43736C19.3359 7.18749 19.1882 6.96555 18.9571 6.87154L12.233 4.10254C12.1206 4.05448 11.9976 4.04176 11.8778 4.06579L11.5506 4.13082V4.19196L5.04175 6.87189L4.79048 6.9758V7.0638C4.7099 7.16912 4.66537 7.29882 4.66678 7.43312V16.5455C4.67208 16.7876 4.82016 17.0025 5.04211 17.0923L11.7729 19.8637C11.8457 19.8931 11.922 19.9083 11.9998 19.9083C12.0775 19.9083 12.1546 19.8931 12.2288 19.863L18.9553 17.0933C19.1797 17.0025 19.3281 16.7869 19.3331 16.5438V7.43736H19.3334ZM5.87546 16.1289V8.33114L11.3958 10.6061V18.4038L5.87546 16.1289ZM17.1423 7.43276L12.0001 9.54794L6.85795 7.43276L12.0001 5.31228L17.1423 7.43276ZM12.6045 18.4038V10.6061L18.1248 8.33114V16.1289L12.6045 18.4038Z" fill="#9F9DA3"/>
</g>
<defs>
<clipPath id="clip0_1644_24690">
<rect width="14.6667" height="15.8541" fill="white" transform="translate(4.66675 4.0542)"/>
</clipPath>
</defs>
</svg>
