<svg width="16" height="16" viewBox="0 0 16 16" fill="none" xmlns="http://www.w3.org/2000/svg">
<path d="M7.99645 1.26129C7.02965 1.26129 6.10249 1.64534 5.41899 2.32895C4.73538 3.01255 4.35133 3.9398 4.35133 4.90641V6.93155H3.94628C3.51657 6.93155 3.10455 7.10229 2.80073 7.40611C2.49684 7.70993 2.32617 8.12202 2.32617 8.55175V12.602C2.32617 13.0316 2.49682 13.4438 2.80073 13.7476C3.10455 14.0514 3.51654 14.2221 3.94628 14.2221H12.0468C12.4765 14.2221 12.8886 14.0514 13.1924 13.7476C13.4963 13.4438 13.6669 13.0317 13.6669 12.602V8.55175C13.6669 8.12204 13.4963 7.70993 13.1924 7.40611C12.8886 7.10229 12.4766 6.93155 12.0468 6.93155H11.6418V4.90641C11.6418 3.9397 11.2577 3.01246 10.5741 2.32895C9.89051 1.64534 8.96336 1.26129 7.99665 1.26129H7.99645ZM9.61654 6.93167H6.37632V4.90654C6.37632 4.32773 6.68513 3.79293 7.18633 3.50353C7.68762 3.21413 8.30522 3.21413 8.80651 3.50353C9.30771 3.79293 9.61651 4.32776 9.61651 4.90654L9.61654 6.93167Z" fill="#9D5CFF"/>
</svg>
