<svg width="25" height="24" viewBox="0 0 25 24" fill="none" xmlns="http://www.w3.org/2000/svg">
<g clip-path="url(#clip0_1644_24699)">
<path d="M7.09493 11.4644C7.56754 10.6521 8.22132 9.94995 8.99899 9.41695L7.85154 8.24162C7.75615 8.1453 7.70381 8.00408 7.70381 7.84303V3.58335C7.70381 3.25104 7.9398 3.00049 8.25291 3.00049H16.8404C17.1563 3.00049 17.4233 3.25197 17.4233 3.54959V7.84334C17.4233 8.02761 17.3489 8.17875 17.2173 8.26671L16.0965 9.41478C17.8231 10.5771 18.8433 12.492 18.8433 14.6051C18.8433 18.0772 16.0188 20.9017 12.5467 20.9017C9.07456 20.9017 6.25005 18.0772 6.25005 14.6051C6.25005 13.5007 6.5421 12.4146 7.09493 11.4644ZM12.5467 9.44049C11.166 9.44049 9.86864 9.9772 8.894 10.9522C7.91936 11.9271 7.38233 13.2241 7.38233 14.6048C7.38233 15.9855 7.91905 17.2828 8.894 18.2575C9.86864 19.2321 11.166 19.7691 12.5467 19.7691C13.9273 19.7691 15.2247 19.2324 16.1993 18.2575C17.174 17.2828 17.711 15.9855 17.711 14.6048C17.711 13.2241 17.1743 11.9268 16.1993 10.9522C15.2244 9.97751 13.9273 9.44049 12.5467 9.44049ZM8.83609 7.62624L10.0374 8.82758C10.8151 8.48721 11.6782 8.30821 12.5463 8.30821C13.4154 8.30821 14.2795 8.48783 15.0577 8.82851L16.2907 7.62438V4.13277H8.83578V7.62655L8.83609 7.62624Z" fill="#9D5CFF"/>
<path d="M9.62599 13.7415C9.65882 13.5968 9.78022 13.4853 9.9264 13.4646L11.5109 13.2004L12.2257 11.8036L12.2365 11.782C12.2966 11.6618 12.4205 11.5872 12.5592 11.5872C12.6983 11.5872 12.8218 11.6618 12.8822 11.7829L13.5747 13.2007L15.1524 13.4637C15.2834 13.4661 15.3961 13.5445 15.4478 13.669C15.5051 13.8071 15.4741 13.9641 15.3685 14.0698L14.2143 15.1909L14.4772 16.7682C14.5125 16.8825 14.4713 17.0079 14.3691 17.0965C14.2954 17.1603 14.2028 17.1941 14.1124 17.1941C14.0594 17.1941 14.0071 17.1826 13.9594 17.1587L12.5419 16.4006L11.1615 17.1234C11.042 17.2012 10.8924 17.2018 10.7703 17.125C10.6489 17.0485 10.5861 16.9144 10.6062 16.7735L10.8701 15.19L9.7539 14.0738C9.6455 13.9979 9.59626 13.8712 9.62568 13.7412L9.62599 13.7415Z" fill="#9D5CFF"/>
</g>
<defs>
<clipPath id="clip0_1644_24699">
<rect width="12.5932" height="17.9012" fill="white" transform="matrix(-1 0 0 1 18.8433 3.00049)"/>
</clipPath>
</defs>
</svg>
