<svg width="25" height="24" viewBox="0 0 25 24" fill="none" xmlns="http://www.w3.org/2000/svg">
<g clip-path="url(#clip0_1644_23226)">
<path d="M7.09493 11.4644C7.56754 10.6521 8.22132 9.94995 8.99899 9.41695L7.85154 8.24162C7.75615 8.1453 7.70381 8.00408 7.70381 7.84303V3.58335C7.70381 3.25104 7.9398 3.00049 8.25291 3.00049H16.8404C17.1563 3.00049 17.4233 3.25197 17.4233 3.54959V7.84334C17.4233 8.02761 17.3489 8.17875 17.2173 8.26671L16.0965 9.41478C17.8231 10.5771 18.8433 12.492 18.8433 14.6051C18.8433 18.0772 16.0188 20.9017 12.5467 20.9017C9.07456 20.9017 6.25005 18.0772 6.25005 14.6051C6.25005 13.5007 6.5421 12.4146 7.09493 11.4644ZM12.5467 9.44049C11.166 9.44049 9.86864 9.9772 8.894 10.9522C7.91936 11.9271 7.38233 13.2241 7.38233 14.6048C7.38233 15.9855 7.91905 17.2828 8.894 18.2575C9.86864 19.2321 11.166 19.7691 12.5467 19.7691C13.9273 19.7691 15.2247 19.2324 16.1993 18.2575C17.174 17.2828 17.711 15.9855 17.711 14.6048C17.711 13.2241 17.1743 11.9268 16.1993 10.9522C15.2244 9.97751 13.9273 9.44049 12.5467 9.44049ZM8.83609 7.62624L10.0374 8.82758C10.8151 8.48721 11.6782 8.30821 12.5463 8.30821C13.4154 8.30821 14.2795 8.48783 15.0577 8.82851L16.2907 7.62438V4.13277H8.83578V7.62655L8.83609 7.62624Z" fill="#9F9DA3"/>
<path d="M9.62587 13.7415C9.6587 13.5968 9.7801 13.4853 9.92628 13.4646L11.5107 13.2004L12.2255 11.8036L12.2364 11.782C12.2965 11.6618 12.4203 11.5872 12.5591 11.5872C12.6981 11.5872 12.8217 11.6618 12.8821 11.7829L13.5746 13.2007L15.1522 13.4637C15.2832 13.4661 15.396 13.5445 15.4477 13.669C15.505 13.8071 15.474 13.9641 15.3684 14.0698L14.2141 15.1909L14.4771 16.7682C14.5124 16.8825 14.4712 17.0079 14.369 17.0965C14.2953 17.1603 14.2027 17.1941 14.1122 17.1941C14.0593 17.1941 14.007 17.1826 13.9593 17.1587L12.5417 16.4006L11.1614 17.1234C11.0418 17.2012 10.8923 17.2018 10.7702 17.125C10.6488 17.0485 10.586 16.9144 10.6061 16.7735L10.87 15.19L9.75378 14.0738C9.64538 13.9979 9.59614 13.8712 9.62556 13.7412L9.62587 13.7415Z" fill="#9F9DA3"/>
</g>
<defs>
<clipPath id="clip0_1644_23226">
<rect width="12.5932" height="17.9012" fill="white" transform="matrix(-1 0 0 1 18.8433 3.00049)"/>
</clipPath>
</defs>
</svg>
