<svg width="20" height="20" viewBox="0 0 20 20" fill="none" xmlns="http://www.w3.org/2000/svg">
<path d="M10.0007 17.9594C8.23247 17.9594 6.53684 17.257 5.28655 16.0068C4.03638 14.7565 3.33398 13.0608 3.33398 11.2927C3.33398 9.52457 4.03638 7.82889 5.28655 6.5786C6.53688 5.32843 8.23251 4.62604 10.0007 4.62604C11.7688 4.62604 13.4645 5.32843 14.7148 6.5786C15.9649 7.82894 16.6673 9.52457 16.6673 11.2927C16.6673 13.0608 15.9649 14.7565 14.7148 16.0068C13.4644 17.257 11.7688 17.9594 10.0007 17.9594ZM10.0007 6.10744C8.62549 6.10744 7.30654 6.65373 6.33413 7.62614C5.36172 8.59855 4.81543 9.9175 4.81543 11.2927C4.81543 12.6678 5.36172 13.9868 6.33413 14.9592C7.30654 15.9316 8.62549 16.4779 10.0007 16.4779C11.3758 16.4779 12.6948 15.9316 13.6672 14.9592C14.6396 13.9868 15.1859 12.6678 15.1859 11.2927C15.1859 9.9175 14.6396 8.59855 13.6672 7.62614C12.6948 6.65373 11.3758 6.10744 10.0007 6.10744Z" fill="#9C5BFF"/>
<path d="M11.4859 13.5177C11.289 13.5188 11.0998 13.4415 10.96 13.3029L9.47847 11.8214C9.33991 11.6815 9.26252 11.4924 9.26368 11.2954V9.07319C9.26368 8.80848 9.40489 8.56394 9.63406 8.43167C9.86323 8.29939 10.1456 8.29939 10.3748 8.43167C10.604 8.56394 10.7452 8.80848 10.7452 9.07319V10.9917L12.0119 12.2509C12.1521 12.39 12.231 12.5793 12.231 12.7769C12.231 12.9745 12.1521 13.1638 12.0119 13.3029C11.872 13.4415 11.6829 13.5188 11.4859 13.5177H11.4859Z" fill="#9C5BFF"/>
<path d="M12.2223 3.14775H7.77784C7.51313 3.14775 7.26859 3.00655 7.13632 2.77738C7.00404 2.54821 7.00404 2.2658 7.13632 2.03663C7.26859 1.80747 7.51314 1.66626 7.77784 1.66626H12.2223C12.487 1.66626 12.7316 1.80746 12.8638 2.03663C12.9961 2.2658 12.9961 2.54821 12.8638 2.77738C12.7316 3.00654 12.487 3.14775 12.2223 3.14775Z" fill="#9C5BFF"/>
</svg>
