<svg width="29" height="44" viewBox="0 0 29 44" fill="none" xmlns="http://www.w3.org/2000/svg">
<rect width="29" height="44" rx="2" fill="#1E0C3A"/>
<path d="M19.9331 26.8495L18.3837 25.3001C18.1049 25.0214 18.3027 24.5459 18.6961 24.5459H19.9489C21.3679 24.5459 22.5187 23.3952 22.5187 21.9762H6.53809C6.53809 23.3952 7.68888 24.5459 9.10791 24.5459H10.3607C10.7542 24.5459 10.9519 25.0214 10.6732 25.3001L9.12369 26.8495C8.95117 27.022 8.95117 27.3018 9.12369 27.4743L10.3155 28.6661C10.488 28.8386 10.7678 28.8386 10.9403 28.6661L12.4898 27.1167C12.7686 26.838 13.244 27.0357 13.244 27.4291V29.3372C13.244 29.5812 13.4418 29.779 13.6858 29.779H15.372C15.6161 29.779 15.8138 29.5812 15.8138 29.3372V27.4291C15.8138 27.0357 16.2893 26.838 16.5681 27.1167L18.1175 28.6661C18.29 28.8386 18.5699 28.8386 18.7424 28.6661L19.9342 27.4743C20.1067 27.3018 20.1067 27.022 19.9342 26.8495H19.9331Z" fill="#9D5CFF"/>
<path d="M14.5247 16.5413C16.4023 16.5413 18.0528 17.5333 18.9785 19.0206H10.0709C10.9976 17.5333 12.648 16.5413 14.5257 16.5413H14.5247ZM14.5257 13.7781C10.1098 13.7781 6.51855 17.3692 6.51855 21.7839H22.5308C22.5308 17.3692 18.9395 13.7781 14.5247 13.7781H14.5257Z" fill="#3F2566"/>
<path d="M14.5245 16.5356C11.6254 16.5356 9.27441 18.8855 9.27441 21.7855H19.7746C19.7746 18.8866 17.4236 16.5356 14.5245 16.5356V16.5356Z" fill="#5E3799"/>
<path d="M17.0145 21.7841H12.041C12.041 20.4125 13.156 19.2975 14.5277 19.2975C15.8994 19.2975 17.0145 20.4125 17.0145 21.7841Z" fill="#9D5CFF"/>
</svg>
