<svg width="15" height="16" viewBox="0 0 15 16" fill="none" xmlns="http://www.w3.org/2000/svg">
<path d="M13.0368 12.8576L13.0207 12.8422H12.1769V7.12269C12.1769 6.96832 12.1145 6.8236 11.9997 6.71553C11.8849 6.60554 11.7339 6.54572 11.5728 6.54572H11.0311V6.09804C11.0311 5.70053 10.878 5.32039 10.5981 5.02708L7.90168 2.19241C7.67816 1.95506 7.29554 1.93384 7.04785 2.14803C6.80016 2.36222 6.78002 2.72886 7.00355 2.96813L9.71206 5.81438C9.78656 5.8935 9.82885 5.99384 9.82885 6.09804V6.54572H6.192L5.99868 6.18102C5.93021 6.04208 5.80335 5.93209 5.6503 5.88192C5.49725 5.83175 5.32608 5.8414 5.18109 5.91087C5.0361 5.98033 4.92535 6.10576 4.87702 6.25435C4.82869 6.40293 4.8448 6.56502 4.9193 6.69624L6.63503 9.95736C6.6894 10.0616 6.69746 10.1851 6.65718 10.2951C6.61691 10.405 6.53031 10.4957 6.41956 10.5459C6.3088 10.5961 6.17992 10.598 6.06916 10.5575L6.01882 10.5382C5.92417 10.5015 5.84362 10.4359 5.79126 10.3491L4.65147 8.4831C4.60113 8.40013 4.54273 8.32101 4.47628 8.24768L3.11498 6.72904C2.96596 6.56309 2.88339 6.35083 2.88138 6.13085L2.85319 2.64009C2.85319 2.48572 2.79076 2.341 2.67598 2.231C2.56321 2.12294 2.40815 2.06119 2.24906 2.06119C1.92082 2.06119 1.65097 2.3217 1.65097 2.64202L1.67916 6.13664C1.68521 6.6287 1.87249 7.10533 2.20878 7.47775L2.87131 8.21681V12.8461H2.10407C1.7718 12.8461 1.50195 13.1046 1.50195 13.423C1.50195 13.7414 1.7718 14 2.10407 14H12.8998C13.2321 14 13.502 13.7414 13.502 13.423C13.502 13.151 13.3066 12.9194 13.0368 12.8615V12.8576ZM7.64392 10.9762C7.94599 10.5035 7.97217 9.92456 7.71038 9.43057L6.79814 7.70159H10.9707V12.8441H4.06346V9.80299L4.75015 10.9299C4.93541 11.2348 5.22741 11.4741 5.56975 11.6053L5.63218 11.6284C5.8255 11.6998 6.02889 11.7365 6.23832 11.7365C6.81627 11.7346 7.34387 11.4509 7.64594 10.9782L7.64392 10.9762Z" fill="#452960"/>
</svg>
