<svg width="19" height="20" viewBox="0 0 19 20" fill="none" xmlns="http://www.w3.org/2000/svg">
<path d="M11.8168 1.92261C10.4394 2.47663 8.9906 3.21532 7.39017 3.96789C7.3047 4.00839 7.22878 4.06869 7.16992 4.14273C6.63211 4.81475 6.38103 5.72137 6.19159 6.66815C6.01646 7.54363 5.91769 8.44533 5.82224 9.22596L2.60875 13.2665C2.41655 13.509 2.44649 13.898 2.67353 14.1083L5.57594 16.7567H2.47266V18H15.1192V16.7567H9.78068L14.1344 11.7837C14.3437 11.549 14.3317 11.1504 14.1085 10.9288L13.0136 9.83452C13.181 9.67617 13.3387 9.51767 13.4865 9.34891C14.0268 8.73184 14.3833 7.96175 14.4648 6.99835L17.0701 5.70319C17.2663 5.59603 17.3958 5.37636 17.394 5.15279L17.3998 1.6275C17.3973 1.31875 17.1313 1.03486 16.8232 1.01232C15.1324 0.921353 13.2881 1.34522 11.8168 1.92252L11.8168 1.92261ZM16.1561 2.24278L16.1503 4.78382L13.5775 6.05947C13.3831 6.16562 13.2541 6.38211 13.2535 6.60335C13.2535 7.51471 13.0294 7.9834 12.5539 8.52658C12.0784 9.06961 11.4238 9.75813 10.4703 10.605C10.2785 10.7931 9.93653 11.153 9.69689 10.9548C9.5219 10.7385 9.86045 10.4921 9.91685 10.4177C10.2739 10.044 10.7053 9.72471 11.2453 9.07684C11.4438 8.84054 11.4259 8.4521 11.2064 8.23504L9.13318 6.16284C8.88474 5.91743 8.42241 5.9465 8.2068 6.22112L7.35153 7.29604C7.37308 7.16617 7.38465 7.03342 7.40981 6.90746C7.57264 6.09373 7.81949 5.40247 8.09008 5.01663C9.5887 4.31263 10.9245 3.64798 12.1558 3.14486C13.6031 2.62497 14.7254 2.22918 16.1559 2.24247L16.1561 2.24278ZM8.75107 7.5424L9.91725 8.70798C9.5547 9.11407 9.17926 9.51509 8.90001 9.88008C8.43376 10.4529 8.28164 11.2393 8.66675 11.8098C9.54382 12.5333 10.5355 12.0493 11.1804 11.4212C11.4776 11.1521 11.8049 10.8825 12.0744 10.6571L12.8195 11.4017L8.12886 16.7568H7.42923L3.94374 13.5773C5.55039 11.5576 7.15709 9.56421 8.75097 7.5421L8.75107 7.5424Z" fill="black"/>
</svg>
