<svg width="19" height="20" viewBox="0 0 19 20" fill="none" xmlns="http://www.w3.org/2000/svg">
<path d="M13.272 12.8433H13.7094C14.2896 12.8433 14.846 12.6127 15.2562 12.2026C15.6664 11.7923 15.8968 11.236 15.8968 10.6559V5.1874C15.8968 4.60715 15.6664 4.05081 15.2562 3.64067C14.846 3.23038 14.2896 3 13.7094 3H4.95986C4.37973 3 3.82327 3.2304 3.41313 3.64067C3.00284 4.05081 2.77246 4.60711 2.77246 5.1874V10.6559C2.77246 11.236 3.00286 11.7923 3.41313 12.2026C3.82327 12.6127 4.37973 12.8433 4.95986 12.8433H5.3973C5.70993 12.8433 5.99875 12.6765 6.15499 12.4057C6.31139 12.135 6.31139 11.8015 6.15499 11.5308C5.99875 11.2601 5.7099 11.0934 5.3973 11.0934H4.95986C4.71817 11.0934 4.52242 10.8974 4.52242 10.6559V8.24971H14.147V10.6559C14.147 10.7719 14.1009 10.8831 14.0188 10.9652C13.9368 11.0473 13.8255 11.0934 13.7095 11.0934H13.2721C12.9594 11.0934 12.6706 11.2601 12.5144 11.5308C12.358 11.8015 12.358 12.135 12.5144 12.4057C12.6706 12.6765 12.9595 12.8433 13.2721 12.8433L13.272 12.8433ZM4.52242 6.49983V5.18747C4.52242 4.94579 4.71818 4.74988 4.95986 4.74988H13.7094C13.8254 4.74988 13.9368 4.79596 14.0187 4.87804C14.1008 4.96013 14.1469 5.07136 14.1469 5.18748V6.49999L4.52242 6.49983Z" fill="black"/>
<path d="M12.2174 14.0773C12.0451 13.9684 11.8408 13.922 11.6385 13.946C11.4362 13.9699 11.2482 14.0625 11.1062 14.2086L10.2093 15.1054V12.1875C10.2093 11.8749 10.0425 11.586 9.77185 11.4298C9.50118 11.2734 9.16763 11.2734 8.89698 11.4298C8.6263 11.586 8.45954 11.8749 8.45954 12.1875V15.1054L7.58466 14.2306H7.5845C7.43818 14.0772 7.24303 13.9797 7.03262 13.955C6.82221 13.9303 6.60967 13.9797 6.43175 14.0949C6.21829 14.2426 6.08142 14.4774 6.05823 14.7361C6.03488 14.9947 6.1278 15.2501 6.31151 15.4335L8.31946 17.4372C8.45542 17.5783 8.61837 17.6906 8.79858 17.7675C9.05553 17.8734 9.33797 17.9009 9.61046 17.8464C9.88297 17.7919 10.1334 17.6578 10.3297 17.4613L12.3618 15.4292C12.5479 15.2422 12.6398 14.9812 12.6118 14.7188C12.5838 14.4565 12.4388 14.2208 12.2174 14.0773L12.2174 14.0773Z" fill="black"/>
</svg>
